<?xml version="1.0" encoding="utf-8"?>
<!-- Generator: Adobe Illustrator 21.0.2, SVG Export Plug-In . SVG Version: 6.00 Build 0)  -->
<svg version="1.1" id="Layer_1" xmlns="http://www.w3.org/2000/svg" xmlns:xlink="http://www.w3.org/1999/xlink" x="0px" y="0px"
	 viewBox="0 0 846.8 508.4" style="enable-background:new 0 0 846.8 508.4;" xml:space="preserve">
<style type="text/css">
	.st0{fill:#B3D9F8;}
	.st1{fill:#C7CAD7;}
	.st2{fill:#F3F4F5;}
	.st3{fill:#FAFAFA;}
	.st4{fill:#ECEDEE;}
	.st5{fill:#FDD118;}
	.st6{fill:#DFE1E3;}
	.st7{fill:#1B8AE5;}
	.st8{fill:#0099FF;}
	.st9{fill:none;stroke:#C7CAD7;stroke-width:0.5;stroke-miterlimit:10;}
	.st10{fill:#FCC1BE;}
	.st11{fill:#FFFFFF;}
	.st12{fill:#2A4494;}
	.st13{fill:#515151;}
</style>
<g>
	<path class="st0" d="M480,188.1c0,0,42.3,10.6,51,18.5l-59,20L480,188.1z"/>
	<path class="st1" d="M640.9,164.2c0,0,42.3,10.6,51,18.5l-59,20L640.9,164.2z"/>
	<g>
		<path class="st2" d="M377.1,327.5c1.2-2.5,0.7-5.3-2-8.4l-45,3.6c-0.6,0.1-1.3-0.1-1.6-0.7c-3.3-5.5-10.7-8.5-18.4-7.1
			c-6.2,1.2-11,5-13,9.7c-0.4,0.9-1.5,1.1-2.3,0.6c-5.3-3.5-12.3-5-19.6-3.6c-7.3,1.4-13.2,5.5-16.6,10.6c-0.5,0.8-1.8,0.9-2.4,0.2
			c-1.4-1.5-3-2.8-4.9-3.8c-0.5-0.3-0.8-0.8-0.8-1.3c0.1-1,0-2-0.2-3c-1.4-6.4-8.9-10.5-16.7-9c-3.2,0.6-6,2.1-8,4
			c-0.5,0.4-1.1,0.5-1.7,0.3c-2.8-1.3-6.3-1.7-9.8-1c-0.3,0.1-0.5,0.1-0.8,0.2c0-0.9,0-1.9-0.2-2.8c-1.4-6.5-8.9-10.5-16.7-9
			c-0.3,0.1-0.7,0.1-1,0.2c1.9-3.1,2.6-6.6,1.8-10.2c-1.8-7.9-10.4-13-19.9-12.1c-0.8,0.1-1.6-0.5-1.6-1.3c0-0.7-0.2-1.3-0.3-2
			c-1.3-6-6.7-10.5-13.4-11.8c-0.8-0.2-1.4-1-1.1-1.8c0.7-2.2,0.9-4.6,0.3-6.9c-1.9-8.5-11.7-13.8-22-11.8c-6,1.1-10.8,4.5-13.4,8.8
			c-0.3,0.5-1,0.8-1.6,0.6c-2.1-0.5-4.4-0.6-6.8-0.1c-7.4,1.4-12.4,7.6-11,13.8c0.7,3.2,3,5.8,6.1,7.3c1,0.5,1,1.8,0,2.4
			c-5.3,3-8.6,8.1-8.3,13.5c0.1,0.8-0.5,1.4-1.3,1.5c-1.3,0.1-2.7,0.3-4,0.6c-9.8,1.9-17.9,6.8-23.1,13.4c-1.1,1.4-2.1,2.9-3,4.4
			c-0.4,0.7-1.4,1-2.1,0.5c-1.9-1.2-3.9-2.3-6.1-3.1c-4.2-1-8.6-1.5-13.1-1.4c-0.7,0-1.4,0-2.1,0.1c-4.4,2.7-7.9,6.8-10,11.6
			c-1.5-0.4-3.1-0.7-4.7-0.8c-14.1-1-26.4,9.6-27.4,23.8c-0.2,3.4,0.2,6.8,1.2,9.8c-4.4,4-7.5,9.6-8.3,16c0,0.4-0.1,0.8-0.1,1.3
			c-0.5,7.7,2.4,14.8,7.4,19.9c-2.9,3.8-4.8,8.5-5.2,13.7c-0.2,3.2,0.2,6.4,1,9.3c1.2,3.9,3.3,7.4,6,10.2c-2.3,3.5-3.7,7.7-4.1,12.2
			C4.2,452.7,14.9,465,29,466c4,0.3,7.9-0.4,11.5-1.8c3.7,8.5,11.9,14.6,21.7,15.3c1.8,0.1,3.5,0.1,5.2-0.1l0,0
			c3.5-0.9,6.7-2,9.9-3.5c5.3-3.2,9.4-8.3,11.2-14.4c1,0.2,2.1,0.3,3.1,0.4c3.6,0.3,7.1-0.3,10.3-1.4c0.7-0.9,1.3-1.8,1.9-2.7
			c0.4-0.7,1.5-0.9,2.2-0.4c0.3,0.2,0.6,0.4,1,0.7c8.2,5.4,19.5,7.5,30.8,4.9c1.3-0.3,2.6-0.7,3.9-1.1c0.7-0.2,1.5,0.1,1.8,0.8
			c2.2,5,7.6,8.3,13.8,8.9c1.1,0.1,1.8,1.3,1.1,2.2c-2.1,2.6-2.9,5.9-2.1,9.1c1.7,6.1,9,9.7,16.3,8c2.3-0.6,4.4-1.6,6.1-2.9
			c0.5-0.4,1.2-0.4,1.8-0.1c4.3,2.8,10.2,3.9,16.1,2.6c10.2-2.3,16.6-11.1,14.3-19.5c-0.6-2.4-1.9-4.4-3.5-6.1
			c-0.6-0.6-0.5-1.5,0.2-2c5.4-3.9,8.2-10,6.6-16c-0.2-0.7-0.4-1.3-0.7-1.9c-0.3-0.7,0.1-1.6,0.8-1.8c9-3,14.4-11.1,12.3-18.9
			c-1-3.5-3.3-6.4-6.4-8.4c0.3,0,0.7-0.1,1-0.2c7.7-1.8,12.6-8.4,10.9-14.8c-0.2-0.9-0.6-1.8-1.1-2.6c0.3-0.1,0.5-0.1,0.8-0.2
			c3.4-0.8,6.3-2.6,8.3-4.9c0.4-0.4,1-0.6,1.6-0.4c2.7,0.9,5.9,1.1,9.1,0.4c7.7-1.8,12.6-8.4,10.9-14.8c-0.3-1-0.7-1.9-1.2-2.8
			c-0.3-0.4-0.2-1,0.1-1.4c1.2-1.7,2.1-3.5,2.7-5.4c0.3-0.9,1.4-1.3,2.3-0.8c5.4,3.3,12.6,4.6,19.9,2.9c7.2-1.7,12.9-5.9,16-11.1
			c0.5-0.8,1.6-1,2.4-0.4c4,3.4,10.1,4.9,16.2,3.5c7.6-1.8,12.9-7.5,13.3-13.8c0-0.6,0.5-1.1,1.1-1.3l42.2-14.9
			C377.5,330.6,377.5,328.9,377.1,327.5z M202.5,330.3L202.5,330.3L202.5,330.3C202.6,330.3,202.6,330.3,202.5,330.3z M216.2,392.1
			L216.2,392.1C216.2,392.1,216.3,392.1,216.2,392.1L216.2,392.1z"/>
		<polygon class="st2" points="351.6,281.4 276.6,307 291.8,386 401.2,404.1 		"/>
		<g>
			<g>
				<g>
					<polygon class="st3" points="543.4,203.8 418.9,196.9 335.6,151.7 289.3,165.2 288.6,177.8 375.3,258.9 541.5,216.9 					"/>
					<polygon class="st4" points="542.3,215.5 416.9,210 334.8,164.7 289,178 369.3,266.7 543,219.4 					"/>
				</g>
			</g>
			<path class="st5" d="M391.3,418.9c-0.9,0.2-1.9,0.5-2.8,0.7c-3.6,0.9-7.3,1.7-10.9,2.6c0,0-0.8-0.7-2.2-2
				c-0.2-0.2-0.3-0.3-0.5-0.5l0,0c-0.3-0.3-0.6-0.6-1-0.9c-0.3-0.3-0.6-0.6-0.9-0.9c-1.4-1.4-3-3.1-4.8-5.1c-0.5-0.5-1-1.1-1.5-1.7
				c-1.1-1.3-2.3-2.7-3.5-4.2c-0.5-0.6-1-1.2-1.4-1.9l0,0c-0.8-1-1.6-2.1-2.4-3.2c-3-4.2-6.2-8.9-9.2-14.3
				c-2.4-4.2-4.7-8.7-6.9-13.6c-2-4.5-3.9-9.3-5.6-14.3c4.2-0.2,8.4-0.5,12.5-0.9c1.6-0.1,3.2-0.3,4.8-0.4
				C361.8,377.8,373.2,398.5,391.3,418.9z"/>
			<path class="st5" d="M354.9,358.1c-1.6,0.2-3.2,0.3-4.8,0.4c-4.2,0.4-8.4,0.7-12.5,0.9c-1.9-5.8-3.6-12.1-4.9-18.7
				c-3.4-17.4-4.2-37.5-0.1-60c0.2-1.5,0.5-3,0.8-4.4c1.2-5.9,2.7-12,4.6-18.2c0.2-0.7,0.4-1.5,0.7-2.2c0.1-0.4,0.3-0.9,0.4-1.3
				c0,0,4.3-1.7,12.1-4.3l0,0c0.9-0.3,1.8-0.6,2.8-1C354,249.3,334,298.8,354.9,358.1z"/>
			<path class="st3" d="M391.3,418.9c-18.1-20.4-29.5-41.1-36.4-60.8C334,298.7,354,249.3,354,249.3c1-0.3,2-0.7,3.1-1l0,0
				c10.5-3.5,85.4-25.1,103.1-29.6l0,0c2.8-0.7,5.6-1.4,8.5-2.2c6.6-1.6,13.4-3.2,20.6-4.7c7.9-1.7,16.2-3.3,24.7-4.8
				c46.2-8.1,199.5-40.9,251.1-32.4c-2.1,15.1-1.8,36.6,8,62c3.9,10.1,9.2,20.8,16.5,31.9c-30.4,24.4-174.9,80.3-242.7,105
				c-8.2,3-16.7,5.9-25.6,8.8c-7.3,2.4-14.9,4.7-22.7,7C483.8,393.5,407.9,414.9,391.3,418.9z"/>
			<path class="st6" d="M391.3,418.9c-18.1-20.4-29.5-41.1-36.4-60.8c17.5-1.6,95.3-21.4,113-24.9l0,0
				c38.3-7.5,76.5-18.6,112.1-30.9l0,0c16.7-5.8,131.6-40.2,146.9-46.3c16.5-6.6,32-13.2,46.3-19.6c3.9,10.1,9.2,20.8,16.5,31.9
				c-30.4,24.4-174.9,80.3-242.7,105c-8.2,3-16.7,5.9-25.6,8.8c-7.3,2.4-14.9,4.7-22.7,7C483.8,393.5,407.9,414.9,391.3,418.9z"/>
			<path class="st7" d="M789.7,268.4c-7.3-11.2-12.7-21.8-16.5-31.9c31.3-14,56.6-26.7,72.4-35c0.4,0.2,0.8,0.4,1.2,0.6
				C846.8,202.1,835.8,231.5,789.7,268.4z"/>
			<path class="st8" d="M773.2,236.5c-9.8-25.4-10.1-46.8-8-62c28.3,4.6,55.7,13.1,80.5,26.9C829.8,209.8,804.5,222.5,773.2,236.5z"
				/>
			<g>
				<g>
					<polygon class="st3" points="572,341.9 469.7,413.2 422.7,495.5 376.2,508.4 369,498 400,383.5 563.5,331.8 					"/>
					<polygon class="st6" points="564.9,332.5 461.2,403.1 415.1,484.9 369.2,497.6 390.8,380 563.4,328.8 					"/>
				</g>
			</g>
		</g>
		<path class="st4" d="M283.5,302.3c0,0-2.3,63.9,18.2,83.1l-13.6-0.4c0,0-18.8-43.1-13.1-80.2L283.5,302.3z"/>
	</g>
	<path class="st9" d="M530.5,229.5"/>
	<g>
		<g>
			<path class="st10" d="M684.5,118.9c1.2,3.7,0,7.9-3.3,10.4c-2.4,1.8-5.3,2.3-8,1.6c-1.1-0.3-2.2-0.8-3.2-1.5
				c-0.9-0.9-1.7-1.8-2.5-2.7c-7.1-7.6-11.5-11.9-13.7-14.1l18.9-14.2c1.2,2.3,3.4,6.4,7.3,13c0.7,1.2,1.4,2.5,2.3,3.8
				C683.1,116.4,683.8,117.6,684.5,118.9z"/>
			<path class="st8" d="M674.2,97.4l-1.4,1l-18.9,14.2l-1.4,1c-0.4-0.5-0.8-1.1-1.3-1.6c-7.6-10.2-10.7-21.2-8.1-27.3
				c0.5-1.3,1.3-2.3,2.3-3.1c0.2-0.2,0.5-0.3,0.8-0.5c4.4-2.5,11.7-0.1,18.7,5.8c2.8,2.4,5.6,5.3,8.1,8.6
				C673.4,96.3,673.8,96.8,674.2,97.4z"/>
		</g>
		<path class="st10" d="M733.8,158.1c-1.8,2.9-15.6-3.6-31.2-11.5c-9.3-4.7-19.1-9.9-27.3-13.8l0,0c-1.1-0.5-2.2-1.1-3.3-1.6
			c-2.4-1.8-3.7-4.5-3.8-7.3c0-1.8,0.4-3.6,1.4-5.2c2.5-4.1,7.7-5.6,11.9-3.7c1.1,0.9,2.3,1.8,3.4,2.6c1.2,0.9,2.4,1.8,3.6,2.8
			c7.2,5.4,15.6,11.5,23.2,17.1C724.6,147.2,735.3,155.7,733.8,158.1z"/>
		<path class="st1" d="M684,198.8c0.3,1.3,0.7,2.7,1,4.1c6.5,26,17.6,64.6,10.6,67.2c-5.6,2.1-20-27.1-34.8-56.8
			c-1.1-2.1-2.1-4.3-3.2-6.4c-1.3-6.6,2.2-13.3,8.7-15.7C673.4,188.5,681.2,191.9,684,198.8z"/>
		<path class="st1" d="M619.1,169.8l9.6-12.3c0,0,35.5,25.5,46.8,33.6c0.3,0.2,0.7,0.5,1,0.7c0.8,0.6,1.6,1.1,2.4,1.7
			c4.4,4.2,5.5,11,2.5,16.6c-2.8,5.2-8.5,7.8-14.1,7.1c-1.7-0.7-3.4-1.4-5.2-2.2H662c-0.5-0.2-0.9-0.4-1.4-0.6
			c-8.3-3.5-34-12.9-42.3-16.3c0,0-28.2-7.6-14.2-31.3s0,0,0,0l1.5-7.1L619.1,169.8z"/>
		<path class="st8" d="M658.1,122.6l-0.3,0.2l-1.2,12.5c-1.6,10.2-4.1,19.7-6.1,27.8c-0.3,1.1-0.6,2.3-0.8,3.4
			c-8.9,6-32.3,5.3-37.5,3.7c-4-1.3-6.7-2.7-8-3.3c-0.1-0.1-0.2-0.1-0.3-0.1c0.4-7,0-19.6-5.2-35.4c-0.1-0.4-0.3-0.8-0.4-1.2
			c-0.9-2.8-1.7-5.5-2.4-8.3c-1.5-6-2.3-11.9-2.4-17.4c0-0.9-0.1-1.7,0-2.6c0.9-26.3,11.7-28.9,12.6-29.4l0,0L631,85.8l0.1-0.1
			l17.2,10.5l-0.6-11.7l2.7-5.8C657.6,93,659.1,108.2,658.1,122.6z"/>
		<path class="st10" d="M642.3,28l2.1,42.6l-8.1,5.8l-24.6-9.1v-0.5c-15.8-44.5,19.6-38,19.6-38C632.3,34.2,637.6,33.7,642.3,28z"/>
		<polygon class="st10" points="647.7,84.5 648.3,96.2 631.1,85.7 638.4,76.2 		"/>
		<polygon class="st11" points="651.6,76.1 650.4,78.7 647.7,84.5 638.4,76.2 647,70.1 		"/>
		<path class="st11" d="M638.4,76.2l-7.3,9.4l-0.1,0.1l-24.9-13.3l2.5-6.4c0.8,0,1.5,0,2.3,0l1.3,0.5L638.4,76.2z"/>
		<path class="st9" d="M613.9,36.6"/>
		<g>
			<path d="M630.9,59c0.8,0.8,1.8,1.5,2.8,2.1c1,0.5,2.1,0.9,3.2,0.8c1.1,0,2.2-0.4,3.1-1.1c0.5-0.3,0.9-0.7,1.3-1.1l1.2-1.3
				c-0.3,0.5-0.7,1-1,1.5c-0.4,0.4-0.8,0.9-1.3,1.2c-0.9,0.8-2.1,1.2-3.3,1.3c-1.2,0-2.4-0.4-3.4-1C632.5,60.7,631.6,59.9,630.9,59z
				"/>
		</g>
		<path class="st9" d="M608.6,66.1"/>
		<path class="st9" d="M608.6,66.1"/>
		<path class="st12" d="M612.2,67.7c0,0-19.9-36.3-4.4-37.2c0,0-11.8-22.4,56.5-19.3c0,0,12.8-0.9,15.1-11.2c0,0,4.3,32-17.8,41.6
			c-12.1,5.2-21.3-2.3-25.2-3.8c-4.7-1.9-26-5.4-25.7,1.7C611.2,49.4,612.2,67.7,612.2,67.7z"/>
		<g>
			<path class="st10" d="M567.3,108.9c-3.8,0.6-7.8-1.3-9.7-4.9c-1.4-2.6-1.4-5.6-0.3-8.1c0.5-1.1,1.1-2,2-2.9c1-0.7,2.1-1.4,3.1-2
				c8.7-5.8,13.6-9.4,16.1-11.3l11,21c-2.4,0.8-6.8,2.3-14,5.1c-1.3,0.5-2.7,1-4.1,1.6C570,107.8,568.7,108.3,567.3,108.9z"/>
			<path class="st8" d="M590.2,102.1l-0.8-1.5l-11-21l-0.8-1.5c0.6-0.3,1.2-0.7,1.8-1c11.2-5.9,22.6-7.2,28.2-3.7
				c1.2,0.7,2.1,1.7,2.7,2.8c0.1,0.3,0.3,0.5,0.4,0.8c1.8,4.8-1.8,11.5-8.7,17.5c-2.8,2.4-6.1,4.7-9.8,6.6
				C591.4,101.5,590.8,101.8,590.2,102.1z"/>
		</g>
		<path class="st10" d="M513,61.6c2-2.8,15.4,4.7,30.3,13.6c8.9,5.3,18.4,11.1,26.4,15.6l0,0c1.1,0.6,2.2,1.2,3.2,1.8
			c2.3,1.9,3.4,4.7,3.3,7.5c-0.1,1.8-0.6,3.5-1.7,5.1c-2.8,3.9-8,5.1-12.1,2.8c-1.1-0.9-2.1-1.9-3.2-2.8c-1.1-1-2.3-2-3.4-3
			c-6.8-5.9-14.8-12.5-22-18.6C521.4,73.1,511.3,63.9,513,61.6z"/>
	</g>
	<g>
		<g>
			<polygon class="st10" points="480.9,46.2 485.5,94.5 479.2,107.5 453.7,91.7 450,48.7 			"/>
		</g>
		<g>
			<path class="st13" d="M468.4,78.2c1.8,1,3.5,1.9,5.2,1.8c0.8-0.1,1.7-0.3,2.4-0.8c0.4-0.2,0.8-0.6,1.2-0.8c0.4-0.3,0.7-0.7,1.2-1
				c-0.2,0.5-0.4,1-0.6,1.4c-0.3,0.4-0.6,0.9-1,1.3c-0.8,0.8-1.9,1.3-3.1,1.4c-1.2,0.1-2.3-0.3-3.2-0.9
				C469.6,80,468.9,79.2,468.4,78.2z"/>
		</g>
		<g>
			<g>
				<g>
					<path class="st10" d="M523.6,142.8c1.2,3.7,0,7.9-3.3,10.4c-2.4,1.8-5.3,2.3-8,1.6c-1.1-0.3-2.2-0.8-3.2-1.5
						c-0.9-0.9-1.7-1.8-2.5-2.7c-7.1-7.6-11.5-11.9-13.7-14.1l18.9-14.2c1.2,2.3,3.4,6.4,7.3,13c0.7,1.2,1.4,2.5,2.3,3.8
						C522.1,140.4,522.9,141.6,523.6,142.8z"/>
					<path class="st5" d="M513.3,121.3l-1.4,1L493,136.5l-1.4,1c-0.4-0.5-0.8-1.1-1.3-1.6c-7.6-10.2-10.7-21.2-8.1-27.3
						c0.5-1.3,1.3-2.3,2.3-3.1c0.2-0.2,0.5-0.3,0.8-0.5c4.4-2.5,11.7-0.1,18.7,5.8c2.8,2.4,5.6,5.3,8.1,8.6
						C512.5,120.2,512.9,120.7,513.3,121.3z"/>
				</g>
				<path class="st10" d="M580.5,135.7c0.5,3.4-14.2,7.4-31.2,11.5c-10.1,2.5-20.9,4.9-29.7,7.3l0,0c-1.2,0.3-2.4,0.7-3.5,1
					c-3,0.2-5.7-1-7.6-3.1c-1.2-1.3-2-2.9-2.3-4.8c-0.8-4.8,2.2-9.2,6.7-10.5c1.4-0.1,2.9-0.1,4.3-0.2c1.5-0.1,3-0.2,4.6-0.3
					c9-0.6,19.3-1.4,28.8-2.1C566.5,133.4,580.1,132.9,580.5,135.7z"/>
				<path class="st0" d="M523.1,222.8c0.3,1.3,0.7,2.7,1,4.1c6.5,26,17.6,64.6,10.6,67.2c-5.6,2.1-20-27.1-34.8-56.8
					c-1.1-2.1-2.1-4.3-3.2-6.4c-1.3-6.6,2.2-13.3,8.7-15.7C512.4,212.4,520.3,215.9,523.1,222.8z"/>
				<path class="st0" d="M458.2,193.7l9.6-12.3c0,0,35.5,25.5,46.8,33.6c0.3,0.2,0.7,0.5,1,0.7c0.8,0.6,1.6,1.1,2.4,1.7
					c4.4,4.2,5.5,11,2.5,16.6c-2.8,5.2-8.5,7.8-14.1,7.1c-1.7-0.7-3.4-1.4-5.2-2.2h-0.1c-0.5-0.2-0.9-0.4-1.4-0.6
					c-8.3-3.5-34-12.9-42.3-16.3c0,0-28.2-7.6-14.2-31.3c14.1-23.7,0,0,0,0l1.5-7.1L458.2,193.7z"/>
				<path class="st5" d="M497.2,146.5l-0.3,0.2l-1.2,12.5c-1.6,10.2-4.1,19.7-6.1,27.8c-0.3,1.1-0.6,2.3-0.8,3.4
					c-8.9,6-32.3,5.3-37.5,3.7c-4-1.3-6.7-2.7-8-3.3c-0.1-0.1-0.2-0.1-0.3-0.1c0.4-7,0-19.6-5.2-35.4c-0.1-0.4-0.3-0.8-0.4-1.2
					c-0.9-2.8-1.7-5.5-2.4-8.3c-1.5-6-2.3-11.9-2.4-17.4c0-0.9-0.1-1.7,0-2.6c0.9-26.3,11.7-28.9,12.6-29.4l0,0l24.9,13.3l0.1-0.1
					l17.2,10.5l-0.6-11.7l2.7-5.8C496.7,117,498.2,132.1,497.2,146.5z"/>
				<polygon class="st10" points="486.8,108.4 487.4,120.1 470.1,109.6 477.5,100.2 				"/>
				<polygon class="st11" points="490.7,100 489.5,102.6 486.8,108.4 477.5,100.2 486.1,94 				"/>
				<path class="st11" d="M477.5,100.2l-7.3,9.4l-0.1,0.1l-24.9-13.3l2.5-6.4c0.8,0,1.5,0,2.3,0l1.3,0.5L477.5,100.2z"/>
				<path class="st9" d="M453,60.5"/>
				<path class="st9" d="M447.7,90"/>
				<path class="st9" d="M447.7,90"/>
				<g>
					<path class="st10" d="M417.7,143.1c-3.5,1.6-7.8,0.9-10.7-2c-2.1-2.1-2.9-5-2.6-7.7c0.1-1.2,0.5-2.3,1.1-3.3
						c0.8-1,1.6-1.9,2.4-2.8c6.7-8,10.4-12.9,12.2-15.3l16.5,17c-2.1,1.4-5.9,4.2-12,8.8c-1.1,0.8-2.3,1.7-3.5,2.7
						C420,141.4,418.9,142.2,417.7,143.1z"/>
					<path class="st5" d="M437.8,130.2l-1.2-1.2l-16.5-17l-1.2-1.2c0.5-0.5,0.9-1,1.4-1.4c9.1-8.8,19.7-13.3,26-11.4
						c1.3,0.4,2.4,1,3.3,1.9c0.2,0.2,0.4,0.5,0.6,0.7c3,4.1,1.5,11.6-3.5,19.3c-2,3.1-4.5,6.2-7.6,9.1
						C438.8,129.3,438.4,129.8,437.8,130.2z"/>
				</g>
				<path class="st10" d="M410.9,200.8c-3.4-0.2-4.4-15.4-5-32.9c-0.4-10.4-0.6-21.5-1.2-30.6l0,0c-0.1-1.2-0.2-2.5-0.2-3.7
					c0.4-2.9,2.1-5.4,4.5-6.8c1.5-0.9,3.3-1.4,5.2-1.3c4.8,0.2,8.6,4,9,8.7c-0.2,1.4-0.4,2.8-0.6,4.3s-0.5,3-0.7,4.5
					c-1.2,8.9-2.5,19.2-3.7,28.6C416,187.5,413.7,200.9,410.9,200.8z"/>
			</g>
			<g>
				<g>
					<path class="st12" d="M493.4,52.8c0.8,9-3.2,18.3-9.6,23.7l-2.4-25.9c-5.6,3.4-14.3-2.9-14.3-2.9c-3.3,6,4.4,9.3,4.4,9.3
						c-9.5,2.5-15.9-1.7-20.5-4.2l2.2,25.5c-7.3-4.3-12.5-11.9-13.2-20.9c-1.2-14.8,9.7-27.7,24.5-29
						C479.1,27.1,492.1,38,493.4,52.8z"/>
				</g>
				<g>
					<path class="st12" d="M452.3,76.6c0,0-15.5,12.2-2.3,40.3c0,0,4.2,9,3.9,17.4C453.9,134.3,477.6,102.5,452.3,76.6z"/>
				</g>
			</g>
		</g>
	</g>
</g>
</svg>
