<?xml version="1.0" encoding="utf-8"?>
<!-- Generator: Adobe Illustrator 21.0.2, SVG Export Plug-In . SVG Version: 6.00 Build 0)  -->
<svg version="1.1" id="Layer_1" xmlns="http://www.w3.org/2000/svg" xmlns:xlink="http://www.w3.org/1999/xlink" x="0px" y="0px"
	 viewBox="0 0 825.1 630.7" style="enable-background:new 0 0 825.1 630.7;" xml:space="preserve">
<style type="text/css">
	.st0{fill:#F7F8F9;}
	.st1{fill:#FFFFFF;}
	.st2{fill:#DFE1E3;}
	.st3{fill:#ECEDEE;}
	.st4{fill:#D6D7D8;}
	.st5{fill:#FCC1BE;}
	.st6{fill:#B3D9F8;stroke:#515151;stroke-width:0.5;stroke-miterlimit:10;}
	.st7{fill:#61AD3F;stroke:#515151;stroke-width:0.5;stroke-miterlimit:10;}
	.st8{fill:#C7CAD7;}
	.st9{fill:#0099FF;}
	.st10{fill:#FEE300;}
	.st11{fill:#515151;}
	.st12{fill:#2A4494;}
	.st13{fill:#FAFAFA;}
	.st14{fill:#22A3FF;}
	.st15{fill:#E5B700;}
	.st16{fill:#FFCC00;}
	.st17{fill:#1B8AE5;}
	.st18{fill:none;stroke:#C7CAD7;stroke-width:0.5;stroke-miterlimit:10;}
	.st19{fill:#F9F9F9;}
	.st20{fill:#7AC41A;}
	.st21{fill:#B3D9F8;}
	.st22{fill:#FDD118;}
</style>
<path class="st0" d="M599.8,546.1c0,0-78.9,2.3-103.3,21.3c-24.4,19-6.8,22.3-82.8,30.3c-76,7.9-152.1,23.4-201.1,32.1
	c-49,8.6-80.7-47.8-123.3-45.2c-41.4,2.5-18.6-47.2-46.5-67.8c-0.8-0.6-1.6-1.1-2.5-1.7c-13.2-8.1-24.3-19-30.4-30
	c1.1-6.7,3-13.7,5.6-20.4c0.4-1,0.7-1.9,1-2.8c9.7-33.3-38.4-59.2-3.8-82.2c35.5-23.7,38.9-54.8,80.6-81.9
	c67.2-43.8,96-12.9,161.4-52.4s81.3-63,162.2-61.7c30.9,0.5,41.7-50.8,144.6-46.2c14.3,0.6,91.3-30.4,91.3,1.2s-32.2,53.5,32.3,43.7
	c99-15,137.2-6.2,139.7,32.7c3.5,53.3-26.2,85-80.1,121.6c-53.9,36.5-18.4,29.2,0.6,54.3c19,25.2-59.5,49.2-72.1,56
	s15.2,11.9,26,37.6C709.9,510.3,604,551,604,551L599.8,546.1z"/>
<polygon class="st1" points="525.4,221.9 675.3,322.2 778.8,210.7 "/>
<polygon class="st2" points="672.4,370.5 675.3,321.9 778.8,210.7 774.6,264.4 "/>
<polygon class="st3" points="525.4,221.9 521,278.9 672.3,370.5 675.2,322.1 "/>
<g>
	<g>
		<polygon class="st1" points="174.6,487.4 111.5,444.2 573.7,253.2 636.7,296.5 		"/>
	</g>
	<g>
		<polygon class="st3" points="170.9,534.7 107.8,491.4 111.5,444.2 174.6,487.4 		"/>
	</g>
	<g>
		<polygon class="st2" points="170.9,534.7 633.1,343.7 636.7,296.5 174.6,487.4 		"/>
	</g>
</g>
<g>
	<path class="st4" d="M607.6,226.2c0.1-5.4-3.7-10.3-9.3-11.4c-5.6-1-11,2.2-12.8,7.3c0,0.2,0,0.5-0.1,0.7c0-0.4,0-0.8,0-1.2
		c-0.1-7.4,3.4-43.8,3.2-51.2c6.9-5.7,13.4,4.7,17.3,1.5c3.2,1.1,10.1,1.1,14,1.5c0.7-0.7,4.5-0.5-3.7,11h0.3c0,0-6.2,29.6-8.6,40.8
		C607.7,225.5,607.7,225.8,607.6,226.2z"/>
	<g>
		<g>
			<polygon class="st5" points="612.2,50.1 612.6,52.3 610.1,67 612.3,71.5 611.9,77.3 611.6,80.8 611.8,81.6 612.3,88.6 
				614.7,114.4 614.7,114.6 617.2,110.6 624.1,99.7 632.1,90.8 633,85.5 637.9,82.4 641,52.7 			"/>
			<path class="st6" d="M632.5,108.9"/>
			<path class="st6" d="M634.4,82.1"/>
			<path class="st6" d="M612.9,90.4"/>
			<path class="st7" d="M627.1,95.5"/>
		</g>
		<g>
			<g>
				<path class="st4" d="M641.7,213.8c-2.3-4.9-7.8-7.7-13.3-6.2s-9,6.7-8.4,12.2c0.1,0.2,0.2,0.4,0.2,0.6c-0.2-0.4-0.4-0.7-0.5-1.1
					c-3.3-6.6-6.6-13.4-10-20c3.7-8.1,7.8-17,10-21.6c3.3-0.4,6.9-1.1,10.6-2.4c0.4-0.9,0.7-1.9,1.1-2.9l0.3-0.1
					c0,0,7.2,29.4,9.8,40.5C641.5,213.1,641.6,213.4,641.7,213.8z"/>
				<path class="st8" d="M634.9,227.7c-4.6,1.7-9.5,0.3-12.6-3.2c-0.7-1.4-1.4-2.7-2-4.1c0,0,0,0,0-0.1c-0.1-0.2-0.2-0.4-0.2-0.6
					c-0.6-5.5,2.9-10.7,8.4-12.2c5.4-1.5,11,1.3,13.3,6.2c0.2,0.8,0.4,1.6,0.6,2.3C642.7,221.1,639.8,225.9,634.9,227.7z"/>
				<path class="st9" d="M592,138.3"/>
				<path class="st10" d="M587.6,108.2c1.4-7.5,4.2-13.8,8.2-17.9c1-1.1,5.1-3.7,6-4l20.8,14.7l0.1-0.1l14.2,11.4l0.8-10.6l3.1-4.9
					c9.7,28-2,56.2-9.5,75.5c-0.4,1-0.8,2-1.1,2.9c-3.7,1.3-7.2,2-10.6,2.4c-1.2,0.1-2.3,0.2-3.4,0.3c-8.6,0.4-15.5-1.6-20-3.7
					c-3.5-1.6-5.7-3.2-6.8-3.8c-0.1-0.1-0.2-0.1-0.3-0.2c0.9-5,1.8-13.2,0.6-23.9l0,0C589.8,146.4,585.8,115.1,587.6,108.2z"/>
				<polygon class="st5" points="622.7,100.9 630.3,93.3 637.7,101.7 636.9,112.3 				"/>
				<polygon class="st1" points="642.2,94.7 640.8,96.8 640.8,96.8 637.7,101.7 630.3,93.3 638.7,88.7 				"/>
				<path class="st1" d="M630.3,93.3l-7.6,7.6l-0.1,0.1l-20.8-14.7l3-5.5c0.7,0.1,1.4,0.2,2.1,0.2l1.1,0.6L630.3,93.3z"/>
				<path class="st4" d="M646,274.6c-4.7,1.3-14.1-23.8-23.9-49.3c-0.6-1.6-1.2-3.2-1.8-4.8c0,0,0,0,0-0.1c-0.1-0.2-0.2-0.4-0.2-0.6
					c-0.6-5.5,2.9-10.7,8.4-12.2c5.4-1.5,11,1.3,13.3,6.2c0.2,0.5,0.4,1,0.6,1.5c0.2,1.1,0.3,2.3,0.5,3.4
					C645.9,240.5,651.9,273,646,274.6z"/>
			</g>
			<g>
				<path class="st5" d="M637.3,127c-1.1-0.4-2.2-0.9-3.3-1.3c-3.8-0.6-7.6,1.6-9,5.2c-0.2,0.3-0.3,0.7-0.4,1
					c-0.9,3.2,0.3,6.6,2.7,8.7c-0.2-0.1-0.3-0.2-0.5-0.3c-7.7-5.3-12.4-8.2-14.8-9.7l0.8-1l13.1-15.3
					C627.6,116.4,631,120.4,637.3,127z"/>
				<path class="st5" d="M637.2,140.3c-0.3,0.3-0.7,0.5-1.1,0.7c0,0-0.1,0.1-0.2,0.1c-0.4,0.2-0.8,0.3-1.2,0.5c-0.1,0-0.1,0-0.2,0.1
					c-3,0.9-6.5,0-8.7-2.6c-0.2-0.3-0.5-0.6-0.7-0.9c-2.2-3.2-1.9-7.5,0.7-10.4c0.9-0.7,1.9-1.4,2.9-2.1l0,0c0.1,0,0.2,0,0.3,0
					c1.3-0.2,2.6-0.4,3.9-0.7c0,0,0,0,0.1,0c3.5,0.2,6.6,2.6,7.6,6.1c0.6,2.1,0.4,4.3-0.6,6.1l0,0c-0.2,0.2-0.3,0.7-0.5,0.6
					L637.2,140.3z"/>
				<path class="st5" d="M628.8,125.7c0.1-0.1,0.1-0.1,0.2-0.2c2.1-1.5,4.3-3.1,6.6-4.8l0,0c17.3-12.6,38.7-29.5,41.2-26.7
					c3.2,3.7-21.8,26.8-36.8,43.1c0.9-1.8,1.2-4,0.6-6.1c-1-3.5-4.1-5.9-7.6-6.1c0,0,0,0-0.1,0c-1.3,0.2-2.6,0.4-3.9,0.7
					C629,125.7,628.9,125.7,628.8,125.7z"/>
				<path class="st10" d="M616.6,105.9c2.9,1.5,5.9,3.5,8.8,6c0.5,0.4,0.9,0.8,1.4,1.2l-1,1.2l-13.1,15.3l-0.8,1l-1,1.2
					c-0.5-0.4-1-0.8-1.4-1.2c-0.9-0.8-1.7-1.5-2.5-2.3c-7.1-6.9-11-14.8-10-20.1c0.2-1.2,0.7-2.3,1.5-3.2c0.2-0.2,0.4-0.4,0.6-0.6
					C602.4,101.3,609.3,102.1,616.6,105.9z"/>
			</g>
		</g>
		<g>
			<path class="st11" d="M635.1,74.9c-2,0.9-3.7,1.6-5.3,1.5c-0.8,0-1.6-0.2-2.4-0.7c-0.4-0.2-0.8-0.5-1.2-0.7
				c-0.4-0.3-0.8-0.6-1.3-0.9c0.1,0.5,0.3,1,0.6,1.5c0.3,0.4,0.6,1,1,1.3c0.8,0.9,2,1.3,3.2,1.4s2.4-0.3,3.3-1
				C634,76.8,634.7,75.9,635.1,74.9z"/>
		</g>
		<g id="XMLID_264_">
			<path class="st12" d="M629.2,32.4c0,0-23.5-8.8-30,9.8c-6.1,17.7-7.7,39.5-5.4,43.5c2.5,4.4,22.4,2.3,22.4,2.3
				s-4.9-32.9-0.8-34.5s20.7-0.8,22,0.5s0,24.5-0.7,33.9c0,0,5.3,2.1,6.2-9S649.3,28,629.2,32.4z"/>
		</g>
	</g>
	<path class="st4" d="M585.1,282.8c-4.8-0.9-2.4-27.6-0.2-54.8c0.2-1.7,0.3-3.4,0.4-5.1v-0.1c0-0.2,0-0.5,0.1-0.7
		c1.9-5.2,7.3-8.4,12.8-7.3c5.5,1,9.4,5.9,9.3,11.4c0,0.5-0.1,1.1-0.1,1.6c-0.3,1.1-0.7,2.2-1,3.3
		C599.8,252.1,591.2,284,585.1,282.8z"/>
</g>
<g>
	<g>
		<g>
			<g>
				<polygon class="st13" points="709.8,54.7 706.6,52.4 710.2,50.7 713.5,53 				"/>
				<polygon class="st3" points="691.4,258.4 688.1,256.1 706.6,52.4 709.8,54.7 				"/>
				<polygon class="st2" points="691.4,258.4 695,256.7 713.5,53 709.8,54.7 				"/>
			</g>
		</g>
		<g>
			<g>
				<polygon class="st13" points="710.2,50.1 705.1,46.6 710.7,44 715.8,47.5 				"/>
				<polygon class="st3" points="709.1,61.4 704.1,58 705.1,46.6 710.2,50.1 				"/>
				<polygon class="st2" points="709.1,61.4 714.8,58.9 715.8,47.5 710.2,50.1 				"/>
			</g>
		</g>
	</g>
	<g>
		<g>
			<path class="st14" d="M761,20.5c-0.2,2.2-0.9,3.9-2.1,4.9c-2.1,1.8-6.4,4-6.4,4L735.7,5.1c0,0,5.2-3.6,6.9-4.5
				c2.1-1.1,5.2-0.7,8.5,1.6C757,6.1,761.4,14.4,761,20.5z"/>
			<path class="st13" d="M678.5,70.3c-1.5,2.3-4.7,2.4-8.1,0.1c-4.7-3.2-8.2-9.7-7.8-14.6c0.2-2.7,1.5-4.3,3.4-4.7l0,0
				c1.6-0.3,3.5,0.2,5.6,1.6c4.7,3.2,8.2,9.7,7.8,14.6C679.3,68.5,679,69.5,678.5,70.3z"/>
			<path class="st15" d="M674,67.9L674,67.9l-14.1,8.7l-7-11.6l14.2-8.6l0.1,0.2c0.9-0.2,2,0.1,3.2,0.9c2.6,1.8,4.6,5.5,4.4,8.2
				C674.8,66.7,674.5,67.5,674,67.9z"/>
			<path class="st16" d="M661.9,73.8c-0.2,2.8-2.6,3.6-5.3,1.8c-2.7-1.8-4.7-5.6-4.5-8.4s2.6-3.6,5.3-1.8
				C660.1,67.2,662.1,71,661.9,73.8z"/>
			<path class="st17" d="M755.6,23.8c-0.4,6.2-5.6,7.9-11.5,3.9s-10.3-12.2-9.9-18.4c0.4-6.2,5.6-7.9,11.5-3.9S756,17.7,755.6,23.8z
				"/>
		</g>
		<path class="st3" d="M747.6,28.3l-2.8,1.7l-66.3,40.3c0.5-0.8,0.9-1.8,0.9-3c0.3-4.9-3.1-11.4-7.8-14.6c-2.1-1.4-4.1-1.9-5.6-1.6
			L735.4,9c1.5-0.2,3.4,0.3,5.4,1.7c1.8,1.2,3.4,2.9,4.6,4.7l0.1,0.1l1.2,1.9c1.4,2.6,2.2,5.4,2,7.9
			C748.5,26.5,748.1,27.5,747.6,28.3z"/>
	</g>
</g>
<g>
	<path class="st8" d="M286.3,459.3c-0.8,0.9-1.5,1.9-2.3,2.9c-14.8,18.4-35.7,46.7-41.3,43.2c-4.4-2.8,8.3-28.4,21.1-54.5
		c0.9-1.9,1.9-3.8,2.8-5.7c3.9-4.4,10.5-5.5,15.6-2.3C287.9,446.3,289.6,453.6,286.3,459.3z"/>
	<path class="st8" d="M227.1,425.4l7.6-11.4c0,0,32.7,20,43.1,26.4c0.3,0.2,0.6,0.4,0.9,0.6c0.7,0.4,1.5,0.9,2.2,1.3
		c4.1,3.4,5.6,9.3,3.3,14.4c-2.2,4.7-7,7.4-11.8,7.1c-1.5-0.5-3.1-1-4.7-1.6c0,0,0,0-0.1,0c-0.4-0.1-0.8-0.3-1.2-0.4
		c-7.5-2.5-30.6-9.1-38.1-11.5c0,0-25.2-4.8-14.5-26.5s0,0,0,0l0.9-6.3L227.1,425.4z"/>
	<g>
		<g>
			<polygon class="st5" points="291.2,310.2 279.8,351.3 270.5,360 254.6,339 265,302.6 			"/>
		</g>
		<g>
			<path class="st11" d="M274.7,334c1.1,1.4,2.3,2.7,3.7,3.1c0.7,0.2,1.5,0.3,2.3,0.1c0.4,0,0.8-0.2,1.2-0.3
				c0.4-0.1,0.8-0.3,1.3-0.4c-0.3,0.4-0.6,0.7-1,1c-0.4,0.2-0.8,0.6-1.2,0.7c-0.9,0.4-2,0.5-3,0.2s-1.8-1-2.4-1.8
				C275.1,335.9,274.7,335,274.7,334z"/>
		</g>
		<path class="st9" d="M273,397.6l-0.3,0.1l-4.9,9.9c-4.5,7.9-9.5,14.9-13.7,20.9c-0.6,0.8-1.2,1.7-1.7,2.5
			c-9.2,2.1-28.1-5.8-31.9-8.8c-2.9-2.3-4.7-4.3-5.5-5.2c-0.1-0.1-0.2-0.1-0.2-0.2c2.5-5.6,6.2-16.1,6.9-30.6c0-0.4,0-0.7,0.1-1.1
			c0.1-2.6,0.3-5.1,0.6-7.5c0.7-5.4,1.9-10.4,3.5-15c0.2-0.7,0.5-1.4,0.8-2.1c9-21.3,18.7-20.1,19.6-20.2l0,0l16.3,18.8l0.1-0.1
			l10.8,14l3.2-9.8l4.1-3.9C281.9,373.2,278.3,386.1,273,397.6z"/>
		<polygon class="st5" points="276.5,363.1 273.2,372.9 262.4,358.8 271.4,353.4 		"/>
		<polygon class="st1" points="282.3,357.5 280.5,359.2 276.5,363.1 271.4,353.4 280.4,351 		"/>
		<path class="st1" d="M271.4,353.4l-9,5.4l-0.1,0.1L246,340.1l4.1-4.5c0.6,0.3,1.3,0.5,1.9,0.7l0.9,0.8L271.4,353.4z"/>
		<path class="st18" d="M250.2,335.7"/>
		<path class="st18" d="M250.2,335.7"/>
		<g>
			<path class="st5" d="M218.1,379.9c-3.1,1.4-6.9,0.8-9.4-1.8c-1.8-1.9-2.6-4.4-2.3-6.8c0.1-1,0.4-2,0.9-2.9
				c0.7-0.8,1.4-1.7,2.1-2.5c5.9-7.1,9.1-11.3,10.7-13.5l14.5,14.9c-1.9,1.3-5.2,3.7-10.5,7.8c-1,0.7-2,1.5-3.1,2.4
				C220.1,378.4,219.2,379.1,218.1,379.9z"/>
			<path class="st9" d="M235.8,368.5l-1-1.1l-14.5-14.9l-1.1-1.1c0.4-0.4,0.8-0.9,1.3-1.3c8-7.8,17.3-11.7,22.9-10.1
				c1.2,0.3,2.1,0.9,2.9,1.7c0.2,0.2,0.4,0.4,0.5,0.6c2.7,3.6,1.3,10.2-3,16.9c-1.7,2.7-4,5.4-6.6,8
				C236.7,367.7,236.2,368.1,235.8,368.5z"/>
		</g>
		<path class="st12" d="M256.6,332.4c0,0-3.1-34.5,9-30c0,0-1.6-21.1,49.7,4.1c0,0,10.1,3.6,15.3-3.5c0,0-7.4,26-27.5,25.9
			c-11,0-15.6-8.8-18-11.3c-2.9-3-18.2-12.8-20.3-7.2C261.9,318,256.6,332.4,256.6,332.4z"/>
	</g>
	<g>
		<path class="st2" d="M275.1,368.7l-80.5,163.1l-7.9,4.1l-20,44.2c-0.1,0.3-0.3,0.5-0.2,0.9c0.4,2.1,2.4,11.2,12.7,5
			c0.2-0.1,0.4-0.3,0.6-0.4c0,0,20.4-43.2,20.5-43.4l-1.1-8.2l79.1-163.8c0.4-0.8,0.2-1.6-0.6-2.1l0,0
			C276.6,367.6,275.6,367.9,275.1,368.7z"/>
		<path class="st19" d="M272.6,367.6l-80.5,163.1l-7.9,4.1l-20,44.2c-0.1,0.3-0.3,0.5-0.2,0.9c0.4,2.1,2.4,11.2,12.7,5
			c0.2-0.1,0.4-0.3,0.6-0.4c0,0,20.4-43.2,20.5-43.4l-1.1-8.2l79.1-163.8c0.4-0.8,0.2-1.6-0.6-2.1l0,0
			C274.1,366.5,273.1,366.8,272.6,367.6z"/>
	</g>
	<path class="st5" d="M263.6,401.7c-1.5,2.6-13.8-2.7-27.7-9.2c-8.3-3.8-17.1-8.1-24.4-11.2l0,0c-1-0.4-2-0.9-3-1.3
		c-2.1-1.5-3.4-3.8-3.5-6.3c-0.1-1.6,0.2-3.1,1-4.6c2.1-3.7,6.6-5.2,10.4-3.6c1,0.7,2,1.5,3.1,2.2c1.1,0.8,2.2,1.5,3.3,2.3
		c6.5,4.5,14,9.6,20.9,14.3C255.2,392.4,264.8,399.5,263.6,401.7z"/>
</g>
<g>
	<path class="st8" d="M529.6,356.3c-0.8,0.9-1.5,1.9-2.3,2.9c-14.8,18.4-35.7,46.7-41.3,43.2c-4.4-2.8,8.3-28.4,21.1-54.5
		c0.9-1.9,1.9-3.8,2.8-5.7c3.9-4.4,10.5-5.5,15.6-2.3C531.1,343.3,532.9,350.6,529.6,356.3z"/>
	<path class="st8" d="M470.4,322.4L478,311c0,0,32.7,20,43.1,26.4c0.3,0.2,0.6,0.4,0.9,0.6c0.7,0.4,1.5,0.9,2.2,1.3
		c4.1,3.4,5.6,9.3,3.3,14.4c-2.2,4.7-7,7.4-11.8,7.1c-1.5-0.5-3.1-1-4.7-1.6c0,0,0,0-0.1,0c-0.4-0.1-0.8-0.3-1.2-0.4
		c-7.5-2.5-30.6-9.1-38.1-11.5c0,0-25.2-4.8-14.5-26.5s0,0,0,0l0.9-6.3L470.4,322.4z"/>
	<g>
		<g>
			<polygon class="st5" points="534.5,207.2 523,248.3 513.8,256.9 497.8,236 508.3,199.5 			"/>
		</g>
		<g>
			<path class="st11" d="M517.9,231c1.1,1.4,2.3,2.7,3.7,3.1c0.7,0.2,1.5,0.3,2.3,0.1c0.4,0,0.8-0.2,1.2-0.3s0.8-0.3,1.3-0.4
				c-0.3,0.4-0.6,0.7-1,1c-0.4,0.2-0.8,0.6-1.2,0.7c-0.9,0.4-2,0.5-3,0.2s-1.8-1-2.4-1.8C518.4,232.8,518,231.9,517.9,231z"/>
		</g>
		<path class="st20" d="M516.3,294.6l-0.3,0.1l-4.9,9.9c-4.5,7.9-9.5,14.9-13.7,20.9c-0.6,0.8-1.2,1.7-1.7,2.5
			c-9.2,2.1-28.1-5.8-31.9-8.8c-2.9-2.3-4.7-4.3-5.5-5.2c-0.1-0.1-0.2-0.1-0.2-0.2c2.5-5.6,6.2-16.1,6.9-30.6c0-0.4,0-0.7,0.1-1.1
			c0.1-2.6,0.3-5.1,0.6-7.5c0.7-5.4,1.9-10.4,3.5-15c0.2-0.7,0.5-1.4,0.8-2.1c9-21.3,18.7-20.1,19.6-20.2l0,0l16.3,18.8l0.1-0.1
			l10.8,14l3.2-9.8l4.1-3.9C525.1,270.2,521.6,283.1,516.3,294.6z"/>
		<polygon class="st5" points="519.7,260.1 516.5,269.9 505.7,255.8 514.7,250.4 		"/>
		<polygon class="st1" points="525.6,254.4 523.8,256.1 519.7,260.1 514.7,250.4 523.7,248 		"/>
		<path class="st1" d="M514.7,250.4l-9,5.4l-0.1,0.1l-16.3-18.8l4.1-4.5c0.6,0.3,1.3,0.5,1.9,0.7l0.9,0.8L514.7,250.4z"/>
		<path class="st18" d="M493.4,232.7"/>
		<path class="st18" d="M493.4,232.7"/>
		<g>
			<path class="st5" d="M461.4,276.9c-3.1,1.4-6.9,0.8-9.4-1.8c-1.8-1.9-2.6-4.4-2.3-6.8c0.1-1,0.4-2,0.9-2.9
				c0.7-0.8,1.4-1.7,2.1-2.5c5.9-7.1,9.1-11.3,10.7-13.5l14.5,14.9c-1.9,1.3-5.2,3.7-10.5,7.8c-1,0.7-2,1.5-3.1,2.4
				C463.4,275.3,462.4,276.1,461.4,276.9z"/>
			<path class="st20" d="M479.1,265.5l-1-1.1l-14.5-14.9l-1.1-1.1c0.4-0.4,0.8-0.9,1.3-1.3c8-7.8,17.3-11.7,22.9-10.1
				c1.2,0.3,2.1,0.9,2.9,1.7c0.2,0.2,0.4,0.4,0.5,0.6c2.7,3.6,1.3,10.2-3,16.9c-1.7,2.7-4,5.4-6.6,8
				C479.9,264.7,479.5,265.1,479.1,265.5z"/>
		</g>
		<g>
			<path class="st12" d="M527.9,210.6l7-5.3c-0.3,0.2-12.6,4.2-16.3,2.7l5.2-4c0,0-13-6.9-17.1,5.5c-2.9,8.7-4.7,14.2-4.7,14.2
				s1.6-16.9,1.5-23.9c-0.3-13.4,28.8-36,39.8-1.3c0,0,0.4,1.2,0.2,3.7C543.3,204,540.4,211.1,527.9,210.6z"/>
		</g>
	</g>
	<path class="st18" d="M507.8,207.6"/>
	<g>
		<path class="st2" d="M518.4,265.7l-80.5,163.1l-7.9,4.1l-20,44.2c-0.1,0.3-0.3,0.5-0.2,0.9c0.4,2.1,2.4,11.2,12.7,5
			c0.2-0.1,0.4-0.3,0.6-0.4c0,0,20.4-43.2,20.5-43.4l-1.1-8.2l79.1-163.8c0.4-0.8,0.2-1.6-0.6-2.1l0,0
			C519.9,264.5,518.9,264.9,518.4,265.7z"/>
		<path class="st19" d="M515.9,264.6l-80.5,163.1l-7.9,4.1l-20,44.2c-0.1,0.3-0.3,0.5-0.2,0.9c0.4,2.1,2.4,11.2,12.7,5
			c0.2-0.1,0.4-0.3,0.6-0.4c0,0,20.4-43.2,20.5-43.4l-1.1-8.2l79.1-163.8c0.4-0.8,0.2-1.6-0.6-2.1l0,0
			C517.4,263.5,516.3,263.8,515.9,264.6z"/>
	</g>
	<path class="st5" d="M506.9,298.6c-1.5,2.6-13.8-2.7-27.7-9.2c-8.3-3.8-17.1-8.1-24.4-11.2l0,0c-1-0.4-2-0.9-3-1.3
		c-2.1-1.5-3.4-3.8-3.5-6.3c-0.1-1.6,0.2-3.1,1-4.6c2.1-3.7,6.6-5.2,10.4-3.6c1,0.7,2,1.5,3.1,2.2c1.1,0.8,2.2,1.5,3.3,2.3
		c6.5,4.5,14,9.6,20.9,14.3C498.5,289.3,508.1,296.5,506.9,298.6z"/>
</g>
<g>
	<g>
		<path class="st21" d="M420.9,396.4c-0.7,1-1.3,2-2,3.1c-12.9,19.8-30.9,50-36.8,47.1c-4.7-2.3,5.4-29.1,15.6-56.4
			c0.7-2,1.5-3.9,2.2-5.9c3.4-4.8,9.9-6.5,15.3-3.8C421.2,383.3,423.7,390.4,420.9,396.4z"/>
		<path class="st21" d="M360.8,361.8l7.6-11.4c0,0,32.7,20,43.1,26.4c0.3,0.2,0.6,0.4,0.9,0.6c0.7,0.4,1.5,0.9,2.2,1.3
			c4.1,3.4,5.6,9.3,3.3,14.4c-2.2,4.7-7,7.4-11.8,7.1c-1.5-0.5-3.1-1-4.7-1.6c0,0,0,0-0.1,0c-0.4-0.1-0.8-0.3-1.2-0.4
			c-7.5-2.5-30.6-9.1-38.1-11.5c0,0-25.2-4.8-14.5-26.5c10.8-21.7,0,0,0,0l0.9-6.3L360.8,361.8z"/>
		<g>
			<g>
				<polygon class="st5" points="424.9,246.6 413.4,287.7 404.2,296.4 388.2,275.4 398.7,238.9 				"/>
			</g>
			<g>
				<path class="st11" d="M408.3,270.4c1.1,1.4,2.3,2.7,3.7,3.1c0.7,0.2,1.5,0.3,2.3,0.1c0.4,0,0.8-0.2,1.2-0.3
					c0.4-0.1,0.8-0.3,1.3-0.4c-0.3,0.4-0.6,0.7-1,1c-0.4,0.2-0.8,0.6-1.2,0.7c-0.9,0.4-2,0.5-3,0.2s-1.8-1-2.4-1.8
					C408.8,272.2,408.4,271.3,408.3,270.4z"/>
			</g>
			<path class="st22" d="M406.7,334l-0.3,0.1l-4.9,9.9c-4.5,7.9-9.5,14.9-13.7,20.9c-0.6,0.8-1.2,1.7-1.7,2.5
				c-9.2,2.1-28.1-5.8-31.9-8.8c-2.9-2.3-4.7-4.3-5.5-5.2c-0.1-0.1-0.2-0.1-0.2-0.2c2.5-5.6,6.2-16.1,6.9-30.6c0-0.4,0-0.7,0.1-1.1
				c0.1-2.6,0.3-5.1,0.6-7.5c0.7-5.4,1.9-10.4,3.5-15c0.2-0.7,0.5-1.4,0.8-2.1c9-21.3,18.7-20.1,19.6-20.2l0,0l16.3,18.8l0.1-0.1
				l10.8,14l3.2-9.8l4.1-3.9C415.5,309.6,412,322.5,406.7,334z"/>
			<polygon class="st5" points="410.1,299.5 406.9,309.3 396.1,295.2 405.1,289.8 			"/>
			<polygon class="st1" points="416,293.8 414.2,295.5 410.1,299.5 405.1,289.8 414.1,287.4 			"/>
			<path class="st1" d="M405.1,289.8l-9,5.4l-0.1,0.1l-16.3-18.8l4.1-4.5c0.6,0.3,1.3,0.5,1.9,0.7l0.9,0.8L405.1,289.8z"/>
			<path class="st18" d="M383.8,272.1"/>
			<path class="st18" d="M383.8,272.1"/>
			<g>
				<path class="st5" d="M351.8,316.3c-3.1,1.4-6.9,0.8-9.4-1.8c-1.8-1.9-2.6-4.4-2.3-6.8c0.1-1,0.4-2,0.9-2.9
					c0.7-0.8,1.4-1.7,2.1-2.5c5.9-7.1,9.1-11.3,10.7-13.5l14.5,14.9c-1.9,1.3-5.2,3.7-10.5,7.8c-1,0.7-2,1.5-3.1,2.4
					C353.8,314.7,352.8,315.5,351.8,316.3z"/>
				<path class="st22" d="M369.5,304.9l-1-1.1L354,288.9l-1.1-1.1c0.4-0.4,0.8-0.9,1.3-1.3c8-7.8,17.3-11.7,22.9-10.1
					c1.2,0.3,2.1,0.9,2.9,1.7c0.2,0.2,0.4,0.4,0.5,0.6c2.7,3.6,1.3,10.2-3,16.9c-1.7,2.7-4,5.4-6.6,8
					C370.3,304.1,369.9,304.5,369.5,304.9z"/>
			</g>
			<g>
				<g>
					<path class="st12" d="M433,255.9c-2.2,7.6-8.4,14-15.3,16.4l6.2-22c-5.6,1.1-10.8-6.8-10.8-6.8c-4.6,3.9,0.7,9,0.7,9
						c-8.6-0.9-12.5-6.4-15.5-9.9l-6.2,21.6c-4.6-5.8-6.5-13.7-4.3-21.3c3.6-12.5,16.7-19.7,29.2-16.1
						C429.4,230.3,436.6,243.4,433,255.9z"/>
				</g>
				<g>
					<path class="st12" d="M391.8,262.6c0,0-16.6,5.1-14.6,32.3c0,0,0.6,8.7-2.2,15.5C375,310.4,404.5,291.7,391.8,262.6z"/>
				</g>
			</g>
		</g>
		<g>
			<path class="st2" d="M408.8,305.1l-80.5,163.1l-7.9,4.1l-20,44.2c-0.1,0.3-0.3,0.5-0.2,0.9c0.4,2.1,2.4,11.2,12.7,5
				c0.2-0.1,0.4-0.3,0.6-0.4c0,0,20.4-43.2,20.5-43.4l-1.1-8.2L412,306.6c0.4-0.8,0.2-1.6-0.6-2.1l0,0
				C410.3,304,409.3,304.3,408.8,305.1z"/>
			<path class="st19" d="M406.3,304l-80.5,163.1l-7.9,4.1l-20,44.2c-0.1,0.3-0.3,0.5-0.2,0.9c0.4,2.1,2.4,11.2,12.7,5
				c0.2-0.1,0.4-0.3,0.6-0.4c0,0,20.4-43.2,20.5-43.4l-1.1-8.2l79.1-163.8c0.4-0.8,0.2-1.6-0.6-2.1l0,0
				C407.8,302.9,406.7,303.2,406.3,304z"/>
		</g>
	</g>
	<path class="st5" d="M397.3,338c-1.5,2.6-13.8-2.7-27.7-9.2c-8.3-3.8-17.1-8.1-24.4-11.2l0,0c-1-0.4-2-0.9-3-1.3
		c-2.1-1.5-3.4-3.8-3.5-6.3c-0.1-1.6,0.2-3.1,1-4.6c2.1-3.7,6.6-5.2,10.4-3.6c1,0.7,2,1.5,3.1,2.2c1.1,0.8,2.2,1.5,3.3,2.3
		c6.5,4.5,14,9.6,20.9,14.3C388.9,328.8,398.5,335.9,397.3,338z"/>
</g>
</svg>
