<?xml version="1.0" encoding="utf-8"?>
<!-- Generator: Adobe Illustrator 21.0.2, SVG Export Plug-In . SVG Version: 6.00 Build 0)  -->
<svg version="1.1" id="Layer_1" xmlns="http://www.w3.org/2000/svg" xmlns:xlink="http://www.w3.org/1999/xlink" x="0px" y="0px"
	 viewBox="0 0 661.3 640.5" style="enable-background:new 0 0 661.3 640.5;" xml:space="preserve">
<style type="text/css">
	.st0{fill:#F7F8F9;}
	.st1{fill:none;stroke:#000000;stroke-miterlimit:10;}
	.st2{fill:#ECEDEE;}
	.st3{fill:#FFFFFF;}
	.st4{fill:#FFD633;}
	.st5{fill:#FFCC00;}
	.st6{fill:none;stroke:#E5B700;stroke-miterlimit:10;}
	.st7{enable-background:new    ;}
	.st8{fill:#DFE1E3;}
	.st9{fill:#8F7B69;}
	.st10{fill:#FAFAFA;}
	.st11{fill:#D6D7D8;}
	.st12{fill:#F9F9F9;}
	.st13{fill:#6BBD00;}
	.st14{fill:#2A4494;}
	.st15{fill:#FCC1BE;}
	.st16{fill:none;stroke:#C7CAD7;stroke-width:0.5;stroke-miterlimit:10;}
	.st17{fill:#22A3FF;}
	.st18{fill:#0099FF;}
	.st19{fill:#1B8AE5;}
	.st20{fill:none;stroke:#DFE1E3;stroke-miterlimit:10;}
</style>
<path class="st0" d="M637.4,498.1c0,5-5.7,9.9-8.6,17.3c-3,7.8-8.4,17.2-7.5,28.9c3.2,43-126.5,45.7-214.8,78.9
	c-64.4,24.2-245,23.6-314.3-5.5c-44-18.6-72.3-39.7-80.3-73.4c-2.3-9.5-4.4-12.4-6.3-19.6c-1.7-6.5-8.2-16.5-4.4-22.1
	c3.8-5.5,4.8-4,4.8-4s6.1-2.3,13.5-8.9c4.3-3.9,9-9.2,13.1-16.5c11.1-19.6,13.9-19.7,29.8-21.6s9.9-9.7,24.6-19.9
	c14.7-10.2,16.3,16.5,56.4-6.3s71.9-19.4,93.7-15c21.8,4.4,33.4,38.8,75.9,25.2c42.5-13.6,58.6,38,58.6,38
	c32.6-16.5,51.8-45.8,66.9-41.4s12.7-3.9,29.4-3.4c16.7,0.5,18.7,12.6,43.7,9.7s23.4,4.8,39.7,18.9s29.8,4.8,58.8,12.6
	c11.3,3,19.1,11.1,23.8,19.7C635.4,492.5,637.4,493.1,637.4,498.1z"/>
<g>
	<g>
		<polygon class="st1" points="538.4,301.1 536.3,299.9 538.4,298.7 540.4,299.9 		"/>
		<polygon class="st2" points="538.4,363.5 536.3,362.4 536.3,299.9 538.4,301.1 		"/>
		<polygon class="st3" points="538.4,363.5 540.4,362.4 540.4,299.9 538.4,301.1 		"/>
	</g>
</g>
<g>
	<g>
		<path class="st4" d="M458,476.1c0,0,2.5,7.8-2.6,10.5c0,0,1.8,13.1-13.2,14.3c-0.1,0-0.1,0-0.2,0c0.5-2.2,0.7-4.6,0.4-7
			c-0.8-6.2-4.3-11.2-8.7-13.3c0-0.7-0.1-1.3-0.1-2c-0.9-7.5-5.9-13.3-11.6-14.2v-0.2c-1-8-6.6-14.1-12.8-14.3
			c-2.1-5.6-6.5-9.6-11.4-9.9c-1.8-6.6-6.7-11.3-12.2-11.5c-2.3-4.8-6.5-8-11-8.1c-2.7-4.6-7.2-7.4-11.9-6.8c-0.5,0.1-1,0.2-1.5,0.3
			c-3-2-6.6-3.1-10.5-2.7c1.5-3.4,5.2-8.5,14.5-9.4c0,0,12.4-10.9,23.3-2.9c0,0,8.2-5.4,14.9,3.7c0,0,7.6-2.5,10.5,5.1
			c0,0,12-0.1,12.7,13.3c0,0,10-0.7,11.4,8.2c0,0,11.6,1.1,11.1,17c0,0,6,0.1,4.7,9.6c0,0,5.4,2.4,3.4,9.2
			C457.1,465,463.1,471,458,476.1z"/>
		<path class="st5" d="M442.3,493.9c0.3,2.5,0.2,4.8-0.4,7c-1.3,5.5-5.1,9.7-10,10.3c-1.1,0.1-2.1,0.1-3.2-0.1
			c-1.9,2.6-4.5,4.4-7.6,4.8c-1.8,0.2-3.6-0.1-5.3-0.8c-1.8,1.9-4,3.2-6.5,3.5c-3,0.4-5.9-0.6-8.3-2.6c-1.4,1.1-3.1,1.8-4.8,2
			c-4.2,0.5-8.3-1.7-11.1-5.6c-0.9,0.4-1.8,0.7-2.8,0.8c-4.6,0.6-9-2.1-11.7-6.5c-0.2,0-0.4,0.1-0.6,0.1c-3.8,0.5-7.5-1.3-10.2-4.5
			c-4.3-0.1-8.3-3.1-10.7-7.5c-3.9-0.8-7.4-3.9-9.5-8.2c-5.3-1.3-9.8-6.9-10.7-14c-0.1-0.4-0.1-0.8-0.1-1.2c-1.2-2.1-2-4.5-2.3-7.2
			c-0.4-3.5,0.1-6.9,1.3-9.7c-1.6-2.3-2.8-5.2-3.2-8.5c-1.1-8.7,3.6-16.4,10.4-17.3c0.4,0,0.8-0.1,1.1-0.1
			c-0.9-8.5,5.3-16.2,13.9-17.3c0.2,0,0.3,0,0.5-0.1c3.8-0.4,7.5,0.7,10.5,2.7c0.5-0.2,1-0.3,1.5-0.3c4.7-0.6,9.2,2.2,11.9,6.8
			c4.5,0.1,8.6,3.3,11,8.1c5.5,0.2,10.4,4.9,12.2,11.5c4.9,0.3,9.4,4.2,11.4,9.9c6.2,0.2,11.8,6.2,12.8,14.3v0.2
			c5.7,0.8,10.7,6.6,11.6,14.2c0.1,0.7,0.1,1.4,0.1,2C438,482.6,441.5,487.6,442.3,493.9z"/>
	</g>
	<g>
		<path class="st6" d="M393.3,473.9c0,0,1.1,2.4,4.3,1.7c0,0-3.2,6.1,3.3,9.8c0,0-7,20.1,14.2,17.8"/>
		<path class="st6" d="M354.7,428.7c0,0-3.3-9.3,6.1-14.5"/>
		<path class="st6" d="M374.4,420.5c0,0-8.1,2.7-7.2,11.1"/>
		<path class="st6" d="M386,428.8c0,0-11.9-0.4-9.5,12.7"/>
		<path class="st6" d="M398,440.4c0,0-10.8,2.2-13.4,9.9"/>
		<path class="st6" d="M404.4,459c0,0,6.4,0.7,9.8,5.8"/>
		<line class="st6" x1="409" y1="456.1" x2="409.3" y2="460.4"/>
		<path class="st6" d="M420.7,474.9c0,0,9.5,1.7,6.3,15.3c0,0,10.7,13.3-6.2,18.9c0,0-8.8,9.8-16.4,0.4c0,0-4.5,4.4-10.7,1.1"/>
		<line class="st6" x1="436.4" y1="502.3" x2="430.6" y2="498.8"/>
		<line class="st6" x1="437.3" y1="499.8" x2="433.8" y2="500.5"/>
		<line class="st6" x1="428.4" y1="492.7" x2="432.4" y2="492.1"/>
		<path class="st6" d="M411.2,495c0,0,2.2-8.3,8-10.1c0,0-0.5-11.6-10.2-12.4c0,0-11.8,1.8-14.5-8.9c0,0,4-6.7,0.5-14.5"/>
		<line class="st6" x1="399.8" y1="451.8" x2="396.2" y2="453.3"/>
		<path class="st6" d="M362.9,469.6c-1.5-12.1,6.1-13.7,6.1-13.7c2.7-12.4,15.7-8.9,15.7-8.9l-0.6-7.8"/>
		<path class="st6" d="M360.3,468.9c0,0,0.6-1.8,2.6-2.5"/>
		<path class="st6" d="M365.5,448c0,0,3.5,4.6,3.5,7.5"/>
		<path class="st6" d="M348.1,418.8c0,0-6.1,7.9,1,16.6c0,0-4.6,1.6-8.1,6.1c0,0-6.5,1.7-4.7,11.2c0,0-4.1,3.2-1.5,8
			c0,0-4.4,4,1.6,7.8c0,0-1.6,7.1,6.4,8.1c0,0-2.5-8.7,3.5-12.4c0,0-4.6-6,1.7-9.3c0,0-2.7-8.6,4.3-12.1l-0.3-2.7"/>
		<path class="st6" d="M353.4,468.9c0,0-9.8,6.5,2.9,18.6c0,0,5.2,9.4,12.5,5.9c0,0,0.9,3,4.5,2.4c0,0-4.9,3.9-2.8,10.4"/>
		<path class="st6" d="M374.5,494.9c0,0,3.7-8.9,10.6-9.1l1.1-2.4c0,0-10-4.1-7.7-15.5"/>
		<path class="st6" d="M367.5,465.2c0,0-1.4,4.9,1.8,5.4c3.2,0.6,8.7,0.4,8.7,0.4"/>
		<path class="st6" d="M361.1,476.6c0,0,0.8-5.3,7.9-5.8"/>
		<path class="st6" d="M344.1,446.1c0,0,1.7,3,3.4,3.7"/>
		<line class="st6" x1="338.9" y1="456.9" x2="344.5" y2="459.8"/>
		<path class="st6" d="M384.5,512.5c0,0,3.5-0.2,3.5-6.6c0,0,5.6,1.7,9.9-1.6"/>
		<path class="st6" d="M379.7,501.5c0,0,5.3,5.1,8.3,4.5"/>
		<polyline class="st6" points="389.4,491.6 389.4,494.6 385.7,495.2 		"/>
		<line class="st6" x1="392.3" y1="496.2" x2="389.4" y2="494.6"/>
		<path class="st6" d="M373.6,427.6c0,0,1.6,9.1-4.9,13.1l1.5,6.6"/>
		<path class="st6" d="M355.8,434.2c0,0-0.3,6.4,4.6,6.7c0.2,0,0.4,0,0.7,0l-2,4.8l0.5,3"/>
		<path class="st6" d="M375,462.9c0,0,5.6-3.4,13.5,3.6"/>
		<path class="st6" d="M386.5,455c0,0-5.2,2.5-5.2,7.3"/>
		<path class="st6" d="M380.3,454.1c0,0,1.6,0.7,2,3.9"/>
		<path class="st6" d="M386.6,470.8c0,0,0-5.7,7.3-6.8"/>
		<polyline class="st6" points="382.3,437 384.1,439.2 386.3,435.5 		"/>
		<path class="st6" d="M349.1,494.6c0,0,1.6,1.3,4-1.1l3,2.5"/>
		<path class="st6" d="M331.3,473.9c0,0,2,3.5,4.3,2.9c0,0-0.2,8.3,4,9.7"/>
		<path class="st6" d="M362.1,487.3c0,0,5.9-4.2,12.1-3.6"/>
		<polyline class="st6" points="366,480.7 369,483.4 369.7,479.7 		"/>
		<path class="st6" d="M404.2,486.2c0,0,1.7-4.6,8.5-5"/>
		<line class="st6" x1="408.5" y1="478.4" x2="408.8" y2="482"/>
		<path class="st6" d="M332.4,445.1c0,0-3.2-9.3,3.7-16.5"/>
		<path class="st6" d="M396.8,408.9c0,0-6.9-7.6-16.7-0.8c0,0-5.5-1-7.5,3.5"/>
		<line class="st6" x1="370.2" y1="409.2" x2="374.2" y2="409.4"/>
		<path class="st6" d="M383.6,416.6c0,0,4.7-8.1,13.4-7.7"/>
		<line class="st6" x1="383" y1="412.3" x2="386.8" y2="412.9"/>
		<polyline class="st6" points="382,399.2 382.4,402.3 377.4,402.4 		"/>
		<line class="st6" x1="385.1" y1="405.7" x2="382" y2="402.3"/>
		<path class="st6" d="M401.7,414.4c0,0,3.2-6.8,12.1-6.8"/>
		<path class="st6" d="M404.4,406c0,0,2.3-0.4,3.1,2.8"/>
		<path class="st6" d="M399.5,412.1c0,0,4.2,2.8,4.5,7.7"/>
		<path class="st6" d="M409.8,412c0,0,1.8-0.3,2,1.4c0,0,9.6-0.3,9.5,7.9c0,0,4.7,1.9,5.3,6"/>
		<path class="st6" d="M437.9,429.1c0,0-10-1-14.4,2c0,0-10.7-7.1-17,1.6"/>
		<path class="st6" d="M402.9,430.1c0,0,5.8,3.7,6.2,6.4l0.2,3.3"/>
		<line class="st6" x1="412.5" y1="437.4" x2="409.1" y2="436.6"/>
		<path class="st6" d="M389.6,417.1c0,0,6.5,1.2,9,4.9c0,0-0.7,5.2,4.5,5.1"/>
		<path class="st6" d="M410.6,421.5c0,0-7.1-4.1-12,0.5"/>
		<path class="st6" d="M364.9,406c0,0-4.5,3.4-5,7.3"/>
		<path class="st6" d="M412.7,450.8c0,0,1.4-8.1,9.2-6.4s8.9,0.2,8.9,0.2s-1.9,9.9,4.2,11.8c0,0-5,5.6-1.8,8.2s5.2,4,5.2,4l3.4-3.7"
			/>
		<polyline class="st6" points="440.9,461.1 441.6,465.2 443.7,465 		"/>
		<path class="st6" d="M440.4,479.2c0,0,3.7-2.9,7.1,1.7"/>
		<path class="st6" d="M442.3,492.3c0,0,6.9-2.4,7-5.8"/>
		<path class="st6" d="M441.5,439.4c0,0-4,7.4-2.4,14.4c0,0,10.8,1.4,11.3,11.3"/>
		<path class="st6" d="M437.1,440.9c0,0,2-0.1,2.5,2.4"/>
		<polyline class="st6" points="429.6,432.5 431.5,436.2 427.3,437.1 		"/>
		<line class="st6" x1="434.9" y1="437.9" x2="431.5" y2="436.2"/>
	</g>
</g>
<g>
	<g id="XMLID_467_">
		<g id="XMLID_468_">
			<g id="XMLID_469_" class="st7">
				<g id="XMLID_474_">
					<polygon id="XMLID_475_" class="st8" points="117.7,594.6 117.7,598.4 96.4,610.8 96.4,607 					"/>
				</g>
				<g id="XMLID_472_">
					<polygon id="XMLID_473_" class="st2" points="96.4,607 96.4,610.8 74.9,598.4 74.9,594.6 					"/>
				</g>
				<g id="XMLID_470_">
					<polygon id="XMLID_471_" class="st3" points="117.7,594.6 96.4,607 74.9,594.6 96.2,582.2 					"/>
				</g>
			</g>
		</g>
	</g>
	<g id="XMLID_464_">
		<polygon id="XMLID_466_" class="st8" points="96.9,568.4 96.9,601 108.5,594.3 		"/>
		<polygon id="XMLID_465_" class="st2" points="96.9,568.4 96.9,601 85.3,594.3 		"/>
	</g>
</g>
<g>
	<g id="XMLID_678_">
		<g id="XMLID_679_">
			<g id="XMLID_680_" class="st7">
				<g id="XMLID_685_">
					<polygon id="XMLID_686_" class="st8" points="562.3,562.6 562.3,566.4 540.9,578.9 540.9,575.1 					"/>
				</g>
				<g id="XMLID_683_">
					<polygon id="XMLID_684_" class="st2" points="540.9,575.1 540.9,578.9 519.4,566.4 519.4,562.6 					"/>
				</g>
				<g id="XMLID_681_">
					<polygon id="XMLID_682_" class="st3" points="562.3,562.6 540.9,575.1 519.4,562.6 540.8,550.2 					"/>
				</g>
			</g>
		</g>
	</g>
	<g id="XMLID_675_">
		<polygon id="XMLID_677_" class="st8" points="541.4,536.4 541.4,569 553,562.3 		"/>
		<polygon id="XMLID_676_" class="st2" points="541.4,536.4 541.4,569 529.8,562.3 		"/>
	</g>
</g>
<g>
	<g id="XMLID_436_">
		<g id="XMLID_462_">
			<path id="XMLID_463_" class="st3" d="M580.9,474.8c-4,2.3-4,6.1,0,8.4s10.5,2.3,14.5,0s4-6.1,0-8.4S584.9,472.5,580.9,474.8z"/>
		</g>
		<g id="XMLID_437_">
			<g id="XMLID_454_">
				<g id="XMLID_455_" class="st7">
					<g id="XMLID_460_">
						<polygon id="XMLID_461_" class="st2" points="590.4,460.3 590.3,480.4 588,481.8 588.1,461.7 						"/>
					</g>
					<g id="XMLID_458_">
						<polygon id="XMLID_459_" class="st2" points="588.1,461.7 588,481.8 585.7,480.4 585.8,460.3 						"/>
					</g>
					<g id="XMLID_456_">
						<polygon id="XMLID_457_" class="st9" points="590.4,460.3 588.1,461.7 585.8,460.3 588.1,459 						"/>
					</g>
				</g>
			</g>
			<g id="XMLID_438_">
				<g id="XMLID_451_">
					<polygon id="XMLID_453_" class="st2" points="588.1,449.3 588.1,474.6 597.8,470.9 					"/>
					<polygon id="XMLID_452_" class="st10" points="588.1,449.3 588.1,474.6 578.4,470.9 					"/>
				</g>
				<polygon id="XMLID_450_" class="st11" points="595.6,466.1 588.1,470.4 579.7,467.9 581.8,463.3 				"/>
				<g id="XMLID_447_">
					<polygon id="XMLID_449_" class="st2" points="588.1,437.4 588.1,468.9 600.1,464.4 					"/>
					<polygon id="XMLID_448_" class="st10" points="588.1,437.4 588.1,468.9 576,464.4 					"/>
				</g>
				<polygon id="XMLID_446_" class="st11" points="594.6,452 588.1,454.5 581.5,452 580.8,453.6 588.1,456.7 				"/>
				<g id="XMLID_443_">
					<polygon id="XMLID_445_" class="st2" points="588.1,429.2 588.1,454.5 597.8,450.8 					"/>
					<polygon id="XMLID_444_" class="st10" points="588.1,429.2 588.1,454.5 578.4,450.8 					"/>
				</g>
				<polygon id="XMLID_442_" class="st11" points="592.7,439.4 588.1,442.6 582.8,441 584.8,436.4 				"/>
				<g id="XMLID_439_">
					<polygon id="XMLID_441_" class="st2" points="588.1,426.2 588.1,441.1 593.8,439 					"/>
					<polygon id="XMLID_440_" class="st10" points="588.1,426.2 588.1,441.1 582.3,439 					"/>
				</g>
			</g>
		</g>
	</g>
</g>
<g>
	<g id="XMLID_408_">
		<g id="XMLID_434_">
			<path id="XMLID_435_" class="st3" d="M19.3,494.3c-4,2.3-4,6.1,0,8.4c4,2.3,10.5,2.3,14.5,0s4-6.1,0-8.4S23.3,492,19.3,494.3z"/>
		</g>
		<g id="XMLID_409_">
			<g id="XMLID_426_">
				<g id="XMLID_427_" class="st7">
					<g id="XMLID_432_">
						<polygon id="XMLID_433_" class="st2" points="28.8,479.9 28.8,499.9 26.5,501.3 26.5,481.2 						"/>
					</g>
					<g id="XMLID_430_">
						<polygon id="XMLID_431_" class="st2" points="26.5,481.2 26.5,501.3 24.2,499.9 24.2,479.9 						"/>
					</g>
					<g id="XMLID_428_">
						<polygon id="XMLID_429_" class="st9" points="28.8,479.9 26.5,481.2 24.2,479.9 26.5,478.5 						"/>
					</g>
				</g>
			</g>
			<g id="XMLID_410_">
				<g id="XMLID_423_">
					<polygon id="XMLID_425_" class="st2" points="26.5,468.8 26.5,494.1 36.2,490.5 					"/>
					<polygon id="XMLID_424_" class="st10" points="26.5,468.8 26.5,494.1 16.8,490.5 					"/>
				</g>
				<polygon id="XMLID_422_" class="st11" points="34,485.6 26.5,489.9 18.2,487.4 20.2,482.8 				"/>
				<g id="XMLID_419_">
					<polygon id="XMLID_421_" class="st2" points="26.5,456.9 26.5,488.4 38.6,483.9 					"/>
					<polygon id="XMLID_420_" class="st10" points="26.5,456.9 26.5,488.4 14.4,483.9 					"/>
				</g>
				<polygon id="XMLID_418_" class="st11" points="33,471.5 26.5,474 20,471.5 19.2,473.2 26.5,476.2 				"/>
				<g id="XMLID_415_">
					<polygon id="XMLID_417_" class="st2" points="26.5,448.7 26.5,474 36.2,470.3 					"/>
					<polygon id="XMLID_416_" class="st10" points="26.5,448.7 26.5,474 16.8,470.3 					"/>
				</g>
				<polygon id="XMLID_414_" class="st11" points="31.1,458.9 26.5,462.1 21.2,460.5 23.3,455.9 				"/>
				<g id="XMLID_411_">
					<polygon id="XMLID_413_" class="st2" points="26.5,445.7 26.5,460.7 32.2,458.5 					"/>
					<polygon id="XMLID_412_" class="st10" points="26.5,445.7 26.5,460.7 20.8,458.5 					"/>
				</g>
			</g>
		</g>
	</g>
</g>
<g>
	<g>
		<g>
			<g>
				<polygon class="st10" points="538.4,416.8 499.7,393.8 538.2,385.4 577.2,396.1 				"/>
				<polygon class="st2" points="537.9,424.9 499.4,402.1 499.7,393.8 538.4,416.8 				"/>
				<polygon class="st8" points="537.9,424.9 577,404.3 577.2,396.1 538.4,416.8 				"/>
			</g>
		</g>
		<g>
			<g>
				<polygon class="st10" points="538.5,377 504,356.6 538.3,338.1 572.9,358.6 				"/>
				<polygon class="st2" points="538,410.7 503.8,390.5 504,356.6 538.5,377 				"/>
				<polygon class="st8" points="538,410.7 572.7,392.4 572.9,358.6 538.5,377 				"/>
			</g>
		</g>
		<g>
			<g>
				<polygon class="st10" points="538.8,377 502.8,355.7 538.5,336.4 574.7,357.8 				"/>
			</g>
		</g>
		<g>
			<g>
				<polygon class="st1" points="564.2,298.4 562.2,297.2 564.2,296 566.3,297.2 				"/>
				<polygon class="st2" points="564.2,362.3 562.2,361.1 562.2,297.2 564.2,298.4 				"/>
				<polygon class="st3" points="564.2,362.3 566.3,361.1 566.3,297.2 564.2,298.4 				"/>
			</g>
		</g>
		<g>
			<g>
				<polygon class="st1" points="538.8,311.8 536.7,310.6 538.8,309.4 540.8,310.6 				"/>
				<polygon class="st2" points="538.8,375.8 536.7,374.6 536.7,310.6 538.8,311.8 				"/>
				<polygon class="st3" points="538.8,375.8 540.8,374.6 540.8,310.6 538.8,311.8 				"/>
			</g>
		</g>
		<g>
			<g>
				<polygon class="st12" points="540,308.9 504.1,287.6 539.8,268.3 576,289.7 				"/>
				<polygon class="st2" points="539.5,313.6 503.8,292.4 504.1,287.6 540,308.9 				"/>
				<polygon class="st8" points="539.5,313.6 575.8,294.5 576,289.7 540,308.9 				"/>
			</g>
		</g>
		<path class="st10" d="M543.6,289.2h-16.9c-2.5-7.2-15.2-25.8-26.6-36.5c-10.4-9.7-41.5-41.6-47.3-47.5c-0.1-0.1-0.2-0.2-0.3-0.3
			c-0.3-0.3-0.4-0.4-0.5-0.6c-0.1-0.1-0.1-0.1-0.1-0.1c-21.3-21.7-34.5-51.4-34.5-84.2c0-66.3,53.7-120,120-120
			c2.9,0,10.7,0.9,13.6,1.2C554,8.9,657,89.4,543.6,289.2z"/>
		<path class="st8" d="M661.3,119.9c0,27.6-9.3,53-25,73.3c0,0,0,0-0.1,0.1c-0.8,0.9-6.8,7.4-14.7,15.9
			c-10.8,11.4-25.3,26.4-35.8,35.6c-18.9,16.6-34.2,44.2-34.2,44.2h-13.1C645.6,98.5,552.9,7.9,549.9,0.2
			C612.1,4.6,661.3,56.5,661.3,119.9z"/>
		<g>
			<path class="st13" d="M541.8,327.5c-6.4-14.2-12.9-13.2-13.5-13.3l0,0l-10.7,12.9h-0.1l-7.1,9.6l-2.3-6.5l-2.8-2.6
				c-0.7,9.5,1.9,18.1,5.6,25.7l0,0c1.3,2.9,3.6,6.6,3.6,6.6c3.2,5.2,6.6,9.9,9.6,13.8c0.4,0.6,0.8,1.1,1.2,1.7
				c6.2,1.3,12.6,4.5,15.1,2.5c1.9-1.6,12.9-7.3,12.9-7.3c-1.8-3.7-7.3-16-8-25.8c0-0.2,0-0.5-0.1-0.8c-0.1-1.7-0.3-3.4-0.5-5.1
				c-0.5-3.6-1.4-7-2.6-10.1C542.2,328.4,542,328,541.8,327.5z M532.5,319c-0.1,0.2-0.3,0.3-0.3,0.3L532.5,319z"/>
			<path class="st14" d="M532.5,319c-0.1,0.2-0.3,0.3-0.3,0.3L532.5,319z"/>
			<path class="st15" d="M498.5,298l8.4,23.8l5.7,1.4l11.4-10.5l-0.1-0.3c-1.3-27.9-19.3-16.4-19.3-16.4
				C505.3,299.2,502.4,300.1,498.5,298z"/>
			<polygon class="st15" points="508.2,330.1 510.5,336.7 517.5,327.1 511.4,323.5 			"/>
			<polygon class="st3" points="504.1,326.4 505.4,327.6 508.2,330.1 511.4,323.5 505.3,322.1 			"/>
			<path class="st3" d="M511.4,323.5l6.1,3.5h0.1l10.7-12.9l-2.8-2.9c-0.4,0.2-0.8,0.3-1.3,0.5l-0.6,0.6L511.4,323.5z"/>
			<path class="st16" d="M487.7,318.8"/>
			<g>
				<path d="M511.6,312.4c-0.1,0.7-0.4,1.3-0.8,1.9c-0.4,0.6-1,1.1-1.7,1.4c-0.7,0.2-1.5,0.3-2.2,0c-0.4-0.1-0.7-0.3-1-0.4
					c-0.3-0.2-0.6-0.4-0.9-0.6c0.3,0.1,0.6,0.3,1,0.4c0.3,0.1,0.6,0.2,1,0.3c0.6,0.1,1.3,0.1,1.9-0.1c0.6-0.2,1.1-0.6,1.6-1.1
					C511,313.6,511.3,313,511.6,312.4z"/>
			</g>
			<path class="st16" d="M525.5,311.3"/>
			<path class="st16" d="M525.5,311.3"/>
			<path class="st14" d="M523.9,313c0,0,2.8-24.3-5.9-21.4c0,0,1.5-14.9-35.2,2.1c0,0-7.2,2.4-10.8-2.8c0,0,4.8,18.5,19.1,18.8
				c7.8,0.1,11.2-6,12.9-7.7c2.1-2.1,13.1-8.8,14.5-4.8C520.3,302.8,523.9,313,523.9,313z"/>
			<path class="st14" d="M532.5,319c-0.1,0.2-0.3,0.3-0.3,0.3L532.5,319z"/>
			<g>
				<path class="st15" d="M512.2,348.3c-0.8,2.1-0.2,4.6,1.6,6.1c1.3,1.1,3,1.5,4.6,1.1c0.7-0.1,1.3-0.4,1.9-0.8
					c0.5-0.5,1-1,1.5-1.5c4.3-4.2,7-6.5,8.3-7.7l-10.5-8.7c-0.7,1.3-2.1,3.6-4.6,7.3c-0.4,0.7-0.9,1.4-1.4,2.1
					S512.7,347.6,512.2,348.3z"/>
				<path class="st13" d="M518.8,336.1l0.8,0.6l10.5,8.7l0.8,0.6c0.3-0.3,0.5-0.6,0.8-0.9c4.7-5.6,6.8-11.9,5.5-15.5
					c-0.3-0.7-0.7-1.4-1.3-1.8c-0.1-0.1-0.3-0.2-0.4-0.3c-2.5-1.6-6.7-0.4-10.9,2.8c-1.7,1.3-3.4,2.9-4.9,4.7
					C519.3,335.5,519,335.8,518.8,336.1z"/>
			</g>
		</g>
		<polygon class="st2" points="538.3,384.5 502.5,363.3 502.8,355.7 538.8,377 		"/>
		<polygon class="st8" points="538.3,384.5 574.5,365.4 574.7,357.8 538.8,377 		"/>
		<g>
			<polygon class="st17" points="483.7,352.8 484.9,348 480.2,349.3 478.9,354 			"/>
			<polygon class="st18" points="494,362.6 489.2,363.9 478.9,354 483.7,352.8 			"/>
			<polygon class="st19" points="494,362.6 495.2,357.9 484.9,348 483.7,352.8 			"/>
			<polygon class="st17" points="473.8,343.1 474.5,340.6 472.1,341.3 471.4,343.7 			"/>
			<polygon class="st18" points="482.7,351.8 480.3,352.5 471.4,343.7 473.8,343.1 			"/>
			<polygon class="st19" points="482.7,351.8 483.4,349.4 474.5,340.6 473.8,343.1 			"/>
			<g>
				<path class="st19" d="M454.1,326.6c-5.3,1.3-7.9,4.4-7.4,7.8l0,0c0.2,1.5,1.1,3.1,2.6,4.6c5,5,15.2,7.5,22.8,5.6
					c4.8-1.2,7.4-3.8,7.5-6.8c0.1-1.8-0.8-3.8-2.7-5.6C472,327.2,461.7,324.7,454.1,326.6z M474,337.9c0,2.2-1.9,4.2-5.4,5.1
					c-5.5,1.4-12.8-0.4-16.4-4c-1-1-1.6-2-1.8-2.9c-0.7-2.6,1.3-5,5.3-6c5.5-1.4,12.8,0.4,16.4,4C473.4,335.3,474,336.7,474,337.9z"
					/>
				<path class="st18" d="M454.2,327.6c-4.8,1.2-7.4,3.8-7.5,6.8l0,0c-0.1,1.8,0.8,3.8,2.7,5.7c5,5,15.2,7.5,22.8,5.6
					c5.3-1.3,7.9-4.4,7.4-7.8c-0.2-1.5-1.1-3.1-2.6-4.6C472,328.2,461.8,325.7,454.2,327.6z M450.5,336c-0.7-2.6,1.3-5,5.3-6
					c5.5-1.4,12.8,0.4,16.4,4c1.3,1.3,1.9,2.6,1.9,3.9c0,2.2-1.9,4.2-5.4,5.1c-5.5,1.4-12.8-0.4-16.4-4
					C451.3,338,450.7,337,450.5,336z"/>
				<path class="st19" d="M474,337.9c0.7,2.6-1.2,5-5.3,6c-5.5,1.4-12.8-0.4-16.4-4c-1.3-1.3-1.9-2.6-1.9-3.9c0.2,1,0.8,2,1.8,2.9
					c3.6,3.6,10.9,5.4,16.4,4C472.2,342.1,474.1,340.1,474,337.9z"/>
			</g>
		</g>
	</g>
	<path class="st15" d="M480.1,359.2c0.5,1.9,9.2,0.8,19.2-0.8c5.9-0.9,12.2-2,17.5-2.7l0,0c0.7-0.1,1.4-0.2,2.1-0.3
		c1.6-0.5,2.8-1.8,3.4-3.3c0.3-1,0.4-2,0.2-3.1c-0.6-2.7-3.2-4.4-5.9-4.1c-0.8,0.3-1.6,0.6-2.3,0.8c-0.8,0.3-1.6,0.6-2.5,0.9
		c-4.9,1.7-10.6,3.5-15.8,5.3C487.1,354.9,479.7,357.6,480.1,359.2z"/>
</g>
<g>
	<g>
		<path class="st12" d="M340.2,504.4c0.4,3.3,0.2,6.5-0.5,9.4c-1.8,7.4-6.9,13-13.4,13.8c-1.4,0.2-2.9,0.1-4.2-0.1
			c-2.5,3.5-6,5.9-10.2,6.4c-2.5,0.3-4.9-0.1-7.1-1.1c-2.4,2.6-5.4,4.3-8.8,4.7c-4,0.5-7.9-0.9-11.2-3.5c-1.9,1.4-4.1,2.3-6.5,2.6
			c-5.7,0.7-11.2-2.3-14.8-7.5c-1.2,0.5-2.4,0.9-3.8,1c-6.1,0.8-12-2.8-15.7-8.8c-0.3,0.1-0.6,0.1-0.8,0.1c-5.1,0.6-10.1-1.8-13.7-6
			c-5.8-0.2-11.2-4.1-14.4-10.1c-5.3-1-10-5.2-12.7-11c-7.1-1.8-13.1-9.2-14.3-18.7c-0.1-0.5-0.1-1.1-0.1-1.6
			c-1.6-2.8-2.7-6-3.2-9.6c-0.6-4.7,0.1-9.2,1.7-13c-2.2-3.1-3.7-7-4.3-11.4c-1.5-11.7,4.8-22,13.9-23.2c0.5-0.1,1-0.1,1.5-0.1
			c-1.1-11.4,7.1-21.8,18.7-23.2c0.2,0,0.5-0.1,0.7-0.1c5.2-0.5,10.1,0.9,14.1,3.6c0.7-0.2,1.3-0.3,2-0.4c6.3-0.8,12.3,3,15.9,9.2
			c6,0.2,11.6,4.5,14.7,10.9c7.3,0.3,14,6.6,16.3,15.5c6.6,0.4,12.6,5.7,15.3,13.2c8.4,0.2,15.8,8.3,17.2,19.1v0.2
			c7.7,1.1,14.4,8.9,15.6,19c0.1,0.9,0.2,1.8,0.2,2.7C334.4,489.3,339.1,496,340.2,504.4z"/>
		<path class="st3" d="M361.2,480.5c0,0,3.4,10.4-3.6,14.1c0,0,2.4,17.6-17.8,19.1c-0.1,0-0.2,0-0.3,0c0.7-2.9,0.9-6.1,0.5-9.4
			c-1-8.3-5.7-15.1-11.7-17.8c0-0.9-0.1-1.8-0.2-2.7c-1.3-10.1-7.9-17.9-15.6-19v-0.2c-1.3-10.8-8.8-18.9-17.2-19.1
			c-2.8-7.6-8.7-12.8-15.3-13.2c-2.4-8.9-9-15.2-16.3-15.5c-3.1-6.4-8.7-10.7-14.7-10.9c-3.6-6.2-9.7-10-15.9-9.2
			c-0.7,0.1-1.4,0.2-2,0.4c-4-2.7-8.9-4.1-14.1-3.6c2-4.6,7-11.4,19.4-12.7c0,0,16.6-14.6,31.3-3.9c0,0,11.1-7.3,20,4.9
			c0,0,10.2-3.4,14.2,6.8c0,0,16.1-0.1,17.1,17.8c0,0,13.4-0.9,15.3,11c0,0,15.6,1.5,14.8,22.9c0,0,8,0.1,6.4,12.9
			c0,0,7.3,3.3,4.6,12.4C360,465.6,368,473.7,361.2,480.5z"/>
	</g>
	<g>
		<path class="st20" d="M274.4,477.6c0,0,1.5,3.2,5.8,2.3c0,0-4.3,8.2,4.5,13.1c0,0-9.3,27,19.1,23.9"/>
		<path class="st20" d="M222.6,417c0,0-4.4-12.5,8.2-19.4"/>
		<path class="st20" d="M249.1,405.9c0,0-10.8,3.7-9.7,14.8"/>
		<path class="st20" d="M264.6,417c0,0-16-0.5-12.7,17"/>
		<path class="st20" d="M280.7,432.7c0,0-14.5,3-18,13.3"/>
		<path class="st20" d="M289.3,457.6c0,0,8.6,0.9,13.1,7.8"/>
		<line class="st20" x1="295.4" y1="453.7" x2="295.8" y2="459.5"/>
		<path class="st20" d="M311.2,478.9c0,0,12.8,2.3,8.5,20.5c0,0,14.4,17.9-8.4,25.4c0,0-11.8,13.1-22.1,0.5c0,0-6.1,5.9-14.4,1.5"/>
		<line class="st20" x1="332.2" y1="515.7" x2="324.4" y2="510.9"/>
		<line class="st20" x1="333.4" y1="512.3" x2="328.7" y2="513.2"/>
		<line class="st20" x1="321.5" y1="502.8" x2="326.8" y2="502"/>
		<path class="st20" d="M298.4,505.9c0,0,3-11.1,10.8-13.6c0,0-0.7-15.6-13.7-16.6c0,0-15.8,2.5-19.5-11.9c0,0,5.3-9,0.7-19.5"/>
		<line class="st20" x1="283.1" y1="447.9" x2="278.2" y2="449.9"/>
		<path class="st20" d="M233.5,471.8c-2-16.2,8.2-18.3,8.2-18.3c3.6-16.7,21.1-11.9,21.1-11.9l-0.8-10.4"/>
		<path class="st20" d="M230.1,470.9c0,0,0.8-2.4,3.5-3.4"/>
		<path class="st20" d="M237.1,442.8c0,0,4.7,6.1,4.7,10.1"/>
		<path class="st20" d="M213.7,403.6c0,0-8.2,10.5,1.3,22.2c0,0-6.2,2.2-10.8,8.1c0,0-8.8,2.3-6.4,15c0,0-5.5,4.3-2,10.8
			c0,0-5.9,5.3,2.1,10.4c0,0-2.1,9.5,8.6,10.9c0,0-3.4-11.7,4.7-16.6c0,0-6.2-8.1,2.3-12.5c0,0-3.6-11.5,5.8-16.2l-0.3-3.6"/>
		<path class="st20" d="M220.8,470.9c0,0-13.1,8.8,3.9,25c0,0,7,12.6,16.8,8c0,0,1.2,4,6.1,3.2c0,0-6.6,5.2-3.8,13.9"/>
		<path class="st20" d="M249.2,505.7c0,0,4.9-11.9,14.2-12.2l1.5-3.2c0,0-13.4-5.6-10.4-20.8"/>
		<path class="st20" d="M239.7,465.9c0,0-1.9,6.6,2.4,7.3c4.3,0.7,11.6,0.6,11.6,0.6"/>
		<path class="st20" d="M231.2,481.2c0,0,1-7.1,10.6-7.8"/>
		<path class="st20" d="M208.4,440.2c0,0,2.3,4,4.6,5"/>
		<line class="st20" x1="201.4" y1="454.8" x2="208.9" y2="458.7"/>
		<path class="st20" d="M262.6,529.4c0,0,4.7-0.2,4.7-8.9c0,0,7.5,2.3,13.2-2.2"/>
		<path class="st20" d="M256.1,514.5c0,0,7.2,6.8,11.2,6"/>
		<polyline class="st20" points="269.2,501.4 269.1,505.3 264.2,506.1 		"/>
		<line class="st20" x1="273" y1="507.6" x2="269.1" y2="505.3"/>
		<path class="st20" d="M247.9,415.5c0,0,2.2,12.2-6.5,17.6l2,8.9"/>
		<path class="st20" d="M224,424.3c0,0-0.4,8.6,6.2,8.9c0.3,0,0.6,0,0.9,0l-2.7,6.4l0.7,4"/>
		<path class="st20" d="M249.8,462.8c0,0,7.6-4.5,18.1,4.8"/>
		<path class="st20" d="M265.2,452.3c0,0-6.9,3.4-6.9,9.8"/>
		<path class="st20" d="M256.9,451c0,0,2.2,1,2.7,5.3"/>
		<path class="st20" d="M265.3,473.4c0,0,0.1-7.6,9.8-9.1"/>
		<polyline class="st20" points="259.7,428.1 262.1,431.1 265,426.1 		"/>
		<path class="st20" d="M215,505.4c0,0,2.1,1.7,5.3-1.5l4,3.3"/>
		<path class="st20" d="M191.1,477.6c0,0,2.6,4.8,5.8,3.8c0,0-0.2,11.1,5.4,13"/>
		<path class="st20" d="M232.5,495.5c0,0,7.9-5.6,16.2-4.8"/>
		<polyline class="st20" points="237.8,486.7 241.8,490.3 242.7,485.3 		"/>
		<path class="st20" d="M289,494c0,0,2.3-6.1,11.4-6.8"/>
		<line class="st20" x1="294.8" y1="483.6" x2="295.2" y2="488.4"/>
		<path class="st20" d="M192.7,439c0,0-4.4-12.5,5-22.1"/>
		<path class="st20" d="M279.1,390.3c0,0-9.2-10.2-22.4-1.1c0,0-7.3-1.3-10.1,4.7"/>
		<line class="st20" x1="243.4" y1="390.7" x2="248.7" y2="391"/>
		<path class="st20" d="M261.4,400.7c0,0,6.4-10.9,18-10.4"/>
		<line class="st20" x1="260.5" y1="394.9" x2="265.7" y2="395.8"/>
		<polyline class="st20" points="259.2,377.4 259.7,381.5 253.1,381.6 		"/>
		<line class="st20" x1="263.4" y1="386.1" x2="259.3" y2="381.5"/>
		<path class="st20" d="M285.6,397.8c0,0,4.3-9.1,16.2-9.1"/>
		<path class="st20" d="M289.2,386.5c0,0,3-0.5,4.2,3.8"/>
		<path class="st20" d="M282.7,394.6c0,0,5.6,3.7,6,10.4"/>
		<path class="st20" d="M296.6,394.5c0,0,2.4-0.4,2.7,1.9c0,0,12.9-0.4,12.8,10.6c0,0,6.3,2.5,7.1,8"/>
		<path class="st20" d="M334.2,417.5c0,0-13.5-1.3-19.4,2.7c0,0-14.4-9.6-22.9,2.1"/>
		<path class="st20" d="M287.3,418.9c0,0,7.8,4.9,8.3,8.6l0.2,4.4"/>
		<line class="st20" x1="300.1" y1="428.6" x2="295.6" y2="427.5"/>
		<path class="st20" d="M269.4,401.4c0,0,8.8,1.6,12.1,6.5c0,0-0.9,7,6,6.9"/>
		<path class="st20" d="M297.5,407.3c0,0-9.6-5.4-16.1,0.6"/>
		<path class="st20" d="M236.2,386.5c0,0-6.1,4.6-6.7,9.8"/>
		<path class="st20" d="M300.4,446.6c0,0,1.9-10.8,12.3-8.6c10.5,2.2,11.9,0.2,11.9,0.2s-2.5,13.3,5.6,15.9c0,0-6.7,7.6-2.5,11
			s7,5.3,7,5.3l4.5-5"/>
		<polyline class="st20" points="338.2,460.4 339.2,465.9 342,465.7 		"/>
		<path class="st20" d="M337.6,484.6c0,0,5-3.9,9.5,2.3"/>
		<path class="st20" d="M340.1,502.2c0,0,9.2-3.2,9.4-7.8"/>
		<path class="st20" d="M339.1,431.3c0,0-5.4,9.9-3.3,19.4c0,0,14.5,1.9,15.2,15.1"/>
		<path class="st20" d="M333.1,433.3c0,0,2.7-0.1,3.4,3.2"/>
		<polyline class="st20" points="323,422 325.6,427 319.9,428.2 		"/>
		<line class="st20" x1="330.2" y1="429.2" x2="325.6" y2="427"/>
	</g>
</g>
<g>
	<g>
		<path class="st12" d="M223.4,543.2c0.4,3.3,0.2,6.5-0.5,9.4c-1.8,7.4-6.9,13-13.4,13.8c-1.4,0.2-2.9,0.1-4.2-0.1
			c-2.5,3.5-6,5.9-10.2,6.4c-2.5,0.3-4.9-0.1-7.1-1.1c-2.4,2.6-5.4,4.3-8.8,4.7c-4,0.5-7.9-0.9-11.2-3.5c-1.9,1.4-4.1,2.3-6.5,2.6
			c-5.7,0.7-11.2-2.3-14.8-7.5c-1.2,0.5-2.4,0.9-3.8,1c-6.1,0.8-12-2.8-15.7-8.8c-0.3,0.1-0.6,0.1-0.8,0.1c-5.1,0.6-10.1-1.8-13.7-6
			c-5.8-0.2-11.2-4.1-14.4-10.1c-5.3-1-10-5.2-12.7-11c-7.1-1.8-13.1-9.2-14.3-18.7c-0.1-0.5-0.1-1.1-0.1-1.6
			c-1.6-2.8-2.7-6-3.2-9.6c-0.6-4.7,0.1-9.2,1.7-13c-2.2-3.1-3.7-7-4.3-11.4c-1.5-11.7,4.8-22,13.9-23.2c0.5-0.1,1-0.1,1.5-0.1
			c-1.1-11.4,7.1-21.8,18.7-23.2c0.2,0,0.5-0.1,0.7-0.1c5.2-0.5,10.1,0.9,14.1,3.6c0.7-0.2,1.3-0.3,2-0.4c6.3-0.8,12.3,3,15.9,9.2
			c6,0.2,11.6,4.5,14.7,10.9c7.3,0.3,14,6.6,16.3,15.5c6.6,0.4,12.6,5.7,15.3,13.2c8.4,0.2,15.8,8.3,17.2,19.1v0.2
			c7.7,1.1,14.4,8.9,15.6,19c0.1,0.9,0.2,1.8,0.2,2.7C217.7,528.1,222.4,534.9,223.4,543.2z"/>
		<path class="st3" d="M244.5,519.3c0,0,3.4,10.4-3.6,14.1c0,0,2.4,17.6-17.8,19.1c-0.1,0-0.2,0-0.3,0c0.7-2.9,0.9-6.1,0.5-9.4
			c-1-8.3-5.7-15.1-11.7-17.8c0-0.9-0.1-1.8-0.2-2.7c-1.3-10.1-7.9-17.9-15.6-19v-0.2c-1.3-10.8-8.8-18.9-17.2-19.1
			c-2.8-7.6-8.7-12.8-15.3-13.2c-2.4-8.9-9-15.2-16.3-15.5c-3.1-6.4-8.7-10.7-14.7-10.9c-3.6-6.2-9.7-10-15.9-9.2
			c-0.7,0.1-1.4,0.2-2,0.4c-4-2.7-8.9-4.1-14.1-3.6c2-4.6,7-11.4,19.4-12.7c0,0,16.6-14.6,31.3-3.9c0,0,11.1-7.3,20,4.9
			c0,0,10.2-3.4,14.2,6.8c0,0,16.1-0.1,17.1,17.8c0,0,13.4-0.9,15.3,11c0,0,15.6,1.5,14.8,22.9c0,0,8,0.1,6.4,12.9
			c0,0,7.3,3.3,4.6,12.4C243.2,504.4,251.3,512.6,244.5,519.3z"/>
	</g>
	<g>
		<path class="st20" d="M157.7,516.4c0,0,1.5,3.2,5.8,2.3c0,0-4.3,8.2,4.5,13.1c0,0-9.3,27,19.1,23.9"/>
		<path class="st20" d="M105.8,455.8c0,0-4.4-12.5,8.2-19.4"/>
		<path class="st20" d="M132.4,444.8c0,0-10.8,3.7-9.7,14.8"/>
		<path class="st20" d="M147.9,455.9c0,0-16-0.5-12.7,17"/>
		<path class="st20" d="M164,471.5c0,0-14.5,3-18,13.3"/>
		<path class="st20" d="M172.6,496.4c0,0,8.6,0.9,13.1,7.8"/>
		<line class="st20" x1="178.7" y1="492.5" x2="179.1" y2="498.3"/>
		<path class="st20" d="M194.5,517.7c0,0,12.8,2.3,8.5,20.5c0,0,14.4,17.9-8.4,25.4c0,0-11.8,13.1-22.1,0.5c0,0-6.1,5.9-14.4,1.5"/>
		<line class="st20" x1="215.4" y1="554.6" x2="207.7" y2="549.8"/>
		<line class="st20" x1="216.7" y1="551.1" x2="212" y2="552"/>
		<line class="st20" x1="204.8" y1="541.6" x2="210.1" y2="540.9"/>
		<path class="st20" d="M181.7,544.8c0,0,3-11.1,10.8-13.6c0,0-0.7-15.6-13.7-16.6c0,0-15.8,2.5-19.5-11.9c0,0,5.3-9,0.7-19.5"/>
		<line class="st20" x1="166.3" y1="486.8" x2="161.5" y2="488.8"/>
		<path class="st20" d="M116.8,510.6c-2-16.2,8.2-18.3,8.2-18.3c3.6-16.7,21.1-11.9,21.1-11.9l-0.8-10.4"/>
		<path class="st20" d="M113.4,509.7c0,0,0.8-2.4,3.5-3.4"/>
		<path class="st20" d="M120.4,481.7c0,0,4.7,6.1,4.7,10.1"/>
		<path class="st20" d="M97,442.4c0,0-8.2,10.5,1.3,22.2c0,0-6.2,2.2-10.8,8.1c0,0-8.8,2.3-6.4,15c0,0-5.5,4.3-2,10.8
			c0,0-5.9,5.3,2.1,10.4c0,0-2.1,9.5,8.6,10.9c0,0-3.4-11.7,4.7-16.6c0,0-6.2-8.1,2.3-12.5c0,0-3.6-11.5,5.8-16.2l-0.3-3.6"/>
		<path class="st20" d="M104.1,509.8c0,0-13.1,8.8,3.9,25c0,0,7,12.6,16.8,8c0,0,1.2,4,6.1,3.2c0,0-6.6,5.2-3.8,13.9"/>
		<path class="st20" d="M132.5,544.6c0,0,4.9-11.9,14.2-12.2l1.5-3.2c0,0-13.4-5.6-10.4-20.8"/>
		<path class="st20" d="M123,504.7c0,0-1.9,6.6,2.4,7.3c4.3,0.7,11.6,0.6,11.6,0.6"/>
		<path class="st20" d="M114.5,520c0,0,1-7.1,10.6-7.8"/>
		<path class="st20" d="M91.7,479c0,0,2.3,4,4.6,5"/>
		<line class="st20" x1="84.7" y1="493.6" x2="92.2" y2="497.5"/>
		<path class="st20" d="M145.9,568.2c0,0,4.7-0.2,4.7-8.9c0,0,7.5,2.3,13.2-2.2"/>
		<path class="st20" d="M139.4,553.4c0,0,7.2,6.8,11.2,6"/>
		<polyline class="st20" points="152.5,540.2 152.4,544.2 147.5,545 		"/>
		<line class="st20" x1="156.3" y1="546.4" x2="152.4" y2="544.2"/>
		<path class="st20" d="M131.2,454.3c0,0,2.2,12.2-6.5,17.6l2,8.9"/>
		<path class="st20" d="M107.3,463.1c0,0-0.4,8.6,6.2,8.9c0.3,0,0.6,0,0.9,0l-2.7,6.4l0.7,4"/>
		<path class="st20" d="M133.1,501.7c0,0,7.6-4.5,18.1,4.8"/>
		<path class="st20" d="M148.5,491.1c0,0-6.9,3.4-6.9,9.8"/>
		<path class="st20" d="M140.2,489.9c0,0,2.2,1,2.7,5.3"/>
		<path class="st20" d="M148.6,512.2c0,0,0.1-7.6,9.8-9.1"/>
		<polyline class="st20" points="142.9,466.9 145.4,469.9 148.3,465 		"/>
		<path class="st20" d="M98.3,544.2c0,0,2.1,1.7,5.3-1.5l4,3.3"/>
		<path class="st20" d="M74.4,516.4c0,0,2.6,4.8,5.8,3.8c0,0-0.2,11.1,5.4,13"/>
		<path class="st20" d="M115.8,534.3c0,0,7.9-5.6,16.2-4.8"/>
		<polyline class="st20" points="121.1,525.6 125.1,529.1 126,524.2 		"/>
		<path class="st20" d="M172.3,532.9c0,0,2.3-6.1,11.4-6.8"/>
		<line class="st20" x1="178.1" y1="522.5" x2="178.5" y2="527.3"/>
		<path class="st20" d="M75.9,477.8c0,0-4.4-12.5,5-22.1"/>
		<path class="st20" d="M162.4,429.2c0,0-9.2-10.2-22.4-1.1c0,0-7.3-1.3-10.1,4.7"/>
		<line class="st20" x1="126.7" y1="429.6" x2="132" y2="429.9"/>
		<path class="st20" d="M144.6,439.5c0,0,6.4-10.9,18-10.4"/>
		<line class="st20" x1="143.8" y1="433.7" x2="149" y2="434.6"/>
		<polyline class="st20" points="142.5,416.2 143,420.4 136.4,420.4 		"/>
		<line class="st20" x1="146.7" y1="424.9" x2="142.6" y2="420.3"/>
		<path class="st20" d="M168.9,436.6c0,0,4.3-9.1,16.2-9.1"/>
		<path class="st20" d="M172.5,425.3c0,0,3-0.5,4.2,3.8"/>
		<path class="st20" d="M165.9,433.4c0,0,5.6,3.7,6,10.4"/>
		<path class="st20" d="M179.8,433.3c0,0,2.4-0.4,2.7,1.9c0,0,12.9-0.4,12.8,10.6c0,0,6.3,2.5,7.1,8"/>
		<path class="st20" d="M217.5,456.3c0,0-13.5-1.3-19.4,2.7c0,0-14.4-9.6-22.9,2.1"/>
		<path class="st20" d="M170.6,457.7c0,0,7.8,4.9,8.3,8.6l0.2,4.4"/>
		<line class="st20" x1="183.4" y1="467.5" x2="178.8" y2="466.3"/>
		<path class="st20" d="M152.7,440.2c0,0,8.8,1.6,12.1,6.5c0,0-0.9,7,6,6.9"/>
		<path class="st20" d="M180.8,446.1c0,0-9.6-5.4-16.1,0.6"/>
		<path class="st20" d="M119.5,425.3c0,0-6.1,4.6-6.7,9.8"/>
		<path class="st20" d="M183.7,485.4c0,0,1.9-10.8,12.3-8.6c10.5,2.2,11.9,0.2,11.9,0.2s-2.5,13.3,5.6,15.9c0,0-6.7,7.6-2.5,11
			c4.2,3.4,7,5.3,7,5.3l4.5-5"/>
		<polyline class="st20" points="221.5,499.2 222.5,504.8 225.3,504.5 		"/>
		<path class="st20" d="M220.9,523.5c0,0,5-3.9,9.5,2.3"/>
		<path class="st20" d="M223.4,541.1c0,0,9.2-3.2,9.4-7.8"/>
		<path class="st20" d="M222.4,470.2c0,0-5.4,9.9-3.3,19.4c0,0,14.5,1.9,15.2,15.1"/>
		<path class="st20" d="M216.4,472.1c0,0,2.7-0.1,3.4,3.2"/>
		<polyline class="st20" points="206.3,460.8 208.9,465.9 203.2,467 		"/>
		<line class="st20" x1="213.4" y1="468.1" x2="208.9" y2="465.9"/>
	</g>
</g>
<g>
	<g>
		<path class="st12" d="M469.3,571.1c0.3,2.3,0.2,4.6-0.4,6.7c-1.3,5.2-4.9,9.2-9.5,9.8c-1,0.1-2,0.1-3-0.1c-1.8,2.5,2.9,11,0,11.4
			c-1.7,0.2-3.5-0.1-5.1-0.7c-1.7,1.8-3.8,3-6.2,3.3c-2.9,0.4-5.6-0.6-7.9-2.5c-1.4,1-10.1-5.1-11.8-4.9c-4,0.5-7.9-1.6-10.5-5.3
			c-0.8,0.4-1.7,0.6-2.7,0.7c-4.3,0.5-8.5-2-11.1-6.2c-0.2,0-0.4,0.1-0.6,0.1c-3.6,0.5-7.2-1.2-9.7-4.3c-4.1-0.1-7.9-2.9-10.2-7.2
			c-3.7-0.7-7.1-3.7-9-7.8c-5.1-1.2-9.3-6.5-10.1-13.3c0-0.4-0.1-0.8-0.1-1.1c-1.1-2-1.9-4.3-2.2-6.8c-0.4-3.3,0.1-6.5,1.2-9.2
			c-1.5-2.2-2.6-5-3-8.1c-1-8.3,3.4-15.6,9.9-16.4c0.4,0,0.7-0.1,1.1-0.1c-0.8-8.1,5.1-15.4,13.3-16.5c0.2,0,0.3,0,0.5-0.1
			c3.7-0.3,7.2,0.6,10,2.6c0.5-0.1,0.9-0.2,1.4-0.3c4.5-0.6,8.7,2.1,11.3,6.5c4.3,0.1,8.2,3.2,10.4,7.7c5.2,0.2,9.9,4.7,11.6,11
			c4.7,0.3,8.9,4,10.9,9.4c5.9,0.2,11.2,5.9,12.2,13.6v0.1c5.5,0.8,10.2,6.3,11.1,13.5c0.1,0.6,0.1,1.3,0.1,1.9
			C465.2,560.5,468.5,565.2,469.3,571.1z"/>
		<path class="st3" d="M484.2,554.2c0,0,2.4,7.4-2.5,10c0,0,1.7,12.5-12.6,13.6c-0.1,0-0.1,0-0.2,0c0.5-2.1,0.6-4.3,0.4-6.7
			c-0.7-5.9-4.1-10.7-8.3-12.6c0-0.6-0.1-1.3-0.1-1.9c-0.9-7.2-5.6-12.7-11.1-13.5V543c-1-7.6-6.3-13.4-12.2-13.6
			c-2-5.4-6.2-9.1-10.9-9.4c-1.7-6.3-6.4-10.8-11.6-11c-2.2-4.5-6.2-7.6-10.4-7.7c-2.6-4.4-6.8-7.1-11.3-6.5c-0.5,0.1-1,0.2-1.4,0.3
			c-2.8-1.9-6.3-2.9-10-2.6c1.4-3.3,5-8.1,13.8-9c0,0,11.8-10.4,22.2-2.8c0,0,7.8-5.2,14.2,3.5c0,0,7.2-2.4,10,4.8
			c0,0,11.4-0.1,12.1,12.6c0,0,9.5-0.6,10.8,7.8c0,0,11,1,10.5,16.2c0,0,5.7,0.1,4.5,9.1c0,0,5.1,2.3,3.3,8.8
			C483.3,543.7,489,549.4,484.2,554.2z"/>
	</g>
	<g>
		<path class="st20" d="M422.7,552.2c0,0,1,2.3,4.1,1.7c0,0-3,5.8,3.2,9.3c0,0-6.6,19.1,13.6,16.9"/>
		<path class="st20" d="M385.9,509.2c0,0-3.1-8.9,5.8-13.7"/>
		<path class="st20" d="M404.7,501.4c0,0-7.7,2.6-6.9,10.5"/>
		<path class="st20" d="M415.7,509.2c0,0-11.3-0.3-9,12.1"/>
		<path class="st20" d="M427.1,520.3c0,0-10.3,2.1-12.8,9.4"/>
		<path class="st20" d="M433.2,538c0,0,6.1,0.7,9.3,5.5"/>
		<line class="st20" x1="437.6" y1="535.2" x2="437.8" y2="539.3"/>
		<path class="st20" d="M448.7,553.1c0,0,9.1,1.6,6,14.5c0,0,10.2,12.7-5.9,18c0,0-8.4,9.3-15.6,0.4c0,0-4.3,4.2-10.2,1"/>
		<line class="st20" x1="463.6" y1="579.2" x2="458.1" y2="575.8"/>
		<line class="st20" x1="464.5" y1="576.7" x2="461.1" y2="577.4"/>
		<line class="st20" x1="456" y1="570" x2="459.8" y2="569.5"/>
		<path class="st20" d="M439.7,572.3c0,0,2.1-7.9,7.6-9.6c0,0-0.5-11-9.7-11.8c0,0-11.2,1.7-13.8-8.5c0,0,3.8-6.4,0.5-13.8"/>
		<line class="st20" x1="428.8" y1="531.1" x2="425.4" y2="532.6"/>
		<path class="st20" d="M393.7,548c-1.4-11.5,5.8-13,5.8-13c2.5-11.8,15-8.5,15-8.5l-0.5-7.4"/>
		<path class="st20" d="M391.3,547.4c0,0,0.5-1.7,2.5-2.4"/>
		<path class="st20" d="M396.2,527.5c0,0,3.3,4.3,3.3,7.2"/>
		<path class="st20" d="M379.6,499.7c0,0-5.8,7.5,0.9,15.8c0,0-4.4,1.5-7.7,5.8c0,0-6.2,1.6-4.5,10.6c0,0-3.9,3-1.4,7.6
			c0,0-4.2,3.8,1.5,7.4c0,0-1.5,6.7,6.1,7.7c0,0-2.4-8.3,3.3-11.8c0,0-4.4-5.7,1.6-8.8c0,0-2.6-8.2,4.1-11.5l-0.2-2.6"/>
		<path class="st20" d="M384.7,547.4c0,0-9.3,6.2,2.7,17.7c0,0,4.9,8.9,11.9,5.7c0,0,0.9,2.8,4.3,2.3c0,0-4.7,3.7-2.7,9.9"/>
		<path class="st20" d="M404.8,572.1c0,0,3.5-8.4,10.1-8.7l1.1-2.3c0,0-9.5-3.9-7.4-14.7"/>
		<path class="st20" d="M398.1,543.9c0,0-1.4,4.7,1.7,5.2s8.2,0.4,8.2,0.4"/>
		<path class="st20" d="M392,554.7c0,0,0.7-5,7.5-5.5"/>
		<path class="st20" d="M375.9,525.7c0,0,1.6,2.9,3.3,3.5"/>
		<line class="st20" x1="370.9" y1="536" x2="376.2" y2="538.8"/>
		<path class="st20" d="M414.3,588.9c0,0,3.3-0.2,3.3-6.3c0,0,5.3,1.6,9.4-1.6"/>
		<path class="st20" d="M409.6,578.4c0,0,5.1,4.9,7.9,4.2"/>
		<polyline class="st20" points="418.9,569 418.9,571.8 415.4,572.4 		"/>
		<line class="st20" x1="421.7" y1="573.4" x2="418.9" y2="571.8"/>
		<path class="st20" d="M403.9,508.1c0,0,1.6,8.7-4.6,12.4l1.4,6.3"/>
		<path class="st20" d="M386.9,514.4c0,0-0.2,6.1,4.4,6.3c0.2,0,0.4,0,0.7,0l-1.9,4.5l0.5,2.9"/>
		<path class="st20" d="M405.2,541.7c0,0,5.4-3.2,12.9,3.4"/>
		<path class="st20" d="M416.1,534.2c0,0-4.9,2.4-4.9,6.9"/>
		<path class="st20" d="M410.3,533.3c0,0,1.5,0.7,1.9,3.7"/>
		<path class="st20" d="M416.2,549.2c0,0,0-5.4,6.9-6.5"/>
		<polyline class="st20" points="412.2,517.1 413.9,519.2 416,515.7 		"/>
		<path class="st20" d="M380.6,571.9c0,0,1.5,1.2,3.8-1.1l2.8,2.4"/>
		<path class="st20" d="M363.6,552.1c0,0,1.9,3.4,4.1,2.7c0,0-0.2,7.9,3.8,9.2"/>
		<path class="st20" d="M393,564.9c0,0,5.6-3.9,11.5-3.4"/>
		<polyline class="st20" points="396.7,558.6 399.5,561.2 400.2,557.7 		"/>
		<path class="st20" d="M433,563.8c0,0,1.6-4.3,8.1-4.8"/>
		<line class="st20" x1="437.1" y1="556.5" x2="437.4" y2="559.9"/>
		<path class="st20" d="M364.7,524.8c0,0-3.1-8.9,3.5-15.7"/>
		<path class="st20" d="M426,490.3c0,0-6.5-7.2-15.9-0.7c0,0-5.2-0.9-7.2,3.3"/>
		<line class="st20" x1="400.7" y1="490.6" x2="404.4" y2="490.8"/>
		<path class="st20" d="M413.4,497.7c0,0,4.5-7.7,12.7-7.4"/>
		<line class="st20" x1="412.8" y1="493.6" x2="416.5" y2="494.2"/>
		<polyline class="st20" points="411.9,481.1 412.2,484.1 407.5,484.1 		"/>
		<line class="st20" x1="414.8" y1="487.3" x2="411.9" y2="484"/>
		<path class="st20" d="M430.6,495.6c0,0,3.1-6.5,11.5-6.5"/>
		<path class="st20" d="M433.2,487.6c0,0,2.2-0.3,3,2.7"/>
		<path class="st20" d="M428.5,493.3c0,0,4,2.6,4.3,7.4"/>
		<path class="st20" d="M438.4,493.2c0,0,1.7-0.3,1.9,1.4c0,0,9.1-0.3,9.1,7.5c0,0,4.5,1.8,5,5.7"/>
		<path class="st20" d="M465,509.6c0,0-9.5-0.9-13.7,1.9c0,0-10.2-6.8-16.2,1.5"/>
		<path class="st20" d="M431.8,510.5c0,0,5.5,3.5,5.9,6.1l0.2,3.1"/>
		<line class="st20" x1="440.9" y1="517.5" x2="437.6" y2="516.6"/>
		<path class="st20" d="M419.1,498.2c0,0,6.2,1.1,8.6,4.6c0,0-0.7,4.9,4.3,4.9"/>
		<path class="st20" d="M439,502.3c0,0-6.8-3.9-11.4,0.4"/>
		<path class="st20" d="M395.6,487.6c0,0-4.3,3.3-4.7,7"/>
		<path class="st20" d="M441.1,530.2c0,0,1.3-7.7,8.7-6.1c7.4,1.6,8.4,0.2,8.4,0.2s-1.8,9.4,4,11.3c0,0-4.7,5.4-1.8,7.8
			c3,2.4,5,3.8,5,3.8l3.2-3.5"/>
		<polyline class="st20" points="467.9,540 468.6,543.9 470.6,543.7 		"/>
		<path class="st20" d="M467.5,557.2c0,0,3.5-2.8,6.7,1.7"/>
		<path class="st20" d="M469.2,569.6c0,0,6.6-2.3,6.7-5.5"/>
		<path class="st20" d="M468.5,519.4c0,0-3.8,7-2.3,13.7c0,0,10.3,1.4,10.8,10.7"/>
		<path class="st20" d="M464.3,520.7c0,0,1.9-0.1,2.4,2.3"/>
		<polyline class="st20" points="457.1,512.8 458.9,516.3 454.9,517.1 		"/>
		<line class="st20" x1="462.2" y1="517.9" x2="458.9" y2="516.3"/>
	</g>
</g>
<g>
	<g>
		<path class="st12" d="M366.3,592c0.3,2.7,0.2,5.3-0.4,7.6c-1.5,6-5.6,10.5-10.9,11.2c-1.2,0.1-2.3,0.1-3.4-0.1
			c-2,2.9-4.9,4.8-8.3,5.2c-2,0.3-4-0.1-5.8-0.9c-1.9,2.1-4.4,3.5-7.1,3.8c-3.3,0.4-6.4-0.7-9.1-2.9c-1.5,1.2-3.3,1.9-5.3,2.2
			c-4.6,0.6-9.1-1.9-12.1-6.1c-1,0.4-2,0.7-3.1,0.9c-5,0.6-9.8-2.3-12.7-7.1c-0.2,0-0.5,0.1-0.7,0.1c-4.2,0.5-8.2-1.4-11.1-4.9
			c-4.7-0.1-9.1-3.3-11.7-8.2c-4.3-0.8-8.1-4.2-10.3-8.9c-5.8-1.4-10.6-7.5-11.6-15.2c-0.1-0.4-0.1-0.9-0.1-1.3
			c-1.3-2.3-2.2-4.9-2.6-7.8c-0.5-3.8,0.1-7.5,1.4-10.6c-1.8-2.5-3-5.7-3.5-9.2c-1.2-9.5,3.9-17.9,11.3-18.8
			c0.4-0.1,0.8-0.1,1.2-0.1c-0.9-9.3,5.8-17.7,15.2-18.9c0.2,0,0.4,0,0.6-0.1c4.2-0.4,8.2,0.7,11.4,2.9c0.5-0.2,1.1-0.3,1.6-0.3
			c5.1-0.6,10,2.4,12.9,7.5c4.9,0.2,9.4,3.6,11.9,8.8c6,0.2,11.4,5.4,13.3,12.6c5.4,0.3,10.2,4.6,12.5,10.8
			c6.8,0.2,12.9,6.8,14,15.5v0.2c6.3,0.9,11.7,7.2,12.7,15.4c0.1,0.7,0.1,1.5,0.2,2.2C361.7,579.8,365.5,585.3,366.3,592z"/>
		<path class="st3" d="M383.5,572.6c0,0,2.8,8.5-2.9,11.5c0,0,1.9,14.3-14.4,15.6c-0.1,0-0.1,0-0.2,0c0.6-2.4,0.7-5,0.4-7.6
			c-0.8-6.8-4.7-12.2-9.5-14.5c0-0.7-0.1-1.5-0.2-2.2c-1-8.2-6.4-14.5-12.7-15.4v-0.2c-1.1-8.8-7.2-15.4-14-15.5
			c-2.3-6.2-7.1-10.4-12.5-10.8c-1.9-7.2-7.3-12.4-13.3-12.6c-2.5-5.2-7.1-8.7-11.9-8.8c-3-5-7.8-8.1-12.9-7.5
			c-0.6,0.1-1.1,0.2-1.6,0.3c-3.2-2.2-7.2-3.3-11.4-2.9c1.6-3.7,5.7-9.2,15.8-10.3c0,0,13.5-11.9,25.4-3.2c0,0,9-5.9,16.3,4
			c0,0,8.3-2.7,11.5,5.5c0,0,13.1-0.1,13.9,14.5c0,0,10.9-0.7,12.4,8.9c0,0,12.7,1.2,12.1,18.6c0,0,6.5,0.1,5.2,10.5
			c0,0,5.9,2.7,3.7,10C382.4,560.5,388.9,567.1,383.5,572.6z"/>
	</g>
	<g>
		<path class="st20" d="M312.9,570.3c0,0,1.2,2.6,4.7,1.9c0,0-3.5,6.7,3.6,10.6c0,0-7.6,21.9,15.5,19.4"/>
		<path class="st20" d="M270.8,521c0,0-3.6-10.2,6.6-15.8"/>
		<path class="st20" d="M292.3,512c0,0-8.8,3-7.9,12.1"/>
		<path class="st20" d="M304.9,521.1c0,0-13-0.4-10.3,13.8"/>
		<path class="st20" d="M318,533.8c0,0-11.8,2.4-14.6,10.8"/>
		<path class="st20" d="M325,554c0,0,7,0.8,10.6,6.3"/>
		<line class="st20" x1="330" y1="550.8" x2="330.3" y2="555.6"/>
		<path class="st20" d="M342.8,571.3c0,0,10.4,1.9,6.9,16.6c0,0,11.7,14.5-6.8,20.7c0,0-9.6,10.7-17.9,0.4c0,0-4.9,4.8-11.7,1.2"/>
		<line class="st20" x1="359.8" y1="601.3" x2="353.5" y2="597.4"/>
		<line class="st20" x1="360.8" y1="598.4" x2="357" y2="599.2"/>
		<line class="st20" x1="351.1" y1="590.8" x2="355.5" y2="590.1"/>
		<path class="st20" d="M332.4,593.3c0,0,2.4-9,8.8-11c0,0-0.5-12.7-11.2-13.5c0,0-12.9,2-15.8-9.7c0,0,4.3-7.3,0.6-15.9"/>
		<line class="st20" x1="319.9" y1="546.2" x2="316" y2="547.8"/>
		<path class="st20" d="M279.7,565.5c-1.6-13.2,6.7-14.9,6.7-14.9c2.9-13.6,17.2-9.7,17.2-9.7l-0.6-8.5"/>
		<path class="st20" d="M276.9,564.8c0,0,0.6-2,2.8-2.7"/>
		<path class="st20" d="M282.6,542c0,0,3.8,5,3.8,8.2"/>
		<path class="st20" d="M263.6,510.2c0,0-6.7,8.6,1.1,18.1c0,0-5,1.8-8.8,6.6c0,0-7.1,1.9-5.2,12.2c0,0-4.5,3.5-1.7,8.8
			c0,0-4.8,4.3,1.7,8.5c0,0-1.7,7.7,7,8.9c0,0-2.7-9.5,3.8-13.5c0,0-5.1-6.6,1.9-10.1c0,0-3-9.4,4.7-13.2l-0.3-2.9"/>
		<path class="st20" d="M269.4,564.9c0,0-10.6,7.1,3.1,20.3c0,0,5.7,10.2,13.6,6.5c0,0,1,3.2,4.9,2.6c0,0-5.3,4.2-3,11.3"/>
		<path class="st20" d="M292.4,593.2c0,0,4-9.7,11.6-9.9l1.2-2.6c0,0-10.9-4.5-8.4-16.9"/>
		<path class="st20" d="M284.7,560.8c0,0-1.6,5.3,1.9,5.9c3.5,0.6,9.4,0.5,9.4,0.5"/>
		<path class="st20" d="M277.8,573.2c0,0,0.8-5.8,8.6-6.4"/>
		<path class="st20" d="M259.3,539.9c0,0,1.9,3.3,3.7,4.1"/>
		<line class="st20" x1="253.6" y1="551.7" x2="259.7" y2="554.9"/>
		<path class="st20" d="M303.3,612.4c0,0,3.8-0.2,3.8-7.2c0,0,6.1,1.9,10.7-1.8"/>
		<path class="st20" d="M298,600.3c0,0,5.8,5.6,9.1,4.9"/>
		<polyline class="st20" points="308.7,589.6 308.6,592.8 304.6,593.5 		"/>
		<line class="st20" x1="311.8" y1="594.6" x2="308.6" y2="592.8"/>
		<path class="st20" d="M291.4,519.8c0,0,1.8,9.9-5.3,14.3l1.6,7.2"/>
		<path class="st20" d="M272,526.9c0,0-0.3,7,5.1,7.3c0.2,0,0.5,0,0.7,0l-2.2,5.2l0.6,3.3"/>
		<path class="st20" d="M292.9,558.3c0,0,6.2-3.7,14.7,3.9"/>
		<path class="st20" d="M305.4,549.7c0,0-5.6,2.8-5.6,7.9"/>
		<path class="st20" d="M298.7,548.7c0,0,1.8,0.8,2.2,4.3"/>
		<path class="st20" d="M305.5,566.8c0,0,0.1-6.2,8-7.4"/>
		<polyline class="st20" points="300.9,530 302.9,532.5 305.3,528.5 		"/>
		<path class="st20" d="M264.7,592.9c0,0,1.7,1.4,4.3-1.2l3.2,2.7"/>
		<path class="st20" d="M245.2,570.2c0,0,2.1,3.9,4.7,3.1c0,0-0.2,9,4.4,10.6"/>
		<path class="st20" d="M278.9,584.8c0,0,6.5-4.5,13.1-3.9"/>
		<polyline class="st20" points="283.1,577.7 286.4,580.6 287.1,576.6 		"/>
		<path class="st20" d="M324.8,583.6c0,0,1.9-5,9.2-5.5"/>
		<line class="st20" x1="329.5" y1="575.2" x2="329.8" y2="579.1"/>
		<path class="st20" d="M246.5,538.9c0,0-3.5-10.2,4-18"/>
		<path class="st20" d="M316.7,499.4c0,0-7.5-8.3-18.2-0.9c0,0-6-1.1-8.2,3.8"/>
		<line class="st20" x1="287.7" y1="499.7" x2="292" y2="499.9"/>
		<path class="st20" d="M302.3,507.8c0,0,5.2-8.8,14.6-8.4"/>
		<line class="st20" x1="301.6" y1="503.1" x2="305.8" y2="503.8"/>
		<polyline class="st20" points="300.5,488.9 301,492.2 295.6,492.3 		"/>
		<line class="st20" x1="303.9" y1="495.9" x2="300.6" y2="492.2"/>
		<path class="st20" d="M322,505.4c0,0,3.5-7.4,13.2-7.4"/>
		<path class="st20" d="M325,496.3c0,0,2.5-0.4,3.4,3.1"/>
		<path class="st20" d="M319.6,502.8c0,0,4.6,3,4.9,8.4"/>
		<path class="st20" d="M330.9,502.7c0,0,2-0.3,2.2,1.6c0,0,10.5-0.4,10.4,8.6c0,0,5.1,2.1,5.8,6.5"/>
		<path class="st20" d="M361.5,521.5c0,0-10.9-1.1-15.8,2.2c0,0-11.7-7.8-18.6,1.7"/>
		<path class="st20" d="M323.4,522.6c0,0,6.3,4,6.7,7l0.2,3.5"/>
		<line class="st20" x1="333.8" y1="530.5" x2="330.1" y2="529.6"/>
		<path class="st20" d="M308.8,508.4c0,0,7.1,1.3,9.8,5.3c0,0-0.8,5.7,4.9,5.6"/>
		<path class="st20" d="M331.7,513.2c0,0-7.8-4.4-13.1,0.5"/>
		<path class="st20" d="M281.9,496.3c0,0-4.9,3.7-5.4,8"/>
		<path class="st20" d="M334,545.1c0,0,1.5-8.8,10-7c8.5,1.8,9.7,0.2,9.7,0.2s-2,10.8,4.6,12.9c0,0-5.4,6.2-2,9
			c3.4,2.8,5.7,4.3,5.7,4.3l3.7-4"/>
		<polyline class="st20" points="364.7,556.3 365.6,560.8 367.8,560.6 		"/>
		<path class="st20" d="M364.3,576c0,0,4-3.2,7.7,1.9"/>
		<path class="st20" d="M366.3,590.3c0,0,7.5-2.6,7.6-6.4"/>
		<path class="st20" d="M365.5,532.7c0,0-4.4,8-2.6,15.7c0,0,11.8,1.6,12.3,12.3"/>
		<path class="st20" d="M360.6,534.3c0,0,2.2-0.1,2.8,2.6"/>
		<polyline class="st20" points="352.4,525.1 354.5,529.2 349.9,530.1 		"/>
		<line class="st20" x1="358.2" y1="531" x2="354.5" y2="529.2"/>
	</g>
</g>
</svg>
