<?xml version="1.0" encoding="utf-8"?>
<!-- Generator: Adobe Illustrator 21.0.2, SVG Export Plug-In . SVG Version: 6.00 Build 0)  -->
<svg version="1.1" id="Layer_1" xmlns="http://www.w3.org/2000/svg" xmlns:xlink="http://www.w3.org/1999/xlink" x="0px" y="0px"
	 viewBox="0 0 355.8 288.7" style="enable-background:new 0 0 355.8 288.7;" xml:space="preserve">
<style type="text/css">
	.st0{fill:#F7F8F9;}
	.st1{fill:#F9F9F9;}
	.st2{fill:#FFFFFF;}
	.st3{fill:#ECEDEE;}
	.st4{fill:#DFE1E3;}
	.st5{fill:#FAFAFA;}
	.st6{fill:none;stroke:#F7F8F9;stroke-miterlimit:10;}
	.st7{fill:#0099FF;}
	.st8{fill:#FFE100;}
	.st9{fill:none;stroke:#C7CAD7;stroke-width:0.5;stroke-miterlimit:10;}
	.st10{fill:#B3D9F8;}
	.st11{fill:#FCC1BE;}
	.st12{fill:#2A4494;}
</style>
<g>
	<path class="st0" d="M18.6,188.2C33.9,172.9,317,170,336,189.1s21.9,17,18.7,37.4c-3.3,20.5-36.2,29.6-36.2,29.6
		s-31.7,28.4-66.5,28.4s-63.2,11.4-87.4-3.4S97.7,272,96.3,272s-40.9,28.4-54.8,2.3c-13.9-26.2-35.3-29.6-40-47.8
		S3.3,203.5,18.6,188.2z"/>
	<g>
		<g>
			<polygon class="st1" points="254.5,109.9 139.2,42.8 217.5,0 332.9,67.1 			"/>
		</g>
	</g>
	<g>
		<g>
			<polygon class="st2" points="242.4,114.9 242.4,238.3 147.9,182.7 147.9,59.3 			"/>
		</g>
	</g>
	<g>
		<g>
			<polygon class="st1" points="52,94.4 39.6,87.2 127.3,36.2 139.7,43.4 			"/>
		</g>
		<g>
			<polygon class="st3" points="52,238 39.6,230.8 39.6,87.2 52,94.4 			"/>
		</g>
		<g>
			<polygon class="st4" points="52,238 139.7,187 139.7,43.4 52,94.4 			"/>
		</g>
	</g>
	<g>
		<path class="st4" d="M49.9,168.2c0,1-0.4,1.9-1.1,2.6l-3,4.9l-5.7-3.8l3-4.7c0.4-1.5,1.8-2.5,3.3-2.5
			C48.3,164.7,49.9,166.3,49.9,168.2z"/>
		<circle class="st5" cx="43.3" cy="173.4" r="3.5"/>
		<path class="st4" d="M49.9,181.3c0,1-0.4,1.9-1.1,2.6l-3,4.9l-5.7-3.8l3-4.7c0.4-1.5,1.8-2.5,3.3-2.5
			C48.4,177.8,49.9,179.4,49.9,181.3z"/>
		<circle class="st5" cx="43.3" cy="186.5" r="3.5"/>
		<path class="st4" d="M50.1,193.6c0,1-0.4,1.9-1.1,2.6l-3,4.9l-5.7-3.8l3-4.7c0.4-1.5,1.8-2.5,3.3-2.5
			C48.5,190.1,50.1,191.6,50.1,193.6z"/>
		<circle class="st5" cx="43.4" cy="198.8" r="3.5"/>
	</g>
	<g>
		<path class="st4" d="M140.7,91.4H139c-1.6,0-2.9-1.3-2.9-2.9V71.2c0-1.6,1.3-2.9,2.9-2.9h1.7c1.6,0,2.9,1.3,2.9,2.9v17.3
			C143.6,90.1,142.3,91.4,140.7,91.4z"/>
		<path class="st3" d="M140.1,91.5h-1.7c-1.6,0-2.9-1.3-2.9-2.9V71.3c0-1.6,1.3-2.9,2.9-2.9h1.7c1.6,0,2.9,1.3,2.9,2.9v17.3
			C143,90.2,141.7,91.5,140.1,91.5z"/>
	</g>
	<g>
		<path class="st4" d="M141.3,171.9h-1.7c-1.6,0-2.9-1.3-2.9-2.9v-17.3c0-1.6,1.3-2.9,2.9-2.9h1.7c1.6,0,2.9,1.3,2.9,2.9V169
			C144.2,170.6,142.9,171.9,141.3,171.9z"/>
		<path class="st3" d="M140.7,172H139c-1.6,0-2.9-1.3-2.9-2.9v-17.3c0-1.6,1.3-2.9,2.9-2.9h1.7c1.6,0,2.9,1.3,2.9,2.9v17.3
			C143.6,170.7,142.3,172,140.7,172z"/>
	</g>
	<g>
		<ellipse class="st4" cx="111.5" cy="237.2" rx="43.9" ry="8.7"/>
	</g>
	<g>
		<g>
			<polygon class="st1" points="242.7,192.8 147.2,137.4 189.2,121.2 284.1,176.2 			"/>
		</g>
		<g>
			<polygon class="st3" points="241.9,199.4 146.5,144 147.2,137.4 242.7,192.8 			"/>
		</g>
		<g>
			<polygon class="st4" points="241.9,199.4 283.9,183.2 284.1,176.2 242.7,192.8 			"/>
		</g>
	</g>
	<g>
		<g>
			<polygon class="st5" points="189.9,149.8 190.6,149.5 189.9,149 189.2,149.4 			"/>
		</g>
		<g>
			
				<ellipse transform="matrix(3.803439e-02 -0.9993 0.9993 3.803439e-02 41.7343 326.5565)" class="st6" cx="190.5" cy="141.6" rx="2.1" ry="3.5"/>
			
				<ellipse transform="matrix(3.803439e-02 -0.9993 0.9993 3.803439e-02 35.1395 332.3637)" class="st7" cx="190.2" cy="147.9" rx="2.9" ry="3"/>
			
				<ellipse transform="matrix(3.803439e-02 -0.9993 0.9993 3.803439e-02 36.4625 330.9471)" class="st7" cx="190.1" cy="146.5" rx="2.9" ry="4.7"/>
			
				<ellipse transform="matrix(3.803439e-02 -0.9993 0.9993 3.803439e-02 37.6903 329.8009)" class="st3" cx="190.1" cy="145.3" rx="2.9" ry="4.7"/>
			
				<ellipse transform="matrix(3.803439e-02 -0.9993 0.9993 3.803439e-02 38.4708 329.3289)" class="st4" cx="190.3" cy="144.7" rx="2.9" ry="4.7"/>
			
				<ellipse transform="matrix(3.803439e-02 -0.9993 0.9993 3.803439e-02 40.4396 327.4616)" class="st3" cx="190.3" cy="142.7" rx="2.9" ry="4.7"/>
			<polygon class="st1" points="191.1,122.4 191.5,122.5 191.5,122.3 			"/>
			<polygon class="st1" points="190.7,122.3 190.7,122.4 191.1,122.4 			"/>
			
				<ellipse transform="matrix(3.803439e-02 -0.9993 0.9993 3.803439e-02 41.9088 326.358)" class="st0" cx="190.5" cy="141.4" rx="2.9" ry="4.7"/>
			<path class="st8" d="M177.6,116.2c-0.1,2.2,0.4,4.3,1.2,6.2c0,0,0.6,1,1.4,2.4l0,0c2,3.5,5.3,9.8,5.4,12.6
				c0.1,3.9,0.6,5.3,4.8,5.3c4.2,0.3,4.8-1.1,5.2-4.9c0.3-2.8,4.1-9,6.3-12.4c0.8-1.2,1.4-2.1,1.5-2.3l0,0c0.9-1.8,1.5-3.8,1.6-5.9
				c0.3-7.6-5.6-14-13.2-14.2C184.3,102.7,177.9,108.6,177.6,116.2z"/>
		</g>
	</g>
	<g>
		<g>
			<polygon class="st5" points="217.3,162.7 218,162.3 217.4,161.9 216.6,162.3 			"/>
		</g>
		<g>
			
				<ellipse transform="matrix(3.803439e-02 -0.9993 0.9993 3.803439e-02 55.3568 366.3386)" class="st6" cx="218" cy="154.4" rx="2.1" ry="3.5"/>
			
				<ellipse transform="matrix(3.803439e-02 -0.9993 0.9993 3.803439e-02 48.673 372.0463)" class="st7" cx="217.6" cy="160.7" rx="2.9" ry="3"/>
			
				<ellipse transform="matrix(3.803439e-02 -0.9993 0.9993 3.803439e-02 49.9856 370.8181)" class="st7" cx="217.6" cy="159.4" rx="2.9" ry="4.7"/>
			
				<ellipse transform="matrix(3.803439e-02 -0.9993 0.9993 3.803439e-02 51.405 369.6864)" class="st3" cx="217.7" cy="158.1" rx="2.9" ry="4.7"/>
			
				<ellipse transform="matrix(3.803439e-02 -0.9993 0.9993 3.803439e-02 52.0933 369.111)" class="st4" cx="217.8" cy="157.5" rx="2.9" ry="4.7"/>
			
				<ellipse transform="matrix(3.803439e-02 -0.9993 0.9993 3.803439e-02 54.0621 367.2439)" class="st3" cx="217.8" cy="155.5" rx="2.9" ry="4.7"/>
			<polygon class="st1" points="218.5,135.2 219,135.3 219,135.2 			"/>
			<polygon class="st1" points="218.1,135.2 218.1,135.3 218.5,135.2 			"/>
			
				<ellipse transform="matrix(3.803439e-02 -0.9993 0.9993 3.803439e-02 55.6237 366.2436)" class="st0" cx="218" cy="154.2" rx="2.9" ry="4.7"/>
			<path class="st8" d="M205,129c-0.1,2.2,0.4,4.3,1.2,6.2c0,0,0.6,1,1.4,2.4l0,0c2,3.5,5.3,9.8,5.4,12.6c0.1,3.9,0.6,5.3,4.8,5.3
				c4.2,0.3,4.8-1.1,5.2-4.9c0.3-2.8,4.1-9,6.3-12.4c0.8-1.2,1.4-2.1,1.5-2.3l0,0c0.9-1.8,1.5-3.8,1.6-5.9c0.3-7.6-5.6-14-13.2-14.2
				C211.7,115.5,205.3,121.4,205,129z"/>
		</g>
	</g>
	<g>
		<polygon class="st4" points="254.5,254.5 332.9,211.7 332.9,67.1 254.5,109.9 		"/>
	</g>
	<g>
		<path class="st3" d="M139.2,42.8v144.6l115.3,67.1V109.9L139.2,42.8z M242.4,238.3l-94.5-55.6V59.3l94.5,55.6V238.3z"/>
	</g>
</g>
<g>
	<g>
		<g>
			<g>
				<g>
					<path class="st9" d="M111.8,148.4"/>
					<path class="st10" d="M101.5,177.4C101.5,177.5,101.5,177.5,101.5,177.4c1.6,1.9,2.4,4.2,2.4,6.7c0,0.2,0,0.5,0,0.7
						c0,0.5-0.1,0.9-0.2,1.4c-0.3,1-0.7,2-1.1,3.1c-0.1,0.3-0.2,0.6-0.3,0.9c-6.7,19.6-15.4,48.4-20.9,47.2c-4.4-1-1.8-24.8,1-49.6
						c0.1-0.6,0.1-1.2,0.2-1.8c0.2-1.8,0.4-3.7,0.6-5.5c1.9-4.8,7-7.7,12.2-6.6C97.9,174.3,100,175.6,101.5,177.4z"/>
					<path class="st10" d="M133.6,181.9c0.2,1,0.4,2,0.6,3.1c3.6,19.7,10.1,49,4.8,50.7c-4.2,1.3-13.6-21.2-23.3-44
						c-0.7-1.6-1.4-3.3-2.1-5c-0.7-5,2.3-9.8,7.2-11.3C126.1,173.6,131.8,176.6,133.6,181.9z"/>
					<g>
						<path class="st10" d="M107.8,141.9l13.5-3.9c0,0,8.7,31.5,11.5,41.5c0.1,0.3,0.2,0.6,0.2,0.9c0.2,0.7,0.4,1.4,0.6,2.1
							c0.5,4.5-1.9,9-6.3,10.8c-4.1,1.7-8.6,0.6-11.5-2.5c-0.6-1.2-1.3-2.5-2-3.7c0,0,0,0,0-0.1c-0.2-0.3-0.4-0.6-0.5-1
							c-3.2-5.9-13.7-23.5-17-29.4"/>
						<path class="st10" d="M111.4,142.6c-0.2,4.6-6.2,22.5-6.6,30.6c-0.2,4.5-0.9,11.1-1,14.2c-0.4-2.2-1.1-6.7-2.9-8.3
							c-3.9-3.3-14.5-0.1-17.5,5.8c-1.7-9.7,0.5-26.4,0.5-42.8"/>
						<path class="st7" d="M107.3,97.5l1.4-0.2c-0.1-0.6-0.2-1.1-0.3-1.7c-0.6-3.4-1.5-6.6-2.7-9.3c-2.9-6.9-7.3-11.4-11.4-11.3
							c-0.2,0-0.5,0-0.7,0.1c-1,0.2-2,0.6-2.9,1.4c-4.2,3.4-6.1,12.7-4.3,22.9c0.1,0.6,0.2,1.1,0.3,1.6l1.4-0.2
							c0.8,2.4,2.4,7.1,4.7,15.4c0.3,1,0.5,1.9,0.8,2.9c0.5,0.9,1,1.6,1.8,2.3c1.3,1.9,3.5,3.1,5.9,3.2c1-0.1,2-0.3,3-0.4l0,0
							c7.4-1.1,16.5-2.1,24.9-3.1c-2.1,8.2-4.8,15.8-7,22.3c-0.3,0.9-0.6,1.8-0.9,2.7c-7.7,4.3-26.8,2-30.9,0.3
							c-3.2-1.3-5.3-2.7-6.3-3.2c-0.1-0.1-0.2-0.1-0.2-0.1c0.8-5.7,1.4-16-1.6-29.3c-0.1-0.3-0.2-0.7-0.2-1c-0.6-2.3-1-4.6-1.4-6.9
							c-0.8-5-1-9.9-0.7-14.4c0-0.7,0.1-1.4,0.2-2.1c2.6-21.5,11.6-22.8,12.4-23.1l0,0L112,79l0.1-0.1l13.3,9.8l0.4-9.6l2.6-4.6
							c4.8,12.3,4.9,24.8,3,36.4c-7.8-0.4-16.3-0.6-23.6-1C107.4,103.4,107.3,99.5,107.3,97.5z"/>
						<path class="st11" d="M125.4,32.3L124,67.2l-7,4.2l-19.4-9.2v-0.4c-9.7-37.6,18.8-29.6,18.8-29.6
							C116.8,36.6,121.1,36.6,125.4,32.3z"/>
						<polygon class="st11" points="125.7,78.8 125.3,88.5 112,78.6 118.7,71.4 						"/>
						<polygon class="st2" points="129.5,74.3 125.7,80.8 117,71.4 124.5,67 						"/>
						<path class="st2" d="M118.7,71.4l-6.7,7.2l-0.1,0.1L92.5,66l2.5-5.1c0.6,0.1,1.3,0.1,1.9,0.2l1,0.5L118.7,71.4z"/>
						<path class="st9" d="M101.6,37.2"/>
						<g>
							<path d="M113.8,56.8c0.6,0.7,1.4,1.4,2.1,1.9c0.8,0.5,1.7,0.9,2.6,0.9c0.9,0,1.8-0.2,2.6-0.6c0.4-0.2,0.8-0.5,1.2-0.8
								s0.7-0.6,1.1-0.9c-0.3,0.4-0.6,0.8-0.9,1.1c-0.4,0.3-0.7,0.7-1.1,0.9c-0.8,0.6-1.8,0.9-2.8,0.8s-2-0.5-2.8-1.1
								C115,58.3,114.3,57.6,113.8,56.8z"/>
						</g>
						<path class="st9" d="M95.1,60.9"/>
						<path class="st9" d="M95.1,60.9"/>
						<path class="st12" d="M97.9,62.5c0,0-13.6-31.1-0.9-30.7c0,0-8-19.2,47.6-11.6c0,0,10.5,0.2,13.2-8.1c0,0,1.1,26.5-17.6,32.7
							c-10.2,3.4-17.3-3.4-20.3-5c-3.7-1.9-20.9-6.3-21.1-0.4C98.4,47.5,97.9,62.5,97.9,62.5z"/>
					</g>
				</g>
			</g>
		</g>
		<g>
			<g>
				<polygon class="st5" points="118.4,126.2 119.5,126.2 119,125.3 117.9,125.3 				"/>
			</g>
			<g>
				<path class="st6" d="M120.3,115.3c-0.8,1.2,0.4,3.2,2.6,4.4c2.2,1.2,4.5,1.2,5.3-0.1c0.8-1.2-0.4-3.2-2.6-4.4
					C123.4,114,121,114.1,120.3,115.3z"/>
				<path class="st4" d="M116.5,122.4c-1,1.7-0.4,3.9,1.5,4.9c1.8,1,4.2,0.5,5.2-1.2s0.4-3.9-1.5-4.9
					C119.9,120.2,117.6,120.7,116.5,122.4z"/>
				<path class="st4" d="M115.6,119.8c-1,1.7,0.5,4.4,3.4,6s6.1,1.5,7.1-0.2s-0.5-4.4-3.4-6C119.8,118.1,116.6,118.1,115.6,119.8z"
					/>
				<path class="st3" d="M116.3,118.5c-1,1.7,0.5,4.4,3.4,6s6.1,1.5,7.1-0.2s-0.5-4.4-3.4-6C120.6,116.8,117.4,116.8,116.3,118.5z"
					/>
				<path class="st4" d="M116.8,117.7c-1,1.7,0.5,4.4,3.4,6s6.1,1.5,7.1-0.2s-0.5-4.4-3.4-6S117.9,116,116.8,117.7z"/>
				<path class="st3" d="M118.1,115.7c-1,1.7,0.5,4.4,3.4,6s6.1,1.5,7.1-0.2s-0.5-4.4-3.4-6C122.3,113.9,119.1,114,118.1,115.7z"/>
				<polygon class="st1" points="136.7,96.6 137.1,96.9 137.2,96.8 				"/>
				<polygon class="st1" points="136.3,96.2 136.2,96.4 136.7,96.6 				"/>
				<path class="st0" d="M119.1,114.4c-1,1.7,0.5,4.4,3.4,6s6.1,1.5,7.1-0.2s-0.5-4.4-3.4-6C123.3,112.6,120.1,112.7,119.1,114.4z"
					/>
				<path class="st8" d="M125.2,81.9c-1.4,2.4-2.2,5-2.4,7.5c0,0,0.1,1.4,0.1,3.5l0,0c0.1,5,0,13.9-1.6,17.1
					c-2.2,4.4-2.6,6.2,2.2,8.6c4.5,2.8,6,1.6,8.9-2.5c2.1-2.9,10.2-7.6,14.7-10.1c1.7-0.9,2.9-1.5,3.1-1.6l0,0
					c2.1-1.4,4-3.3,5.4-5.6c5-8.2,2.2-18.7-6.2-23.3C141.1,70.8,130.2,73.7,125.2,81.9z"/>
			</g>
		</g>
	</g>
	<g>
		<g>
			<path class="st11" d="M108,116.7c-0.5,3.1-3,5.7-6.3,6.3c-2.4,0.4-4.7-0.3-6.4-1.8c-0.7-0.6-1.3-1.4-1.8-2.3
				c-0.3-1-0.5-2-0.8-2.9c-2.3-8.3-3.9-13-4.7-15.4l19.2-3.3c0,2.1,0.1,5.9,0.4,12.2c0.1,1.1,0.1,2.3,0.2,3.6
				C107.8,114.3,107.9,115.5,108,116.7z"/>
			<path class="st7" d="M109.9,98.5l-1.5,0.2L88,102.2l-1.5,0.2c-0.1-0.5-0.2-1.2-0.3-1.7c-1.9-10.9,0.1-20.7,4.6-24.3
				c1-0.7,1.9-1.3,3.1-1.5c0.2,0,0.5-0.1,0.7-0.1c4.5-0.2,9,4.6,12.1,12c1.3,3,2.2,6.3,2.9,9.9C109.8,97.3,109.9,97.9,109.9,98.5z"
				/>
		</g>
		<path class="st11" d="M155.6,114.4c0.1,2.8-12.3,4.7-26.5,6.4c-8.5,1-17.5,2-24.9,3.1l0,0c-1,0.2-2,0.3-3,0.4
			c-2.4-0.1-4.6-1.4-5.9-3.2c-0.8-1.2-1.4-2.6-1.4-4.2c-0.2-3.9,2.7-7.3,6.5-7.9c1.2,0.1,2.3,0.2,3.5,0.2c1.2,0.1,2.5,0.2,3.7,0.2
			c7.4,0.4,15.9,0.7,23.6,1C144.3,111.2,155.5,112.1,155.6,114.4z"/>
	</g>
</g>
</svg>
