<?xml version="1.0" encoding="utf-8"?>
<!-- Generator: Adobe Illustrator 21.0.2, SVG Export Plug-In . SVG Version: 6.00 Build 0)  -->
<svg version="1.1" id="Layer_1" xmlns="http://www.w3.org/2000/svg" xmlns:xlink="http://www.w3.org/1999/xlink" x="0px" y="0px"
	 viewBox="0 0 888.4 589.3" style="enable-background:new 0 0 888.4 589.3;" xml:space="preserve">
<style type="text/css">
	.st0{fill:#F7F8F9;}
	.st1{fill:#DFE1E3;}
	.st2{fill:none;stroke:#FFE100;stroke-miterlimit:10;}
	.st3{fill:#ECEDEE;}
	.st4{fill:#FFFFFF;}
	.st5{fill:#E8BA08;}
	.st6{fill:#FCC1BE;}
	.st7{fill:#B3D9F8;stroke:#515151;stroke-width:0.5;stroke-miterlimit:10;}
	.st8{fill:#515151;}
	.st9{fill:#C7CAD7;}
	.st10{fill:#FEE300;}
	.st11{fill:#171F38;}
	.st12{fill:#2A4494;}
	.st13{fill:#61AD3F;stroke:#515151;stroke-width:0.5;stroke-miterlimit:10;}
	.st14{fill:#28A9DF;}
	.st15{fill:#FAFAFA;}
	.st16{fill:#E7E8E8;}
	.st17{fill:#B3D9F8;}
	.st18{fill:#0099FF;}
	.st19{fill:none;stroke:#C7CAD7;stroke-width:0.5;stroke-miterlimit:10;}
	.st20{fill:#FFD633;}
	.st21{fill:#FFCC00;}
	.st22{enable-background:new    ;}
	.st23{fill:#8F7B69;}
	.st24{fill:#D6D7D8;}
</style>
<g>
	<path class="st0" d="M888.4,427.2c0,0-10.6,25.8-28.4,54c-19.6,31.2-87.4,50.5-87.4,50.5s-74.3,50.2-156.2,50.2
		s-148.5,20.1-205.3-6s-102.7-15.9-106-16c-41-1.6-78.1,27.6-183.5,3.9c-55.3-12.4-83-52.2-93.9-84.4C20.8,459.1,8.2,440.2,0,429.1
		c4-2.4,10.4-6,18.8-9.7c19.7-8.9,50.5-18.9,87.8-18.4c37.4,0.6,97.3,14.8,156.2,23.6l120.2,2.6c1-0.2,1.9-0.4,2.8-0.7
		c76.3-19.2,167.3-55.8,244.8-50.6c57.8,3.9,119.4,23.9,180.4,35.4C831.9,415.3,889.8,406.9,888.4,427.2L888.4,427.2z"/>
	<path class="st1" d="M554.1,158.8c0,14.9-3.6,27-9.9,35.8c-1.1,1.6-2.4,3.1-3.7,4.5l-8,6.4l-52.3,41.8l-149-194.4l49.1-35.3
		L402,2.1c0.6-0.2,1.1-0.3,1.7-0.5c15.9-4.1,36.4-0.3,58.7,12.6C513,43.5,554.1,108.2,554.1,158.8z"/>
	<path class="st2" d="M669.6,201.9l0.3,0.3c-0.4,0.1-0.7,0.2-1.1,0.3L669.6,201.9z"/>
	<g>
		<g>
			<polygon class="st2" points="426.6,231.5 379,206.9 439.9,170.8 487.5,195.5 			"/>
		</g>
		<g>
			<polygon class="st3" points="426.6,496.7 379,472 379,206.9 426.6,231.5 			"/>
		</g>
		<g>
			<polygon class="st1" points="426.6,496.7 487.5,460.6 487.5,195.5 426.6,231.5 			"/>
		</g>
	</g>
	<g>
		<g>
			<polygon class="st4" points="473.9,466.2 426.3,441.6 487.2,405.5 534.8,430.2 			"/>
		</g>
		<g>
			<polygon class="st3" points="473.9,521.5 426.3,496.8 426.3,441.6 473.9,466.2 			"/>
		</g>
		<g>
			<polygon class="st1" points="473.9,521.5 534.8,485.4 534.8,430.2 473.9,466.2 			"/>
		</g>
	</g>
	<path class="st3" d="M500.5,200.2c0,50.6-41,68-91.7,38.7s-91.7-94-91.7-144.6s41-68,91.7-38.7S500.5,149.6,500.5,200.2z"/>
	<g>
		<g>
			<polygon class="st4" points="474.1,377.5 426.5,352.9 487.3,316.8 534.9,341.5 			"/>
		</g>
		<g>
			<polygon class="st3" points="474.1,432.8 426.5,408.1 426.5,352.9 474.1,377.5 			"/>
		</g>
		<g>
			<polygon class="st1" points="474.1,432.8 534.9,396.7 534.9,341.5 474.1,377.5 			"/>
		</g>
	</g>
	<path class="st1" d="M441.6,192.5c-7.9,7-21.2,6.9-36.3-1.8c-24.3-14-43.9-45.1-43.9-69.3c0-15.2,7.7-24.1,19.3-25.2
		c-4.8,4.3-7.7,11.2-7.7,20.4c0,24.3,19.7,55.3,44,69.3C426.1,191.1,434.6,193.2,441.6,192.5z"/>
	<path class="st4" d="M449.2,172.1c0,9.2-2.8,16.1-7.7,20.4c-7,0.7-15.5-1.4-24.6-6.7c-24.3-14-44-45.1-44-69.3
		c0-9.2,2.8-16.1,7.7-20.4c7-0.7,15.5,1.4,24.6,6.7C429.6,116.8,449.2,147.8,449.2,172.1z"/>
	<g>
		<path class="st5" d="M649.3,333.1"/>
		<path class="st5" d="M649.1,332.9"/>
	</g>
	<g>
		<ellipse class="st1" cx="829.6" cy="438.9" rx="33.4" ry="10.6"/>
		<g>
			<path class="st6" d="M862.4,327.5c-0.1-0.3-0.3-0.7-0.6-1c0-0.1-0.1-0.1-0.1-0.2c-0.2-0.3-0.5-0.6-0.7-0.9c0-0.1-0.1-0.1-0.1-0.1
				c-1.9-1.9-4.9-2.7-7.7-1.7c-0.3,0.1-0.6,0.2-0.9,0.4c-3,1.5-4.6,4.9-3.9,8.2c0.4,0.9,0.9,1.8,1.3,2.8l0,0
				c0.1,0.1,0.1,0.1,0.2,0.1c0.9,0.7,1.8,1.4,2.6,2.1l0,0c2.7,1.3,6.1,0.8,8.3-1.5c1.3-1.4,2.1-3.1,2.1-4.8v-0.1
				c-0.1-0.2,0.1-0.7-0.2-0.7L862.4,327.5z"/>
			<path class="st6" d="M849.9,335c0,0.1,0.1,0.1,0.1,0.2c1,2,2,4.2,3,6.4l0,0c7.7,16.8,16.8,38.6,19.9,37.5
				c4-1.4-5.2-29.5-9.7-48.2c-0.1,1.8-0.8,3.5-2.1,4.8c-2.3,2.3-5.6,2.7-8.3,1.5l0,0c-0.9-0.7-1.8-1.4-2.6-2.1
				C850,335.1,849.9,335,849.9,335z"/>
			<g>
				<path class="st6" d="M803.3,306.4c-0.1,0-0.2,0-0.2,0c-2.2,0.1-4.6,0.3-7.1,0.4l0,0c-18.5,0.8-42.1,1-42.3,4.3
					c-0.2,4.2,29.3,6.3,48.2,9.2c-1.6-0.7-2.9-2-3.7-3.8c-1.2-3-0.4-6.2,1.8-8.3l0,0c1-0.6,2-1.1,3-1.6
					C803.2,306.5,803.2,306.4,803.3,306.4z"/>
				<path class="st7" d="M817.4,358.7c0,1.2,0.8,2.2,1.9,2.2c1.1,0,1.9-0.9,2-2.1c0-1.2-0.8-2.1-1.9-2.2
					C818.3,356.6,817.4,357.5,817.4,358.7z"/>
				<path class="st7" d="M816.3,348.3c0,1.2,0.8,2.2,1.9,2.2s1.9-0.9,2-2.1c0-1.2-0.8-2.1-1.9-2.2
					C817.2,346.2,816.3,347.2,816.3,348.3z"/>
				<g>
					<path class="st8" d="M844.1,368.5c-2.8,0.8-5.7,1.5-8.6,1.9c-2.9,0.4-5.8,0.6-8.7,0.6s-5.8-0.2-8.7-0.6s-5.7-1.1-8.5-2
						c1.4,0.3,2.8,0.7,4.3,1c1.4,0.3,2.9,0.5,4.3,0.7c2.9,0.3,5.8,0.5,8.7,0.5s5.8-0.2,8.7-0.5C838.4,369.6,841.3,369.2,844.1,368.5
						z"/>
				</g>
				<g>
					<path class="st8" d="M844.2,368.5c0-0.2,0.1-0.3,0.2-0.3c0.1,0,0.2,0,0.3,0.2c0,0.2-0.1,0.3-0.2,0.3
						C844.4,368.6,844.3,368.6,844.2,368.5z"/>
				</g>
				<path class="st7" d="M808.4,305.4"/>
				<path class="st8" d="M816.3,348.3c0,1.2,0.8,2.2,1.9,2.2s1.9-0.9,2-2.1c0-1.2-0.8-2.1-1.9-2.2
					C817.2,346.2,816.3,347.2,816.3,348.3z"/>
				<path class="st8" d="M817.4,358.7c0,1.2,0.8,2.2,1.9,2.2c1.1,0,1.9-0.9,2-2.1c0-1.2-0.8-2.1-1.9-2.2
					C818.3,356.6,817.4,357.5,817.4,358.7z"/>
				<path class="st9" d="M803.3,366.1c2.7,33.2,7.2,71.1,12.1,71.1c7.5,0,1.9-58.8,10.1-58.8c9,0,5.3,58.8,13.6,58.8
					c5.5,0,10.1-38.1,14.2-70.6c-1.8,0.5-5,1.2-9.1,1.9c0,0,0,0-0.1,0C834.2,370,818.8,371,803.3,366.1L803.3,366.1z"/>
				<path class="st10" d="M800.4,323.6l0.3-2.1c-0.2,5.2-0.2,14,1,22.5c0.4,6.8,0.9,14.4,1.6,22.2l0,0c15.5,4.8,30.9,3.9,40.8,2.4
					c0,0,0,0,0.1,0c4.2-0.7,7.3-1.4,9.1-1.9c1.6-12.5,0-28.1,0-28.1l10.7-8.2c-1.5-5.5-2.8-9.9-3.6-12c-2.9-7.1-4.8-8.6-6.2-10.3
					c-1.5-1.9-7.2-2.5-11.4-2.6H842c-0.8,0-1.5,0-2.1,0h-0.2c-1.1,0-1.8,0-1.8,0l-2.8,2.5l-0.5,0.5l0,0l-9.6,8.3l-10.8-10.3
					c0,0-0.3-0.1-0.9-0.3c-0.1,0-0.1,0-0.2-0.1c-1.1-0.3-2.9-0.6-4.7,0c-0.1,0-0.2,0-0.3,0.1l0.4-0.7c-3.2,0-7.5,0-12.2,0.2
					l1.7,15.8C798.9,321.6,799.6,323.5,800.4,323.6z"/>
				<path class="st11" d="M819.3,356.6c-1.1,0-1.9,0.9-1.9,2.1s0.8,2.2,1.9,2.2c1.1,0,1.9-0.9,2-2.1
					C821.3,357.6,820.4,356.7,819.3,356.6z"/>
				<path class="st11" d="M818.1,350.5c1.1,0,1.9-0.9,2-2.1c0-1.2-0.8-2.1-1.9-2.2c-1.1,0-1.9,0.9-1.9,2.1
					C816.2,349.5,817.1,350.5,818.1,350.5z"/>
				<g>
					<polygon class="st6" points="811.4,274.6 812,276.7 810.6,291.4 813.2,295.7 813.2,301.5 813.2,305 813.4,305.7 814.4,312.7 
						818.8,337.9 818.8,338.1 821,334 826.9,322.7 834.7,308 834.7,307.9 835.8,304.5 836.4,274.6 					"/>
					<path class="st7" d="M836,331.1"/>
					<path class="st7" d="M835.8,304.5"/>
					<path class="st7" d="M815.2,314.4"/>
					<path id="XMLID_261_" class="st12" d="M824.5,256.3c0,0,12.5-3.7,18.7,11c5.8,13.6,5.8,28.5,4.2,31.8c-1.7,3.6-13.1,2-13.1,2
						s3.5-23.3,0.5-24.6c-3-1.3-20.6-0.8-21.5,0.2s-0.8,20.8,1.5,24.5c0,0-14.2,2.8-15-6.2C798.9,286.1,806.5,250.4,824.5,256.3z"/>
					<path class="st4" d="M820.2,335.5c0,0,11.9-11.4,18.1-11.4l-1.7-5.9l6.8-1.3l-0.5-11.4l-6.5-0.6l-9.4,17.8L820.2,335.5z"/>
					<path class="st4" d="M807.1,315.4l3.3,1.1l-0.7,2.8c5.4,2.5,8.7,16.8,9.1,18.6l-5.5-32.9l-4.8,0.1l-4.6,9.3L807.1,315.4z"/>
					<path class="st13" d="M829.6,318.3"/>
					<ellipse class="st8" cx="823.5" cy="294.2" rx="2.3" ry="3"/>
				</g>
				<path class="st14" d="M813.4,305.7"/>
			</g>
		</g>
	</g>
	<g>
		<g>
			<g>
				<g>
					<g>
						<polygon class="st15" points="268.5,371.5 230.1,349.6 268.3,327.3 306.9,349.3 						"/>
						<polygon class="st3" points="268.3,502.2 230.1,480.4 230.1,349.6 268.5,371.5 						"/>
						<polygon class="st1" points="268.3,502.2 307,480.1 306.9,349.3 268.5,371.5 						"/>
					</g>
				</g>
				<g>
					<g>
						<polygon class="st15" points="271,374 208.4,338.3 270.7,302 333.5,337.8 						"/>
						<polygon class="st3" points="270.7,385.6 208.4,350.1 208.4,338.3 271,374 						"/>
						<polygon class="st1" points="270.7,385.6 333.6,349.6 333.5,337.8 271,374 						"/>
					</g>
				</g>
			</g>
		</g>
		<g>
			<g>
				<g>
					<ellipse class="st16" cx="269.6" cy="329.3" rx="42.4" ry="8.2"/>
					<g>
						<path class="st6" d="M230.1,198.1c0.6,1,1.1,2,1.7,3.1c9.4,17.3,26,43.5,22.8,45.7c-3.7,2.5-21.9-22.6-34.9-37.7l0,0
							c-0.7-0.8-1.3-1.5-2-2.3c-1.9-3.4-1-7.8,2.3-10.1C223.2,194.6,227.6,195.2,230.1,198.1z"/>
						<path class="st6" d="M308.8,196.9c0,0-1.5,4-4.7,17.2c-0.3,1.1-0.5,2.3-0.8,3.4c-1.4,2.8-4.5,4.6-7.8,4.1
							c-3.4-0.4-6-3.1-6.6-6.3l0,0c0-1,0-2,0.1-3c0.3-13.5-0.1-18.1-0.1-18.1L308.8,196.9z"/>
						<path class="st6" d="M296.3,206.6c1.1,0.2,2.3,0.4,3.5,0.7c19.3,3.7,50.2,7.3,49.9,11.2c-0.4,4.5-31.4,2.7-51.3,3.3l0,0
							c-1,0-2,0.1-3,0.1c-3.9-0.7-6.7-4.2-6.3-8.2C289.3,209.7,292.5,206.8,296.3,206.6z"/>
						<path class="st9" d="M266.7,244.8h-25v2.1c1.5,10.7,2.1,88.9,9,88.9c5.5,0,12.6-30.5,14.9-50.3c0-0.1,0.1-0.2,0.1-0.2
							c0.1-1,0.2-2.1,0.4-3.1c1.3-10.2,3.5-16.1,5.4-16.1l0,0c1.8,0,2.2,5.9,3.4,16.1c0.1,1,0.2,2,0.4,3.1c0,0.1,0.1,0.2,0.1,0.3
							c2.3,19.6,4.1,44.1,9.5,44.1c4.4,0,7.3-19.2,9.8-43.3c0-0.1,0.1-0.1,0.1-0.2c0.2-1.8,0.4-3.5,0.5-5.3
							c1.2-11.4,2.4-23.3,3.9-33.9v-2.1L266.7,244.8z"/>
						<g>
							<path class="st17" d="M309,197.6c-0.1,0.6-0.2,1.1-0.2,1.7l-21.9-2.8c0-0.6,0.1-1.1,0.2-1.7c1.6-12.4,7.8-21.7,13.9-21
								C306.9,174.6,310.5,185.3,309,197.6z"/>
							<path class="st17" d="M302.2,173.8l-2.5,74.2c-8.7,2.6-18.7,4.1-29.3,4.1c-10.7,0-20.7-1.5-29.4-4.2c0,0-1.8-23.1-1.8-55.8
								S302.2,173.8,302.2,173.8z"/>
							<g>
								<path class="st6" d="M245.2,198.5c0,0-3.9,1.8-15.4,9.1c-1,0.6-2,1.2-3,1.9c-3,1-6.4,0.1-8.5-2.5c-2.1-2.7-2.2-6.4-0.3-9.1
									l0,0c0.7-0.7,1.4-1.4,2.1-2.1c9.7-9.5,12.5-13,12.5-13L245.2,198.5z"/>
								<path class="st17" d="M245.5,199.6c-0.4,0.3-0.9,0.7-1.3,1l-13.7-17.3c0.4-0.4,0.8-0.7,1.3-1.1c9.8-7.7,20.8-10.1,24.6-5.3
									C260.1,181.7,255.3,191.8,245.5,199.6z"/>
							</g>
						</g>
						<polygon class="st6" points="289,134.7 286.1,173.9 280.7,191.9 256.5,173.9 256.4,134.7 						"/>
						<polygon class="st4" points="286.1,168 277.1,177.2 283.3,183.9 286.1,174.2 						"/>
						<polygon class="st4" points="256.5,168 277.1,177.2 270.7,184.7 256.5,174.1 						"/>
						<path class="st8" d="M281.6,161.1c0,0-5.5,11.7-9.9-0.1C271.7,161,276.6,165.9,281.6,161.1z"/>
					</g>
				</g>
			</g>
			<g>
				<path class="st12" d="M280.9,140.1l6.2-8.7c-0.3,0.3-13,9.4-17.8,8.9l4.6-6.5c0,0-17.4-3.3-17.7,12.4c-0.2,11-0.3,18-0.3,18
					s-4.2-20-6.9-28c-5.2-15.3,20.2-51.6,45.3-15.8c0,0,0.9,1.3,1.6,4.2C296.2,127,295.5,136.2,280.9,140.1z"/>
			</g>
		</g>
	</g>
	<path class="st18" d="M713.7,518.9c-5.9,21.8-26.4,33.3-27.2,33.7l-3.7-6.7c0.2-0.1,18.5-10.5,23.6-29.1c3-11.1,0.8-23-6.6-35.5
		c-25.9-43.7-170.7-196.7-182.1-210.9c-7-5.1-91.6-68.2-96.2-107.4c-0.9-7,0.8-13,4.9-17.9c3.6-4.3,7.3-7.7,11.1-10
		c1,1.5,2.2,3.6,3.7,6.7c-2.9,1.9-5.9,4.6-8.9,8.2c-2.7,3.2-3.8,7.2-3.2,12.1c3.6,30.1,63.5,79.2,85.5,96.3l-7.7-32.7l4.2-3.4
		l8.5,39c18.5,22.9,160.6,171.8,186.8,216.1C714.8,491.7,717.4,505.7,713.7,518.9z"/>
	<g>
		<path class="st17" d="M639.6,450.2C639.6,450.3,639.6,450.3,639.6,450.2c0.6,2.4,1.9,4.4,3.9,5.8c0.2,0.2,0.3,0.3,0.5,0.4
			c0.4,0.3,0.8,0.5,1.2,0.7c1,0.3,2,0.6,3,1c0.3,0.1,0.6,0.2,0.9,0.3c19.4,6.2,47.2,16.1,49.5,11c1.8-4-18.6-15.9-39.8-28.2
			c-0.5-0.3-1-0.6-1.6-0.9c-1.6-0.9-3.1-1.8-4.7-2.7c-4.9-1.3-10.2,1.1-12.4,5.8C639.1,445.6,639,448,639.6,450.2z"/>
		<g>
			<ellipse class="st1" cx="606.6" cy="515" rx="30.3" ry="10.2"/>
			<path class="st19" d="M628.1,427.4"/>
			<path class="st17" d="M604.8,456.9c-0.1,1-0.2,2.1-0.3,3.2c-1.9,20.3-5.9,50.5-0.3,51.7c4.4,0.9,11.9-22.6,19.7-46.6
				c0.6-1.7,1.1-3.5,1.7-5.2c0.3-5.1-3.2-9.7-8.3-10.8C611.7,447.9,606.2,451.3,604.8,456.9z"/>
			<path class="st17" d="M627.4,414.2l-14-2.7c0,0-6,32.7-7.9,43c-0.1,0.3-0.1,0.6-0.2,0.9c-0.1,0.7-0.3,1.4-0.4,2.2
				c-0.2,4.6,2.8,8.9,7.4,10.4c4.3,1.3,8.8-0.2,11.4-3.5c0.5-1.3,1.1-2.6,1.7-3.9c0,0,0,0,0-0.1c0.1-0.4,0.3-0.7,0.4-1
				c2.7-6.3,11.8-25,14.6-31.2"/>
			<path class="st17" d="M623.8,420.5c2.2,4.1,6.4,12.2,10.2,19.5c2.1,4,4.1,7.8,5.6,10.6c-0.6-2.2-0.4-4.7,0.6-6.9
				c2.2-4.8,7.4-7.2,12.4-5.8c1.6,0.9,3.1,1.8,4.7,2.7c0.5,0.3,1,0.6,1.6,0.9c-2.6-9.7-5.3-19.7-7.5-29"/>
			<path class="st12" d="M677.8,375.9c7-21.4-0.9-26.6-1.4-27.3l0,0l-23.9,3.4v-0.1l-16.9,3.4l3.9-9.2l-0.5-5.5
				c-9.9,9.4-15.6,21.2-19,32.9l0,0c-1.4,4.3-2.6,10.6-2.6,10.6c-1.7,8.6-2.5,17-3.3,24.1c-0.1,1-0.2,2-0.3,2.9
				c5.4,7.4,24.3,13.7,29,14c3.6,0.2,6.2-0.2,7.4-0.3c0.1,0,0.2,0,0.3,0c1.7-5.7,5.7-15.7,14.5-26.8c0.2-0.3,0.4-0.6,0.7-0.9
				c1.6-1.9,3-3.9,4.3-5.9c2.9-4.4,5.3-8.8,7.1-13.2C677.3,377.2,677.5,376.5,677.8,375.9z M676.2,357.7c-0.2,0.1-0.6,0-0.6,0H676.2
				z"/>
			<path class="st12" d="M676.2,357.7c-0.2,0.1-0.6,0-0.6,0H676.2z"/>
			<path class="st6" d="M660.3,302.2l-14.1,33.6l4.8,7l22.4-0.1l0.2-0.4c25.8-31.1-4.6-36.2-4.6-36.2
				C666.5,310.2,662.4,308.2,660.3,302.2z"/>
			<polygon class="st6" points="639.4,346 635.5,355.2 652.4,351.8 649.3,342.1 			"/>
			<polygon class="st4" points="638.7,338.1 638.9,340.5 639.4,346 649.3,342.1 644.2,334.6 			"/>
			<path class="st4" d="M649.3,342.1l3.1,9.7v0.1l23.9-3.4l-0.2-5.9c-0.6-0.2-1.2-0.5-1.8-0.7h-1.2L649.3,342.1z"/>
			<path class="st19" d="M628.6,314"/>
			<g>
				<path d="M660.3,330.4c-0.8,0.6-1.8,1-2.8,1.2s-2.1,0.2-3.1-0.2c-1-0.4-1.8-1.1-2.3-2c-0.3-0.4-0.4-0.9-0.7-1.4
					c-0.1-0.5-0.3-1-0.4-1.5l0.6,1.4c0.3,0.4,0.4,0.9,0.8,1.3c0.5,0.8,1.3,1.4,2.2,1.8s1.9,0.4,2.8,0.3
					C658.5,331.1,659.4,330.8,660.3,330.4z"/>
			</g>
			<path class="st19" d="M676.2,342.7"/>
			<path class="st19" d="M676.2,342.7"/>
			<path class="st12" d="M672.8,343c0,0,26.6-23.3,14.5-28.5c0,0,16-14.5-39.7-32c0,0-10-4.5-8.8-13.4c0,0-12.8,24.4,2.1,38.6
				c8.1,7.7,17.8,4.4,21.3,4.3c4.3-0.1,22.5,3.3,20.1,8.9C679,328.6,672.8,343,672.8,343z"/>
			<path class="st12" d="M676.2,357.7c-0.2,0.1-0.6,0-0.6,0H676.2z"/>
			<g>
				<path class="st6" d="M626.4,348.2c-3.2-0.6-6.5,0.9-8.2,3.9c-1.2,2.1-1.3,4.6-0.4,6.8c0.4,0.9,0.9,1.7,1.6,2.5
					c0.8,0.6,1.7,1.2,2.5,1.8c7.1,5.1,11.1,8.2,13.1,9.8l9.7-17.2c-2-0.7-5.6-2.1-11.5-4.6c-1.1-0.4-2.2-0.9-3.4-1.4
					C628.6,349.1,627.5,348.7,626.4,348.2z"/>
				<path class="st12" d="M645.3,354.4l-0.7,1.3l-9.7,17.2l-0.7,1.2c0.5,0.3,1,0.6,1.5,0.9c9.2,5.2,18.7,6.5,23.4,3.7
					c1-0.6,1.8-1.3,2.3-2.3c0.1-0.2,0.2-0.4,0.3-0.7c1.6-3.9-1.2-9.6-6.9-14.8c-2.2-2.1-5-4-8-5.7
					C646.3,354.9,645.8,354.6,645.3,354.4z"/>
			</g>
			<path class="st6" d="M577.3,327.6c-1.5,2.5,8.8,10.1,20.6,18.5c7.1,5,14.7,10.2,20.8,14.8l0,0c0.8,0.6,1.6,1.2,2.5,1.8
				c2.2,1.1,4.7,1,6.8,0c1.3-0.7,2.5-1.7,3.3-3c2-3.5,1.1-7.8-2-10.2c-1.1-0.5-2.2-1-3.3-1.5s-2.3-1-3.5-1.6
				c-6.8-3.2-14.5-7-21.7-10.4C588.9,330.1,578.5,325.6,577.3,327.6z"/>
		</g>
	</g>
	<g>
		<ellipse class="st1" cx="74.6" cy="460.2" rx="31.2" ry="9.9"/>
		<g>
			<path class="st6" d="M113.5,363.4c8.8,9.8,18.2,18.7,21.4,15.7c3.4-3.1-4.4-20.8-12.7-37.1L113.5,363.4z"/>
			<path class="st7" d="M64.5,314.2"/>
			<path class="st7" d="M91.7,312.9"/>
			<polygon class="st6" points="64.8,313.6 64.8,274 91.9,274 90.8,312.9 94.7,330 75.6,347.2 			"/>
			<path class="st7" d="M64.8,344"/>
			<path class="st7" d="M65,312.5"/>
			<g>
				<path class="st8" d="M78.2,304.5c0.7,0.7,1.5,1.3,2.3,1.8s1.8,0.8,2.7,0.8s1.9-0.2,2.7-0.7c0.4-0.2,0.8-0.6,1.2-0.8l1.1-1
					c-0.3,0.4-0.6,0.8-0.9,1.2c-0.4,0.3-0.7,0.7-1.2,1c-0.8,0.6-1.9,0.9-2.9,0.9s-2.1-0.4-2.9-1C79.5,306.1,78.8,305.4,78.2,304.5z"
					/>
			</g>
			<path class="st7" d="M89,324.1"/>
			<path class="st7" d="M88.4,336.9c0,0,6.1,2.4,8.6-0.5c3.7-4.4,3.9-21.4,3.9-21.4"/>
			<path class="st7" d="M74.3,336.9c0,0-6.1,2.4-8.6-0.5C62,332,61.8,315,61.8,315"/>
			<path class="st7" d="M55,387.9c0,0,19.9,6.4,40.8,0"/>
			<path class="st12" d="M100.3,276c0,0-5.5,8.4-9.2,16.7l-0.5-13c0,0-8.4,5-25.9-2.9v18.3l-7.1-21.6c0,0-11.5-10.8-5.3-27
				c0,0,11.4,12.7,30.1,7.2C101.1,248.2,103.7,264.4,100.3,276z"/>
			<path class="st18" d="M36.1,337.8l10.4,21.4c1,7.8,1.9,16.4,2.9,25.2c18.8,8.1,43,7,57,5.3c1.4-10.5,2.7-20.9,3.9-30.1
				c1.1,1.3,2.2,2.5,3.3,3.8l8.7-21.4c-7.8-15.3-16-29.5-16-29.5l-15.4,0.4l-5.3,25.3c-5.7-9.5-21.3-25.7-21.3-25.7H45.8
				C45.8,312.5,35,315.2,36.1,337.8z"/>
			<g>
				<polygon class="st20" points="126.5,361.6 93.8,340.7 69.6,355.4 101.6,376.7 				"/>
				<polygon class="st5" points="134.2,314 101.6,334.9 101.6,383.7 134.2,362.8 				"/>
				<polygon class="st20" points="101.6,376.7 69.6,355.4 69.6,361.2 101.6,383.7 				"/>
				<polygon class="st20" points="134.2,314 129.2,310.8 96.4,331.6 101.6,334.9 				"/>
				<polygon class="st21" points="96.4,331.6 96.4,380 101.6,383.7 101.6,334.9 				"/>
			</g>
			<path class="st18" d="M36,348.8c0,6.4,5.1,10.1,11.2,12.2c1-11,5-16.5,7.5-18.8c-2.5-0.7-4.5-1.2-5.7-1.5l-13-2.9V348.8z"/>
			<path class="st4" d="M85.5,338.2c0,0-12.6-16.8-24.8-2.2c0,0-3.5-8.9-4.5-15.3c-0.8-4.9,3.5-10.8,8.6-9.8L85.5,338.2z"/>
			<path class="st4" d="M85.6,337.8c0,0,6.1-17.5,18.3-14.1c0,0-2.3-7.8-4.8-11c-1.9-2.5-6.6-3-8.3,0.3L85.6,337.8z"/>
			<path class="st17" d="M49.3,384.4c3.8,37.5,7,79.4,12.9,79.4c9.6,0,4.1-65.6,14.6-65.6c9.6,0,4.2,65.6,13,65.6
				c5.5,0,11.6-38,16.5-74.1C92.2,391.4,68.1,392.5,49.3,384.4z"/>
			<path class="st6" d="M47.2,361c9.4,3.2,21.2,2.7,21.2,2.7c11.8,0.2,28.3,1.2,28.7-3.2c0.6-6.3-28.7-14.6-42.4-18.3
				C52.3,344.5,48.2,350,47.2,361z"/>
		</g>
	</g>
</g>
<g>
	<g id="XMLID_371_">
		<g id="XMLID_372_">
			<g id="XMLID_373_" class="st22">
				<g id="XMLID_378_">
					<polygon id="XMLID_379_" class="st1" points="369.5,557.6 369.5,561.4 348.1,573.8 348.1,570 					"/>
				</g>
				<g id="XMLID_376_">
					<polygon id="XMLID_377_" class="st3" points="348.1,570 348.1,573.8 326.6,561.4 326.6,557.6 					"/>
				</g>
				<g id="XMLID_374_">
					<polygon id="XMLID_375_" class="st4" points="369.5,557.6 348.1,570 326.6,557.6 348,545.2 					"/>
				</g>
			</g>
		</g>
	</g>
	<g id="XMLID_368_">
		<polygon id="XMLID_370_" class="st1" points="348.6,531.4 348.6,564 360.3,557.3 		"/>
		<polygon id="XMLID_369_" class="st3" points="348.6,531.4 348.6,564 337,557.3 		"/>
	</g>
</g>
<g>
	<g id="XMLID_340_">
		<g id="XMLID_366_">
			<path id="XMLID_367_" class="st4" d="M708.2,398.4c-4,2.3-4,6.1,0,8.4s10.5,2.3,14.5,0s4-6.1,0-8.4S712.2,396.1,708.2,398.4z"/>
		</g>
		<g id="XMLID_341_">
			<g id="XMLID_358_">
				<g id="XMLID_359_" class="st22">
					<g id="XMLID_364_">
						<polygon id="XMLID_365_" class="st3" points="717.7,384 717.6,404.1 715.3,405.4 715.4,385.3 						"/>
					</g>
					<g id="XMLID_362_">
						<polygon id="XMLID_363_" class="st3" points="715.4,385.3 715.3,405.4 713,404.1 713.1,384 						"/>
					</g>
					<g id="XMLID_360_">
						<polygon id="XMLID_361_" class="st23" points="717.7,384 715.4,385.3 713.1,384 715.4,382.6 						"/>
					</g>
				</g>
			</g>
			<g id="XMLID_342_">
				<g id="XMLID_355_">
					<polygon id="XMLID_357_" class="st3" points="715.4,372.9 715.4,398.2 725,394.6 					"/>
					<polygon id="XMLID_356_" class="st15" points="715.4,372.9 715.4,398.2 705.7,394.6 					"/>
				</g>
				<polygon id="XMLID_354_" class="st24" points="722.9,389.7 715.4,394 707,391.5 709.1,386.9 				"/>
				<g id="XMLID_351_">
					<polygon id="XMLID_353_" class="st3" points="715.4,361 715.4,392.6 727.4,388 					"/>
					<polygon id="XMLID_352_" class="st15" points="715.4,361 715.4,392.6 703.3,388 					"/>
				</g>
				<polygon id="XMLID_350_" class="st24" points="721.9,375.6 715.4,378.1 708.8,375.6 708.1,377.3 715.4,380.3 				"/>
				<g id="XMLID_347_">
					<polygon id="XMLID_349_" class="st3" points="715.4,352.8 715.4,378.1 725,374.4 					"/>
					<polygon id="XMLID_348_" class="st15" points="715.4,352.8 715.4,378.1 705.7,374.4 					"/>
				</g>
				<polygon id="XMLID_346_" class="st24" points="719.9,363 715.4,366.2 710,364.6 712.1,360 				"/>
				<g id="XMLID_343_">
					<polygon id="XMLID_345_" class="st3" points="715.4,349.8 715.4,364.8 721.1,362.6 					"/>
					<polygon id="XMLID_344_" class="st15" points="715.4,349.8 715.4,364.8 709.6,362.6 					"/>
				</g>
			</g>
		</g>
	</g>
</g>
<g>
	<g id="XMLID_380_">
		<g id="XMLID_406_">
			<path id="XMLID_407_" class="st4" d="M169.3,417.5c-4,2.3-4,6.1,0,8.4s10.5,2.3,14.5,0s4-6.1,0-8.4S173.3,415.2,169.3,417.5z"/>
		</g>
		<g id="XMLID_381_">
			<g id="XMLID_398_">
				<g id="XMLID_399_" class="st22">
					<g id="XMLID_404_">
						<polygon id="XMLID_405_" class="st3" points="178.8,403 178.8,423.1 176.5,424.4 176.5,404.3 						"/>
					</g>
					<g id="XMLID_402_">
						<polygon id="XMLID_403_" class="st3" points="176.5,404.3 176.5,424.4 174.2,423.1 174.2,403 						"/>
					</g>
					<g id="XMLID_400_">
						<polygon id="XMLID_401_" class="st23" points="178.8,403 176.5,404.3 174.2,403 176.5,401.7 						"/>
					</g>
				</g>
			</g>
			<g id="XMLID_382_">
				<g id="XMLID_395_">
					<polygon id="XMLID_397_" class="st3" points="176.5,392 176.5,417.3 186.2,413.6 					"/>
					<polygon id="XMLID_396_" class="st15" points="176.5,392 176.5,417.3 166.8,413.6 					"/>
				</g>
				<polygon id="XMLID_394_" class="st24" points="184,408.8 176.5,413.1 168.2,410.6 170.3,406 				"/>
				<g id="XMLID_391_">
					<polygon id="XMLID_393_" class="st3" points="176.5,380 176.5,411.6 188.6,407 					"/>
					<polygon id="XMLID_392_" class="st15" points="176.5,380 176.5,411.6 164.4,407 					"/>
				</g>
				<polygon id="XMLID_390_" class="st24" points="183.1,394.7 176.5,397.1 170,394.7 169.2,396.3 176.5,399.4 				"/>
				<g id="XMLID_387_">
					<polygon id="XMLID_389_" class="st3" points="176.5,371.8 176.5,397.1 186.2,393.5 					"/>
					<polygon id="XMLID_388_" class="st15" points="176.5,371.8 176.5,397.1 166.8,393.5 					"/>
				</g>
				<polygon id="XMLID_386_" class="st24" points="181.1,382.1 176.5,385.3 171.2,383.7 173.3,379.1 				"/>
				<g id="XMLID_383_">
					<polygon id="XMLID_385_" class="st3" points="176.5,368.8 176.5,383.8 182.2,381.7 					"/>
					<polygon id="XMLID_384_" class="st15" points="176.5,368.8 176.5,383.8 170.8,381.7 					"/>
				</g>
			</g>
		</g>
	</g>
</g>
</svg>
