<?xml version="1.0" encoding="utf-8"?>
<!-- Generator: Adobe Illustrator 21.0.2, SVG Export Plug-In . SVG Version: 6.00 Build 0)  -->
<svg version="1.1" id="Layer_1" xmlns="http://www.w3.org/2000/svg" xmlns:xlink="http://www.w3.org/1999/xlink" x="0px" y="0px"
	 viewBox="0 0 630 614.5" style="enable-background:new 0 0 630 614.5;" xml:space="preserve">
<style type="text/css">
	.st0{fill:#F7F8F9;}
	.st1{fill:none;stroke:#E8E8E8;stroke-miterlimit:10;}
	.st2{fill:#FCC1BE;}
	.st3{fill:#FFFFFF;}
	.st4{fill:#DFE1E3;}
	.st5{fill:#F9F9F9;}
	.st6{fill:#ECEDEE;}
	.st7{fill:#FDD118;}
	.st8{fill:#DDDDDD;}
	.st9{fill:#FAF8FA;stroke:#606060;stroke-miterlimit:10;}
	.st10{fill:#FAFAFA;}
	.st11{fill:#6BBD00;}
	.st12{fill:#2A4494;}
	.st13{fill:#515151;}
	.st14{fill:#2B429A;}
	.st15{fill:#F09200;}
	.st16{fill:#0099FF;}
	.st17{fill:#FEE300;}
	.st18{fill:#B3D9F8;}
	.st19{fill:#DD402D;}
	.st20{fill:none;stroke:#C7CAD7;stroke-width:0.5;stroke-miterlimit:10;}
	.st21{fill:#263D85;}
	.st22{fill:#3F579F;}
	.st23{fill:#22A3FF;}
	.st24{fill:#E5B700;}
	.st25{enable-background:new    ;}
	.st26{fill:#8F7B69;}
	.st27{fill:#D6D7D8;}
</style>
<g>
	<path class="st0" d="M0,393.1c0,50.4,144.8,201.4,237.4,144.6c72.9-44.7,112.6,26.8,173.2,64.5C471.1,639.8,630,590.5,630,464.1
		c0-77.2-177.3-132.2-248.5-141.6S0,200.1,0,393.1z"/>
	<path class="st1" d="M387.1,185.7"/>
	<g>
		<path class="st2" d="M434.7,266.3c4.2,1.1,7.5,4.8,7.9,9.4c0.3,3.3-1,6.5-3.3,8.6c-1,0.9-2.1,1.6-3.3,2.1
			c-1.4,0.3-2.7,0.5-4.1,0.8c-11.6,2.2-18.3,3.8-21.6,4.7l-2.3-26.6c2.9,0.3,8.1,0.6,16.8,0.9c1.5,0.1,3.2,0.1,5,0.1
			C431.5,266.2,433.1,266.3,434.7,266.3z"/>
		<path class="st1" d="M260.4,262.8c0,0-37.6-43.9-66.1-39.6"/>
		<path class="st1" d="M262,263.4c0,0,10.9-66.1-4.4-125.1"/>
		<path class="st1" d="M226.2,182.5c0,0,30.8,36.5,35.8,89"/>
		<polygon class="st2" points="415.5,201.7 411.9,261.5 404.9,275.1 373.9,252 373.8,201.7 		"/>
		<path class="st3" d="M518.3,562.8c0,2.3-0.2,4.3-0.7,6.2c-0.6,2.2-1.4,4.2-2.6,5.8l0,0l-8,5.3l-17.4,11.6l-52.4-64.9l27.7-16.5
			l0.4,0.4c5.6-2.6,13.5-1.7,22.2,3.4C504.5,524,518.3,545.8,518.3,562.8z"/>
		<path class="st4" d="M494.2,578c0,17-13.8,22.9-30.8,13s-30.8-31.6-30.8-48.7c0-17,13.8-22.9,30.8-13
			C480.4,539.2,494.2,561,494.2,578z"/>
		<path class="st5" d="M483.5,573.4c0,10.9-8.8,14.6-19.7,8.3s-19.8-20.1-19.8-31s8.8-14.6,19.7-8.3
			C474.6,548.6,483.5,562.5,483.5,573.4z"/>
		<path class="st3" d="M480.3,577.2c0,10.9-8.8,14.6-19.7,8.3s-19.7-20.2-19.7-31.1s8.8-14.6,19.7-8.3
			C471.5,552.3,480.3,566.3,480.3,577.2z"/>
		<path class="st4" d="M472,568.9c0,4.9-4,6.6-8.8,3.7s-8.8-9.1-8.8-14s4-6.6,8.8-3.7S472,564,472,568.9z"/>
		<path class="st3" d="M470.5,570.3c0,4.9-4,6.6-8.8,3.7s-8.8-9.1-8.8-14s4-6.6,8.8-3.7S470.5,565.4,470.5,570.3z"/>
		<g>
			<g>
				<polygon class="st5" points="477.3,509.2 463.3,501.1 477.3,493 491.3,501.1 				"/>
			</g>
			<g>
				<polygon class="st6" points="477.3,532.5 463.3,524.4 463.3,501.1 477.3,509.2 				"/>
			</g>
			<g>
				<polygon class="st4" points="477.3,532.5 491.3,524.4 491.3,501.1 477.3,509.2 				"/>
			</g>
		</g>
		<path class="st3" d="M228.6,359.8c0,3-0.3,5.7-0.9,8.2c-0.7,3-1.9,5.6-3.5,7.8l0,0l-10.7,7.1l-23.2,15.5L120.4,312l36.9-22
			l0.6,0.6c7.5-3.5,18-2.2,29.6,4.5C210.2,308.1,228.6,337.1,228.6,359.8z"/>
		<path class="st5" d="M224.2,375.8c-2.6,3.6-6.3,6-10.7,7.1L224.2,375.8z"/>
		<path class="st4" d="M196.5,380.1c0,22.7-18.4,30.5-41.1,17.4s-41.1-42.1-41.1-64.8s18.4-30.5,41.1-17.4S196.5,357.4,196.5,380.1z
			"/>
		<path class="st5" d="M230.9,371.4l-6.7,4.5c1.5-2.2,2.7-4.8,3.5-7.8L230.9,371.4z"/>
		<g>
			<g>
				<polygon class="st3" points="396.2,511.4 196.5,385.2 229.1,366.4 427.9,481.7 				"/>
			</g>
			<g>
				<polygon class="st6" points="396.2,515.9 196.5,389.7 196.5,385.2 396.2,511.4 				"/>
			</g>
			<g>
				<polygon class="st4" points="396.2,515.9 432.4,487.3 432.4,482.8 396.2,511.4 				"/>
			</g>
		</g>
		<g>
			<g>
				<polygon class="st3" points="452,514.9 396.1,511.4 427.9,481.6 482.9,490 				"/>
			</g>
			<g>
				<polygon class="st6" points="452,519.4 396.1,515.9 396.1,511.4 452,514.9 				"/>
			</g>
			<g>
				<polygon class="st4" points="452,519.4 482.9,494.4 482.9,490 452,514.9 				"/>
			</g>
		</g>
		<g>
			<g>
				<polygon class="st5" points="474.3,300.4 467,298.3 474.3,296.1 481.6,298.3 				"/>
			</g>
			<g>
				<polygon class="st6" points="474.3,507.3 467,503.7 467,298.3 474.3,300.4 				"/>
			</g>
			<g>
				<polygon class="st4" points="474.3,507.3 481.6,503.7 481.6,298.3 474.3,300.4 				"/>
			</g>
		</g>
		<path class="st5" d="M182.2,374c0,14.5-11.8,19.5-26.3,11.1s-26.3-27-26.3-41.5s11.8-19.5,26.3-11.1
			C170.4,340.9,182.2,359.5,182.2,374z"/>
		<path class="st3" d="M178.1,379c0,14.5-11.8,19.5-26.3,11.1c-14.5-8.4-26.3-27-26.3-41.5s11.8-19.5,26.3-11.1
			C166.3,345.9,178.1,364.5,178.1,379z"/>
		<path class="st4" d="M166.9,367.9c0,6.5-5.3,8.7-11.8,5c-6.5-3.8-11.8-12.1-11.8-18.6s5.3-8.7,11.8-5
			C161.6,353.1,166.9,361.4,166.9,367.9z"/>
		<path class="st3" d="M165,369.8c0,6.5-5.3,8.7-11.8,5c-6.5-3.8-11.8-12.1-11.8-18.6s5.3-8.7,11.8-5C159.7,355,165,363.3,165,369.8
			z"/>
		<path class="st7" d="M506,241l-1.3,0.8C505.1,241.5,505.5,241.2,506,241z"/>
		<g>
			<g>
				<g>
					<polygon class="st5" points="425.6,343.9 415.8,338.9 415.2,327.9 425,332.9 					"/>
				</g>
				<g>
					<path class="st6" d="M521.6,280.6c-0.3,1.1-0.9,1.8-1.8,2.3l0.6-0.4L521.6,280.6z"/>
				</g>
			</g>
			<path class="st6" d="M500,295.7l-72.3,46.9l-0.6,0.4l-1.5,0.9v-0.6l-0.5-10.4l-9.2-4.7l-0.6-0.3l72.8-47
				C491.8,281.4,498.9,284.1,500,295.7z"/>
		</g>
		<g>
			<g>
				<circle class="st1" cx="141.2" cy="128" r="115.1"/>
				<g>
					<polyline class="st1" points="137.4,185.3 198.3,228.1 225.2,180.1 					"/>
					<g>
						<g>
							<polyline class="st1" points="42.7,74.4 135.2,141.6 135.5,21.5 							"/>
							<line class="st1" x1="137.2" y1="149.8" x2="137.2" y2="187.8"/>
							<polyline class="st1" points="218.3,169.4 135.1,140.9 57,187.4 221.4,182.3 							"/>
							<line class="st1" x1="226.7" y1="86.9" x2="134.7" y2="140.5"/>
							<line class="st1" x1="47.7" y1="68" x2="137.5" y2="20.4"/>
							<line class="st1" x1="141.7" y1="21.3" x2="232" y2="78.6"/>
							<line class="st1" x1="45" y1="88.8" x2="45.5" y2="186.9"/>
							<line class="st1" x1="220.3" y1="164.8" x2="136.4" y2="27.7"/>
							<line class="st1" x1="235.2" y1="74.8" x2="47.6" y2="75.7"/>
							<line class="st1" x1="49.3" y1="174.8" x2="137.5" y2="23.6"/>
						</g>
						<circle class="st8" cx="107.6" cy="75.6" r="3.8"/>
						<circle class="st8" cx="136" cy="76.1" r="3.8"/>
						<circle class="st8" cx="137.3" cy="185.5" r="3.8"/>
						<circle class="st8" cx="166.2" cy="76.1" r="3.8"/>
						<circle class="st8" cx="185.9" cy="109.4" r="3.8"/>
						<circle class="st8" cx="90.4" cy="109.2" r="3.8"/>
						<circle class="st8" cx="45.1" cy="134.1" r="3.8"/>
						<circle class="st8" cx="84.3" cy="48.4" r="3.8"/>
						<circle class="st8" cx="186.2" cy="49.2" r="3.8"/>
						<circle class="st8" cx="197.7" cy="228.4" r="3.8"/>
						<circle class="st8" cx="93.1" cy="232.8" r="3.8"/>
					</g>
					<line class="st1" x1="237.8" y1="82.7" x2="227.2" y2="168.2"/>
					<polyline class="st1" points="136.2,185.9 93,233.4 55.1,190.7 					"/>
				</g>
				<circle class="st8" cx="264.9" cy="276.1" r="3.8"/>
				<g>
					<circle class="st9" cx="133.5" cy="124.1" r="9.2"/>
					<path class="st4" d="M101.9,137c0,7.3,2.6,14.2,6.6,19.6c6.1,7.8,15.3,13,26.2,13c10.6,0,20-5,26.2-13c4-5.4,6.6-12.3,6.6-19.6
						c0-18.2-14.6-32.5-32.5-32.5C116.3,104.5,101.9,119.1,101.9,137z"/>
					<path class="st10" d="M102.9,140.1c0,7.1,2.4,13.4,6.4,18.9c5.9,7.5,14.6,12.5,25,12.5c10.1,0,19.3-4.7,25-12.5
						c3.8-5.2,6.4-11.8,6.4-18.9c0-17.5-13.9-31.4-31.4-31.4S102.9,122.6,102.9,140.1z"/>
					<circle class="st3" cx="134.5" cy="125" r="9.4"/>
					<g>
						<path class="st11" d="M109.2,159.2c5.9,7.5,14.6,12.5,25,12.5c10.1,0,19.3-4.7,25-12.5c-4.2-9.4-13.9-15.8-25-15.8
							C123.2,143.4,113.7,149.8,109.2,159.2z"/>
						<polygon class="st2" points="125.5,122.6 125.8,146.9 133.8,157.5 142.3,146.9 142.3,122.6 						"/>
						<path class="st12" d="M119.6,128.1c0,5,2.4,9.2,6.1,11.8v-13.7c3.1,1.7,7.8-1.9,7.8-1.9c2.1,3.1-1.9,5.2-1.9,5.2
							c5.2,0.9,8.5-1.7,10.8-3.3v13.7c3.8-2.6,6.1-6.8,6.1-11.8c0-8-6.4-14.4-14.4-14.4C126,113.7,119.6,120,119.6,128.1z"/>
						<path class="st12" d="M142.3,139.6c0,0,8.7,5.7,3.1,21c0,0-1.9,5-1.2,9.2C144.2,169.8,130.2,154.2,142.3,139.6z"/>
						<g>
							<path class="st13" d="M136.4,141c-0.2,0.7-0.5,1.2-0.9,1.4c-0.5,0.5-1.2,0.7-1.9,0.7s-1.4-0.2-1.9-0.7
								c-0.2-0.2-0.5-0.5-0.7-0.7c-0.2-0.2-0.2-0.5-0.5-0.9c0.5,0.2,0.9,0.7,1.4,0.7c0.5,0.2,0.9,0.2,1.4,0.2
								C134.5,142.2,135.2,141.7,136.4,141z"/>
						</g>
					</g>
				</g>
				<g>
					<circle class="st9" cx="234.4" cy="68.8" r="6.5"/>
					<path class="st4" d="M212.2,77.9c0,5.1,1.8,10,4.6,13.8c4.3,5.5,10.8,9.1,18.4,9.1c7.5,0,14.1-3.5,18.4-9.1
						c2.8-3.8,4.6-8.6,4.6-13.8c0-12.8-10.3-22.9-22.9-22.9C222.3,55.1,212.2,65.3,212.2,77.9z"/>
					<path class="st10" d="M257,80.1c0,5-1.8,9.6-4.5,13.3c-0.5,0.7-1.1,1.4-1.6,2c-0.4,0.5-0.9,0.9-1.4,1.3
						c-0.9,0.8-1.8,1.5-2.8,2.1c-0.5,0.3-1,0.6-1.6,0.9l0,0c-3,1.6-6.5,2.4-10.1,2.4c-3.1,0-6-0.6-8.6-1.7c-0.1,0-0.1-0.1-0.2-0.1
						c-0.7-0.3-1.4-0.7-2.1-1c-0.9-0.5-1.8-1.1-2.7-1.8c-0.2-0.2-0.4-0.3-0.6-0.5c-1.3-1.1-2.4-2.3-3.5-3.6
						c-2.8-3.8-4.5-8.3-4.5-13.3c0-12.3,9.8-22,22-22C247.2,58.1,257,67.8,257,80.1z"/>
					<g>
						<polygon class="st3" points="241,81.8 235.6,85.8 237.8,88.2 241,84.1 						"/>
					</g>
					<g>
						<polygon class="st3" points="230.2,81.8 235.6,85.8 233.2,88.5 230.2,84 						"/>
					</g>
					<g>
						<g>
							<path class="st14" d="M219.4,93.1c3.6,4.7,9.3,7.9,15.8,7.9c6.3,0,12.1-3,15.8-7.9c-2.6-5.9-8.7-9.9-15.8-9.9
								C228.1,82.9,222.1,87,219.4,93.1z"/>
						</g>
						<g>
							<polygon class="st2" points="240.8,72.8 240.8,84.7 235.3,91.7 230.3,84.7 230.1,70.9 							"/>
						</g>
						<g>
							<path class="st13" d="M236.9,80.2c0,0.3-0.3,0.5-0.4,0.7c-0.3,0.3-0.5,0.4-0.8,0.4s-0.7-0.1-0.8-0.4
								c-0.3-0.3-0.4-0.4-0.4-0.7c0.5,0.3,0.9,0.4,1.2,0.4S236.4,80.5,236.9,80.2z"/>
						</g>
					</g>
					<g>
						<path class="st12" d="M227,72.4c0,0,2.1,5.2,3.5,8.1v-6.8c0,0,3.4,1.7,10.1-1v7.8l2.7-8.9c0,0,4.4-3.7,2-9.2
							c0,0-4.4,4.3-11.6,2.5C226.6,62.9,225.7,68.4,227,72.4z"/>
					</g>
				</g>
				<g>
					<circle class="st9" cx="139.2" cy="10.5" r="4.9"/>
					<path class="st4" d="M122.2,17.5c0,3.9,1.4,7.6,3.5,10.5c3.3,4.2,8.2,7,14,7c5.7,0,10.8-2.7,14-7c2.2-2.9,3.5-6.6,3.5-10.5
						c0-9.7-7.8-17.5-17.5-17.5C129.9,0,122.2,7.9,122.2,17.5z"/>
					<path class="st10" d="M122.7,19.1c0,3.8,1.3,7.2,3.4,10.1c3.2,4,7.8,6.7,13.4,6.7c5.4,0,10.4-2.5,13.4-6.7
						c2-2.8,3.4-6.3,3.4-10.1c0-9.4-7.5-16.8-16.8-16.8C130.2,2.3,122.7,9.8,122.7,19.1z"/>
					<g>
						<g>
							<path class="st15" d="M127.7,29.6c2.9,3.7,7.4,6.2,12.5,6.2c5,0,9.6-2.4,12.5-6.2c-2.1-4.6-6.9-7.8-12.5-7.8
								C134.6,21.6,129.8,24.8,127.7,29.6z"/>
						</g>
						<g>
							<polygon class="st2" points="135.1,13.1 135.2,24.8 139.9,29.1 144,24.8 144,13.1 							"/>
							<path class="st12" d="M135.1,21.1v-6.4c3.5,1.6,8.5-1.8,8.5-1.8l0.3,8.2c1.4-1.3,2.4-3.2,2.4-5.3c0-2.4-1.3-4.6-3.2-5.8
								c0.2-0.5,0.3-0.8,0.3-1.3c0-1.8-1.8-3.2-3.8-3.2c-2.1,0-3.8,1.4-3.8,3.2c0,0.5,0.2,1,0.3,1.3c-1.9,1.3-3.2,3.4-3.2,5.8
								C132.8,18.1,133.8,19.8,135.1,21.1z"/>
							<g>
								<path class="st13" d="M140.7,20.8c0,0.3-0.3,0.6-0.5,0.8c-0.3,0.3-0.6,0.5-1,0.5s-0.8-0.2-1-0.5c-0.3-0.3-0.5-0.5-0.5-0.8
									c0.6,0.3,1.1,0.5,1.4,0.5C139.6,21.3,140,21.1,140.7,20.8z"/>
							</g>
						</g>
					</g>
				</g>
				<g>
					<path class="st4" d="M79.7,225.5c0,3.6,1.3,6.9,3.2,9.5c3,3.8,7.5,6.3,12.7,6.3s9.8-2.4,12.7-6.3c2-2.6,3.2-6,3.2-9.5
						c0-8.8-7.1-15.9-15.9-15.9C86.7,209.6,79.7,216.8,79.7,225.5z"/>
					<path class="st10" d="M80.1,227c0,3.4,1.1,6.5,3.1,9.2c2.9,3.7,7.1,6.1,12.2,6.1c4.9,0,9.4-2.3,12.2-6.1
						c1.8-2.5,3.1-5.7,3.1-9.2c0-8.5-6.8-15.3-15.3-15.3C86.9,211.7,80.1,218.5,80.1,227z"/>
					<g>
						<g>
							<g>
								<path class="st14" d="M84.7,236.1c2.6,3.4,6.7,5.8,11.4,5.8s8.8-2.3,11.4-5.8c-2-4.3-6.4-7.3-11.4-7.3
									S86.6,231.8,84.7,236.1z"/>
							</g>
						</g>
						<g>
							<polygon class="st2" points="99.1,221.4 99.5,231.9 96.6,236.8 91.6,232.2 91.1,221.7 							"/>
							<path class="st12" d="M99,221.2c0,0-0.8,2-3.5,2.5l2.1-2.8c0,0-2.5,2.5-3.6,2.5l0.4-1.5c0,0-3.1,0.3-3,2.9s0.3,5.4,0.3,5.4
								s-1.3-5.8-2-7.7c-1.5-3.5,6.5-12.2,10.4-4.4c0,0,1.3,4.8-0.4,11.7L99,221.2z"/>
							<g>
								<path class="st13" d="M94.6,228.9c0.5,0.3,1,0.4,1.4,0.4s0.8-0.3,1.4-0.5c0,0.1-0.1,0.3-0.1,0.4c-0.1,0.1-0.1,0.3-0.3,0.4
									c-0.3,0.3-0.5,0.4-0.9,0.4s-0.6-0.1-0.9-0.4C94.9,229.5,94.6,229.3,94.6,228.9z"/>
							</g>
						</g>
					</g>
				</g>
				<g>
					<circle class="st9" cx="36.7" cy="69.3" r="6.7"/>
					<path class="st4" d="M13.8,78.7c0,5.3,1.9,10.3,4.8,14.2c4.4,5.6,11.1,9.4,19,9.4c7.7,0,14.5-3.6,19-9.4
						c2.9-3.9,4.8-8.9,4.8-14.2c0-13.2-10.6-23.6-23.6-23.6C24.2,55.1,13.8,65.7,13.8,78.7z"/>
					<path class="st10" d="M59.9,80.9c0,5.1-1.9,9.9-4.6,13.7c-0.5,0.7-1.1,1.4-1.7,2.1c-0.4,0.5-0.9,0.9-1.4,1.4
						c-0.9,0.8-1.9,1.5-2.9,2.2c-0.5,0.3-1.1,0.6-1.6,0.9l0,0c-3.1,1.6-6.7,2.5-10.4,2.5c-3.2,0-6.1-0.6-8.8-1.8
						c-0.1,0-0.1-0.1-0.2-0.1c-0.7-0.3-1.4-0.7-2.1-1.1c-1-0.6-1.9-1.2-2.8-1.9c-0.2-0.2-0.4-0.3-0.6-0.5c-1.3-1.1-2.5-2.4-3.6-3.7
						c-2.9-3.9-4.6-8.5-4.6-13.7c0-12.7,10.1-22.7,22.7-22.7C49.8,58.1,59.9,68.2,59.9,80.9z"/>
					<g>
						<polygon class="st3" points="43.4,82.6 37.9,86.7 40.2,89.3 43.4,85 						"/>
					</g>
					<g>
						<polygon class="st3" points="32.3,82.6 37.9,86.7 35.5,89.6 32.3,84.9 						"/>
					</g>
					<g>
						<g>
							<path class="st16" d="M20.6,94c3.9,5,10,8.4,16.9,8.4c6.7,0,13-3.2,16.9-8.4c-2.8-6.3-9.3-10.6-16.9-10.6
								C30,83.1,23.5,87.5,20.6,94z"/>
						</g>
						<g>
							<polygon class="st2" points="43.4,72.3 43.4,85 37.6,92.4 32.3,85 32,70.2 							"/>
						</g>
						<g>
							<path class="st13" d="M39.3,80.2c0,0.3-0.3,0.6-0.4,0.7c-0.3,0.3-0.6,0.4-0.8,0.4c-0.3,0-0.7-0.1-0.8-0.4
								c-0.3-0.3-0.4-0.4-0.4-0.7c0.6,0.3,1,0.4,1.3,0.4C38.3,80.6,38.7,80.5,39.3,80.2z"/>
						</g>
					</g>
					<g>
						<path class="st12" d="M32.9,70.1c0,0,4.1,5.5,15.2,9c0,0-1.1-1.7-1.8-4.8c0,0,2.2,1.2,4.1,1.3c0,0-1.9-8.8-9.9-12.6
							c-9.7-4.6-14.2,2.1-11.8,9.8c2.4,7.6,3.7,10.5,3.7,10.5L32.9,70.1z"/>
					</g>
				</g>
				<g>
					<circle class="st9" cx="224" cy="163.2" r="6.8"/>
					<path class="st4" d="M200.6,172.8c0,5.4,1.9,10.5,4.9,14.5c4.5,5.8,11.3,9.6,19.4,9.6c7.8,0,14.8-3.7,19.4-9.6
						c3-4,4.9-9.1,4.9-14.5c0-13.4-10.8-24.1-24.1-24.1C211.3,148.8,200.6,159.6,200.6,172.8z"/>
					<path class="st10" d="M201.3,175.1c0,5.2,1.7,9.9,4.7,14c4.4,5.6,10.8,9.2,18.5,9.2c7.5,0,14.3-3.5,18.5-9.2
						c2.8-3.8,4.7-8.7,4.7-14c0-12.9-10.3-23.2-23.2-23.2S201.3,162.2,201.3,175.1z"/>
					<g>
						<g>
							<path class="st17" d="M208.2,189.6c4,5.1,10.2,8.6,17.2,8.6c6.8,0,13.2-3.3,17.2-8.6c-2.9-6.4-9.5-10.8-17.2-10.8
								C217.7,178.5,211.1,182.9,208.2,189.6z"/>
						</g>
					</g>
					<g>
						<polygon class="st2" points="230.9,164.9 230.3,180.2 224.6,187.5 218.7,180.2 217.6,164.9 						"/>
					</g>
					<g id="XMLID_544_">
						<path class="st12" d="M224.5,156.2c0,0-6.7-1.8-10,5.1c-3,6.4-3,15.1-2.2,16.7c0.9,1.7,6.8,1,6.8,1s-1.8-12.7-0.3-13.3
							c1.6-0.6,10.8-0.4,11.3,0.1s0.4,11.4-0.8,13.2c0,0,7.5,1.3,7.9-2.9C237.6,171.9,233.9,153.4,224.5,156.2z"/>
					</g>
					<g>
						<g>
							<path class="st3" d="M224.6,187.5c0,0,3.4-0.5,6.8-1.7l-0.8-2l2.5-0.3l-0.1-3.4h-2.8L224.6,187.5z"/>
						</g>
						<g>
							<path class="st3" d="M224.6,187.5c0,0-3.4-0.5-6.8-1.7l0.8-2l-2.5-0.3l-0.1-3.4h2.8L224.6,187.5z"/>
						</g>
					</g>
					<g>
						<path class="st13" d="M222.8,176.1c0.3,0.2,0.6,0.5,0.9,0.6c0.3,0.2,0.6,0.3,1,0.3c0.3,0,0.7-0.1,0.9-0.3
							c0.3-0.2,0.6-0.4,0.8-0.6c-0.1,0.2-0.2,0.3-0.3,0.5c-0.1,0.1-0.3,0.3-0.4,0.4c-0.3,0.2-0.7,0.4-1.1,0.4s-0.8-0.2-1.1-0.4
							C223.2,176.7,223,176.4,222.8,176.1z"/>
					</g>
				</g>
				<g>
					<circle class="st9" cx="38.4" cy="179.5" r="7.1"/>
					<path class="st4" d="M14,189.5c0,5.6,2,10.9,5.1,15.1c4.7,6,11.8,10,20.2,10c8.2,0,15.5-3.8,20.2-10c3.1-4.2,5.1-9.5,5.1-15.1
						c0-14-11.3-25.1-25.1-25.1C25.1,164.4,14,175.7,14,189.5z"/>
					<path class="st10" d="M63.2,191.9c0,5.5-2,10.6-4.9,14.6c-0.6,0.8-1.2,1.5-1.8,2.2c-0.5,0.5-1,1-1.5,1.5c-1,0.9-2,1.6-3.1,2.3
						c-0.6,0.4-1.1,0.7-1.7,1l0,0c-3.3,1.7-7.1,2.7-11.1,2.7c-3.4,0-6.5-0.7-9.4-1.9c-0.1,0-0.2-0.1-0.2-0.1
						c-0.8-0.3-1.5-0.7-2.3-1.2c-1-0.6-2-1.3-2.9-2c-0.2-0.2-0.4-0.3-0.6-0.5c-1.4-1.2-2.7-2.5-3.8-4c-3.1-4.2-4.9-9.1-4.9-14.6
						c0-13.5,10.7-24.2,24.2-24.2C52.4,167.7,63.2,178.4,63.2,191.9z"/>
					<g>
						<polygon class="st3" points="45.6,193.8 39.7,198.1 42.1,200.8 45.6,196.2 						"/>
					</g>
					<g>
						<polygon class="st3" points="33.7,193.8 39.7,198.1 37.1,201.1 33.7,196.2 						"/>
					</g>
					<g>
						<g>
							<path class="st18" d="M21.3,205.8c4.1,5.3,10.6,9,18,9c7.1,0,13.8-3.5,18-9c-3-6.7-9.9-11.3-18-11.3
								C31.2,194.3,24.3,198.9,21.3,205.8z"/>
						</g>
						<g>
							<polygon class="st2" points="47.8,182.8 45.6,196.2 39.3,204.2 33.7,196.2 33.5,180.5 							"/>
						</g>
						<g>
							<path class="st12" d="M43.5,182.4c0,0-3.5,4.4-8.3,5c0,0,2.4-1.8,3.1-4c0,0-8.4,4.8-2.8,13.6c0,0-9.2-1.1-8.6-6.6
								c0.6-5.1,0.8-3.8,3.3-9.6c2.5-5.8,9.2-10.3,14.3-5.1c0,0,2.3,0.3,3.1,3.6c0.8,3.3,3.5,9.9,2.9,11.9c-0.9,3-6.4,6.3-6.4,6.3
								S48.8,189.1,43.5,182.4z"/>
						</g>
						<g>
							<path class="st13" d="M41.2,191.1c0,0.3-0.3,0.6-0.4,0.7c-0.3,0.3-0.6,0.4-0.9,0.4c-0.3,0-0.7-0.1-0.9-0.4
								c-0.3-0.3-0.4-0.4-0.4-0.7c0.6,0.3,1,0.4,1.3,0.4C40.2,191.6,40.6,191.4,41.2,191.1z"/>
						</g>
					</g>
				</g>
				<g>
					<circle class="st9" cx="196" cy="220.8" r="4.1"/>
					<path class="st4" d="M182,226.5c0,3.2,1.1,6.3,2.9,8.6c2.7,3.4,6.8,5.7,11.6,5.7c4.7,0,8.9-2.2,11.6-5.7
						c1.8-2.4,2.9-5.4,2.9-8.6c0-8-6.5-14.4-14.4-14.4C188.4,212.2,182,218.6,182,226.5z"/>
					<path class="st10" d="M182.4,227.9c0,3.1,1,5.9,2.8,8.3c2.6,3.3,6.5,5.5,11,5.5s8.5-2.1,11-5.5c1.7-2.3,2.8-5.2,2.8-8.3
						c0-7.7-6.1-13.9-13.9-13.9C188.6,214,182.4,220.2,182.4,227.9z"/>
					<g>
						<g>
							<path class="st19" d="M186.5,236.5c2.4,3,6.1,5.1,10.3,5.1c4.1,0,7.9-2,10.3-5.1c-1.7-3.8-5.7-6.5-10.3-6.5
								C192.2,229.9,188.2,232.6,186.5,236.5z"/>
						</g>
						<g>
							<polygon class="st2" points="192.6,222.9 192.7,232.6 196.5,236.1 200,232.6 200,222.9 							"/>
							<path class="st12" d="M192.6,229.5v-5.3c2.9,1.3,7-1.5,7-1.5l0.3,6.7c1.2-1.1,2-2.6,2-4.4c0-2-1.1-3.8-2.6-4.7
								c0.1-0.4,0.3-0.7,0.3-1.1c0-1.5-1.5-2.6-3.2-2.6s-3.2,1.2-3.2,2.6c0,0.4,0.1,0.8,0.3,1.1c-1.6,1.1-2.6,2.8-2.6,4.7
								C190.7,227,191.5,228.5,192.6,229.5z"/>
							<g>
								<path class="st13" d="M197.2,229.3c0,0.3-0.3,0.5-0.4,0.7c-0.3,0.3-0.5,0.4-0.8,0.4s-0.7-0.1-0.8-0.4
									c-0.3-0.3-0.4-0.4-0.4-0.7c0.5,0.3,0.9,0.4,1.2,0.4C196.3,229.7,196.7,229.5,197.2,229.3z"/>
							</g>
						</g>
					</g>
				</g>
			</g>
			<circle class="st8" cx="232.9" cy="126.7" r="3.8"/>
			<circle class="st8" cx="255.8" cy="137.5" r="3.8"/>
		</g>
		<g>
			<path class="st13" d="M409.6,232.9c0,0-7.5,16-13.6-0.2C396,232.7,402.7,239.5,409.6,232.9z"/>
			<path class="st12" d="M408.1,204.3c0,0-13.8,14.2-28,16c0,0,7.2-5.2,9.3-11.6c0,0-24.9,13.9-8.3,39.7c0,0-27.5-3.3-25.7-19.2
				c1.7-14.8,2.5-11,9.9-28.1c7.3-17.1,27.4-30.2,42.7-15c0,0,6.8,0.9,9.1,10.4s10.4,28.9,8.7,34.8c-2.6,8.9-13.5,18.7-13.5,18.7
				S416.4,228.5,408.1,204.3z"/>
			<g>
				<g>
					<g>
						<path class="st20" d="M384.7,367.7"/>
						<path class="st18" d="M363.6,407.2c0,0.1,0,0.1,0,0.1c-0.8,3.1-2.6,5.8-5.2,7.8c-0.2,0.2-0.5,0.4-0.7,0.5
							c-0.5,0.4-1,0.7-1.6,0.9c-1.3,0.4-2.7,0.9-4.1,1.3c-0.4,0.1-0.8,0.3-1.2,0.4c-26.2,8.4-63.9,22-67,15.1
							c-2.4-5.5,25.1-21.6,53.8-38.4c0.7-0.4,1.4-0.8,2.1-1.2c2.1-1.2,4.3-2.5,6.4-3.7c6.6-1.8,13.8,1.4,16.8,7.8
							C364.1,400.9,364.3,404.2,363.6,407.2z"/>
						<path class="st18" d="M410.6,416.1c0.1,1.4,0.3,2.8,0.4,4.3c2.6,27.5,8.1,68.4,0.6,70c-6,1.3-16.2-30.6-26.8-63
							c-0.8-2.3-1.5-4.7-2.3-7c-0.4-6.9,4.3-13.2,11.2-14.7C401.3,403.9,408.8,408.6,410.6,416.1z"/>
						<g>
							<path class="st18" d="M379.9,358.4l19-3.7c0,0,8.2,44.2,10.9,58.2c0.1,0.4,0.1,0.8,0.2,1.3c0.2,1,0.4,2,0.6,2.9
								c0.2,6.2-3.7,12.1-9.9,14.1c-5.8,1.8-11.9-0.2-15.5-4.7c-0.7-1.8-1.5-3.5-2.3-5.3v-0.1c-0.2-0.5-0.4-0.9-0.6-1.4
								c-3.7-8.5-16.1-33.8-19.9-42.2"/>
							<path class="st18" d="M384.8,366.9c-2.9,5.6-8.6,16.5-13.7,26.4c-2.8,5.5-5.5,10.6-7.5,14.4c0.8-3,0.6-6.3-0.8-9.4
								c-3-6.4-10.1-9.7-16.8-7.8c-2.1,1.2-4.3,2.5-6.4,3.7c-0.7,0.4-1.4,0.8-2.1,1.2c3.5-13.1,7.1-26.6,10-39.3"/>
							<path class="st12" d="M384.5,297.4l1.9-0.1c0-0.8-0.1-1.5-0.2-2.3c-0.4-4.7-1.3-9.2-2.6-13.1c-3.2-9.8-8.6-16.5-14.4-16.8
								c-0.3,0-0.7,0-1,0c-1.5,0.1-2.8,0.7-4.1,1.5c-6.1,4.2-9.8,16.7-8.6,30.9c0.1,0.8,0.1,1.5,0.2,2.3l1.9-0.2
								c0.8,3.4,2.4,10,4.7,21.6c0.3,1.4,0.5,2.7,0.8,4.1c0.5,1.2,1.2,2.3,2.1,3.3c1.6,2.7,4.4,4.7,7.7,5.1c1.4-0.1,2.7-0.2,4.1-0.3
								l0,0c10.3-0.7,22.8-0.9,34.5-1.4c-3.8,11-8.4,21.1-12.2,29.7c-0.5,1.2-1.1,2.4-1.6,3.6c-11.1,4.9-36.9-0.4-42.4-3.3
								c-4.2-2.2-7-4.3-8.2-5.2c-0.1-0.1-0.2-0.1-0.3-0.2c1.8-7.7,3.8-21.7,1.2-40.3c-0.1-0.5-0.1-0.9-0.2-1.4
								c-0.5-3.2-0.8-6.5-1.1-9.6c-0.4-6.9-0.2-13.6,0.7-19.8c0.1-1,0.3-1.9,0.5-2.8c6.1-29.1,18.6-29.9,19.7-30.2l0,0l25.1,19.7
								l0.1-0.1l17.1,15l1.7-13.1l4.2-5.9c5.1,17.4,3.8,34.5-0.1,50.3c-10.6-1.4-22.2-2.8-32.3-4.2
								C383.9,305.5,384.2,300.2,384.5,297.4z"/>
							<polygon class="st2" points="411.8,274 410.2,287.1 393.1,272.1 403.1,263 							"/>
							<polygon class="st3" points="417.8,265.5 416,268.1 411.8,274 403.1,263 413.9,257.8 							"/>
							<path class="st3" d="M403.1,263l-10,9.1l-0.1,0.1l-25.1-19.7l4.1-6.6c0.9,0.2,1.7,0.3,2.6,0.4l1.4,0.8L403.1,263z"/>
							<path class="st20" d="M383.7,214.1"/>
							<path class="st20" d="M371.9,245.9"/>
							<path class="st20" d="M371.9,245.9"/>
						</g>
					</g>
				</g>
				<g>
					<g>
						<path class="st2" d="M384,325.9c-1.1,4.4-4.9,7.8-9.7,8.2c-3.4,0.3-6.7-1-8.9-3.4c-1-1-1.7-2.1-2.2-3.4
							c-0.3-1.4-0.5-2.8-0.8-4.2c-2.3-12-4-18.9-4.8-22.4l27.6-2.3c-0.3,3-0.6,8.4-0.9,17.4c-0.1,1.6-0.1,3.3-0.1,5.2
							C384.1,322.5,384,324.2,384,325.9z"/>
						<path class="st12" d="M387.1,298.1l-2,0.2l-27.6,2.3l-2,0.2c-0.1-0.8-0.2-1.6-0.3-2.4c-1.2-14.8,2.6-27.6,8.9-32
							c1.3-0.9,2.7-1.5,4.2-1.6c0.4,0,0.7,0,1.1,0c5.9,0.3,11.6,7.2,14.9,17.3c1.3,4.1,2.3,8.7,2.7,13.6
							C387,296.6,387.1,297.3,387.1,298.1z"/>
					</g>
				</g>
			</g>
		</g>
		<g>
			<path class="st4" d="M221.9,398.1c0,8.4,18,15.3,40.2,15.3s40.2-6.8,40.2-15.3c0-0.6-0.2-5.7-0.2-5.7l-1.5,1.2
				c0,0-20.4-10.8-38.4-10.8c-19.6,0-40.2,9.5-40.2,9.5S221.9,398,221.9,398.1z"/>
			<ellipse class="st3" cx="262.1" cy="392.4" rx="40.2" ry="15.3"/>
			<path class="st4" d="M226.4,285.7v104.6c0,7.5,16,13.5,35.6,13.5c19.7,0,35.6-6.1,35.6-13.5V285.7H226.4z"/>
			<ellipse class="st3" cx="262.6" cy="287.8" rx="35.6" ry="13.5"/>
			<g>
				<path class="st4" d="M245.1,283.1c0,4.5,7.9,8.1,17.5,8.1s17.5-3.6,17.5-8.1c0-0.5-0.2-9.8-0.2-9.8l-34.7-0.6
					C245.2,272.7,245.1,282.8,245.1,283.1z"/>
				<ellipse class="st3" cx="262.6" cy="273.3" rx="17.5" ry="8.1"/>
			</g>
			<g>
				<path class="st21" d="M245,398.8c5,1.1,10.8,1.8,17,1.8c18.6,0,33.7-5.7,33.7-12.8c0-0.6-0.3-12.2-0.3-12.2S279.1,375,262,375
					s-33.4,1.5-33.4,1.5s-0.3,10.7-0.3,11.3C228.3,392.4,235,396.6,245,398.8"/>
				<ellipse class="st22" cx="262.1" cy="376.4" rx="33.7" ry="12.8"/>
				<path class="st16" d="M228.3,369.3c0,7.1,15.1,12.8,33.7,12.8s33.7-5.7,33.7-12.8c0-0.6-0.3-12.2-0.3-12.2s-16.3-0.6-33.4-0.6
					s-33.4,1.5-33.4,1.5S228.3,368.7,228.3,369.3z"/>
				<ellipse class="st23" cx="262.1" cy="358" rx="33.7" ry="12.8"/>
				<path class="st24" d="M228.3,351.3c0,7.1,15.1,12.8,33.7,12.8s33.7-5.7,33.7-12.8c0-0.6-0.3-12.2-0.3-12.2s-16.3-0.6-33.4-0.6
					s-33.4,1.5-33.4,1.5S228.3,350.7,228.3,351.3z"/>
				<ellipse class="st7" cx="262.1" cy="340" rx="33.7" ry="12.8"/>
			</g>
		</g>
		<path class="st16" d="M521.8,279c0,0.6-0.1,1.1-0.2,1.6l-1.1,1.8l-0.6,0.4L500,295.7c-1-11.6-8.1-14.3-12-14.9l20.4-13.2l1.3-0.8
			c1.3-0.4,3-0.1,4.8,0.9s3.4,2.6,4.6,4.3c1,1.4,1.8,2.9,2.2,4.4C521.7,277.3,521.8,278.2,521.8,279z"/>
		<path class="st23" d="M423,343.1c0.5,0.2,1,0.3,1.5,0.4l2.1-0.4l0.6-0.4l19.4-13.5c-10.3-5.3-10.1-13-9.2-16.7l-20,13.9l-1.3,0.9
			c-0.9,1-1.3,2.7-1,4.8c0.3,2,1.1,4.1,2.3,5.9c0.9,1.4,2,2.7,3.2,3.7C421.5,342.3,422.3,342.8,423,343.1z"/>
		<g>
			<path class="st2" d="M506.8,273.4c-0.2-3.9-17.4-5-37.1-5.7c-11.7-0.4-24.2-0.7-34.5-1.4l0,0c-1.4-0.1-2.8-0.2-4.1-0.3
				c-3.3,0.4-6.1,2.4-7.7,5.1c-1,1.7-1.6,3.7-1.5,5.9c0.2,5.4,4.5,9.7,9.8,10.1c1.6-0.2,3.2-0.5,4.8-0.7c1.7-0.3,3.4-0.5,5.1-0.8
				c10-1.4,21.6-2.8,32.3-4.2C491.8,279.2,507,276.6,506.8,273.4z"/>
		</g>
		<path class="st16" d="M428.9,339.2c0,3.9-3.2,5.2-7,3c-3.9-2.2-7-7.2-7-11.1s3.2-5.2,7-3C425.8,330.4,428.9,335.4,428.9,339.2z"/>
		<path class="st2" d="M451.7,326.8c-0.2,4-18,5.1-38.4,5.9c-12.1,0.4-25.1,0.7-35.7,1.4l0,0c-1.4,0.1-2.9,0.2-4.3,0.3
			c-3.4-0.5-6.3-2.5-8-5.3c-1.1-1.8-1.6-3.8-1.5-6.1c0.2-5.6,4.7-10.1,10.1-10.5c1.7,0.2,3.3,0.5,5,0.7c1.7,0.3,3.5,0.5,5.3,0.8
			c10.4,1.5,22.4,2.9,33.4,4.3C436.2,320.8,451.9,323.5,451.7,326.8z"/>
	</g>
</g>
<g>
	<g id="XMLID_295_">
		<g id="XMLID_296_">
			<g id="XMLID_297_" class="st25">
				<g id="XMLID_302_">
					<polygon id="XMLID_303_" class="st4" points="203.7,539.5 203.6,543.3 182.3,555.7 182.3,551.9 					"/>
				</g>
				<g id="XMLID_300_">
					<polygon id="XMLID_301_" class="st6" points="182.3,551.9 182.3,555.7 160.8,543.3 160.8,539.5 					"/>
				</g>
				<g id="XMLID_298_">
					<polygon id="XMLID_299_" class="st3" points="203.7,539.5 182.3,551.9 160.8,539.5 182.1,527.1 					"/>
				</g>
			</g>
		</g>
	</g>
	<g id="XMLID_292_">
		<polygon id="XMLID_294_" class="st4" points="182.8,513.3 182.8,545.9 194.4,539.2 		"/>
		<polygon id="XMLID_293_" class="st6" points="182.8,513.3 182.8,545.9 171.2,539.2 		"/>
	</g>
</g>
<g>
	<g id="XMLID_262_">
		<g id="XMLID_290_">
			<path id="XMLID_291_" class="st3" d="M49.8,310.4c-4,2.3-4,6.1,0,8.4s10.5,2.3,14.5,0s4-6.1,0-8.4S53.8,308.1,49.8,310.4z"/>
		</g>
		<g id="XMLID_265_">
			<g id="XMLID_282_">
				<g id="XMLID_283_" class="st25">
					<g id="XMLID_288_">
						<polygon id="XMLID_289_" class="st6" points="59.3,296 59.3,316.1 57,317.4 57,297.3 						"/>
					</g>
					<g id="XMLID_286_">
						<polygon id="XMLID_287_" class="st6" points="57,297.3 57,317.4 54.7,316.1 54.7,296 						"/>
					</g>
					<g id="XMLID_284_">
						<polygon id="XMLID_285_" class="st26" points="59.3,296 57,297.3 54.7,296 57,294.7 						"/>
					</g>
				</g>
			</g>
			<g id="XMLID_266_">
				<g id="XMLID_279_">
					<polygon id="XMLID_281_" class="st6" points="57,285 57,310.3 66.7,306.6 					"/>
					<polygon id="XMLID_280_" class="st10" points="57,285 57,310.3 47.3,306.6 					"/>
				</g>
				<polygon id="XMLID_278_" class="st27" points="64.5,301.7 57,306 48.7,303.6 50.8,298.9 				"/>
				<g id="XMLID_275_">
					<polygon id="XMLID_277_" class="st6" points="57,273 57,304.6 69.1,300 					"/>
					<polygon id="XMLID_276_" class="st10" points="57,273 57,304.6 44.9,300 					"/>
				</g>
				<polygon id="XMLID_274_" class="st27" points="63.6,287.6 57,290.1 50.5,287.6 49.7,289.3 57,292.3 				"/>
				<g id="XMLID_271_">
					<polygon id="XMLID_273_" class="st6" points="57,264.8 57,290.1 66.7,286.4 					"/>
					<polygon id="XMLID_272_" class="st10" points="57,264.8 57,290.1 47.3,286.4 					"/>
				</g>
				<polygon id="XMLID_270_" class="st27" points="61.6,275.1 57,278.2 51.7,276.7 53.8,272 				"/>
				<g id="XMLID_267_">
					<polygon id="XMLID_269_" class="st6" points="57,261.8 57,276.8 62.7,274.6 					"/>
					<polygon id="XMLID_268_" class="st10" points="57,261.8 57,276.8 51.3,274.6 					"/>
				</g>
			</g>
		</g>
	</g>
</g>
<g>
	<g id="XMLID_304_">
		<g id="XMLID_330_">
			<path id="XMLID_331_" class="st3" d="M549.2,385.6c-4,2.3-4,6.1,0,8.4s10.5,2.3,14.5,0s4-6.1,0-8.4S553.2,383.3,549.2,385.6z"/>
		</g>
		<g id="XMLID_305_">
			<g id="XMLID_322_">
				<g id="XMLID_323_" class="st25">
					<g id="XMLID_328_">
						<polygon id="XMLID_329_" class="st6" points="558.7,371.2 558.6,391.3 556.3,392.6 556.4,372.5 						"/>
					</g>
					<g id="XMLID_326_">
						<polygon id="XMLID_327_" class="st6" points="556.4,372.5 556.3,392.6 554,391.3 554.1,371.2 						"/>
					</g>
					<g id="XMLID_324_">
						<polygon id="XMLID_325_" class="st26" points="558.7,371.2 556.4,372.5 554.1,371.2 556.4,369.9 						"/>
					</g>
				</g>
			</g>
			<g id="XMLID_306_">
				<g id="XMLID_319_">
					<polygon id="XMLID_321_" class="st6" points="556.4,360.1 556.4,385.4 566,381.8 					"/>
					<polygon id="XMLID_320_" class="st10" points="556.4,360.1 556.4,385.4 546.7,381.8 					"/>
				</g>
				<polygon id="XMLID_318_" class="st27" points="563.9,376.9 556.4,381.2 548,378.7 550.1,374.1 				"/>
				<g id="XMLID_315_">
					<polygon id="XMLID_317_" class="st6" points="556.4,348.2 556.4,379.8 568.4,375.2 					"/>
					<polygon id="XMLID_316_" class="st10" points="556.4,348.2 556.4,379.8 544.3,375.2 					"/>
				</g>
				<polygon id="XMLID_314_" class="st27" points="562.9,362.8 556.4,365.3 549.8,362.8 549.1,364.5 556.4,367.5 				"/>
				<g id="XMLID_311_">
					<polygon id="XMLID_313_" class="st6" points="556.4,340 556.4,365.3 566,361.6 					"/>
					<polygon id="XMLID_312_" class="st10" points="556.4,340 556.4,365.3 546.7,361.6 					"/>
				</g>
				<polygon id="XMLID_310_" class="st27" points="561,350.2 556.4,353.4 551.1,351.8 553.1,347.2 				"/>
				<g id="XMLID_307_">
					<polygon id="XMLID_309_" class="st6" points="556.4,337 556.4,352 562.1,349.8 					"/>
					<polygon id="XMLID_308_" class="st10" points="556.4,337 556.4,352 550.6,349.8 					"/>
				</g>
			</g>
		</g>
	</g>
</g>
<g id="XMLID_332_">
	<g id="XMLID_333_" class="st25">
		<g id="XMLID_338_">
			<polygon id="XMLID_339_" class="st6" points="42.9,376.3 42.9,378 46.6,380.1 46.6,378.5 			"/>
		</g>
		<g id="XMLID_336_">
			<polygon id="XMLID_337_" class="st4" points="46.6,378.5 46.6,380.1 54.9,375.3 54.9,373.7 			"/>
		</g>
		<g id="XMLID_334_">
			<polygon id="XMLID_335_" class="st3" points="42.9,376.3 46.6,378.5 54.9,373.7 51.2,371.5 			"/>
		</g>
	</g>
</g>
</svg>
