<?xml version="1.0" encoding="utf-8"?>
<!-- Generator: Adobe Illustrator 21.0.2, SVG Export Plug-In . SVG Version: 6.00 Build 0)  -->
<svg version="1.1" id="Layer_1" xmlns="http://www.w3.org/2000/svg" xmlns:xlink="http://www.w3.org/1999/xlink" x="0px" y="0px"
	 viewBox="0 0 355.8 318.5" style="enable-background:new 0 0 355.8 318.5;" xml:space="preserve">
<style type="text/css">
	.st0{fill:#F7F8F9;}
	.st1{fill:#DFE1E3;}
	.st2{fill:#FAFAFA;}
	.st3{fill:#ECEDEE;}
	.st4{fill:#FFFFFF;}
	.st5{fill:#E5B700;}
	.st6{fill:#FFCC00;}
	.st7{fill:#FCC1BE;}
	.st8{fill:#B3D9F8;stroke:#515151;stroke-width:0.5;stroke-miterlimit:10;}
	.st9{fill:#61AD3F;stroke:#515151;stroke-width:0.5;stroke-miterlimit:10;}
	.st10{fill:#D6D7D8;}
	.st11{fill:#C7CAD7;}
	.st12{fill:#0099FF;}
	.st13{fill:#DD402D;}
	.st14{fill:#515151;}
	.st15{fill:#2A4494;}
	.st16{fill:#FFD633;}
	.st17{fill:#E8BA08;}
	.st18{fill:#B3D9F8;}
</style>
<g>
	<path class="st0" d="M18.6,218c15.3-15.3,298.4-18.2,317.4,0.9s21.9,17,18.7,37.4c-3.3,20.5-36.2,29.6-36.2,29.6
		s-31.6,28.4-66.5,28.4s-63.2,11.4-87.4-3.4s-66.9-9.1-68.3-9.1c-1.4,0-40.9,28.4-54.8,2.3c-13.9-26.2-35.3-29.6-40-47.8
		C-3.1,238.1,3.3,233.3,18.6,218z"/>
	<g>
		<ellipse class="st1" cx="124" cy="275.1" rx="27.8" ry="9.4"/>
	</g>
	<g>
		<g>
			<g>
				<polygon class="st2" points="177.9,98.1 173.9,95.8 177.9,94.8 181.9,95.8 				"/>
				<polygon class="st3" points="174.9,276.6 170.9,274.2 173.9,95.8 177.9,98.1 				"/>
				<polygon class="st1" points="174.9,276.6 178.9,274.3 181.9,95.8 177.9,98.1 				"/>
			</g>
		</g>
		<g>
			<g>
				<polygon class="st2" points="177.9,94 171.8,90.4 178,87 184.1,90.6 				"/>
				<polygon class="st3" points="177.7,100.7 171.6,97.2 171.8,90.4 177.9,94 				"/>
				<polygon class="st1" points="177.7,100.7 183.9,97.3 184.1,90.6 177.9,94 				"/>
			</g>
		</g>
	</g>
	<g>
		<path class="st3" d="M262.2,52.8c-1.2,6.6-4.5,10.8-8.9,12.4l-49.9,28.7L170,31.7l50-28.6l0,0c5.5-5,14.3-4.1,23.4,3.6
			C256.3,17.6,264.8,38.3,262.2,52.8z"/>
		<path class="st4" d="M212.1,81.5c-2.6,14.5-15.3,17.4-28.3,6.4s-21.5-31.7-18.9-46.2s15.3-17.4,28.3-6.4
			C206.3,46.3,214.7,67,212.1,81.5z"/>
		<path class="st3" d="M198.8,75.6c-0.7,3.7-2.5,6-4.9,6.9L168,97.7l-18.6-34.6l17.5-10l8.5-5.1c3-2.8,8-2.3,13,2
			C195.5,56,200.2,67.5,198.8,75.6z"/>
		<path class="st4" d="M172.8,90.8c-1.4,8.1-8.5,9.7-15.7,3.6s-11.9-17.6-10.5-25.7s8.5-9.7,15.7-3.6
			C169.5,71.2,174.2,82.7,172.8,90.8z"/>
		<path class="st3" d="M164.5,88c-0.4,2.2-1.5,3.5-2.9,4l-12.4,7.1l-11-20.3l12.4-7.1l0,0c1.8-1.6,4.7-1.3,7.6,1.2
			C162.6,76.5,165.3,83.3,164.5,88z"/>
		<path class="st4" d="M152,95.1c-0.9,4.7-5,5.7-9.2,2.1c-4.3-3.6-7-10.3-6.2-15.1s5-5.7,9.2-2.1C150.1,83.6,152.9,90.4,152,95.1z"
			/>
		<path class="st5" d="M145.9,93.5c-0.2,1-0.7,1.6-1.3,1.9l-8.1,4.5l-5-9.4l5.7-3.3l2.4-1.2c0.8-0.8,2.2-0.6,3.5,0.5
			C145,88.1,146.3,91.3,145.9,93.5z"/>
		<path class="st6" d="M137.7,98c-0.4,2.2-2.3,2.6-4.3,1s-3.2-4.8-2.8-7s2.3-2.6,4.3-1S138.1,95.8,137.7,98z"/>
	</g>
	<g>
		<g>
			<polygon class="st7" points="92.9,93.6 93.2,95.3 91.2,107.7 93.1,111.5 92.7,116.4 92.5,119.3 92.7,120 93.1,125.9 95.3,147.6 
				95.3,147.7 97.3,144.4 103.1,135.2 109.8,127.6 110.5,123.2 114.6,120.6 117.1,95.6 			"/>
			<path class="st8" d="M110.2,142.8"/>
			<path class="st8" d="M111.7,120.3"/>
			<path class="st8" d="M93.6,127.4"/>
			<path class="st9" d="M105.6,131.6"/>
		</g>
		<g>
			<g>
				<path class="st10" d="M118.4,231c-1.9-4.1-6.6-6.4-11.2-5.2c-4.6,1.3-7.5,5.7-7,10.3c0.1,0.2,0.1,0.4,0.2,0.5
					c-0.1-0.3-0.3-0.6-0.5-0.9c-2.8-5.5-5.6-11.2-8.5-16.7c3.1-6.8,6.5-14.3,8.3-18.2c2.8-0.3,5.8-1,8.9-2.1
					c0.3-0.8,0.6-1.6,0.9-2.5l0.2-0.1c0,0,6.2,24.7,8.5,34C118.3,230.4,118.3,230.7,118.4,231z"/>
				<path class="st11" d="M112.7,242.8c-3.8,1.4-8,0.3-10.6-2.6c-0.6-1.2-1.2-2.3-1.7-3.5c0,0,0,0,0-0.1c-0.1-0.2-0.1-0.4-0.2-0.5
					c-0.5-4.6,2.4-9,7-10.3s9.3,1,11.2,5.2c0.2,0.7,0.3,1.3,0.5,2C119.3,237.1,116.8,241.2,112.7,242.8z"/>
				<path class="st10" d="M99.7,200.7c-1.8,3.9-5.2,11.4-8.3,18.2c-1.9,4.3-3.8,8.3-5,11c-0.3,0.6-0.6,1.3-0.9,2
					c1-3.9-0.6-8.2-4.2-10.4c-4.1-2.5-9.3-1.6-12.3,1.8c-0.2,0.5-0.4,0.9-0.7,1.4c0.1-0.6,0.3-1.1,0.4-1.7c2-9.4,4-19.1,5.6-28.1
					c0.9,0.5,2.8,1.9,5.7,3.2c3.8,1.7,9.7,3.4,16.9,3C97.8,200.9,98.8,200.9,99.7,200.7z"/>
				<path class="st11" d="M85.5,231.9L85.5,231.9c-0.1,0.2-0.2,0.5-0.3,0.7c-2.3,3.5-6.7,5.2-10.9,3.9c-3.9-1.2-6.4-4.8-6.7-8.6
					c0.2-1,0.4-2.1,0.7-3.1l0,0c0.2-0.5,0.5-0.9,0.7-1.4c3.1-3.5,8.3-4.4,12.3-1.8C84.9,223.7,86.5,228,85.5,231.9z"/>
				<path class="st12" d="M76.3,167.7L76.3,167.7z"/>
				<path class="st13" d="M72.5,142.5c1.1-6.3,3.4-11.6,6.8-15.1c0.9-0.9,4.3-3.1,5-3.4l17.6,12.3l0.1-0.1l12,9.5l0.6-8.9l2.6-4.1
					c8.3,23.5-1.4,47.3-7.6,63.5c-0.3,0.8-0.6,1.7-0.9,2.5c-3.1,1.1-6.1,1.7-8.9,2.1c-1,0.1-1.9,0.2-2.9,0.3
					c-7.2,0.4-13.1-1.3-16.9-3c-2.9-1.3-4.8-2.7-5.7-3.2c-0.1-0.1-0.2-0.1-0.2-0.1c0.7-4.2,1.4-11.1,0.4-20.1l0,0
					C74.5,174.6,71,148.3,72.5,142.5z"/>
				<path class="st10" d="M84.9,233.7L84.9,233.7c-0.4,0.8-0.9,1.6-1.5,2.3c-0.7,0.6-1.5,1.2-2.2,1.8c-14.2,12-34.7,30.6-38.5,27.1
					c-3-2.8,10.7-20.7,24.6-38.9c0.7-0.9,1.4-1.8,2.1-2.7l0,0c0.3-0.4,0.6-0.8,0.9-1.2c3.7-2.8,9-2.7,12.4,0.6
					C85.9,225.5,86.6,230,84.9,233.7z"/>
				<polygon class="st7" points="101.9,136.2 108.3,129.8 114.5,136.8 113.9,145.7 				"/>
				<polygon class="st4" points="118.3,130.9 117.1,132.7 117.1,132.7 114.5,136.8 108.3,129.8 115.3,125.9 				"/>
				<path class="st4" d="M108.3,129.8l-6.4,6.4l-0.1,0.1L84.2,124l2.5-4.6c0.6,0.1,1.2,0.1,1.7,0.2l0.9,0.5L108.3,129.8z"/>
				<path class="st10" d="M122.3,282.1c-4,1.1-12-19.9-20.3-41.4c-0.5-1.3-1-2.7-1.6-4c0,0,0,0,0-0.1c-0.1-0.2-0.1-0.4-0.2-0.5
					c-0.5-4.6,2.4-9,7-10.3s9.3,1,11.2,5.2c0.2,0.4,0.4,0.8,0.5,1.3c0.1,0.9,0.3,1.9,0.4,2.9C122.1,253.5,127.3,280.7,122.3,282.1z"
					/>
			</g>
			<g>
				<path class="st7" d="M102.3,163.6c-0.8-0.7-1.5-1.3-2.2-2c-2.9-1.6-6.4-1-8.7,1.4c-0.2,0.2-0.4,0.4-0.6,0.7
					c-1.6,2.3-1.7,5.3-0.5,7.6c-0.1-0.1-0.2-0.2-0.3-0.4c-4.5-6.5-7.3-10.2-8.8-12l0.9-0.5l14.8-8.2
					C97.8,152.4,99.3,156.5,102.3,163.6z"/>
				<path class="st7" d="M98.2,174c-0.3,0.1-0.7,0.2-1.1,0.2c-0.1,0-0.1,0-0.2,0c-0.4,0-0.7,0-1.1,0c-0.1,0-0.1,0-0.2,0
					c-2.6-0.2-5.1-1.9-6.1-4.6c-0.1-0.3-0.2-0.6-0.3-0.9c-0.8-3.2,0.7-6.5,3.6-8c0.9-0.2,1.9-0.5,2.9-0.8l0,0c0.1,0,0.1,0,0.2,0.1
					c1.1,0.2,2.1,0.4,3.2,0.6c0,0,0,0,0.1,0c2.7,1.2,4.4,4,4.2,7.1c-0.2,1.8-1,3.5-2.2,4.6h-0.1c-0.2,0.1-0.5,0.5-0.6,0.3L98.2,174z
					"/>
				<path class="st7" d="M96,160.1c0.1,0,0.1,0,0.2-0.1c2.1-0.5,4.3-1.1,6.6-1.8l0,0c17.3-4.8,39.2-11.8,40.3-8.8
					c1.4,3.8-25.1,14.7-41.7,23c1.3-1.1,2.1-2.8,2.2-4.6c0.2-3.1-1.5-5.9-4.2-7.1c0,0,0,0-0.1,0c-1.1-0.2-2.2-0.4-3.2-0.6
					C96.1,160.1,96,160.1,96,160.1z"/>
				<path class="st13" d="M92.3,140.8c1.9,2.1,3.6,4.5,5.2,7.4c0.3,0.5,0.5,0.9,0.7,1.4l-1.2,0.6l-14.8,8.2l-0.9,0.5l-1.1,0.6
					c-0.3-0.5-0.5-0.9-0.8-1.4c-0.5-0.9-0.9-1.7-1.3-2.6c-3.6-7.5-4.3-14.9-1.9-18.8c0.5-0.9,1.2-1.6,2.1-2.1
					c0.2-0.1,0.4-0.2,0.6-0.3C82.5,133.1,87.6,135.7,92.3,140.8z"/>
			</g>
		</g>
		<g>
			<path class="st14" d="M112.3,114.3c-1.7,0.7-3.1,1.4-4.4,1.3c-0.7,0-1.3-0.2-2-0.6c-0.4-0.1-0.7-0.4-1-0.6
				c-0.3-0.2-0.7-0.5-1.1-0.7c0.1,0.4,0.3,0.9,0.5,1.3c0.3,0.4,0.5,0.8,0.9,1.1c0.7,0.7,1.7,1.1,2.7,1.2c1,0,2-0.3,2.8-0.8
				C111.3,115.8,111.9,115.1,112.3,114.3z"/>
		</g>
		<g id="XMLID_259_">
			<path class="st15" d="M107.1,78.6c0,0-19.8-7.3-25.1,8.4c-5.1,14.9-6.3,33.2-4.3,36.6c2.1,3.7,18.8,1.8,18.8,1.8
				s-4.3-27.6-0.9-29c3.4-1.4,17.4-0.7,18.5,0.3s0.1,20.6-0.4,28.5c0,0,4.5,1.8,5.2-7.6C119.5,108.1,123.9,74.8,107.1,78.6z"/>
		</g>
	</g>
</g>
<path class="st12" d="M262.2,52.8c-1.2,6.6-4.5,10.8-8.9,12.4l-1.4,0.8c2.2-2.2,3.8-5.4,4.6-9.7c2.6-14.5-5.8-35.2-18.9-46.2
	c-5.3-4.5-10.6-6.7-15.2-6.7c-1.8,0-3.4,0.3-4.9,1l2.3-1.3C222,1,224.9,0,228,0c4.6,0,9.8,2.2,15.2,6.7
	C256.3,17.6,264.8,38.3,262.2,52.8z"/>
<g>
	<g>
		<ellipse class="st1" cx="281.8" cy="260.3" rx="29.1" ry="9.8"/>
	</g>
	<g>
		<path class="st7" d="M245.6,172.2c-7.9,8.9-16.4,16.8-19.3,14.2c-3-2.8,3.9-18.7,11.4-33.5L245.6,172.2z"/>
		<path class="st8" d="M289.8,127.7"/>
		<path class="st8" d="M265.3,126.6"/>
		<polygon class="st7" points="289.5,127.2 289.5,91.5 265.1,91.5 266.1,126.6 262.6,142 279.8,157.6 		"/>
		<path class="st8" d="M289.5,154.6"/>
		<path class="st8" d="M289.4,126.3"/>
		<g>
			<path class="st14" d="M277.5,119c-0.5,0.8-1.1,1.4-1.9,1.9s-1.7,0.9-2.6,0.9s-1.9-0.3-2.6-0.8c-0.4-0.2-0.7-0.6-1-0.9
				c-0.3-0.4-0.6-0.7-0.8-1.1l1,0.9c0.4,0.2,0.7,0.6,1.1,0.7c0.7,0.5,1.6,0.7,2.4,0.7s1.7-0.3,2.4-0.7
				C276.1,120.2,276.8,119.7,277.5,119z"/>
		</g>
		<path class="st8" d="M267.8,136.7"/>
		<path class="st8" d="M268.3,148.2c0,0-5.5,2.2-7.8-0.4c-3.4-4-3.5-19.3-3.5-19.3"/>
		<path class="st8" d="M281,148.2c0,0,5.5,2.2,7.8-0.4c3.4-4,3.5-19.3,3.5-19.3"/>
		<path class="st8" d="M298.4,194.2c0,0-18,5.8-36.8,0"/>
		<path class="st15" d="M257.5,93.3c0,0,5,7.6,8.3,15.1l0.4-11.7c0,0,7.6,4.5,23.4-2.6v16.5l6.4-19.5c0,0,10.4-9.8,4.8-24.3
			c0,0-10.3,11.5-27.2,6.5S254.5,82.9,257.5,93.3z"/>
		<path class="st12" d="M315.5,149.1l-9.4,19.3c-0.9,7-1.8,14.8-2.6,22.8c-17,7.3-38.8,6.3-51.4,4.8c-1.3-9.5-2.5-18.8-3.5-27.2
			c-1,1.1-2,2.3-3,3.4l-7.9-19.3c7-13.8,14.4-26.6,14.4-26.6l13.9,0.3l4.8,22.9c5.2-8.6,19.2-23.2,19.2-23.2h16.6
			C306.7,126.3,316.4,128.7,315.5,149.1z"/>
		<g>
			<polygon class="st16" points="233.9,170.6 263.4,151.7 285.2,164.9 256.4,184.2 			"/>
			<polygon class="st17" points="226.9,127.6 256.4,146.5 256.4,190.5 226.9,171.6 			"/>
			<polygon class="st16" points="256.4,184.2 285.2,164.9 285.2,170.2 256.4,190.4 			"/>
			<polygon class="st16" points="226.9,127.6 231.5,124.7 261.1,143.5 256.4,146.5 			"/>
			<polygon class="st6" points="261.1,143.5 261.1,187.2 256.4,190.4 256.4,146.5 			"/>
		</g>
		<path class="st12" d="M315.5,159c0,5.8-4.6,9.1-10.1,11c-0.9-10-4.6-14.9-6.8-17c2.3-0.6,4.1-1,5.1-1.3l11.7-2.6L315.5,159z"/>
		<path class="st4" d="M270.8,149.4c0,0,11.3-15.2,22.4-2c0,0,3.1-8.1,4.1-13.8c0.7-4.4-3.2-9.7-7.7-8.9L270.8,149.4z"/>
		<path class="st4" d="M270.8,149.1c0,0-5.5-15.8-16.5-12.7c0,0,2.1-7,4.3-10c1.7-2.3,5.9-2.7,7.5,0.3L270.8,149.1z"/>
		<path class="st18" d="M303.6,191.1c-3.4,33.9-6.3,71.7-11.7,71.7c-8.7,0-3.7-59.2-13.2-59.2c-8.6,0-3.8,59.2-11.7,59.2
			c-4.9,0-10.5-34.3-14.9-66.9C264.8,197.4,286.6,198.4,303.6,191.1z"/>
		<path class="st7" d="M305.4,170c-8.4,2.9-19.1,2.4-19.1,2.4c-10.7,0.1-25.5,1.1-25.9-2.9c-0.5-5.7,25.9-13.2,38.2-16.5
			C300.9,155.1,304.5,160,305.4,170z"/>
	</g>
</g>
</svg>
