<?xml version="1.0" encoding="utf-8"?>
<!-- Generator: Adobe Illustrator 21.0.2, SVG Export Plug-In . SVG Version: 6.00 Build 0)  -->
<svg version="1.1" id="Layer_1" xmlns="http://www.w3.org/2000/svg" xmlns:xlink="http://www.w3.org/1999/xlink" x="0px" y="0px"
	 viewBox="0 0 784.3 658.8" style="enable-background:new 0 0 784.3 658.8;" xml:space="preserve">
<style type="text/css">
	.st0{fill:none;stroke:#E8E8E8;stroke-miterlimit:10;}
	.st1{fill:#DDDDDD;}
	.st2{fill:#FAF8FA;stroke:#606060;stroke-miterlimit:10;}
	.st3{fill:#DFE1E3;}
	.st4{fill:#FAFAFA;}
	.st5{fill:#FFFFFF;}
	.st6{fill:none;stroke:#DFE1E3;stroke-width:0.5;stroke-miterlimit:10;}
	.st7{fill:#B3D7F2;stroke:#515252;stroke-miterlimit:10;}
	.st8{fill:#F3F4F5;}
	.st9{fill:#263D85;}
	.st10{fill:#ECEDEE;}
	.st11{fill:#FCC1BE;}
	.st12{fill:#B3D9F8;stroke:#515151;stroke-width:0.5;stroke-miterlimit:10;}
	.st13{fill:#515151;}
	.st14{fill:#2A4494;}
	.st15{fill:#0099FF;}
	.st16{fill:#FFD633;}
	.st17{fill:#E8BA08;}
	.st18{fill:#FFCC00;}
	.st19{fill:#B3D9F8;}
	.st20{fill:#E5B700;}
	.st21{fill:#FDD118;}
	.st22{fill:#1B8AE5;}
	.st23{fill:#D4D7D9;}
	.st24{fill:#EDECEC;}
	.st25{fill:#F9F9F9;}
	.st26{fill:#22A3FF;}
	.st27{fill:#D6D7D8;}
	.st28{fill:#C7CAD7;}
	.st29{fill:#DD402D;}
	.st30{fill:none;stroke:#C7CAD7;stroke-width:0.5;stroke-miterlimit:10;}
	.st31{fill:#B2E0FF;}
	.st32{fill:#FEE300;}
	.st33{fill:#171F38;}
	.st34{fill:#61AD3F;stroke:#515151;stroke-width:0.5;stroke-miterlimit:10;}
	.st35{fill:#28A9DF;}
	.st36{fill:#3F579F;}
	.st37{fill:#6BBD00;}
	.st38{enable-background:new    ;}
	.st39{fill:#8F7B69;}
</style>
<g>
	<g>
		<circle class="st0" cx="193.5" cy="105.9" r="77.9"/>
		<g>
			<g>
				<g>
					<polyline class="st0" points="126.8,69.6 189.4,115.1 189.6,33.8 					"/>
					<line class="st0" x1="190.8" y1="120.6" x2="190.8" y2="146.3"/>
					<polyline class="st0" points="245.7,133.9 189.3,114.6 136.5,146.1 247.7,142.6 					"/>
					<line class="st0" x1="251.3" y1="78.1" x2="189.1" y2="114.4"/>
					<line class="st0" x1="130.2" y1="65.3" x2="191" y2="33.1"/>
					<line class="st0" x1="193.8" y1="33.7" x2="254.9" y2="72.5"/>
					<line class="st0" x1="128.4" y1="79.4" x2="128.7" y2="145.7"/>
					<line class="st0" x1="247" y1="130.8" x2="190.2" y2="38"/>
					<line class="st0" x1="257.1" y1="69.9" x2="130.2" y2="70.5"/>
					<line class="st0" x1="131.3" y1="137.6" x2="191" y2="35.2"/>
				</g>
				<circle class="st1" cx="170.8" cy="70.4" r="2.5"/>
				<circle class="st1" cx="190" cy="70.8" r="2.5"/>
				<circle class="st1" cx="190.8" cy="144.8" r="2.5"/>
				<circle class="st1" cx="210.4" cy="70.7" r="2.5"/>
				<circle class="st1" cx="223.7" cy="93.3" r="2.5"/>
				<circle class="st1" cx="159.1" cy="93.2" r="2.5"/>
				<circle class="st1" cx="128.5" cy="110" r="2.5"/>
				<circle class="st1" cx="155" cy="52" r="2.5"/>
				<circle class="st1" cx="223.9" cy="52.6" r="2.5"/>
				<circle class="st1" cx="255.5" cy="105" r="2.5"/>
				<circle class="st1" cx="231.7" cy="173.9" r="2.5"/>
				<circle class="st1" cx="160.9" cy="176.8" r="2.5"/>
			</g>
			<line class="st0" x1="258.9" y1="75.2" x2="251.6" y2="133.1"/>
			<polyline class="st0" points="190.9,144.6 232.1,173.6 250.3,141.2 			"/>
			<polyline class="st0" points="190.1,145.1 160.9,177.2 135.2,148.3 			"/>
		</g>
		<g>
			
				<ellipse transform="matrix(5.767322e-02 -0.9983 0.9983 5.767322e-02 75.0053 289.2195)" class="st2" cx="190.7" cy="104.9" rx="6.4" ry="6.4"/>
			<path class="st3" d="M167.6,111.5c-0.3,5,1.2,9.7,3.7,13.6c3.8,5.5,9.9,9.5,17.2,9.9c7.2,0.4,13.9-2.6,18.3-7.9
				c2.9-3.6,4.9-8.1,5.2-13.1c0.7-12.3-8.6-22.8-20.9-23.5C178.8,89.9,168.3,99.2,167.6,111.5z"/>
			<path class="st4" d="M168.3,113.6c-0.3,4.7,1.1,9.3,3.5,13c3.6,5.3,9.5,9.1,16.5,9.5c6.9,0.4,13.3-2.5,17.5-7.5
				c2.8-3.5,4.7-7.8,5-12.5c0.7-11.8-8.3-21.8-20.1-22.5C179,92.9,168.9,101.8,168.3,113.6z"/>
			
				<ellipse transform="matrix(5.767322e-02 -0.9983 0.9983 5.767322e-02 74.6918 288.5234)" class="st5" cx="190.2" cy="104.7" rx="6.4" ry="6.4"/>
			<g>
				<path class="st3" d="M171.8,126.8c3.6,5.3,9.5,9.1,16.5,9.5c6.9,0.4,13.3-2.5,17.5-7.5c-2.6-6.6-8.9-11.4-16.4-11.8
					C182,116.5,175.2,120.6,171.8,126.8z"/>
				<polygon class="st5" points="184.4,102.6 183.4,119.3 188.6,126.8 194.7,119.9 195.7,103.3 				"/>
				<path class="st3" d="M180,106.1c-0.2,3.3,1.3,6.3,3.7,8.2l0.5-9.3c2.1,1.2,5.4-1,5.4-1c1.3,2.2-1.5,3.5-1.5,3.5
					c3.5,0.8,5.8-0.8,7.5-1.7l-0.6,9.3c2.6-1.6,4.4-4.5,4.6-7.8c0.3-5.4-3.8-10.1-9.2-10.4C185,96.6,180.3,100.7,180,106.1z"/>
				<path class="st3" d="M195.1,114.9c0,0,5.7,4.2,1.2,14.4c0,0-1.4,3.3-1.2,6.2C195,135.5,186.3,124.3,195.1,114.9z"/>
				<path class="st6" d="M190.9,115.6c0,0-2,2.5-3.9-0.2"/>
			</g>
		</g>
		<g>
			
				<ellipse transform="matrix(5.767322e-02 -0.9983 0.9983 5.767322e-02 50.2038 187.0648)" class="st2" cx="124.2" cy="66.9" rx="4.6" ry="4.6"/>
			<path class="st3" d="M107.6,71.7c-0.2,3.6,0.8,7,2.6,9.8c2.7,4,7.1,6.8,12.4,7.1c5.2,0.3,10-1.9,13.2-5.7
				c2.1-2.6,3.5-5.8,3.8-9.4c0.5-8.9-6.2-16.4-15.1-16.9C115.6,56.1,108.1,62.8,107.6,71.7z"/>
			<path class="st4" d="M108,73.2c-0.2,3.4,0.8,6.7,2.5,9.4c2.6,3.8,6.8,6.5,11.9,6.8c5,0.3,9.6-1.8,12.6-5.4c2-2.5,3.4-5.6,3.6-9
				c0.5-8.5-6-15.7-14.4-16.2C115.8,58.2,108.5,64.7,108,73.2z"/>
			
				<ellipse transform="matrix(5.767322e-02 -0.9983 0.9983 5.767322e-02 49.9622 186.4766)" class="st5" cx="123.8" cy="66.8" rx="4.6" ry="4.6"/>
			<g>
				<path class="st3" d="M110.6,82.7c2.6,3.8,6.8,6.5,11.9,6.8c5,0.3,9.6-1.8,12.6-5.4c-1.9-4.7-6.4-8.2-11.8-8.5
					C117.9,75.3,113,78.2,110.6,82.7z"/>
				<polygon class="st5" points="119.6,65.2 118.9,77.2 122.7,82.6 127.1,77.7 127.8,65.7 				"/>
				<path class="st3" d="M116.5,67.8c-0.1,2.4,0.9,4.5,2.6,5.9l0.4-6.7c1.5,0.9,3.9-0.7,3.9-0.7c0.9,1.6-1.1,2.5-1.1,2.5
					c2.5,0.6,4.2-0.6,5.4-1.3l-0.4,6.7c1.9-1.2,3.2-3.2,3.3-5.6c0.2-3.9-2.8-7.2-6.7-7.5C120.1,60.9,116.7,63.9,116.5,67.8z"/>
				<path class="st3" d="M127.3,74.1c0,0,4.1,3,0.9,10.3c0,0-1,2.3-0.9,4.5C127.3,88.9,121,80.9,127.3,74.1z"/>
				<path class="st6" d="M124.4,74.6c0,0-1.5,1.8-2.8-0.2"/>
			</g>
		</g>
		<g>
			<path class="st3" d="M180.4,30.7c-0.1,2.6,0.6,5,1.9,7.1c2,2.9,5.1,4.9,9,5.1c3.7,0.2,7.2-1.4,9.5-4.1c1.5-1.9,2.6-4.2,2.7-6.8
				c0.4-6.4-4.5-11.8-10.9-12.2C186.2,19.5,180.8,24.3,180.4,30.7z"/>
			<path class="st4" d="M180.7,31.8c-0.1,2.5,0.6,4.8,1.8,6.8c1.9,2.8,4.9,4.7,8.6,4.9c3.6,0.2,6.9-1.3,9.1-3.9
				c1.5-1.8,2.5-4,2.6-6.5c0.4-6.1-4.3-11.3-10.4-11.7C186.3,21,181.1,25.7,180.7,31.8z"/>
			<g>
				<path class="st3" d="M182.6,38.7c1.9,2.8,4.9,4.7,8.6,4.9c3.6,0.2,6.9-1.3,9.1-3.9c-1.3-3.4-4.6-5.9-8.5-6.1
					S184.3,35.4,182.6,38.7z"/>
			</g>
			<g>
				<polygon class="st5" points="188.5,27.3 188.1,35.5 191.2,38.9 194.4,35.9 194.9,27.6 				"/>
				<path class="st3" d="M188.2,33l0.3-4.5c2.4,1.3,6.1-0.9,6.1-0.9l-0.1,5.9c1.1-0.8,1.8-2.1,1.9-3.6c0.1-1.7-0.7-3.3-2-4.3
					c0.2-0.3,0.3-0.6,0.3-0.9c0.1-1.2-1.1-2.3-2.6-2.4c-1.5-0.1-2.8,0.9-2.9,2.1c0,0.3,0.1,0.7,0.2,1c-1.4,0.8-2.4,2.3-2.5,4
					C186.8,30.7,187.3,32,188.2,33z"/>
				<path class="st6" d="M192.2,33c0,0-1.1,1.4-2.1-0.1"/>
			</g>
		</g>
		<g>
			<g>
				
					<ellipse transform="matrix(5.767322e-02 -0.9983 0.9983 5.767322e-02 176.8218 319.2957)" class="st2" cx="257.5" cy="66" rx="4.7" ry="4.7"/>
				<path class="st3" d="M240.5,70.8c-0.2,3.7,0.9,7.1,2.7,10c2.8,4.1,7.3,6.8,12.7,7.3c4.9,0.5,9.9-1.8,13.5-5.8
					c2.2-2.7,3.6-6,3.8-9.7c0.5-9.1-6.4-16.8-15.5-17.4C248.8,54.9,241.1,61.8,240.5,70.8z"/>
				<path class="st4" d="M241,72.4c-0.2,3.5,0.8,6.8,2.6,9.6c2.7,3.9,7,6.7,12.2,7c5.1,0.3,9.8-1.9,12.9-5.6
					c2.1-2.6,3.5-5.7,3.7-9.3c0.5-8.7-6.1-16.1-14.8-16.6C248.9,57.1,241.5,63.7,241,72.4z"/>
				<g>
					<path class="st3" d="M243.7,82.1c2.7,3.9,7,6.7,12.2,7c5.1,0.3,9.8-1.9,12.9-5.6c-1.9-4.8-6.6-8.4-12.1-8.7
						C251.1,74.5,246.1,77.5,243.7,82.1z"/>
				</g>
			</g>
			<g>
				<polygon class="st5" points="260.5,66.8 260.3,78.4 256.9,83.6 251.6,78.3 251.7,66.7 				"/>
				<path class="st3" d="M260.4,66.7c0,0-0.9,2.1-4.1,2.6l2.5-2.9c0,0-3,2.6-4.2,2.5l0.6-1.6c0,0-3.4,0.1-3.5,2.9
					c0,2.9-0.1,5.9-0.1,5.9s-1.1-6.4-1.8-8.5c-1.4-4,8-13,11.8-4.2c0,0,1,5.3-1.2,12.8L260.4,66.7z"/>
				<path class="st6" d="M255,74.9c0,0,1.4,2,3,0"/>
			</g>
		</g>
		<g>
			<path class="st7" d="M110.4,148.3c-0.2,3.3,0.7,6.3,2.5,9c2.5,3.7,6.5,6.2,11.3,6.5c4.8,0.3,9.3-1.7,12-5.2
				c1.9-2.3,3.3-5.4,3.5-8.7c0.5-8.1-5.7-15.1-13.8-15.5S110.9,140.2,110.4,148.3z"/>
			<path class="st2" d="M112.9,157.3c2.5,3.7,6.5,6.2,11.3,6.5c4.8,0.3,9.3-1.7,12-5.2c-1.8-4.5-6.2-7.9-11.2-8.2
				C120,150.1,115.2,153,112.9,157.3z"/>
			<g>
				
					<ellipse transform="matrix(5.767322e-02 -0.9983 0.9983 5.767322e-02 -22.6989 259.3009)" class="st2" cx="126" cy="141.7" rx="4.8" ry="4.8"/>
				<path class="st3" d="M108.7,146.6c-0.2,3.7,0.9,7.2,2.7,10.1c2.8,4.1,7.4,7.1,12.9,7.4c5.4,0.3,10.4-2,13.7-5.9
					c2.2-2.7,3.7-6.1,3.9-9.8c0.5-9.2-6.4-17-15.6-17.6C117.1,130.4,109.2,137.4,108.7,146.6z"/>
				<path class="st4" d="M109.2,148.2c-0.2,3.5,0.8,6.9,2.6,9.7c2.7,4,7.1,6.8,12.4,7.1c5.1,0.3,9.9-1.9,13.1-5.6
					c2.1-2.6,3.5-5.8,3.7-9.4c0.5-8.8-6.2-16.3-15-16.8S109.7,139.4,109.2,148.2z"/>
				<g>
					<path class="st3" d="M111.9,158c2.7,4,7.1,6.8,12.4,7.1c5.1,0.3,9.9-1.9,13.1-5.6c-1.9-4.9-6.6-8.5-12.3-8.8
						C119.4,150.4,114.4,153.4,111.9,158z"/>
				</g>
			</g>
			<g>
				<g>
					<polygon class="st5" points="121.5,155.7 122.1,143.9 130.2,144.3 129.2,155.9 125.6,160.9 					"/>
				</g>
				<g>
					<path class="st6" d="M124.6,153.1c0.5,0.3,1,0.6,1.5,0.6c0.2,0,0.5,0,0.7-0.1c0.1,0,0.2-0.1,0.4-0.2c0.1-0.1,0.3-0.1,0.4-0.2
						c-0.1,0.1-0.1,0.3-0.2,0.4c-0.1,0.1-0.2,0.3-0.3,0.3c-0.3,0.2-0.6,0.3-1,0.3s-0.7-0.2-0.9-0.4
						C124.9,153.7,124.7,153.4,124.6,153.1z"/>
				</g>
				<g>
					<path class="st3" d="M132.7,145.1c0,0-1.8,2.4-3,4.8l0.1-3.9c0,0-2.6,1.4-7.7-1.3l-0.3,5.5l-1.8-6.5c0,0-3.2-3.4-1.1-8.1
						c0,0,3.2,4,8.8,2.7C133.3,137,133.9,141.7,132.7,145.1z"/>
				</g>
			</g>
		</g>
		<g>
			<path class="st7" d="M235.2,136.6c-0.2,3.3,0.7,6.3,2.5,9c2.5,3.7,6.5,6.2,11.3,6.5s9.3-1.7,12-5.2c1.9-2.3,3.3-5.4,3.5-8.7
				c0.5-8.1-5.7-15.1-13.8-15.5C242.6,122.3,235.7,128.5,235.2,136.6z"/>
			<path class="st2" d="M237.7,145.6c2.5,3.7,6.5,6.2,11.3,6.5s9.3-1.7,12-5.2c-1.8-4.5-6.2-7.9-11.2-8.2S240,141.3,237.7,145.6z"/>
			<g>
				
					<ellipse transform="matrix(5.767322e-02 -0.9983 0.9983 5.767322e-02 106.5615 372.8672)" class="st2" cx="250.8" cy="130" rx="4.8" ry="4.8"/>
				<path class="st3" d="M233.5,134.9c-0.2,3.7,0.9,7.2,2.7,10.1c2.8,4.1,7.4,7.1,12.9,7.4c5.4,0.3,10.4-2,13.7-5.9
					c2.2-2.7,3.7-6.1,3.9-9.8c0.5-9.2-6.4-17-15.6-17.6C241.9,118.8,234,125.7,233.5,134.9z"/>
				<path class="st4" d="M234,136.5c-0.2,3.5,0.8,6.9,2.6,9.7c2.7,4,7.1,6.8,12.4,7.1c5.1,0.3,9.9-1.9,13.1-5.6
					c2.1-2.6,3.5-5.8,3.7-9.4c0.5-8.8-6.2-16.3-15-16.8C242,121,234.5,127.7,234,136.5z"/>
				<g>
					<path class="st3" d="M236.7,146.3c2.7,4,7.1,6.8,12.4,7.1c5.1,0.3,9.9-1.9,13.1-5.6c-1.9-4.9-6.6-8.5-12.3-8.8
						C244.2,138.7,239.1,141.7,236.7,146.3z"/>
				</g>
			</g>
			<g>
				<g>
					<polygon class="st5" points="246.3,144 246.9,132.2 255,132.6 254,144.2 250.4,149.2 					"/>
				</g>
				<g>
					<path class="st6" d="M249.4,141.4c0.5,0.3,1,0.6,1.5,0.6c0.2,0,0.5,0,0.7-0.1c0.1,0,0.2-0.1,0.4-0.2c0.1-0.1,0.3-0.1,0.4-0.2
						c-0.1,0.1-0.1,0.3-0.2,0.4c-0.1,0.1-0.2,0.3-0.3,0.3c-0.3,0.2-0.6,0.3-1,0.3s-0.7-0.2-0.9-0.4
						C249.7,142,249.5,141.7,249.4,141.4z"/>
				</g>
				<g>
					<path class="st3" d="M257.5,133.4c0,0-1.8,2.4-3,4.8l0.1-3.9c0,0-2.6,1.4-7.7-1.3l-0.3,5.5l-1.8-6.5c0,0-3.2-3.4-1.1-8.1
						c0,0,3.2,4,8.8,2.7S258.7,130,257.5,133.4z"/>
				</g>
			</g>
		</g>
		<path class="st0" d="M266.2,70.8"/>
	</g>
	<path class="st8" d="M734.2,622.3c-37.1,15.4-82.4,22.3-142,4.5c-50.9-15.2-95.6,17.2-132.1,25.3s-133,12.7-198.1-9.9
		c-65.4-22.7-98.6-7.2-132.1,1.8c-40.7,11-81-16.6-102.7-39.6C7.6,583.6-3,515.1,12.9,483.7c38-74.9-22.8-98.6,17.8-143.9
		c31.5-35.1,99.5-28.3,159.2-10.5c51,15.2,113.5-22.9,150-31s94.2,6,161.1,24.2c67,18.3,131.4-13.7,161.8-20.6
		c41.2-9.4,85.3,14.4,95.9,29.6c28.2,40.5-15,104.6,15,133.9C794.1,485.3,787.5,597,734.2,622.3z"/>
	<path class="st8" d="M494.7,401.3c-22.8-19.6-22.9-48.5-21.7-60.9h43.9C521.2,383.9,494.7,401.3,494.7,401.3z"/>
	<path class="st9" d="M553.1,222.7"/>
	<path class="st10" d="M301.1,622.5c-1.6,0-3.1-0.3-4.4-0.9c-7.6-3.3-9.7-14.8-12-27c-1.8-9.7-3.6-19.7-8.2-25.1
		c-8.4-9.6-29.8-17.9-48-17c-11.3,0.5-76.9-1.3-88.1-3.2c-7.2-1.3-12.6-4.7-16.1-10.3c-8.6-13.9-1.1-43-0.9-44h2.8
		c-0.1,0.2-7.6,29.7,0.3,42.6c3,4.9,7.8,7.9,14.2,9c10.9,1.8,76.4,3.8,87.5,3.2c18.1-0.9,40.9,7.3,50.1,17.9
		c5.1,5.9,7,16.3,8.9,26.4c2.1,11.5,4.1,22.3,10.4,25.1c4,1.7,9.7,0.1,17.2-4.9c36.4-24,61.6-21.3,68.1-16.3
		c6,4.7,18.4,6.1,18.4,6.1l-0.3,2.6c-0.5-0.1-13.2-1.5-19.8-6.6c-5.8-4.5-30.2-6.6-65,16.3C310.3,620.5,305.3,622.5,301.1,622.5z"/>
	<path class="st10" d="M503.8,539.6c-41.5-4.2-62.1,9.1-65.2,15.7c-3.4,7.6-14,14.8-14.5,15.1l-1.5-2.2c0.1,0,10.3-7.1,13.5-14
		c3.4-7.5,24.5-21.6,67.9-17.2c9.1,1,14.8-0.3,17.6-3.6c4.3-5.4,1.1-15.9-2.4-27c-3-9.8-6.2-19.9-4.4-27.5
		c3.2-13.7,19.7-31.5,36.1-39.1c10.1-4.7,67.2-36.8,76-43.5c5.1-4,8-8.9,8.4-14.6c1-15-19.3-37.7-19.5-37.9l2.5-1.3
		c0.7,0.7,20.8,23.1,19.6,39.3c-0.4,6.5-3.6,12.1-9.5,16.5c-9,6.9-66.2,39-76.5,43.8c-16.5,7.6-31.7,24.9-34.6,37.3
		c-1.7,6.9,1.4,16.6,4.3,26c3.7,11.9,7.2,23.1,1.9,29.5c-0.9,1.1-2.1,2.1-3.5,2.8C516.5,539.6,511.1,540.2,503.8,539.6z"/>
	<path class="st10" d="M402.7,586.9c7.5-6.4,15.2-13,17.5-19.8c4.1-12-4.5-25.3-14.5-40.5c-6.2-9.5-12.6-19.3-16.6-29.9
		c-2.6-6.8-2.4-13.3,0.7-19.1c7.6-14.4,32.2-50.7,33.1-50.9l-0.7,2.6c-0.2,0.1-23,36.3-30.1,49.6c-2.7,5.1-2.9,10.7-0.6,16.8
		c3.9,10.3,10.2,20,16.3,29.3c9.9,15.2,19.3,29.5,14.7,42.8c-2.5,7.4-10.5,14.3-18.3,21"/>
	<g>
		<path class="st4" d="M301.1,621.5c-1.6,0-3.1-0.3-4.4-0.9c-7.6-3.3-9.7-14.8-12-27c-1.8-9.7-3.6-19.7-8.2-25.1
			c-8.4-9.6-29.8-17.9-48-17c-11.3,0.5-76.9-1.3-88.1-3.2c-7.2-1.3-12.6-4.7-16.1-10.3c-8.6-13.9-1.1-43-0.9-44h2.8
			c-0.1,0.2-7.6,29.7,0.3,42.6c3,4.9,7.8,7.9,14.2,9c10.9,1.8,76.4,3.8,87.5,3.2c18.1-0.9,40.9,7.3,50.1,17.9
			c5.1,5.9,7,16.3,8.9,26.4c2.1,11.5,4.1,22.3,10.4,25.1c4,1.7,9.7,0.1,17.2-4.9c36.4-24,61.6-21.3,68.1-16.3
			c6,4.7,18.4,6.1,18.4,6.1l-0.3,2.6c-0.5-0.1-13.2-1.5-19.8-6.6c-5.8-4.5-30.2-6.6-65,16.3C310.3,619.6,305.3,621.5,301.1,621.5z"
			/>
		<path class="st4" d="M503.8,538.6c-41.5-4.2-62.1,9.1-65.2,15.7c-3.4,7.6-14,14.8-14.5,15.1l-1.5-2.2c0.1,0,10.3-7.1,13.5-14
			c3.4-7.5,24.5-21.6,67.9-17.2c9.1,1,14.8-0.3,17.6-3.6c4.3-5.4,1.1-15.9-2.4-27c-3-9.8-6.2-19.9-4.4-27.5
			c3.2-13.7,19.7-31.5,36.1-39.1c10.1-4.7,67.2-36.8,76-43.5c5.1-4,8-8.9,8.4-14.6c1-15-19.3-37.7-19.5-37.9l2.5-1.3
			c0.7,0.7,20.8,23.1,19.6,39.3c-0.4,6.5-3.6,12.1-9.5,16.5c-9,6.9-66.2,39-76.5,43.8c-16.5,7.6-31.7,24.9-34.6,37.3
			c-1.7,6.9,1.4,16.6,4.3,26c3.7,11.9,7.2,23.1,1.9,29.5c-0.9,1.1-2.1,2.1-3.5,2.8C516.5,538.7,511.1,539.3,503.8,538.6z"/>
		<path class="st4" d="M402.7,586c7.5-6.4,15.2-13,17.5-19.8c4.1-12-4.5-25.3-14.5-40.5c-6.2-9.5-12.6-19.3-16.6-29.9
			c-2.6-6.8-2.4-13.3,0.7-19.1c7.6-14.4,32.2-50.7,33.1-50.9l-0.7,2.6c-0.2,0.1-23,36.3-30.1,49.6c-2.7,5.1-2.9,10.7-0.6,16.8
			c3.9,10.3,10.2,20,16.3,29.3c9.9,15.2,19.3,29.5,14.7,42.8c-2.5,7.4-10.5,14.3-18.3,21"/>
	</g>
	<g>
		<path class="st10" d="M194.7,468.4c10.1,4.3,73.4,21.6,84.3,23.7c17.8,3.4,38.1,16.7,44.5,29.2c3.6,7,3,17.5,2.4,27.7
			c-0.7,11.7-1.3,22.6,4.2,26.8c3.5,2.6,9.4,2.4,17.9-0.8c41-14.8,64.9-6.3,70,0.2c4.7,5.9,16.4,10.3,16.5,10.3l-0.9,2.5
			c-0.5-0.2-12.5-4.6-17.7-11.1c-4.6-5.7-27.8-13.5-67,0.6c-7,2.5-12.3,3.2-16.4,2.2c-1.5-0.4-2.9-1-4.1-1.9c-6.6-5-6-16.7-5.3-29.1
			c0.5-9.8,1.2-20-2.1-26.3c-5.9-11.3-24.8-24.4-42.6-27.8c-11.1-2.1-74.4-19.3-84.9-23.8"/>
		<path class="st4" d="M194.3,469.9c10.1,4.3,73.4,21.6,84.3,23.7c17.8,3.4,38.1,16.7,44.5,29.2c3.6,7,3,17.5,2.4,27.7
			c-0.7,11.7-1.3,22.6,4.2,26.8c3.5,2.6,9.4,2.4,17.9-0.8c41-14.8,64.9-6.3,70,0.2c4.7,5.9,16.4,10.3,16.5,10.3l-0.9,2.5
			c-0.5-0.2-12.5-4.6-17.7-11.1c-4.6-5.7-27.8-13.5-67,0.6c-7,2.5-12.3,3.2-16.4,2.2c-1.5-0.4-2.9-1-4.1-1.9c-6.6-5-6-16.7-5.3-29.1
			c0.5-9.8,1.2-20-2.1-26.3c-5.9-11.3-24.8-24.4-42.6-27.8c-11.1-2.1-74.4-19.3-84.9-23.8"/>
	</g>
	<g>
		<g>
			<g>
				<g>
					<polygon class="st4" points="190.3,281.7 171.6,271 190.2,260.1 209,270.8 					"/>
					<polygon class="st10" points="190.2,471.8 171.6,461.1 171.6,271 190.3,281.7 					"/>
					<polygon class="st3" points="190.2,471.8 209.1,461 209,270.8 190.3,281.7 					"/>
				</g>
			</g>
			<g>
				<g>
					<polygon class="st4" points="191.5,282.9 161,265.5 191.3,247.8 222,265.2 					"/>
					<polygon class="st10" points="191.3,288.6 161,271.2 161,265.5 191.5,282.9 					"/>
					<polygon class="st3" points="191.3,288.6 222,271 222,265.2 191.5,282.9 					"/>
				</g>
			</g>
		</g>
		<g>
			<g>
				<ellipse class="st8" cx="192.3" cy="265.7" rx="16.6" ry="5.6"/>
			</g>
			<g>
				<path class="st11" d="M213,215.4c4.5,5.1,9.4,9.6,11,8.1c1.7-1.6-2.3-10.7-6.5-19.1L213,215.4z"/>
				<path class="st12" d="M187.7,190.1"/>
				<path class="st12" d="M201.7,189.4"/>
				<polygon class="st11" points="187.9,189.8 187.9,169.4 201.8,169.4 201.3,189.4 203.3,198.2 193.5,207.1 				"/>
				<path class="st12" d="M187.9,205.4"/>
				<path class="st12" d="M188,189.2"/>
				<g>
					<path class="st13" d="M194.8,185.1c0.8,0.6,1.7,1.2,2.6,1.2c0.5,0,0.9-0.1,1.3-0.3c0.4-0.2,0.8-0.5,1.2-0.9
						c-0.1,0.2-0.3,0.4-0.4,0.7c-0.2,0.2-0.4,0.4-0.6,0.5c-0.4,0.3-1,0.5-1.5,0.5c-0.6,0-1.1-0.2-1.5-0.5
						C195.4,186,195,185.6,194.8,185.1z"/>
				</g>
				<path class="st12" d="M200.3,195.2"/>
				<path class="st12" d="M200,201.8c0,0,3.2,1.2,4.4-0.3c1.9-2.3,2-11,2-11"/>
				<path class="st12" d="M192.8,201.8c0,0-3.2,1.2-4.4-0.3c-1.9-2.3-2-11-2-11"/>
				<path class="st12" d="M182.8,228c0,0,10.3,3.3,21,0"/>
				<path class="st14" d="M206.2,170.4c0,0-2.8,4.3-4.7,8.6l-0.2-6.7c0,0-4.3,2.6-13.3-1.5v9.4l-3.7-11.1c0,0-5.9-5.6-2.7-13.9
					c0,0,5.9,6.5,15.5,3.7C206.6,156.2,207.9,164.5,206.2,170.4z"/>
				<path class="st15" d="M173.1,202.2l5.3,11c0.5,4,1,8.4,1.5,13c9.7,4.2,22.1,3.6,29.3,2.7c0.7-5.4,1.4-10.8,2-15.5
					c0.6,0.6,1.1,1.3,1.7,2l4.5-11c-4-7.9-8.2-15.2-8.2-15.2l-7.9,0.2l-2.7,13c-3-4.9-11-13.2-11-13.2h-9.5
					C178.1,189.2,172.6,190.6,173.1,202.2z"/>
				<g>
					<polygon class="st16" points="219.6,214.5 202.8,203.8 190.4,211.3 206.8,222.3 					"/>
					<polygon class="st17" points="223.6,190 206.8,200.8 206.8,225.9 223.6,215.1 					"/>
					<polygon class="st16" points="206.8,222.3 190.4,211.3 190.4,214.3 206.8,225.8 					"/>
					<polygon class="st16" points="223.6,190 221,188.3 204.1,199.1 206.8,200.8 					"/>
					<polygon class="st18" points="204.1,199.1 204.1,224 206.8,225.8 206.8,200.8 					"/>
				</g>
				<path class="st15" d="M173.1,207.9c0,3.3,2.6,5.2,5.8,6.3c0.5-5.7,2.6-8.5,3.9-9.7c-1.3-0.3-2.3-0.6-2.9-0.8l-6.7-1.5
					L173.1,207.9z"/>
				<path class="st5" d="M198.6,202.5c0,0-6.5-8.6-12.8-1.1c0,0-1.8-4.6-2.3-7.9c-0.4-2.5,1.8-5.5,4.4-5.1L198.6,202.5z"/>
				<path class="st5" d="M198.6,202.2c0,0,3.1-9,9.4-7.3c0,0-1.2-4-2.5-5.7c-1-1.3-3.4-1.6-4.3,0.2L198.6,202.2z"/>
				<path class="st19" d="M179.9,226.2c2,19.3,3.6,40.9,6.7,40.9c5,0,2.1-33.8,7.5-33.8c4.9,0,2.2,33.8,6.7,33.8
					c2.8,0,6-19.5,8.5-38.2C202,229.8,189.6,230.4,179.9,226.2z"/>
				<path class="st11" d="M178.8,214.2c4.8,1.6,10.9,1.4,10.9,1.4c6.1,0.1,14.6,0.6,14.8-1.7c0.3-3.2-14.8-7.5-21.8-9.4
					C181.4,205.7,179.3,208.5,178.8,214.2z"/>
			</g>
		</g>
	</g>
	<g>
		<g>
			<g>
				<polygon class="st4" points="644.2,229.4 645.9,231.7 647.3,229.2 645.6,226.9 				"/>
				<polygon class="st10" points="576.8,233.1 578.5,235.4 645.9,231.7 644.2,229.4 				"/>
				<polygon class="st3" points="576.8,233.1 578.2,230.6 645.6,226.9 644.2,229.4 				"/>
			</g>
		</g>
		<g>
			<g>
				<g>
					<polygon class="st4" points="578.3,233.8 576,232.1 578.5,230.7 580.8,232.4 					"/>
					<polygon class="st10" points="574.6,296 572.3,294.3 576,232.1 578.3,233.8 					"/>
					<polygon class="st3" points="574.6,296 577.1,294.6 580.8,232.4 578.3,233.8 					"/>
				</g>
			</g>
			<g>
				<g>
					<polygon class="st5" points="628.2,370.8 607.7,359.1 628.1,347.2 648.7,358.9 					"/>
					<polygon class="st10" points="628.1,373.3 607.7,361.6 607.7,359.1 628.2,370.8 					"/>
					<polygon class="st3" points="628.1,373.3 648.7,361.5 648.7,358.9 628.2,370.8 					"/>
				</g>
			</g>
			<g>
				<g>
					<polygon class="st5" points="628.2,365.3 610.5,355.1 628.1,344.9 633.4,347.9 645.9,355 					"/>
					<polygon class="st10" points="628.1,367.8 610.5,357.7 610.5,355.1 628.2,365.3 					"/>
					<polygon class="st3" points="628.1,367.8 645.9,357.6 645.9,355 628.2,365.3 					"/>
				</g>
			</g>
			<g>
				<g>
					<polygon class="st4" points="628.7,285.1 621.8,283.7 628.6,282.3 635.5,283.6 					"/>
					<polygon class="st10" points="628.1,362.7 615.3,355.4 621.8,283.7 628.7,285.1 					"/>
					<polygon class="st3" points="628.1,362.7 641,355.3 635.5,283.6 628.7,285.1 					"/>
				</g>
			</g>
			<path class="st15" d="M655.3,265c-12.7,21.9-40.7,39.7-62.7,39.7c-11.9,0-19.5-5.2-22-13.4c3.7,5.4,10.4,8.6,19.7,8.6
				c21.9,0,50-17.8,62.6-39.7c5.8-10.1,7.4-19.3,5.2-26.2C663.2,241.2,662.5,252.4,655.3,265z"/>
			<path class="st5" d="M653,260.1c-12.7,21.9-40.7,39.7-62.6,39.7c-9.3,0-16-3.2-19.7-8.6c-2.1-7-0.6-16.2,5.2-26.3
				c12.7-21.9,40.7-39.7,62.6-39.7c9.3,0,16.1,3.2,19.7,8.6C660.3,240.9,658.8,250.1,653,260.1z"/>
			<g>
				<g>
					<polygon class="st4" points="579.1,235.5 576.3,236 576.9,233.2 579.7,232.6 					"/>
					<polygon class="st10" points="629.1,285.5 626.4,286 576.3,236 579.1,235.5 					"/>
					<polygon class="st3" points="629.2,285.5 629.8,282.6 579.7,232.6 579.1,235.5 					"/>
				</g>
			</g>
		</g>
		<path class="st18" d="M575,238.3l-6.2-8.5c0,0,2.3-5.5,5-5.5c1.1,0,2.3,0.1,2.3,0.1l6.9,6.8l0,0C583.3,238.9,575,238.3,575,238.3z
			"/>
		<path class="st20" d="M576.6,227.6c-1.2,2-3.8,3.7-5.8,3.7s-2.7-1.6-1.5-3.7c1.2-2,3.8-3.7,5.8-3.7
			C577.1,224,577.8,225.6,576.6,227.6z"/>
		<path class="st20" d="M575.5,239l-0.5-0.7c1.1,0,8.3-0.3,8.1-7l0.6,0.6C584.2,239.3,575.5,239,575.5,239z"/>
		<path class="st21" d="M576.2,227.3c-1.1,1.9-3.5,3.4-5.4,3.4s-2.6-1.5-1.5-3.4s3.5-3.4,5.4-3.4S577.3,225.4,576.2,227.3z"/>
	</g>
	<path class="st5" d="M771.8,502.1c-1.5-7.4-4.7-14.1-9.5-19.3c-9.3-10.1-22.1-10.9-28.4-17.8l-30-0.5c-0.5,0-1.1-0.3-1.5-0.8
		c-3.8-5.2-10.3-8.7-18-8.7c-7.9,0-14.8,3.8-18.5,9.5c-0.4,0.6-1,0.9-1.6,0.9c-0.5,0-1-0.2-1.4-0.6c-0.1-0.1-0.1-0.1-0.3-0.3
		c-5.4-5.9-13.7-9.5-22.9-9.5c-9.1,0-17.3,3.7-22.7,9.4c-0.3,0.1-0.4,0.4-0.5,0.5c-0.8,1-2.3,0.7-3-0.4l-0.1-0.1
		c-1.4-2.2-3-4.4-4.9-6.1c-0.5-0.4-0.7-1.1-0.5-1.8c0.4-1.2,0.5-2.6,0.5-3.9c0-8.9-8.2-16.1-18.1-16.1c-4.1,0-7.9,1.2-10.9,3.3
		c-0.7,0.4-1.5,0.3-2.2-0.1c-3.1-2.3-7.2-3.8-11.7-3.8h-1c0.4-1.1,0.5-2.4,0.5-3.7c0-8.9-8.2-16.1-18.1-16.1h-1.2
		c3.1-3.7,5-8.2,5-13.1c0-10.9-9.3-20-21.1-21.1c-1.1-0.1-1.8-1.1-1.6-2.2c0.1-1,0.1-1.8,0.1-2.7c0-8.3-5.3-15.5-13.2-18.9
		c-1.1-0.4-1.5-1.6-1-2.6c1.5-2.7,2.3-5.8,2.3-9.1c0-11.7-10.6-21.2-23.7-21.2c-7.6,0-14.4,3.3-18.8,8.3c-0.5,0.5-1.5,0.8-2.2,0.4
		c-2.4-1.2-5.3-1.9-8.3-1.9c-4.4,0-8.5,1.5-11.5,3.9c-3.5,2.8-5.8,6.9-5.8,11.4c0,4.4,2,8.2,5.2,11.1c0.1,0.1,0.2,0.1,0.2,0.2
		c1.1,0.8,0.7,2.6-0.7,3.1c-2.8,1-5.3,2.4-7.4,4.3c-2.5,2.2-4.5,4.9-5.6,8c-0.4,1.1-0.7,2.3-0.9,3.5c-0.1,1-1.1,1.8-2,1.6
		c-1.6-0.1-3.3-0.3-5-0.3c-13.7,0-26,5.4-34.3,14c-0.7,0.8-2,0.7-2.7-0.1c-8.3-10.3-21.6-17-36.9-17c-1.6,0-3.4,0.1-5,0.3
		c-1.1,0-1.9-0.7-2-1.6c-1.1-7.2-6.5-13.2-13.9-15.8c-1.4-0.4-1.8-2.2-0.7-3.1c3.4-2.9,5.4-6.8,5.4-11.3c0-8.4-7.8-15.4-17.3-15.4
		c-3,0-5.9,0.7-8.3,1.9c-0.7,0.4-1.6,0.3-2.2-0.4c-4.4-5-11.2-8.3-18.8-8.3c-6.5,0-12.4,2.4-16.7,6.2c-4.3,3.8-7,9.2-7,15
		c0,3,0.7,6,2,8.6c0.1,0.2,0.2,0.4,0.3,0.5c0.4,1,0,2.2-1,2.6c-2.3,1-4.4,2.4-6.2,4c-4.3,3.8-7,9.1-7,14.9v0.3c0,0.9,0,1.7,0.1,2.4
		c0.1,1.1-0.5,2-1.6,2.2c-5.5,0.6-10.4,2.8-14.1,6.1c-4.3,3.8-7,9.1-7,15c0,3.2,0.8,6.2,2.2,8.9c0.8,1.5,1.7,2.9,2.8,4.2h-1.2
		c-4.7,0-8.9,1.6-12.1,4.2c-3.4,2.8-5.6,6.6-5.9,11c0,0.3,0,0.6,0,0.9c0,1.4,0.3,2.6,0.5,3.8h-1.1c-4.5,0-8.6,1.4-11.7,3.8
		c-0.5,0.5-1.4,0.5-2,0.1c-3-2-6.8-3.3-10.9-3.3c-4.7,0-9,1.6-12.2,4.2c-3.6,2.9-5.9,7.2-5.9,11.9c0,1.4,0.1,2.7,0.5,3.9
		c0.1,0.3,0.1,0.6,0,1s-0.2,0.7-0.5,0.9c-0.1,0.1-0.1,0.1-0.2,0.2c-0.7,0.6-1.4,1.3-2,2c-1.1,1.2-2,2.6-2.8,4
		c-0.5,1.2-2.2,1.4-3,0.4c-5.6-6.1-13.9-9.9-23.3-9.9c-9.4,0-17.7,3.8-23.1,9.7c-0.8,1-2.3,1-3-0.1c-3.7-5.7-10.6-9.5-18.5-9.5
		c-5.8,0-11.1,2.1-14.9,5.4c-1.6,1.4-3,3.1-4.1,4.9c-0.7,1.2-1.3,2.4-1.7,3.7c-0.3,0.7-2.9,21.3-3.7,21.3c0,0-68.4-3.2-73.3,1.6
		s-3.6,5.4-3.6,8.2c1-0.1,2-0.2,3-0.3c10.9-1.1,23.6-0.9,36.4,2.1c4.9,1.2,10.9,2.2,17.7,3H188c19.3-1.8,38.5-4.4,56.5-7.8
		c74.4-14.3,131.5,2.9,206.8,1.9s173.3-4.4,229.7-0.3c38.3,2.8,59.4,4.1,75,6.2c5.9,0.8,11,1.7,16,2.8
		C772.1,504,772,503,771.8,502.1z"/>
	<g>
		<g>
			<path class="st22" d="M474.1,288.2c0,0.7-0.1,1.4-0.1,2.1c-0.1,2.7-0.2,5.4-0.4,8.2c0,0-0.6,0.4-1.7,1.2
				c-0.1,0.1-0.3,0.2-0.4,0.3l0,0c-0.2,0.2-0.5,0.3-0.8,0.5c-0.2,0.1-0.5,0.3-0.7,0.4c-1.2,0.7-2.6,1.5-4.3,2.4
				c-0.5,0.2-0.9,0.5-1.4,0.7c-1.1,0.5-2.2,1.1-3.4,1.6c-0.5,0.2-1,0.4-1.5,0.6l0,0c-0.8,0.3-1.7,0.7-2.5,1c-3.3,1.3-7,2.6-11.1,3.6
				c-3.2,0.8-6.6,1.6-10.2,2.1c-3.3,0.5-6.8,0.9-10.5,1c0.6-3,1.2-6,1.8-9c0.2-1.1,0.4-2.3,0.6-3.4
				C441.6,300.7,457.3,296.8,474.1,288.2z"/>
			<path class="st15" d="M427.4,301.6c-0.2,1.2-0.4,2.3-0.6,3.4c-0.5,3-1.1,6-1.8,9c-4.2,0.2-8.6,0.1-13.2-0.3
				c-12.1-1.1-25.4-4.6-39.4-11.9c-0.9-0.5-1.8-1-2.8-1.5c-3.6-2-7.3-4.3-11.1-6.9c-0.4-0.3-0.9-0.6-1.3-0.9
				c-0.3-0.2-0.5-0.4-0.8-0.6c0,0-0.3-3.4-0.6-9.3l0,0c0-0.7-0.1-1.4-0.1-2.2C355.8,280.5,384.5,304.5,427.4,301.6z"/>
			<path class="st4" d="M474.1,288.2c-16.8,8.6-32.5,12.5-46.7,13.4c-42.9,2.8-71.6-21.1-71.6-21.1c0-0.8-0.1-1.6-0.1-2.4l0,0
				c-0.3-8.1-0.5-65-0.2-78.3l0,0c0-2.1,0.1-4.2,0.2-6.4c0.2-4.9,0.4-10.1,0.7-15.4c0.4-5.9,0.8-12,1.5-18.3
				c3.3-34.1,10.5-73.2,25.7-107.7c9.6,4.5,23.7,8.5,42.2,6.7c7.3-0.7,15.4-2.3,24-5.2c10.3,26.2,20,63.8,23.5,116.3
				c0.4,6.4,0.8,12.9,1,19.7c0.2,5.6,0.3,11.4,0.4,17.4C474.7,218.2,474.6,275.7,474.1,288.2z"/>
			<path class="st3" d="M474.1,288.2c-16.8,8.6-32.5,12.5-46.7,13.4c2.2-12.6,3.7-71.2,4.8-84.3l0,0c2.2-28.4,2.1-57.4,0.6-84.9l0,0
				c-0.7-12.9-1.7-25.4-2.8-37.4c-1.2-12.9-2.7-25.1-4.2-36.4c7.3-0.7,15.4-2.3,24-5.2c10.3,26.2,20,63.8,23.5,116.3
				c0.4,6.4,0.8,12.9,1,19.7c0.2,5.6,0.3,11.4,0.4,17.4C474.7,218.2,474.6,275.7,474.1,288.2z"/>
			<path class="st23" d="M449.8,53.4c-8.7,2.9-16.7,4.5-24,5.2c-3.3-24.8-7-45.1-9.5-57.9c0.2-0.2,0.4-0.5,0.6-0.7
				C416.9,0.1,434.1,13.7,449.8,53.4z"/>
			<path class="st24" d="M425.7,58.7c-18.5,1.8-32.6-2.2-42.2-6.7c8.3-19,19-36.5,32.7-51.1C418.7,13.6,422.4,33.9,425.7,58.7z"/>
		</g>
		<g>
			<path class="st23" d="M519,328.8c0,0.6,0,1.2,0,1.7c-0.1,2.2-0.1,4.4-0.2,6.7c0,0-0.3,0.3-0.9,0.9c-0.1,0.1-0.1,0.1-0.2,0.2l0,0
				c-0.1,0.1-0.3,0.3-0.4,0.4c-0.1,0.1-0.3,0.2-0.4,0.4c-0.6,0.6-1.3,1.2-2.2,1.9c-0.2,0.2-0.5,0.4-0.7,0.6
				c-0.5,0.4-1.1,0.9-1.8,1.3c-0.3,0.2-0.5,0.3-0.8,0.5l0,0c-0.4,0.3-0.9,0.6-1.3,0.8c-1.7,1.1-3.6,2.1-5.7,3
				c-1.6,0.7-3.4,1.3-5.3,1.7c-1.7,0.4-3.5,0.7-5.4,0.9c0.3-2.4,0.6-4.9,0.9-7.3c0.1-0.9,0.2-1.9,0.3-2.8
				C502.3,339,510.4,335.8,519,328.8z"/>
			<path class="st15" d="M494.9,339.8c-0.1,0.9-0.2,1.9-0.3,2.8c-0.3,2.5-0.6,4.9-0.9,7.3c-2.2,0.2-4.4,0.1-6.8-0.2
				c-6.2-0.9-13.1-3.7-20.4-9.7c-0.5-0.4-1-0.8-1.4-1.2c-1.9-1.7-3.8-3.5-5.7-5.6c-0.2-0.2-0.5-0.5-0.7-0.8
				c-0.1-0.2-0.3-0.3-0.4-0.5c0,0-0.2-2.7-0.3-7.6l0,0c0-0.6,0-1.2,0-1.8C458,322.5,472.8,342.1,494.9,339.8z"/>
			<path class="st4" d="M519,328.8c-8.7,7-16.8,10.2-24.1,11c-22.1,2.3-37-17.2-37-17.2c0-0.6,0-1.3,0-1.9l0,0
				c-0.2-6.6-0.3-53.1-0.1-64l0,0c0-1.7,0.1-3.4,0.1-5.2c0.1-4,0.2-8.2,0.4-12.6c0.2-4.8,0.4-9.8,0.7-15
				c1.7-27.8,5.4-59.8,13.3-88.1c4.9,3.7,12.2,7,21.8,5.5c3.8-0.6,7.9-1.9,12.4-4.3c5.3,21.4,10.3,52.1,12.1,95.1
				c0.2,5.2,0.4,10.6,0.5,16.1c0.1,4.6,0.2,9.3,0.2,14.2C519.4,271.5,519.3,318.6,519,328.8z"/>
			<path class="st3" d="M519,328.8c-8.7,7-16.8,10.2-24.1,11c1.1-10.3,1.9-58.2,2.5-68.9l0,0c1.2-23.2,1.1-46.9,0.3-69.4l0,0
				c-0.4-10.5-0.9-20.8-1.5-30.5c-0.6-10.5-1.4-20.5-2.2-29.7c3.8-0.6,7.9-1.9,12.4-4.3c5.3,21.4,10.3,52.1,12.1,95.1
				c0.2,5.2,0.4,10.6,0.5,16.1c0.1,4.6,0.2,9.3,0.2,14.2C519.4,271.5,519.3,318.6,519,328.8z"/>
			<path class="st23" d="M506.5,136.9c-4.5,2.4-8.6,3.7-12.4,4.3c-1.7-20.3-3.6-36.8-4.9-47.3c0.1-0.2,0.2-0.4,0.3-0.6
				C489.5,93.3,498.4,104.4,506.5,136.9z"/>
			<path class="st24" d="M494.1,141.2c-9.5,1.5-16.8-1.8-21.8-5.5c4.3-15.5,9.8-29.9,16.9-41.8C490.5,104.4,492.4,120.9,494.1,141.2
				z"/>
		</g>
		<g>
			<path class="st22" d="M376.4,304.7c0,0.6,0,1.2,0,1.7c-0.1,2.2-0.1,4.4-0.2,6.7c0,0-0.3,0.3-0.9,0.9c-0.1,0.1-0.1,0.1-0.2,0.2
				l0,0c-0.1,0.1-0.3,0.3-0.4,0.4s-0.3,0.2-0.4,0.4c-0.6,0.6-1.3,1.2-2.2,1.9c-0.2,0.2-0.5,0.4-0.7,0.6c-0.5,0.4-1.1,0.9-1.8,1.3
				c-0.3,0.2-0.5,0.3-0.8,0.5l0,0c-0.4,0.3-0.9,0.6-1.3,0.8c-1.7,1.1-3.6,2.1-5.7,3c-1.6,0.7-3.4,1.3-5.3,1.7
				c-1.7,0.4-3.5,0.7-5.4,0.9c0.3-2.4,0.6-4.9,0.9-7.3c0.1-0.9,0.2-1.9,0.3-2.8C359.6,314.9,367.7,311.7,376.4,304.7z"/>
			<path class="st23" d="M352.3,315.6c-0.1,0.9-0.2,1.9-0.3,2.8c-0.3,2.5-0.6,4.9-0.9,7.3c-2.2,0.2-4.4,0.1-6.8-0.2
				c-6.2-0.9-13.1-3.7-20.4-9.7c-0.5-0.4-1-0.8-1.4-1.2c-1.9-1.7-3.8-3.5-5.7-5.6c-0.2-0.2-0.5-0.5-0.7-0.8
				c-0.1-0.2-0.3-0.3-0.4-0.5c0,0-0.2-2.7-0.3-7.6l0,0c0-0.6,0-1.2,0-1.8C315.3,298.4,330.1,317.9,352.3,315.6z"/>
			<path class="st4" d="M376.4,304.7c-8.7,7-16.8,10.2-24.1,11c-22.1,2.3-37-17.2-37-17.2c0-0.6,0-1.3,0-1.9l0,0
				c-0.2-6.6-0.3-53.1-0.1-64l0,0c0-1.7,0.1-3.4,0.1-5.2c0.1-4,0.2-8.2,0.4-12.6c0.2-4.8,0.4-9.8,0.7-15
				c1.7-27.8,5.4-59.8,13.3-88.1c4.9,3.7,12.2,7,21.8,5.5c3.8-0.6,7.9-1.9,12.4-4.3c5.3,21.4,10.3,52.1,12.1,95.1
				c0.2,5.2,0.4,10.6,0.5,16.1c0.1,4.6,0.2,9.3,0.2,14.2C376.7,247.4,376.6,294.4,376.4,304.7z"/>
			<path class="st3" d="M376.4,304.7c-8.7,7-16.8,10.2-24.1,11c1.1-10.3,1.9-58.2,2.5-68.9l0,0c1.2-23.2,1.1-46.9,0.3-69.4l0,0
				c-0.4-10.5-0.9-20.8-1.5-30.5c-0.6-10.5-1.4-20.5-2.2-29.7c3.8-0.6,7.9-1.9,12.4-4.3c5.3,21.4,10.3,52.1,12.1,95.1
				c0.2,5.2,0.4,10.6,0.5,16.1c0.1,4.6,0.2,9.3,0.2,14.2C376.7,247.4,376.6,294.4,376.4,304.7z"/>
			<path class="st23" d="M363.8,112.8c-4.5,2.4-8.6,3.7-12.4,4.3c-1.7-20.3-3.6-36.8-4.9-47.3c0.1-0.2,0.2-0.4,0.3-0.6
				C346.8,69.2,355.7,80.3,363.8,112.8z"/>
			<path class="st24" d="M351.4,117.1c-9.5,1.5-16.8-1.8-21.8-5.5c4.3-15.5,9.8-29.9,16.9-41.8C347.8,80.2,349.7,96.8,351.4,117.1z"
				/>
		</g>
		<g>
			<path class="st25" d="M408.7,464c-47.6-33.9-45.2-84.9-42.5-103.4h86.2C462.6,434.7,408.7,464,408.7,464z"/>
			<path class="st10" d="M408.8,435.7c-33.8-24.1-33.9-59.7-32.1-75h64.9C448,414.3,408.8,435.7,408.8,435.7z"/>
			<g>
				<g>
					<polygon class="st4" points="362.7,233.1 338.4,303.5 298.9,343.9 299.1,372.7 306.2,375.1 366.9,338.6 369.9,236.3 					"/>
					<polygon class="st10" points="369.2,235.7 345.6,306.7 306.2,346.5 306.4,374.9 370.4,343.3 371.6,235.9 					"/>
				</g>
			</g>
			<path class="st22" d="M461.3,355.5c0,0.6,0,1.2-0.1,1.7c-0.1,2.2-0.2,4.4-0.3,6.7c0,0-0.5,0.3-1.5,0.9c-0.1,0.1-0.3,0.1-0.4,0.2
				l0,0c-0.2,0.1-0.4,0.3-0.7,0.4c-0.2,0.1-0.4,0.2-0.7,0.4c-1,0.6-2.3,1.2-3.7,1.9c-0.4,0.2-0.8,0.4-1.2,0.6
				c-0.9,0.4-1.9,0.9-3,1.3c-0.4,0.2-0.9,0.3-1.3,0.5l0,0c-0.7,0.3-1.4,0.6-2.2,0.8c-2.9,1.1-6.1,2.1-9.7,3
				c-2.8,0.7-5.8,1.3-8.9,1.7c-2.9,0.4-5.9,0.7-9.1,0.9c0.5-2.4,1.1-4.9,1.5-7.3c0.2-0.9,0.4-1.9,0.5-2.8
				C432.9,365.7,446.6,362.6,461.3,355.5z"/>
			<path class="st15" d="M420.5,366.5c-0.2,0.9-0.3,1.9-0.5,2.8c-0.5,2.5-1,4.9-1.5,7.3c-3.7,0.2-7.5,0.1-11.5-0.2
				c-10.6-0.9-22.2-3.7-34.5-9.7c-0.8-0.4-1.6-0.8-2.4-1.2c-3.2-1.7-6.4-3.5-9.7-5.6c-0.4-0.2-0.8-0.5-1.1-0.8
				c-0.2-0.2-0.5-0.3-0.7-0.5c0,0-0.3-2.7-0.5-7.6l0,0c0-0.6-0.1-1.2-0.1-1.8C357.9,349.2,383,368.8,420.5,366.5z"/>
			<path class="st4" d="M461.3,355.5c-14.7,7-28.4,10.2-40.8,11c-37.5,2.3-62.6-17.2-62.6-17.2c0-0.6-0.1-1.3-0.1-1.9l0,0
				c-0.3-6.6-0.5-53.1-0.2-64l0,0c0-1.7,0.1-3.4,0.2-5.2c0.1-4,0.4-8.2,0.6-12.6c0.3-4.8,0.7-9.8,1.3-15
				c2.9-27.8,9.2-59.8,22.5-88.1c8.3,3.7,20.7,7,36.9,5.5c6.4-0.6,13.4-1.9,21-4.3c9,21.4,17.4,52.1,20.5,95.1
				c0.4,5.2,0.7,10.6,0.9,16.1c0.2,4.6,0.3,9.3,0.3,14.2C461.8,298.3,461.7,345.3,461.3,355.5z"/>
			<path class="st3" d="M461.3,355.5c-14.7,7-28.4,10.2-40.8,11c1.9-10.3,3.3-58.2,4.2-68.9l0,0c2-23.2,1.8-46.9,0.5-69.4l0,0
				c-0.6-10.5-1.5-20.8-2.5-30.5c-1.1-10.5-2.4-20.5-3.7-29.7c6.4-0.6,13.4-1.9,21-4.3c9,21.4,17.4,52.1,20.5,95.1
				c0.4,5.2,0.7,10.6,0.9,16.1c0.2,4.6,0.3,9.3,0.3,14.2C461.8,298.3,461.7,345.3,461.3,355.5z"/>
			<path class="st22" d="M440,163.6c-7.6,2.4-14.6,3.7-21,4.3c-2.9-20.3-6.1-36.8-8.3-47.3c0.2-0.2,0.4-0.4,0.6-0.6
				C411.3,120.1,426.4,131.2,440,163.6z"/>
			<path class="st15" d="M419,167.9c-16.1,1.5-28.5-1.8-36.9-5.5c7.3-15.5,16.6-29.9,28.6-41.8C412.9,131.1,416.1,147.7,419,167.9z"
				/>
			<g>
				<g>
					<polygon class="st4" points="446.6,239.2 470.9,309.6 510.4,350 510.2,378.8 503.1,381.2 442.4,344.7 439.4,242.4 					"/>
					<polygon class="st3" points="440.1,241.8 463.7,312.8 503.1,352.6 502.9,381 438.9,349.4 437.7,242 					"/>
				</g>
			</g>
		</g>
		<g>
			
				<ellipse transform="matrix(3.853387e-02 -0.9993 0.9993 3.853387e-02 173.2427 623.6691)" class="st3" cx="410.7" cy="221.8" rx="23.9" ry="23.9"/>
			<path class="st23" d="M426.4,216.1c-3-4.1-7.8-6.8-13.2-7c-9.5-0.4-17.5,7-17.9,16.5c-0.1,1.9,0.2,3.8,0.7,5.6
				c-2.2-3-3.5-6.8-3.3-10.8c0.4-9.5,8.4-16.9,17.9-16.5C418.2,204,424.4,209.2,426.4,216.1z"/>
			<path class="st5" d="M427.1,221.6c-0.4,9.5-8.4,16.9-17.9,16.5c-5.5-0.2-10.2-2.9-13.2-7c-0.5-1.8-0.8-3.6-0.7-5.6
				c0.4-9.5,8.4-16.9,17.9-16.5c5.5,0.2,10.2,3,13.2,7C427,217.8,427.2,219.7,427.1,221.6z"/>
		</g>
	</g>
	<g>
		<g>
			<g>
				<g>
					<g>
						<polygon class="st4" points="127.3,383.7 124.5,382.1 127.3,380.5 130.1,382.2 						"/>
						<polygon class="st10" points="125.2,549.8 122.4,548.2 124.5,382.1 127.3,383.7 						"/>
						<polygon class="st3" points="125.2,549.8 128,548.2 130.1,382.2 127.3,383.7 						"/>
					</g>
				</g>
				<g>
					<g>
						<polygon class="st4" points="127.3,380 123,377.5 127.4,375 131.7,377.5 						"/>
						<polygon class="st10" points="127.2,389.2 122.9,386.7 123,377.5 127.3,380 						"/>
						<polygon class="st3" points="127.2,389.2 131.6,386.8 131.7,377.5 127.3,380 						"/>
					</g>
				</g>
			</g>
			<g>
				<g>
					<path class="st26" d="M166.6,352.9c0,1.8-0.5,3.2-1.4,4.1c-1.6,1.6-4.9,3.6-4.9,3.6L145.2,342c0,0,4-3.3,5.3-4.1
						c1.7-1,4.2-0.9,7,0.7C162.5,341.4,166.6,347.8,166.6,352.9z"/>
					<path class="st4" d="M102.9,398.3c-1.1,1.9-3.6,2.3-6.6,0.6c-4-2.3-7.2-7.3-7.3-11.3c0-2.2,1-3.6,2.5-4l0,0
						c1.2-0.4,2.9-0.1,4.7,0.9c4,2.3,7.2,7.3,7.2,11.3C103.5,396.8,103.3,397.6,102.9,398.3z"/>
					<path class="st21" d="M99.1,396.7l0.1,0.1l-10.9,7.8l-6.4-8.9l10.9-7.8l0.1,0.2c0.7-0.2,1.6-0.1,2.7,0.5
						c2.3,1.3,4.1,4.1,4.1,6.4C99.7,395.7,99.5,396.3,99.1,396.7z"/>
					<path class="st20" d="M89.7,402.2c0,2.3-1.8,3.1-4.2,1.8c-2.3-1.3-4.2-4.3-4.2-6.6c0-2.3,1.8-3.1,4.2-1.8
						C87.8,397,89.7,399.9,89.7,402.2z"/>
					<path class="st22" d="M162.4,355.8c0,5-4,6.8-9.1,3.9s-9.1-9.3-9.2-14.3c0-5,4-6.8,9.1-3.9S162.4,350.8,162.4,355.8z"/>
				</g>
				<path class="st10" d="M156.2,360l-2.2,1.5l-51.2,36.8c0.4-0.7,0.6-1.5,0.6-2.5c0-4-3.3-9-7.2-11.3c-1.8-1-3.4-1.3-4.7-0.9
					l53.5-38.5c1.2-0.3,2.8,0,4.5,1c1.5,0.9,2.9,2.1,4.1,3.5l0.1,0.1l1.1,1.5c1.3,2,2.1,4.3,2.1,6.2
					C156.8,358.5,156.6,359.3,156.2,360z"/>
			</g>
		</g>
		<g>
			<g>
				<g>
					<polygon class="st4" points="51.4,491 48.6,489.5 51.4,487.8 54.2,489.4 					"/>
					<polygon class="st10" points="51.4,565.5 48.6,564 48.6,489.5 51.4,491 					"/>
					<polygon class="st3" points="51.4,565.5 54.2,563.9 54.2,489.4 51.4,491 					"/>
				</g>
			</g>
			<g>
				<g>
					<polygon class="st4" points="79.9,492.3 77.1,490.7 79.9,489.1 82.7,490.7 					"/>
					<polygon class="st10" points="79.9,566.8 77.1,565.2 77.1,490.7 79.9,492.3 					"/>
					<polygon class="st3" points="79.9,566.8 82.7,565.2 82.7,490.7 79.9,492.3 					"/>
				</g>
			</g>
			<g>
				<g>
					<polygon class="st4" points="66,494.1 34.1,475.9 65.9,457.4 97.9,475.6 					"/>
					<polygon class="st10" points="65.9,500 34.1,481.9 34.1,475.9 66,494.1 					"/>
					<polygon class="st3" points="65.9,500 98,481.6 97.9,475.6 66,494.1 					"/>
				</g>
			</g>
		</g>
		<g>
			<g>
				<path class="st27" d="M78.2,455.4c-1.1-1.9-3.4-2.9-5.6-2.1s-3.4,3-3,5.2c0,0.1,0.1,0.2,0.1,0.3c-0.1-0.1-0.2-0.3-0.3-0.4
					c-1.5-2.6-3.1-5.2-4.7-7.8c1.3-3.4,2.6-7.1,3.4-9.1c1.3-0.3,2.7-0.7,4.2-1.3c0.1-0.4,0.2-0.8,0.4-1.2h0.1c0,0,3.8,11.7,5.3,16.1
					C78.1,455.1,78.2,455.3,78.2,455.4z"/>
				<path class="st28" d="M75.9,461.3c-1.8,0.8-3.8,0.4-5.2-0.9c-0.3-0.5-0.6-1.1-1-1.6l0,0c0-0.1-0.1-0.2-0.1-0.3
					c-0.4-2.2,0.8-4.4,3-5.2c2.2-0.8,4.5,0.2,5.6,2.1c0.1,0.3,0.2,0.6,0.3,0.9C78.8,458.4,77.8,460.4,75.9,461.3z"/>
				<path class="st27" d="M68.2,441.5c-0.7,1.9-2.1,5.7-3.4,9.1c-0.8,2.1-1.5,4.1-2,5.5c-0.1,0.3-0.2,0.7-0.4,1
					c0.3-1.9-0.6-3.9-2.4-4.9c-2-1.1-4.5-0.5-5.9,1.3c-0.1,0.2-0.2,0.5-0.3,0.7c0-0.3,0.1-0.6,0.1-0.9c0.6-4.6,1.3-9.3,1.7-13.7
					c0.4,0.2,1.4,0.8,2.9,1.3c1.9,0.7,4.8,1.3,8.2,0.9C67.2,441.7,67.7,441.6,68.2,441.5z"/>
				<path class="st28" d="M62.4,457L62.4,457c0,0.1-0.1,0.2-0.1,0.3c-1,1.8-3.1,2.7-5.1,2.2c-1.9-0.5-3.3-2.1-3.5-3.9
					c0.1-0.5,0.1-1,0.2-1.5l0,0c0.1-0.2,0.2-0.5,0.3-0.7c1.4-1.8,3.8-2.4,5.9-1.3C61.8,453.1,62.7,455.1,62.4,457z"/>
				<path class="st15" d="M55.7,426.4"/>
				<path class="st29" d="M53,414.4c0.3-3.1,1.3-5.7,2.7-7.5c0.4-0.5,1.9-1.7,2.3-1.8l8.9,5.3l0,0l6.1,4.2v-4.3l1.1-2.1
					c4.8,11,1,22.9-1.5,30.9c-0.1,0.4-0.2,0.8-0.4,1.2c-1.5,0.6-2.9,1-4.2,1.3c-0.5,0.1-0.9,0.2-1.4,0.2c-3.5,0.4-6.4-0.2-8.2-0.9
					c-1.5-0.5-2.4-1.1-2.9-1.3c0,0-0.1,0-0.1-0.1c0.2-2,0.3-5.4-0.5-9.7l0,0C55.1,429.8,52.5,417.2,53,414.4z"/>
				<path class="st27" d="M62.3,457L62.3,457c-0.1,0.4-0.3,0.8-0.6,1.2c-0.3,0.3-0.6,0.7-1,1c-6.2,6.5-15.2,16.5-17.2,14.9
					c-1.6-1.2,4.1-10.5,9.9-20c0.3-0.5,0.6-0.9,0.9-1.4l0,0c0.1-0.2,0.3-0.4,0.4-0.6c1.6-1.5,4.2-1.7,6-0.3
					C62.4,453,62.9,455.1,62.3,457z"/>
				<path class="st11" d="M73.1,388.2v16.7l-3.3,2.1l-9.4-4v-0.2c2.3,0,4.4-0.3,4.4-0.3c-7-10.9,4-14.1,4-14.1
					c0.3,2.1-1.5,3.7-1.7,3.9C67.4,392.1,71.1,390.4,73.1,388.2z"/>
				<polygon class="st11" points="67,410.3 69.8,407 73.1,410.2 73.1,414.5 				"/>
				<polygon class="st5" points="74.7,407.2 74.2,408.1 74.2,408.1 73.1,410.2 69.8,407 73.1,404.9 				"/>
				<path class="st5" d="M69.8,407l-2.9,3.3l0,0L58,405l1.1-2.3c0.3,0,0.6,0,0.8,0l0.5,0.2L69.8,407z"/>
				<path class="st30" d="M61.6,392"/>
				<path class="st14" d="M74.1,386.7c-0.2,0.5-0.6,1-1,1.5c-2,2.2-5.7,3.9-6,4c0.2-0.2,2-1.7,1.7-3.9c0,0-11,3.3-4,14.1
					c0,0-2.1,0.3-4.4,0.3c-0.2,0-0.3,0-0.5,0c-0.3,0-0.6,0-0.8,0c-2.9-0.2-5.7-1.1-5.4-3.9c0.9-7.3,0.3-7.2,2.7-13.6
					C60.4,374.6,76.1,381.4,74.1,386.7z"/>
				<path class="st27" d="M81.9,479.9c-1.9,0.7-6.5-9.2-11.2-19.2c-0.3-0.6-0.6-1.3-0.9-1.9l0,0c0-0.1-0.1-0.2-0.1-0.3
					c-0.4-2.2,0.8-4.4,3-5.2c2.2-0.8,4.5,0.2,5.6,2.1c0.1,0.2,0.2,0.4,0.3,0.6c0.1,0.4,0.2,0.9,0.3,1.4
					C80.8,466.1,84.2,479.1,81.9,479.9z"/>
				<g>
					<path d="M68.2,400.6c0.9,0.2,1.7,0.5,2.5,0.7c0.4,0.1,0.8,0.1,1.2,0.1c0.4-0.1,0.7-0.3,0.8-0.8c0,0.2,0,0.5-0.1,0.7
						s-0.3,0.4-0.6,0.5c-0.5,0.2-1,0.1-1.4,0C69.7,401.6,68.9,401.1,68.2,400.6z"/>
				</g>
			</g>
			<g>
				<path class="st11" d="M68.1,423.5c-0.4-0.3-0.8-0.6-1.1-0.9c-1.4-0.7-3.1-0.3-4.1,1c-0.1,0.1-0.2,0.2-0.3,0.4
					c-0.7,1.2-0.7,2.6,0,3.7c-0.1-0.1-0.1-0.1-0.1-0.2c-2.4-3-3.9-4.6-4.6-5.5l0.4-0.3l6.9-4.5C65.5,418.2,66.4,420.2,68.1,423.5z"
					/>
				<path class="st11" d="M66.5,428.7c-0.2,0.1-0.3,0.1-0.5,0.1h-0.1c-0.2,0-0.3,0-0.5,0h-0.1c-1.3,0-2.5-0.8-3.1-2
					c-0.1-0.1-0.1-0.3-0.2-0.4c-0.5-1.5,0.1-3.1,1.5-4c0.4-0.2,0.9-0.3,1.4-0.5l0,0H65c0.5,0.1,1.1,0.1,1.6,0.2l0,0
					c1.3,0.5,2.3,1.8,2.3,3.3c0,0.9-0.4,1.7-0.9,2.3l0,0c-0.1,0.1-0.2,0.2-0.3,0.2L66.5,428.7z"/>
				<path class="st11" d="M64.9,422L64.9,422c1.1-0.3,2.1-0.7,3.2-1.1l0,0c8.2-2.9,18.5-7,19.1-5.6c0.8,1.8-11.6,7.9-19.3,12.6
					c0.6-0.6,0.9-1.4,0.9-2.3c0-1.5-0.9-2.8-2.3-3.3l0,0c-0.5-0.1-1.1-0.1-1.6-0.2C65,422,65,422,64.9,422z"/>
				<path class="st29" d="M62.5,412.9c1,0.9,1.9,2.1,2.8,3.4c0.1,0.2,0.3,0.4,0.4,0.6l-0.5,0.4l-6.9,4.5l-0.4,0.3l-0.5,0.3
					c-0.1-0.2-0.3-0.4-0.4-0.6c-0.3-0.4-0.5-0.8-0.7-1.2c-2-3.5-2.6-7-1.6-9c0.2-0.4,0.5-0.8,0.9-1.1c0.1-0.1,0.2-0.1,0.3-0.2
					C57.5,409.5,60.1,410.5,62.5,412.9z"/>
			</g>
		</g>
		<g>
			<ellipse class="st3" cx="116.9" cy="584" rx="18.8" ry="6.4"/>
			<g>
				<g>
					<path class="st28" d="M120.4,543.8l0.4,8.7c0.8,0,1.6,3.4,2.3,8c0.1,0.4,0.2,0.9,0.2,1.4c0.6,1.9,2.5,3.3,4.6,3.2
						c2-0.1,3.6-1.4,4.2-3.2c0-0.8,0.1-1.6,0.1-2.4c0.3-5.1,0.6-10.5,1-15.3v-0.9L120.4,543.8z"/>
					<path class="st28" d="M122.8,561.8c0,0.5,0,0.9,0,1.4c0.1,8.9-0.4,22.7,2.1,23c2,0.2,4.3-10.8,6.6-21.6
						c0.2-0.8,0.3-1.6,0.5-2.3c-0.1-2.2-1.8-4.1-4.1-4.4C125.4,557.6,123.1,559.3,122.8,561.8z"/>
					<path class="st28" d="M120.4,543.8l0.4,8.7c-0.8,0-1.2,3.5-1.6,8.1c0,0.5-0.1,0.9-0.1,1.4c-0.5,2-2.2,3.5-4.3,3.6
						c-2,0.1-3.7-1.1-4.4-2.8c-0.1-0.8-0.2-1.6-0.4-2.4c-0.8-5.1-1.6-10.4-2.5-15.1v-0.9L120.4,543.8z"/>
					<path class="st28" d="M118.7,563.3c-0.3,0.3-0.6,0.7-0.9,1.1c-5.7,6.9-14.1,17.9-16.1,16.5c-1.7-1.1,3.6-11.1,8.6-20.9
						c0.4-0.7,0.7-1.4,1.1-2.1c1.5-1.7,4-2,5.9-0.8C119.4,558.4,120,561.2,118.7,563.3z"/>
				</g>
				<path class="st14" d="M75.4,514.5"/>
				<path class="st11" d="M107.9,510.6c0,0-2.1-0.9-8.5-4.7c-0.5-0.3-1.1-0.6-1.6-1c-1.6-0.5-3.5,0-4.6,1.5s-1.1,3.5,0,4.9l0,0
					c0.4,0.4,0.8,0.7,1.2,1.1c5.4,5,7,6.9,7,6.9L107.9,510.6z"/>
				<path class="st11" d="M99.5,508.4c-0.1-0.6-0.1-1.3-0.2-1.9c-1-10.6-1.4-27.4-3.5-27.5c-2.4,0-3,16.8-4.3,27.5l0,0
					c-0.1,0.5-0.1,1.1-0.2,1.6c0.2,2.1,1.9,3.8,4.1,3.8C97.4,512.1,99.2,510.5,99.5,508.4z"/>
				<path class="st31" d="M108,510c-0.2-0.2-0.5-0.4-0.7-0.5l-7.2,9.6c0.2,0.2,0.5,0.4,0.7,0.6c5.4,4,11.4,5.2,13.4,2.5
					C116.2,519.4,113.4,514,108,510z"/>
				<path class="st11" d="M141.6,515.6c0,0,0.6,1.9,3.2,7.6c0.2,0.5,0.4,1,0.7,1.5c0.3,1.4-0.4,3-1.7,3.7c-1.4,0.8-3.1,0.6-4.2-0.4
					l0,0c-0.3-0.4-0.6-0.8-0.8-1.1c-3.7-5-5.2-6.6-5.2-6.6L141.6,515.6z"/>
				<path class="st31" d="M142.8,515.7c0.1,0.2,0.3,0.5,0.4,0.7l-8.8,5.2c-0.1-0.2-0.3-0.4-0.4-0.7c-2.9-5-3.3-10.2-0.9-11.6
					C135.5,507.8,139.9,510.7,142.8,515.7z"/>
				<path class="st31" d="M133.6,509.2l0.4,34.5c-4,1.4-8.6,2.3-13.5,2.6c-5,0.2-9.6-0.3-13.7-1.3l-2.1-25.8l0.4-4.6L133.6,509.2z"
					/>
				<path class="st5" d="M113.3,518.2c2.4-4.8,10.7-0.2,10.7-0.2l-11.6-8.9c-2-1.2-5,0.7-4.6,2c0.1,0.2,0.1,0.3,0.2,0.5L113.3,518.2
					z"/>
				<path class="st5" d="M129.8,515.1c-2.7-1.6-5.9,2.9-5.9,2.9l2.2-8.4c0.5-1.3,3.5-0.7,3.8,0.1c0,0.1,0.1,0.2,0.1,0.3L129.8,515.1
					z"/>
				<polygon class="st11" points="125.3,491.4 126.1,509.6 124,518.1 112.3,510.2 111.4,492 				"/>
				<path class="st14" d="M125.2,491.3c0,0-1.2,3.4-6.2,4.4l3.6-4.8c0,0-4.4,4.4-6.4,4.4l0.8-2.6c0,0-5.4,0.4-5.2,4.9
					s0.3,9.3,0.3,9.3s-2.2-10-3.6-13.2c-2.5-6.1,11.4-21.1,18.1-7.7c0,0,2.1,8.2-0.8,20.2L125.2,491.3z"/>
				<g>
					<path class="st13" d="M119.7,504.3c0.8,0.6,1.6,1,2.4,1c0.4,0,0.8-0.1,1.2-0.4c0.4-0.2,0.7-0.5,1.1-0.9
						c-0.1,0.2-0.2,0.4-0.4,0.6c-0.2,0.2-0.3,0.4-0.5,0.5c-0.4,0.3-0.9,0.5-1.4,0.6c-0.5,0-1-0.2-1.4-0.5
						C120.2,505.1,119.9,504.7,119.7,504.3z"/>
				</g>
				<path class="st11" d="M144.3,528.3c-0.5,0.2-1,0.5-1.4,0.7c-8.1,4.2-20.4,11.7-21.4,10.2c-1.1-1.7,10.7-10,17.8-15.9l0,0
					c0.4-0.3,0.7-0.6,1.1-0.9c1.6-0.9,3.6-0.4,4.7,1.2C146,525.2,145.7,527.2,144.3,528.3z"/>
			</g>
		</g>
	</g>
	<g>
		<g>
			<g>
				<polygon class="st4" points="410.7,601.3 379.1,583.2 429.5,555.2 461.2,573.3 				"/>
				<polygon class="st10" points="410.6,630.6 379.1,612.6 379.1,583.2 410.7,601.3 				"/>
				<polygon class="st3" points="410.6,630.6 461.2,602.7 461.2,573.3 410.7,601.3 				"/>
			</g>
		</g>
		<polygon class="st9" points="439.4,588.1 436.5,599.4 442.6,595.9 435.4,614.3 438.3,601.1 432.5,603.5 		"/>
		<g>
			<path class="st22" d="M411.6,589.6c0-0.1,0-0.4,0-0.4v-1.3c0,0,3.5-1.4,5.3-1.4c1.7,0,5.3,0.6,5.3,0.6s0,2.3,0,2.5
				c0,1.7-2.4,3.1-5.3,3.1S411.6,591.3,411.6,589.6z"/>
			<ellipse class="st26" cx="416.9" cy="587.4" rx="5.3" ry="3.1"/>
			<path class="st3" d="M421.3,576.5v10.6c0,1.4-2,2.5-4.4,2.5s-4.4-1.1-4.4-2.5v-10.6H421.3z"/>
			<ellipse class="st4" cx="416.9" cy="577" rx="4.4" ry="2.5"/>
		</g>
		<g>
			<path class="st20" d="M436.6,576c0-0.1,0-0.4,0-0.4v-1.3c0,0,3.5-1.4,5.3-1.4c1.7,0,5.3,0.6,5.3,0.6s0,2.3,0,2.5
				c0,1.7-2.4,3.1-5.3,3.1S436.6,577.7,436.6,576z"/>
			<ellipse class="st21" cx="442" cy="573.7" rx="5.3" ry="3.1"/>
			<path class="st3" d="M446.4,562.8v10.6c0,1.4-2,2.5-4.4,2.5s-4.4-1.1-4.4-2.5v-10.6H446.4z"/>
			<ellipse class="st4" cx="441.9" cy="563.3" rx="4.4" ry="2.5"/>
		</g>
	</g>
	<g>
		<ellipse class="st3" cx="341.6" cy="509.5" rx="19.9" ry="6.3"/>
		<g>
			<path class="st11" d="M361.2,443.1c-0.1-0.2-0.2-0.4-0.3-0.6c0,0,0-0.1-0.1-0.1c-0.1-0.2-0.3-0.3-0.4-0.5c0,0,0,0-0.1-0.1
				c-1.2-1.2-2.9-1.6-4.6-1c-0.2,0.1-0.3,0.1-0.5,0.2c-1.8,0.9-2.8,2.9-2.3,4.9c0.3,0.5,0.5,1.1,0.8,1.7l0,0l0.1,0.1
				c0.5,0.4,1,0.8,1.6,1.3l0,0c1.6,0.8,3.6,0.5,5-0.9c0.8-0.8,1.2-1.8,1.3-2.9l0,0c0-0.1,0-0.4-0.1-0.4L361.2,443.1z"/>
			<path class="st11" d="M353.7,447.5c0,0,0,0.1,0.1,0.1c0.6,1.2,1.2,2.5,1.8,3.8l0,0c4.6,10.1,10,23.1,11.9,22.4
				c2.4-0.9-3.1-17.6-5.8-28.7c0,1-0.5,2.1-1.3,2.9c-1.4,1.3-3.4,1.6-5,0.9l0,0c-0.5-0.4-1.1-0.8-1.6-1.3
				C353.8,447.6,353.8,447.6,353.7,447.5z"/>
			<g>
				<path class="st11" d="M325.9,430.5h-0.1c-1.3,0.1-2.7,0.2-4.2,0.2l0,0c-11.1,0.5-25.1,0.6-25.2,2.6c-0.1,2.5,17.5,3.8,28.8,5.5
					c-1-0.4-1.7-1.2-2.2-2.3c-0.7-1.8-0.2-3.7,1.1-4.9l0,0c0.6-0.3,1.2-0.7,1.8-1C325.9,430.5,325.9,430.5,325.9,430.5z"/>
				<path class="st12" d="M334.3,461.7c0,0.7,0.5,1.3,1.1,1.3s1.2-0.5,1.2-1.2s-0.5-1.3-1.1-1.3C334.9,460.5,334.4,461,334.3,461.7z
					"/>
				<path class="st12" d="M333.7,455.5c0,0.7,0.5,1.3,1.1,1.3s1.2-0.5,1.2-1.2s-0.5-1.3-1.1-1.3
					C334.2,454.3,333.7,454.8,333.7,455.5z"/>
				<g>
					<path class="st13" d="M350.3,467.5c-1.7,0.6-3.4,0.9-5.1,1.2c-1.7,0.3-3.5,0.4-5.2,0.4s-3.5-0.1-5.2-0.4s-3.4-0.7-5.1-1.3
						c1.7,0.4,3.4,0.7,5.1,0.9c1.7,0.2,3.4,0.3,5.2,0.3C343.4,468.6,346.9,468.2,350.3,467.5z"/>
				</g>
				<g>
					<path class="st13" d="M350.3,467.5c0-0.2,0-0.3,0.1-0.3c0,0,0.1,0,0.2,0.2c0,0.2,0,0.3-0.1,0.3
						C350.5,467.7,350.4,467.7,350.3,467.5z"/>
				</g>
				<path class="st12" d="M329,429.9"/>
				<path class="st13" d="M333.7,455.5c0,0.7,0.5,1.3,1.1,1.3s1.2-0.5,1.2-1.2s-0.5-1.3-1.1-1.3
					C334.2,454.3,333.7,454.8,333.7,455.5z"/>
				<path class="st13" d="M334.3,461.7c0,0.7,0.5,1.3,1.1,1.3s1.2-0.5,1.2-1.2s-0.5-1.3-1.1-1.3C334.9,460.5,334.4,461,334.3,461.7z
					"/>
				<path class="st28" d="M325.9,466.1c1.6,19.8,4.3,42.4,7.2,42.4c4.5,0,1.1-35.1,6-35.1c5.4,0,3.2,35.1,8.1,35.1
					c3.3,0,6-22.7,8.5-42.2c-1.1,0.3-3,0.7-5.4,1.1l0,0C344.4,468.5,335.2,469,325.9,466.1L325.9,466.1z"/>
				<path class="st32" d="M324.2,440.8l0.2-1.3c-0.1,3.1-0.1,8.4,0.6,13.5c0.2,4,0.6,8.6,0.9,13.3l0,0c9.3,2.9,18.5,2.3,24.4,1.4
					l0,0c2.5-0.4,4.4-0.8,5.4-1.1c1-7.5,0-16.8,0-16.8l6.4-4.9c-0.9-3.3-1.7-5.9-2.1-7.2c-1.7-4.2-2.9-5.1-3.7-6.1
					c-0.9-1.1-4.3-1.5-6.8-1.6H349c-0.5,0-0.9,0-1.3,0h-0.1c-0.6,0-1.1,0-1.1,0l-1.7,1.5l-0.3,0.3l0,0l-5.7,5l-6.4-6.1
					c0,0-0.2-0.1-0.5-0.2h-0.1c-0.7-0.2-1.7-0.3-2.8,0c-0.1,0-0.1,0-0.2,0l0.2-0.4c-1.9,0-4.5,0-7.3,0.1l1,9.4
					C323.3,439.6,323.7,440.7,324.2,440.8z"/>
				<path class="st33" d="M335.5,460.5c-0.6,0-1.2,0.5-1.2,1.2s0.5,1.3,1.1,1.3s1.2-0.5,1.2-1.2
					C336.6,461.1,336.2,460.5,335.5,460.5z"/>
				<path class="st33" d="M334.8,456.8c0.6,0,1.2-0.5,1.2-1.2s-0.5-1.3-1.1-1.3s-1.2,0.5-1.2,1.2
					C333.6,456.2,334.1,456.8,334.8,456.8z"/>
				<g>
					<polygon class="st11" points="330.8,411.5 331.1,412.8 330.3,421.5 331.8,424.1 331.8,427.6 331.8,429.7 332,430.1 
						332.6,434.2 335.2,449.3 335.2,449.4 336.5,447 340,440.2 344.7,431.4 344.7,431.4 345.3,429.4 345.7,411.5 					"/>
					<path class="st12" d="M345.4,445.3"/>
					<path class="st12" d="M345.3,429.4"/>
					<path class="st12" d="M333,435.2"/>
					<path id="XMLID_101_" class="st14" d="M338.6,400.6c0,0,7.5-2.2,11.2,6.6c3.5,8.1,3.4,17,2.5,19c-1,2.1-7.8,1.2-7.8,1.2
						s2.1-13.9,0.3-14.7c-1.8-0.8-12.3-0.5-12.8,0.1c-0.6,0.6-0.5,12.4,0.9,14.6c0,0-8.5,1.7-9-3.7
						C323.3,418.4,327.9,397.1,338.6,400.6z"/>
					<path class="st5" d="M336,447.8c0,0,7.1-6.8,10.8-6.8l-1-3.5l4-0.8l-0.3-6.8l-3.9-0.3l-5.6,10.6L336,447.8z"/>
					<path class="st5" d="M328.2,435.9l2,0.7l-0.4,1.7c3.2,1.5,5.2,10,5.4,11.1l-3.3-19.7H329l-2.7,5.6L328.2,435.9z"/>
					<path class="st34" d="M341.6,437.6"/>
					<ellipse class="st13" cx="338" cy="423.2" rx="1.4" ry="1.8"/>
				</g>
				<path class="st35" d="M332,430.1"/>
			</g>
		</g>
	</g>
	<g>
		<g>
			<g>
				<g>
					<polygon class="st3" points="646.1,582.2 646.1,585.2 599.3,560.2 599.3,557.2 					"/>
				</g>
				<g>
					<polygon class="st5" points="653.7,577.6 646.1,582.2 599.3,557.2 606.9,552.6 					"/>
				</g>
			</g>
			<g>
				<g>
					<polygon class="st20" points="599.7,557.4 599.7,560.4 591.2,555.7 591.2,552.7 					"/>
				</g>
				<g>
					<polygon class="st21" points="607.4,552.8 599.7,557.4 591.2,552.7 598.8,548.1 					"/>
				</g>
			</g>
			<g>
				<g>
					<polygon class="st22" points="658.3,586.2 658.3,587.9 646.1,585.2 646.1,582.3 					"/>
				</g>
				<g>
					<polygon class="st26" points="660.5,584.6 658.3,586.2 646.1,582.3 653.7,577.6 					"/>
				</g>
			</g>
			<polygon class="st3" points="660.5,586.2 660.5,584.6 658.3,586.2 658.3,587.9 			"/>
		</g>
		<g>
			<g>
				<polygon class="st10" points="730.7,549.9 730.7,552.7 676.5,584.2 676.2,581 				"/>
			</g>
			<g>
				<polygon class="st3" points="676.2,581 676.2,584.2 607,546.1 607,543.2 				"/>
			</g>
			<g>
				<polygon class="st5" points="730.1,549.9 676.2,581 607,543.2 660.9,511.7 				"/>
			</g>
		</g>
		<g>
			<g>
				<polygon class="st10" points="710,547.2 710,550.2 670.3,570.9 670.3,567.9 				"/>
			</g>
			<g>
				<polygon class="st3" points="670.3,567.9 670.3,570.9 667.7,569.4 667.7,566.4 				"/>
			</g>
			<g>
				<polygon class="st4" points="710,547.2 670.3,567.9 667.7,566.4 707.4,545.7 				"/>
			</g>
		</g>
		<g>
			<g>
				<polygon class="st10" points="699.6,541.2 699.6,544.1 659.9,564.9 659.9,561.9 				"/>
			</g>
			<g>
				<polygon class="st3" points="659.9,561.9 659.9,564.9 657.3,563.4 657.3,560.4 				"/>
			</g>
			<g>
				<polygon class="st4" points="699.6,541.2 659.9,561.9 657.3,560.4 697,539.7 				"/>
			</g>
		</g>
		<g>
			<g>
				<polygon class="st10" points="687.4,534.3 687.4,537.3 657,553.2 657,550.2 				"/>
			</g>
			<g>
				<polygon class="st3" points="657,550.2 657,553.2 654.4,551.7 654.4,548.7 				"/>
			</g>
			<g>
				<polygon class="st4" points="687.3,534.3 657,550.2 654.4,548.7 684.7,532.8 				"/>
			</g>
		</g>
		<g>
			<g>
				<polygon class="st10" points="675.5,527.1 675.5,530.1 646.3,546.4 646.2,543.4 				"/>
			</g>
			<g>
				<polygon class="st3" points="646.2,543.4 646.2,546.4 643.6,544.9 643.6,542 				"/>
			</g>
			<g>
				<polygon class="st4" points="675.4,527.1 646.2,543.4 643.6,542 672.8,525.6 				"/>
			</g>
		</g>
	</g>
	<g>
		<g>
			<ellipse class="st3" cx="695.5" cy="384.4" rx="19.6" ry="6.6"/>
			<g>
				<path class="st30" d="M708.5,342"/>
				<path class="st19" d="M714.4,357.4L714.4,357.4c0.2,1.2,0.7,2.3,1.6,3.1c0.1,0.1,0.2,0.2,0.2,0.2c0.2,0.2,0.4,0.3,0.5,0.4
					c0.5,0.2,0.9,0.4,1.4,0.7c0.1,0.1,0.3,0.1,0.4,0.2c9.2,4.3,22.4,11,23.9,8.6c1.1-1.9-8.2-9.1-17.9-16.6
					c-0.2-0.2-0.5-0.4-0.7-0.5c-0.7-0.5-1.4-1.1-2.2-1.7c-2.4-1-5.1-0.1-6.5,2.1C714.5,355.1,714.3,356.3,714.4,357.4z"/>
				<path class="st19" d="M696.8,358.5c-0.1,0.5-0.2,1-0.3,1.5c-2.2,9.9-6.2,24.7-3.5,25.6c2.1,0.7,7.4-10.5,12.8-21.9
					c0.4-0.8,0.8-1.6,1.2-2.5c0.5-2.5-1-5-3.4-5.9C700.7,354.4,697.8,355.8,696.8,358.5z"/>
				<g>
					<path class="st19" d="M710.7,338.7l-6.8-2.2c0,0-5.1,15.8-6.7,20.8c-0.1,0.1-0.1,0.3-0.1,0.5c-0.1,0.4-0.2,0.7-0.3,1.1
						c-0.4,2.3,0.8,4.6,3,5.6c2,0.9,4.4,0.5,5.9-1c0.4-0.6,0.7-1.2,1.1-1.8l0,0c0.1-0.2,0.2-0.3,0.3-0.5c1.7-2.9,7.5-11.6,9.2-14.5"
						/>
					<path class="st19" d="M708.5,341.6c0.8,2.2,2.4,6.5,3.8,10.3c0.8,2.1,1.5,4.2,2.1,5.6c-0.1-1.1,0.1-2.3,0.7-3.4
						c1.4-2.2,4.2-3.1,6.5-2.1c0.7,0.6,1.4,1.1,2.2,1.7c0.2,0.2,0.5,0.4,0.7,0.5c-0.7-5-1.4-10.1-1.9-14.9"/>
					<path class="st14" d="M711.9,316.2l-0.7-0.1c0-0.3,0.1-0.6,0.2-0.8c0.4-1.7,0.9-3.3,1.5-4.7c1.6-3.5,3.9-5.6,6-5.5
						c0.1,0,0.2,0,0.4,0.1c0.5,0.1,1,0.4,1.4,0.8c2,1.8,2.8,6.6,1.7,11.7c-0.1,0.3-0.1,0.6-0.2,0.8l-0.7-0.2
						c-0.5,1.2-1.4,3.6-2.7,7.7c-0.2,0.5-0.3,1-0.5,1.5c-0.2,0.4-0.6,0.8-0.9,1.1c-0.7,0.9-1.8,1.5-3.1,1.5c-0.5-0.1-1-0.2-1.5-0.3
						l0,0c-3.7-0.7-8.3-1.4-12.6-2.1c0.9,4.2,2.1,8.1,3.1,11.4c0.1,0.5,0.3,0.9,0.4,1.4c3.8,2.3,13.5,1.6,15.7,0.8
						c1.6-0.6,2.8-1.3,3.3-1.5c0.1,0,0.1,0,0.1-0.1c-0.3-2.9-0.4-8.1,1.4-14.8c0-0.2,0.1-0.3,0.1-0.5c0.3-1.2,0.6-2.3,0.8-3.5
						c0.5-2.5,0.7-5,0.7-7.3c0-0.4,0-0.7,0-1.1c-0.9-10.9-5.4-11.8-5.8-12l0,0l-10.1,6l0,0l-7,4.7v-4.9l-1.2-2.4
						c-2.7,6.1-3,12.5-2.3,18.4c4,0,8.3,0,12,0C711.7,319.2,711.8,317.2,711.9,316.2z"/>
					<path class="st11" d="M704,282.7v17.8l3.5,2.3l10.1-4.3v-0.2c5.7-18.9-8.9-15.4-8.9-15.4C708.3,285.1,706.1,285,704,282.7z"/>
					<polygon class="st11" points="702.9,306.3 702.9,311.2 709.9,306.5 706.6,302.7 					"/>
					<polygon class="st5" points="701.1,302.9 701.7,304 702.9,306.3 706.6,302.7 702.9,300.3 					"/>
					<path class="st5" d="M706.6,302.7l3.2,3.8l0,0l10.1-6l-1.2-2.6c-0.3,0-0.6,0-1,0l-0.5,0.2L706.6,302.7z"/>
					<path class="st30" d="M716,285.7"/>
					<g>
						<path d="M709.4,295.4c-0.2,0.4-0.6,0.8-1,1.1c-0.4,0.3-0.9,0.5-1.5,0.5c-0.5,0-1.1-0.2-1.5-0.5c-0.2-0.1-0.4-0.4-0.5-0.5
							c-0.1-0.2-0.3-0.4-0.4-0.6c0.4,0.3,0.7,0.6,1.2,0.8c0.4,0.2,0.8,0.3,1.3,0.3C707.8,296.5,708.7,296,709.4,295.4z"/>
					</g>
					<path class="st30" d="M718.8,297.9"/>
					<path class="st30" d="M718.8,297.9"/>
					<path class="st14" d="M717.4,298.7c0,0,7.6-15.5,1.1-15.6c0,0,4.5-9.6-23.9-6.9c0,0-5.3-0.1-6.5-4.4c0,0-1.1,13.4,8.3,16.9
						c5.1,1.9,8.8-1.4,10.4-2.1c1.9-0.9,10.7-2.8,10.7,0.2C717.4,291,717.4,298.7,717.4,298.7z"/>
				</g>
			</g>
		</g>
		<g>
			<g>
				<g>
					<g>
						<polygon class="st10" points="677.5,303.1 673.3,314.4 688.9,322.9 701.5,316.5 						"/>
						<polygon class="st3" points="677.3,301.4 673.2,312.6 673.2,314.3 677.7,303.1 						"/>
						<polygon class="st5" points="677.3,301.4 701.4,314.7 701.5,316.5 677.7,303.2 						"/>
					</g>
				</g>
			</g>
			<g>
				<g>
					<g>
						<polygon class="st10" points="690,304.7 673.3,314.2 700,329.1 716.8,319.5 						"/>
						<polygon class="st3" points="689.8,302.9 673.2,312.4 673.3,314.2 690,304.7 						"/>
						<polygon class="st5" points="689.8,302.9 716.7,317.7 716.8,319.5 690,304.7 						"/>
					</g>
				</g>
			</g>
		</g>
		<g>
			<g>
				<path class="st11" d="M711.1,325.9c0.2,1.6,1.4,3,3.1,3.3c1.2,0.3,2.4-0.1,3.3-0.8c0.4-0.3,0.7-0.7,0.9-1.1
					c0.2-0.5,0.3-1,0.5-1.5c1.4-4.1,2.2-6.5,2.7-7.7l-9.7-2.1c0,1.1-0.2,3-0.5,6.2c-0.1,0.6-0.1,1.2-0.2,1.8
					C711.3,324.7,711.2,325.3,711.1,325.9z"/>
				<path class="st14" d="M711.3,316l0.7,0.1l9.7,2.1l0.7,0.2c0.1-0.3,0.1-0.5,0.2-0.8c1.1-5.2,0.3-9.9-1.7-11.7
					c-0.4-0.4-0.9-0.6-1.4-0.8c-0.1,0-0.2,0-0.4-0.1c-2.1-0.2-4.4,2-6,5.5c-0.6,1.4-1.2,3-1.5,4.7
					C711.4,315.4,711.3,315.7,711.3,316z"/>
			</g>
			<path class="st11" d="M687,323.8c-0.1,1.4,6.2,2.6,13.3,3.8c4.3,0.7,8.8,1.4,12.6,2.1l0,0c0.5,0.1,1,0.2,1.5,0.3
				c1.2,0,2.4-0.6,3.1-1.5c0.5-0.6,0.8-1.3,0.8-2.1c0.2-2-1.2-3.8-3.1-4.2c-0.6,0-1.2,0-1.8,0s-1.3,0-1.9,0c-3.7,0.1-8.1,0-12,0
				C692.8,322.4,687.1,322.6,687,323.8z"/>
		</g>
	</g>
	<g>
		<path class="st3" d="M270.2,514.1c0,4.6,9.9,8.4,22,8.4c12.2,0,22-3.7,22-8.4c0-0.3-0.1-3.1-0.1-3.1l-0.8,0.7c0,0-11.1-5.9-21-5.9
			c-10.7,0-22,5.2-22,5.2S270.2,514,270.2,514.1z"/>
		<ellipse class="st4" cx="292.2" cy="511" rx="22" ry="8.4"/>
		<path class="st3" d="M272.7,452.5v57.3c0,4.1,8.7,7.4,19.5,7.4s19.5-3.3,19.5-7.4v-57.3H272.7z"/>
		<ellipse class="st5" cx="292.5" cy="453.7" rx="19.5" ry="7.4"/>
		<g>
			<path class="st3" d="M282.9,451.1c0,2.5,4.3,4.4,9.6,4.4s9.6-2,9.6-4.4c0-0.3-0.1-5.4-0.1-5.4l-19-0.4
				C283,445.4,282.9,450.9,282.9,451.1z"/>
			<ellipse class="st5" cx="292.5" cy="445.8" rx="9.6" ry="4.4"/>
		</g>
		<g>
			<path class="st9" d="M282.9,514.5c2.7,0.6,5.9,1,9.3,1c10.2,0,18.5-3.1,18.5-7c0-0.3-0.2-6.7-0.2-6.7s-9-0.3-18.3-0.3
				s-18.3,0.8-18.3,0.8s-0.2,5.9-0.2,6.2C273.7,511,277.4,513.3,282.9,514.5"/>
			<ellipse class="st36" cx="292.2" cy="502.2" rx="18.5" ry="7"/>
			<path class="st15" d="M273.7,498.3c0,3.9,8.3,7,18.5,7s18.5-3.1,18.5-7c0-0.3-0.2-6.7-0.2-6.7s-9-0.3-18.3-0.3
				s-18.3,0.8-18.3,0.8S273.7,498,273.7,498.3z"/>
			<ellipse class="st26" cx="292.2" cy="492.1" rx="18.5" ry="7"/>
			<path class="st20" d="M273.7,488.5c0,3.9,8.3,7,18.5,7s18.5-3.1,18.5-7c0-0.3-0.2-6.7-0.2-6.7s-9-0.3-18.3-0.3
				s-18.3,0.8-18.3,0.8S273.7,488.1,273.7,488.5z"/>
			<ellipse class="st21" cx="292.2" cy="482.3" rx="18.5" ry="7"/>
		</g>
	</g>
	<g>
		<ellipse class="st3" cx="482.1" cy="610.8" rx="20.9" ry="7.1"/>
		<g>
			<path class="st19" d="M486.2,569.2v8.9c0.8,0,1.4,3.6,2,8.3c0.1,0.5,0.1,0.9,0.2,1.4c0.6,2,2.4,3.5,4.6,3.5c2,0,3.7-1.3,4.4-3.1
				c0.1-0.8,0.2-1.6,0.3-2.4c0.5-5.2,1.1-10.7,1.8-15.6v-0.9L486.2,569.2z"/>
			<path class="st19" d="M488.2,586.2c0.1,0.5,0.1,0.9,0.2,1.4c1.1,9.1,2.2,23.3,4.7,23.3c2,0,3.1-11.5,4.3-22.8
				c0.1-0.8,0.2-1.6,0.3-2.4c-0.4-2.3-2.3-4-4.7-4C490.4,581.6,488.3,583.6,488.2,586.2z"/>
			<path class="st19" d="M487.7,573l-1.5,5.1c-0.7-0.5-7.6,3.5-11.1,6.8c-0.3,0.3-0.7,0.6-1,1c-1.7,1.2-4.1,1.1-5.7-0.3
				c-1.6-1.3-2.1-3.4-1.4-5.2c0.5-0.7,0.9-1.4,1.4-2c2.9-4.4,6-8.9,8.6-13.2l0.6-0.7L487.7,573z"/>
			<path class="st19" d="M476,583.6c-0.1,0.5-0.1,0.9-0.2,1.4c-1.1,9.1-2.2,23.3-4.7,23.3c-2,0-3.1-11.5-4.3-22.8
				c-0.1-0.8-0.2-1.6-0.3-2.4c0.4-2.3,2.3-4,4.7-4C473.8,579,475.9,581,476,583.6z"/>
		</g>
		<path class="st37" d="M470.5,536l2.2,34.2c4,1.2,8.6,1.9,13.5,1.9c4.9,0,9.5-0.7,13.5-1.9l0.8-25.7l0.3-8.5H470.5z"/>
		<polygon class="st11" points="478.9,516 478.9,536.1 485.7,544.8 492.6,536.1 492.6,516 		"/>
		<path class="st11" d="M465.8,546.1c0,0,0.5,1.9,1.1,8.1c0.1,0.5,0.1,1.1,0.2,1.6c0.5,1.4,1.8,2.4,3.3,2.4c1.6,0,2.9-1,3.4-2.5l0,0
			c0-0.5,0.1-0.9,0.1-1.4c0.7-6.2,1.1-8.3,1.1-8.3h-9.2V546.1z"/>
		<path class="st11" d="M466.9,554.3c0.1,0.5,0.1,1.1,0.2,1.6c1,9,1.5,23.5,3.3,23.5c2.1,0,2.4-14.5,3.4-23.7l0,0
			c0-0.5,0.1-0.9,0.1-1.4c-0.2-1.8-1.7-3.2-3.5-3.2C468.6,551.2,467.1,552.6,466.9,554.3z"/>
		<path class="st37" d="M465.3,546.4c0,0.3,0,0.5,0,0.8h10.2c0-0.3,0-0.5,0-0.8c0-5.7-2.3-10.4-5.1-10.4S465.3,540.7,465.3,546.4z"
			/>
		<path class="st11" d="M496.1,546.2c0,0,0.5,1.9,1.1,8.1c0.1,0.5,0.1,1.1,0.2,1.6c0.5,1.4,1.8,2.4,3.3,2.4c1.6,0,2.9-1,3.4-2.5l0,0
			c0-0.5,0.1-0.9,0.1-1.4c0.7-6.2,1.1-8.3,1.1-8.3h-9.2V546.2z"/>
		<path class="st37" d="M495.6,546.4c0,0.3,0,0.5,0,0.8h10.2c0-0.3,0-0.5,0-0.8c0-5.7-2.3-10.4-5.1-10.4
			C497.9,536,495.6,540.7,495.6,546.4z"/>
		<path class="st5" d="M477,542.9c3.9-3.6,8.6,1.9,8.6,1.9l-6.7-9.6c-1.7-0.3-3.6,0.8-3.7,2.2c0,0.2,0,0.4,0,0.6L477,542.9z"/>
		<path class="st5" d="M494.5,542.9c-3.9-3.6-8.8,1.9-8.8,1.9l6.9-9.6c1.7-0.3,3.6,0.8,3.7,2.2c0,0.2,0,0.4,0,0.6L494.5,542.9z"/>
		<path class="st14" d="M473.9,520.5c0,4,2,7.5,5,9.6v-11.3c2.6,1.3,6.5-1.6,6.5-1.6c1.7,2.5-1.6,4.3-1.6,4.3
			c4.3,0.8,6.9-1.3,8.9-2.6v11.3c3-2.1,5-5.7,5-9.7c0-6.5-5.3-11.8-11.8-11.8C479.2,508.7,473.9,514,473.9,520.5z"/>
		<path class="st14" d="M492.7,530c0,0,7.6,5,2.6,18.5c0,0-1.6,4.3-1.1,8.2C494.2,556.6,482,542.9,492.7,530z"/>
		<path class="st11" d="M501.4,551.4c-0.5,0-1.1-0.1-1.6-0.1c-9-0.6-23.5-2.6-23.8-0.8c-0.4,2,13.9,4.9,22.7,7.4l0,0
			c0.4,0.1,0.9,0.3,1.3,0.4c1.8,0.2,3.5-1.1,3.8-2.9C504.1,553.6,503,551.9,501.4,551.4z"/>
		<g>
			<path class="st13" d="M483.5,530.4c0.8,0.6,1.6,1,2.4,1c0.4,0,0.8-0.1,1.2-0.4c0.4-0.2,0.7-0.5,1.1-0.9c-0.1,0.2-0.2,0.4-0.4,0.6
				c-0.2,0.2-0.3,0.4-0.5,0.5c-0.4,0.3-0.9,0.5-1.4,0.6c-0.5,0-1-0.2-1.4-0.5C484.1,531.2,483.7,530.9,483.5,530.4z"/>
		</g>
	</g>
	<path class="st8" d="M25,500.7"/>
	<g>
		<g id="XMLID_80_">
			<g id="XMLID_81_">
				<g id="XMLID_82_" class="st38">
					<g id="XMLID_99_">
						<polygon id="XMLID_100_" class="st3" points="113.1,318 113,321.8 91.9,334.1 91.9,330.4 						"/>
					</g>
					<g id="XMLID_97_">
						<polygon id="XMLID_98_" class="st10" points="91.9,330.4 91.9,334.1 70.5,321.8 70.6,318 						"/>
					</g>
					<g id="XMLID_83_">
						<polygon id="XMLID_84_" class="st5" points="113.1,318 91.9,330.4 70.6,318 91.7,305.7 						"/>
					</g>
				</g>
			</g>
		</g>
		<g id="XMLID_77_">
			<polygon id="XMLID_79_" class="st3" points="92.4,292 92.4,324.4 103.9,317.7 			"/>
			<polygon id="XMLID_78_" class="st10" points="92.4,292 92.4,324.4 80.9,317.7 			"/>
		</g>
	</g>
	<g>
		<g id="XMLID_105_">
			<g id="XMLID_106_">
				<g id="XMLID_107_" class="st38">
					<g id="XMLID_112_">
						<polygon id="XMLID_113_" class="st3" points="783.9,364 783.9,367.1 766,377.5 766,374.3 						"/>
					</g>
					<g id="XMLID_110_">
						<polygon id="XMLID_111_" class="st10" points="766,374.3 766,377.5 748,367.1 748,364 						"/>
					</g>
					<g id="XMLID_108_">
						<polygon id="XMLID_109_" class="st5" points="783.9,364 766,374.3 748,364 765.9,353.6 						"/>
					</g>
				</g>
			</g>
		</g>
		<g id="XMLID_102_">
			<polygon id="XMLID_104_" class="st3" points="766.5,342 766.5,369.3 776.2,363.7 			"/>
			<polygon id="XMLID_103_" class="st10" points="766.5,342 766.5,369.3 756.8,363.7 			"/>
		</g>
	</g>
	<g>
		<g id="XMLID_114_">
			<g id="XMLID_140_">
				<path id="XMLID_141_" class="st5" d="M228.8,331.8c-3.4,2-3.5,5.2,0,7.2c3.4,2,9,2,12.4,0s3.5-5.2,0-7.2
					C237.8,329.8,232.2,329.8,228.8,331.8z"/>
			</g>
			<g id="XMLID_115_">
				<g id="XMLID_132_">
					<g id="XMLID_133_" class="st38">
						<g id="XMLID_138_">
							<polygon id="XMLID_139_" class="st10" points="236.9,319.4 236.9,336.6 234.9,337.8 235,320.6 							"/>
						</g>
						<g id="XMLID_136_">
							<polygon id="XMLID_137_" class="st10" points="235,320.6 234.9,337.8 232.9,336.6 233,319.4 							"/>
						</g>
						<g id="XMLID_134_">
							<polygon id="XMLID_135_" class="st39" points="236.9,319.4 235,320.6 233,319.4 234.9,318.3 							"/>
						</g>
					</g>
				</g>
				<g id="XMLID_116_">
					<g id="XMLID_129_">
						<polygon id="XMLID_131_" class="st10" points="234.9,310 234.9,331.7 243.2,328.5 						"/>
						<polygon id="XMLID_130_" class="st4" points="234.9,310 234.9,331.7 226.6,328.5 						"/>
					</g>
					<polygon id="XMLID_128_" class="st27" points="241.4,324.4 234.9,328 227.8,325.9 229.6,322 					"/>
					<g id="XMLID_125_">
						<polygon id="XMLID_127_" class="st10" points="234.9,299.8 234.9,326.8 245.3,322.9 						"/>
						<polygon id="XMLID_126_" class="st4" points="234.9,299.8 234.9,326.8 224.6,322.9 						"/>
					</g>
					<polygon id="XMLID_124_" class="st27" points="240.5,312.3 234.9,314.4 229.3,312.3 228.7,313.7 234.9,316.3 					"/>
					<g id="XMLID_121_">
						<polygon id="XMLID_123_" class="st10" points="234.9,292.7 234.9,314.4 243.2,311.3 						"/>
						<polygon id="XMLID_122_" class="st4" points="234.9,292.7 234.9,314.4 226.6,311.3 						"/>
					</g>
					<polygon id="XMLID_120_" class="st27" points="238.9,301.5 234.9,304.2 230.4,302.9 232.2,298.9 					"/>
					<g id="XMLID_117_">
						<polygon id="XMLID_119_" class="st10" points="234.9,290.2 234.9,303 239.8,301.1 						"/>
						<polygon id="XMLID_118_" class="st4" points="234.9,290.2 234.9,303 230,301.1 						"/>
					</g>
				</g>
			</g>
		</g>
	</g>
	<g>
		<g id="XMLID_170_">
			<g id="XMLID_196_">
				<path id="XMLID_197_" class="st5" d="M565.2,617.3c-3.4,2-3.5,5.2,0,7.2c3.4,2,9,2,12.4,0s3.5-5.2,0-7.2
					C574.2,615.3,568.6,615.3,565.2,617.3z"/>
			</g>
			<g id="XMLID_171_">
				<g id="XMLID_188_">
					<g id="XMLID_189_" class="st38">
						<g id="XMLID_194_">
							<polygon id="XMLID_195_" class="st10" points="573.3,604.9 573.3,622.1 571.3,623.2 571.4,606 							"/>
						</g>
						<g id="XMLID_192_">
							<polygon id="XMLID_193_" class="st10" points="571.4,606 571.3,623.2 569.4,622.1 569.4,604.9 							"/>
						</g>
						<g id="XMLID_190_">
							<polygon id="XMLID_191_" class="st39" points="573.3,604.9 571.4,606 569.4,604.9 571.4,603.7 							"/>
						</g>
					</g>
				</g>
				<g id="XMLID_172_">
					<g id="XMLID_185_">
						<polygon id="XMLID_187_" class="st10" points="571.3,595.4 571.3,617.1 579.6,614 						"/>
						<polygon id="XMLID_186_" class="st4" points="571.3,595.4 571.3,617.1 563.1,614 						"/>
					</g>
					<polygon id="XMLID_184_" class="st27" points="577.8,609.8 571.3,613.5 564.2,611.4 566,607.4 					"/>
					<g id="XMLID_181_">
						<polygon id="XMLID_183_" class="st10" points="571.3,585.2 571.3,612.2 581.7,608.3 						"/>
						<polygon id="XMLID_182_" class="st4" points="571.3,585.2 571.3,612.2 561,608.3 						"/>
					</g>
					<polygon id="XMLID_180_" class="st27" points="577,597.7 571.3,599.8 565.7,597.7 565.1,599.1 571.3,601.8 					"/>
					<g id="XMLID_177_">
						<polygon id="XMLID_179_" class="st10" points="571.3,578.2 571.3,599.8 579.6,596.7 						"/>
						<polygon id="XMLID_178_" class="st4" points="571.3,578.2 571.3,599.8 563.1,596.7 						"/>
					</g>
					<polygon id="XMLID_176_" class="st27" points="575.3,587 571.3,589.7 566.8,588.3 568.6,584.4 					"/>
					<g id="XMLID_173_">
						<polygon id="XMLID_175_" class="st10" points="571.3,575.6 571.3,588.4 576.3,586.6 						"/>
						<polygon id="XMLID_174_" class="st4" points="571.3,575.6 571.3,588.4 566.4,586.6 						"/>
					</g>
				</g>
			</g>
		</g>
	</g>
	<g>
		<g id="XMLID_198_">
			<g id="XMLID_224_">
				<path id="XMLID_225_" class="st5" d="M187.8,621.6c-3.4,2-3.5,5.2,0,7.2c3.4,2,9,2,12.4,0s3.5-5.2,0-7.2
					C196.8,619.6,191.2,619.6,187.8,621.6z"/>
			</g>
			<g id="XMLID_199_">
				<g id="XMLID_216_">
					<g id="XMLID_217_" class="st38">
						<g id="XMLID_222_">
							<polygon id="XMLID_223_" class="st10" points="195.9,609.2 195.9,626.4 193.9,627.6 194,610.4 							"/>
						</g>
						<g id="XMLID_220_">
							<polygon id="XMLID_221_" class="st10" points="194,610.4 193.9,627.6 192,626.4 192,609.2 							"/>
						</g>
						<g id="XMLID_218_">
							<polygon id="XMLID_219_" class="st39" points="195.9,609.2 194,610.4 192,609.2 194,608.1 							"/>
						</g>
					</g>
				</g>
				<g id="XMLID_200_">
					<g id="XMLID_213_">
						<polygon id="XMLID_215_" class="st10" points="194,599.8 194,621.5 202.3,618.3 						"/>
						<polygon id="XMLID_214_" class="st4" points="194,599.8 194,621.5 185.7,618.3 						"/>
					</g>
					<polygon id="XMLID_212_" class="st27" points="200.4,614.2 194,617.8 186.8,615.7 188.6,611.8 					"/>
					<g id="XMLID_209_">
						<polygon id="XMLID_211_" class="st10" points="194,589.6 194,616.6 204.3,612.7 						"/>
						<polygon id="XMLID_210_" class="st4" points="194,589.6 194,616.6 183.6,612.7 						"/>
					</g>
					<polygon id="XMLID_208_" class="st27" points="199.6,602.1 194,604.2 188.4,602.1 187.7,603.5 194,606.1 					"/>
					<g id="XMLID_205_">
						<polygon id="XMLID_207_" class="st10" points="194,582.5 194,604.2 202.3,601.1 						"/>
						<polygon id="XMLID_206_" class="st4" points="194,582.5 194,604.2 185.7,601.1 						"/>
					</g>
					<polygon id="XMLID_204_" class="st27" points="197.9,591.3 194,594.1 189.4,592.7 191.2,588.7 					"/>
					<g id="XMLID_201_">
						<polygon id="XMLID_203_" class="st10" points="194,580 194,592.8 198.9,591 						"/>
						<polygon id="XMLID_202_" class="st4" points="194,580 194,592.8 189,591 						"/>
					</g>
				</g>
			</g>
		</g>
	</g>
	<g>
		<g id="XMLID_142_">
			<g id="XMLID_168_">
				<path id="XMLID_169_" class="st5" d="M760,453.1c-3.4,1.9-3.4,5.1,0,7c3.3,1.9,8.8,1.9,12.1,0c3.4-1.9,3.4-5.1,0-7
					C768.8,451.1,763.3,451.1,760,453.1z"/>
			</g>
			<g id="XMLID_143_">
				<g id="XMLID_160_">
					<g id="XMLID_161_" class="st38">
						<g id="XMLID_166_">
							<polygon id="XMLID_167_" class="st10" points="767.9,441 767.9,457.8 766,458.9 766,442.1 							"/>
						</g>
						<g id="XMLID_164_">
							<polygon id="XMLID_165_" class="st10" points="766,442.1 766,458.9 764,457.8 764.1,441 							"/>
						</g>
						<g id="XMLID_162_">
							<polygon id="XMLID_163_" class="st39" points="767.9,441 766,442.1 764.1,441 766,439.9 							"/>
						</g>
					</g>
				</g>
				<g id="XMLID_144_">
					<g id="XMLID_157_">
						<polygon id="XMLID_159_" class="st10" points="766,431.7 766,452.9 774.1,449.8 						"/>
						<polygon id="XMLID_158_" class="st4" points="766,431.7 766,452.9 757.9,449.8 						"/>
					</g>
					<polygon id="XMLID_156_" class="st27" points="772.3,445.8 766,449.4 759,447.3 760.8,443.4 					"/>
					<g id="XMLID_153_">
						<polygon id="XMLID_155_" class="st10" points="766,421.7 766,448.1 776.1,444.3 						"/>
						<polygon id="XMLID_154_" class="st4" points="766,421.7 766,448.1 755.9,444.3 						"/>
					</g>
					<polygon id="XMLID_152_" class="st27" points="771.5,434 766,436 760.5,434 759.9,435.4 766,437.9 					"/>
					<g id="XMLID_149_">
						<polygon id="XMLID_151_" class="st10" points="766,414.9 766,436 774.1,433 						"/>
						<polygon id="XMLID_150_" class="st4" points="766,414.9 766,436 757.9,433 						"/>
					</g>
					<polygon id="XMLID_148_" class="st27" points="769.8,423.5 766,426.1 761.5,424.8 763.3,420.9 					"/>
					<g id="XMLID_145_">
						<polygon id="XMLID_147_" class="st10" points="766,412.4 766,424.9 770.8,423.1 						"/>
						<polygon id="XMLID_146_" class="st4" points="766,412.4 766,424.9 761.2,423.1 						"/>
					</g>
				</g>
			</g>
		</g>
	</g>
	<g id="XMLID_250_">
		<g id="XMLID_251_" class="st38">
			<g id="XMLID_256_">
				<polygon id="XMLID_257_" class="st10" points="55.1,580 55.1,582 59.5,584.5 59.5,582.6 				"/>
			</g>
			<g id="XMLID_254_">
				<polygon id="XMLID_255_" class="st3" points="59.5,582.6 59.5,584.5 69.4,578.8 69.4,576.9 				"/>
			</g>
			<g id="XMLID_252_">
				<polygon id="XMLID_253_" class="st5" points="55.1,580 59.5,582.6 69.4,576.9 65,574.3 				"/>
			</g>
		</g>
	</g>
	<g id="XMLID_242_">
		<g id="XMLID_243_" class="st38">
			<g id="XMLID_248_">
				<polygon id="XMLID_249_" class="st10" points="691.6,592.1 691.6,593.9 695.6,596.2 695.6,594.4 				"/>
			</g>
			<g id="XMLID_246_">
				<polygon id="XMLID_247_" class="st3" points="695.6,594.4 695.6,596.2 704.5,591.1 704.5,589.3 				"/>
			</g>
			<g id="XMLID_244_">
				<polygon id="XMLID_245_" class="st5" points="691.6,592.1 695.6,594.4 704.5,589.3 700.5,587 				"/>
			</g>
		</g>
	</g>
	<g id="XMLID_234_">
		<g id="XMLID_235_" class="st38">
			<g id="XMLID_240_">
				<polygon id="XMLID_241_" class="st10" points="645.4,432.9 645.4,434.7 649.4,437 649.4,435.2 				"/>
			</g>
			<g id="XMLID_238_">
				<polygon id="XMLID_239_" class="st3" points="649.4,435.2 649.4,437 658.3,431.8 658.3,430.1 				"/>
			</g>
			<g id="XMLID_236_">
				<polygon id="XMLID_237_" class="st5" points="645.4,432.9 649.4,435.2 658.3,430.1 654.3,427.8 				"/>
			</g>
		</g>
	</g>
	<g id="XMLID_226_">
		<g id="XMLID_227_" class="st38">
			<g id="XMLID_232_">
				<polygon id="XMLID_233_" class="st10" points="223.7,372.6 223.7,374 226.8,375.8 226.8,374.4 				"/>
			</g>
			<g id="XMLID_230_">
				<polygon id="XMLID_231_" class="st3" points="226.8,374.4 226.8,375.8 233.7,371.8 233.7,370.4 				"/>
			</g>
			<g id="XMLID_228_">
				<polygon id="XMLID_229_" class="st5" points="223.7,372.6 226.8,374.4 233.7,370.4 230.6,368.6 				"/>
			</g>
		</g>
	</g>
</g>
</svg>
