<?xml version="1.0" encoding="utf-8"?>
<!-- Generator: Adobe Illustrator 21.0.2, SVG Export Plug-In . SVG Version: 6.00 Build 0)  -->
<svg version="1.1" id="Layer_1" xmlns="http://www.w3.org/2000/svg" xmlns:xlink="http://www.w3.org/1999/xlink" x="0px" y="0px"
	 viewBox="0 0 804.8 674.2" style="enable-background:new 0 0 804.8 674.2;" xml:space="preserve">
<style type="text/css">
	.st0{fill:#F3F4F5;}
	.st1{fill:#FFFFFF;}
	.st2{enable-background:new    ;}
	.st3{fill:#ECEDEE;}
	.st4{fill:#8F7B69;}
	.st5{fill:#FAFAFA;}
	.st6{fill:#D6D7D8;}
	.st7{fill:#DFE1E3;}
	.st8{fill:#F9F9F9;}
	.st9{fill:#DEDBE8;}
	.st10{fill:#2A4494;}
	.st11{fill:#E8BA08;}
	.st12{fill:#FFD633;}
	.st13{fill:#F49020;}
	.st14{fill:#F6A64D;}
	.st15{fill:#DD841D;}
	.st16{fill:#6BBD00;}
	.st17{fill:#89CA33;}
	.st18{fill:none;stroke:#B3D9F8;stroke-width:0.5;stroke-miterlimit:10;}
	.st19{fill:#FCC1BE;}
	.st20{fill:#B3D9F8;stroke:#515151;stroke-width:0.5;stroke-miterlimit:10;}
	.st21{fill:#515151;}
	.st22{fill:#C7CAD7;}
	.st23{fill:#FEE300;}
	.st24{fill:#171F38;}
	.st25{fill:#61AD3F;stroke:#515151;stroke-width:0.5;stroke-miterlimit:10;}
	.st26{fill:#28A9DF;}
	.st27{fill:#0099FF;}
	.st28{fill:none;stroke:#C7CAD7;stroke-width:0.5;stroke-miterlimit:10;}
	.st29{fill:none;stroke:#ECEDEE;stroke-miterlimit:10;}
	.st30{fill:#D9DDE0;}
	.st31{fill:#F7F6F5;}
	.st32{fill:#E7E8E8;}
	.st33{fill:#F49040;}
	.st34{fill:#B3D9F8;}
	.st35{fill:none;stroke:#F49020;stroke-width:0.5;stroke-miterlimit:10;}
</style>
<g>
	<path class="st0" d="M790.5,534.3c-18.8,23.6-86.1,13.9-87.9,41.4c-3.8,57.6-78.7,79.4-135.3,88.4c-42.7,6.8-100.9-7.7-164.9-11.4
		c-64,3.7-122.2,18.2-164.9,11.4c-56.6-9-169.4-29.1-172.1-86.7c-1.8-38.7-32.4-19.5-51.1-43c-18.8-23.6-18.1-56.5-3.6-74.2
		c14.6-17.6,54.9-24.1,50.7-53.6c-2.7-18.7-37.9-13.4-40.9-44.5C17,326.4,38,313.2,81.4,316.8c46.3,3.9,9.2-56.3,66.6-49.4
		c50.7,6.1,28.4,15,113.4-9.7c55.5-16.1,100-23.6,138.5-26c0.8-0.1,1.6-0.1,2.4-0.1s1.6,0.1,2.4,0.1c38.5,2.4,83.1,9.9,138.5,26
		c85.1,24.7,62.7,15.8,113.4,9.7c57.4-6.9,20.4,53.3,66.6,49.4c43.4-3.6,64.4,9.6,60.9,45.3c-3,31.1-38.2,25.8-40.9,44.4
		c-4.2,29.6,36.1,36,50.7,53.6C808.7,477.8,809.3,510.8,790.5,534.3z"/>
	<g>
		<g id="XMLID_1454_">
			<g id="XMLID_1480_">
				<path id="XMLID_1481_" class="st1" d="M7.7,457.4c-5.4,3.1-5.4,8.2-0.1,11.3c5.4,3.1,14.1,3.1,19.5,0s5.4-8.2,0.1-11.3
					C21.8,454.3,13.1,454.3,7.7,457.4z"/>
			</g>
			<g id="XMLID_1455_">
				<g id="XMLID_1472_">
					<g id="XMLID_1473_" class="st2">
						<g id="XMLID_1478_">
							<polygon id="XMLID_1479_" class="st3" points="20.4,438 20.4,465 17.3,466.7 17.4,439.8 							"/>
						</g>
						<g id="XMLID_1476_">
							<polygon id="XMLID_1477_" class="st3" points="17.4,439.8 17.3,466.7 14.2,465 14.3,438 							"/>
						</g>
						<g id="XMLID_1474_">
							<polygon id="XMLID_1475_" class="st4" points="20.4,438 17.4,439.8 14.3,438 17.4,436.3 							"/>
						</g>
					</g>
				</g>
				<g id="XMLID_1456_">
					<g id="XMLID_1469_">
						<polygon id="XMLID_1471_" class="st3" points="17.3,423.2 17.3,457.2 30.3,452.2 						"/>
						<polygon id="XMLID_1470_" class="st5" points="17.3,423.2 17.3,457.2 4.3,452.2 						"/>
					</g>
					<polygon id="XMLID_1468_" class="st6" points="27.4,445.7 17.3,451.5 6.2,448.2 9,442 					"/>
					<g id="XMLID_1465_">
						<polygon id="XMLID_1467_" class="st3" points="17.3,407.2 17.3,449.5 33.5,443.4 						"/>
						<polygon id="XMLID_1466_" class="st5" points="17.3,407.2 17.3,449.5 1.1,443.4 						"/>
					</g>
					<polygon id="XMLID_1464_" class="st6" points="26.1,426.8 17.3,430.2 8.6,426.8 7.6,429 17.3,433.1 					"/>
					<g id="XMLID_1461_">
						<polygon id="XMLID_1463_" class="st3" points="17.3,396.3 17.3,430.2 30.3,425.3 						"/>
						<polygon id="XMLID_1462_" class="st5" points="17.3,396.3 17.3,430.2 4.3,425.3 						"/>
					</g>
					<polygon id="XMLID_1460_" class="st6" points="23.5,410 17.3,414.3 10.2,412.1 13,405.9 					"/>
					<g id="XMLID_1457_">
						<polygon id="XMLID_1459_" class="st3" points="17.3,392.2 17.3,412.3 25,409.4 						"/>
						<polygon id="XMLID_1458_" class="st5" points="17.3,392.2 17.3,412.3 9.6,409.4 						"/>
					</g>
				</g>
			</g>
		</g>
	</g>
	<g>
		<g id="XMLID_33_">
			<g id="XMLID_59_">
				<path id="XMLID_60_" class="st1" d="M749.4,425.7c-5.4,3.1-5.4,8.2-0.1,11.3c5.4,3.1,14.1,3.1,19.5,0s5.4-8.2,0.1-11.3
					C763.5,422.5,754.7,422.5,749.4,425.7z"/>
			</g>
			<g id="XMLID_34_">
				<g id="XMLID_51_">
					<g id="XMLID_52_" class="st2">
						<g id="XMLID_57_">
							<polygon id="XMLID_58_" class="st3" points="762.1,406.3 762,433.2 759,435 759.1,408 							"/>
						</g>
						<g id="XMLID_55_">
							<polygon id="XMLID_56_" class="st3" points="759.1,408 759,435 755.9,433.2 756,406.3 							"/>
						</g>
						<g id="XMLID_53_">
							<polygon id="XMLID_54_" class="st4" points="762.1,406.3 759.1,408 756,406.3 759,404.5 							"/>
						</g>
					</g>
				</g>
				<g id="XMLID_35_">
					<g id="XMLID_48_">
						<polygon id="XMLID_50_" class="st3" points="759,391.5 759,425.4 772,420.5 						"/>
						<polygon id="XMLID_49_" class="st5" points="759,391.5 759,425.4 746,420.5 						"/>
					</g>
					<polygon id="XMLID_47_" class="st6" points="769.1,414 759,419.7 747.9,416.4 750.6,410.2 					"/>
					<g id="XMLID_44_">
						<polygon id="XMLID_46_" class="st3" points="759,375.5 759,417.8 775.2,411.6 						"/>
						<polygon id="XMLID_45_" class="st5" points="759,375.5 759,417.8 742.8,411.6 						"/>
					</g>
					<polygon id="XMLID_43_" class="st6" points="767.8,395.1 759,398.4 750.2,395.1 749.2,397.3 759,401.4 					"/>
					<g id="XMLID_40_">
						<polygon id="XMLID_42_" class="st3" points="759,364.5 759,398.4 772,393.5 						"/>
						<polygon id="XMLID_41_" class="st5" points="759,364.5 759,398.4 746,393.5 						"/>
					</g>
					<polygon id="XMLID_39_" class="st6" points="765.2,378.2 759,382.5 751.9,380.4 754.7,374.2 					"/>
					<g id="XMLID_36_">
						<polygon id="XMLID_38_" class="st3" points="759,360.4 759,380.5 766.7,377.6 						"/>
						<polygon id="XMLID_37_" class="st5" points="759,360.4 759,380.5 751.3,377.6 						"/>
					</g>
				</g>
			</g>
		</g>
	</g>
	<g>
		<g id="XMLID_1402_">
			<g id="XMLID_1403_">
				<g id="XMLID_1404_" class="st2">
					<g id="XMLID_1409_">
						<polygon id="XMLID_1410_" class="st7" points="791.5,534.8 791.5,539 768.2,552.5 768.2,548.3 						"/>
					</g>
					<g id="XMLID_1407_">
						<polygon id="XMLID_1408_" class="st3" points="768.2,548.3 768.2,552.5 744.8,539 744.8,534.8 						"/>
					</g>
					<g id="XMLID_1405_">
						<polygon id="XMLID_1406_" class="st1" points="791.5,534.8 768.2,548.3 744.8,534.8 768.1,521.3 						"/>
					</g>
				</g>
			</g>
		</g>
		<g id="XMLID_1399_">
			<polygon id="XMLID_1401_" class="st7" points="768.8,506.3 768.8,541.7 781.4,534.5 			"/>
			<polygon id="XMLID_1400_" class="st3" points="768.8,506.3 768.8,541.7 756.1,534.5 			"/>
		</g>
	</g>
	<g>
		<g id="XMLID_24_">
			<g id="XMLID_25_">
				<g id="XMLID_26_" class="st2">
					<g id="XMLID_31_">
						<polygon id="XMLID_32_" class="st7" points="261,663.9 261,666.3 247.5,674.2 247.5,671.8 						"/>
					</g>
					<g id="XMLID_29_">
						<polygon id="XMLID_30_" class="st3" points="247.5,671.8 247.5,674.2 233.9,666.3 233.9,663.9 						"/>
					</g>
					<g id="XMLID_27_">
						<polygon id="XMLID_28_" class="st1" points="261,663.9 247.5,671.8 233.9,663.9 247.4,656.1 						"/>
					</g>
				</g>
			</g>
		</g>
		<g id="XMLID_21_">
			<polygon id="XMLID_23_" class="st7" points="247.8,647.3 247.8,667.9 255.1,663.7 			"/>
			<polygon id="XMLID_22_" class="st3" points="247.8,647.3 247.8,667.9 240.4,663.7 			"/>
		</g>
	</g>
	<g>
		<g id="XMLID_1390_">
			<g id="XMLID_1391_">
				<g id="XMLID_1392_" class="st2">
					<g id="XMLID_1397_">
						<polygon id="XMLID_1398_" class="st7" points="624.3,273.3 624.3,275.8 610.3,283.9 610.3,281.4 						"/>
					</g>
					<g id="XMLID_1395_">
						<polygon id="XMLID_1396_" class="st3" points="610.3,281.4 610.3,283.9 596.2,275.8 596.2,273.3 						"/>
					</g>
					<g id="XMLID_1393_">
						<polygon id="XMLID_1394_" class="st1" points="624.3,273.3 610.3,281.4 596.2,273.3 610.2,265.1 						"/>
					</g>
				</g>
			</g>
		</g>
		<g id="XMLID_1387_">
			<polygon id="XMLID_1389_" class="st7" points="610.6,256 610.6,277.4 618.2,273.1 			"/>
			<polygon id="XMLID_1388_" class="st3" points="610.6,256 610.6,277.4 603,273 			"/>
		</g>
		<g>
			<g id="XMLID_1273_">
				<g id="XMLID_1274_">
					<g id="XMLID_1378_">
						<g id="XMLID_1379_">
							<g id="XMLID_1380_" class="st2">
								<g id="XMLID_1385_">
									<polygon id="XMLID_1386_" class="st7" points="596.2,217 596.1,275.5 583.9,282.6 584,224.1 									"/>
								</g>
								<g id="XMLID_1383_">
									<polygon id="XMLID_1384_" class="st3" points="584,224.1 583.9,282.6 571.6,275.5 571.7,217 									"/>
								</g>
								<g id="XMLID_1381_">
									<polygon id="XMLID_1382_" class="st8" points="596.2,217 584,224.1 571.7,217 583.9,209.9 									"/>
								</g>
							</g>
						</g>
					</g>
					<g id="XMLID_1361_">
						<g id="XMLID_1370_">
							<g id="XMLID_1371_" class="st2">
								<g id="XMLID_1376_">
									<polygon id="XMLID_1377_" class="st3" points="576.5,213.3 576.5,217.5 583.9,221.8 583.9,217.7 									"/>
								</g>
								<g id="XMLID_1374_">
									<polygon id="XMLID_1375_" class="st7" points="583.9,217.7 583.9,221.8 591.4,217.5 591.4,213.3 									"/>
								</g>
								<g id="XMLID_1372_">
									<polygon id="XMLID_1373_" class="st8" points="576.5,213.3 583.9,217.7 591.4,213.3 584,209 									"/>
								</g>
							</g>
						</g>
						<g id="XMLID_1362_">
							<g id="XMLID_1363_" class="st2">
								<g id="XMLID_1368_">
									<polygon id="XMLID_1369_" class="st3" points="582.1,190 582.1,213.5 583.9,214.5 583.9,191.1 									"/>
								</g>
								<g id="XMLID_1366_">
									<polygon id="XMLID_1367_" class="st7" points="583.9,191.1 583.9,214.5 585.8,213.5 585.8,190 									"/>
								</g>
								<g id="XMLID_1364_">
									<polygon id="XMLID_1365_" class="st1" points="582.1,190 583.9,191.1 585.8,190 584,189 									"/>
								</g>
							</g>
						</g>
					</g>
				</g>
			</g>
			<g id="XMLID_1247_">
				<g id="XMLID_1256_">
					<g id="XMLID_1265_">
						<g id="XMLID_1266_" class="st2">
							<g id="XMLID_1271_">
								<polygon id="XMLID_1272_" class="st7" points="583,274 583,277.9 566,287.8 566.1,283.8 								"/>
							</g>
							<g id="XMLID_1269_">
								<polygon id="XMLID_1270_" class="st3" points="566.1,283.8 566,287.8 554.2,281 554.2,277 								"/>
							</g>
							<g id="XMLID_1267_">
								<polygon id="XMLID_1268_" class="st8" points="583,274 566.1,283.8 554.2,277 571.2,267.1 								"/>
							</g>
						</g>
					</g>
					<g id="XMLID_1257_">
						<g id="XMLID_1258_" class="st2">
							<g id="XMLID_1263_">
								<polygon id="XMLID_1264_" class="st7" points="580,262.2 580,274.6 566.6,282.5 566.6,270 								"/>
							</g>
							<g id="XMLID_1261_">
								<polygon id="XMLID_1262_" class="st3" points="566.6,270 566.6,282.5 557.2,277 557.2,264.6 								"/>
							</g>
							<g id="XMLID_1259_">
								<polygon id="XMLID_1260_" class="st1" points="580,262.2 566.6,270 557.2,264.6 570.6,256.7 								"/>
							</g>
						</g>
					</g>
				</g>
				<g id="XMLID_1248_">
					<g id="XMLID_1249_" class="st2">
						<g id="XMLID_1254_">
							<polygon id="XMLID_1255_" class="st9" points="576.3,259.7 576.3,262.1 572.4,264.4 572.4,262 							"/>
						</g>
						<g id="XMLID_1252_">
							<polygon id="XMLID_1253_" class="st3" points="572.4,262 572.4,264.4 568.4,262.1 568.4,259.7 							"/>
						</g>
						<g id="XMLID_1250_">
							<polygon id="XMLID_1251_" class="st1" points="576.3,259.7 572.4,262 568.4,259.7 572.4,257.4 							"/>
						</g>
					</g>
				</g>
			</g>
		</g>
	</g>
	<g>
		<g id="XMLID_88_">
			<g id="XMLID_89_">
				<g id="XMLID_90_" class="st2">
					<g id="XMLID_95_">
						<polygon id="XMLID_96_" class="st7" points="236.7,271.5 236.7,275.6 213.4,289.2 213.4,285 						"/>
					</g>
					<g id="XMLID_93_">
						<polygon id="XMLID_94_" class="st3" points="213.4,285 213.4,289.2 189.9,275.6 189.9,271.5 						"/>
					</g>
					<g id="XMLID_91_">
						<polygon id="XMLID_92_" class="st1" points="236.7,271.5 213.4,285 189.9,271.5 213.2,257.9 						"/>
					</g>
				</g>
			</g>
		</g>
		<g id="XMLID_85_">
			<polygon id="XMLID_87_" class="st7" points="213.9,242.9 213.9,278.4 226.6,271.1 			"/>
			<polygon id="XMLID_86_" class="st3" points="213.9,242.9 213.9,278.4 201.3,271.1 			"/>
		</g>
	</g>
</g>
<path class="st0" d="M403.8,239.8v0.3c-0.8,0-1.6-0.1-2.4-0.1C402.2,239.9,403,239.9,403.8,239.8z"/>
<path class="st10" d="M766.3,477"/>
<g>
	<path class="st11" d="M408.2,77.9c0,3.5-2.8,4.7-6.3,2.7c-0.6-0.4-1.3-0.8-1.8-1.4c-1,0.1-2.2-0.2-3.5-1c-3.5-2-6.3-6.5-6.3-10
		s2.8-4.7,6.3-2.7c0.6,0.4,1.3,0.8,1.8,1.4c1-0.1,2.2,0.2,3.5,1C405.3,70,408.2,74.4,408.2,77.9z"/>
	<path class="st11" d="M393.9,66.5l-4.9,2.3c0,0,0.9-2.8,3.2-4L393.9,66.5z"/>
	<path class="st11" d="M408.1,78.6c0,0-1,3.5-2.6,4.8c-1.7,1.4-2-2-2-2l1.5-2L408.1,78.6z"/>
	<path class="st12" d="M406.2,81c0,3.5-2.8,4.7-6.3,2.7c-0.6-0.4-1.3-0.8-1.8-1.4c-1,0.1-2.2-0.2-3.5-1c-3.5-2-6.3-6.5-6.3-10
		s2.8-4.7,6.3-2.7c0.6,0.4,1.3,0.8,1.8,1.4c1-0.1,2.2,0.2,3.5,1C403.3,73.1,406.2,77.6,406.2,81z"/>
	<g>
		<g>
			<polygon class="st13" points="398.2,62.6 398.3,68.6 397.3,69.2 397.3,63.2 			"/>
		</g>
		<g>
			<polygon class="st14" points="397.3,63.2 397.3,69.2 396.3,68.6 396.3,62.6 			"/>
		</g>
		<g>
			<polygon class="st15" points="398.2,62.6 397.3,63.2 396.3,62.6 397.3,62 			"/>
		</g>
	</g>
	<path class="st16" d="M398.2,64.2c0,0,5.3-1.2,11.6,6.8l-0.6,0.6l-11.8-6.8L398.2,64.2z"/>
	<path class="st17" d="M397.4,64.8c0,0,5.6-1.2,11.8,6.8C409.2,71.6,404.1,73,397.4,64.8z"/>
</g>
<g>
	<path class="st11" d="M447.4,141.4c1.3-0.7,2.5-1,3.5-1c0.6-0.6,1.2-1,1.8-1.4c3.5-2,6.3-0.8,6.3,2.7s-2.8,8-6.3,10
		c-1.3,0.7-2.5,1-3.5,1c-0.6,0.6-1.2,1-1.8,1.4c-3.5,2-6.3,0.8-6.3-2.7S443.9,143.5,447.4,141.4z"/>
	<path class="st11" d="M457,138.3c2.3,1.2,3.2,4,3.2,4l-4.9-2.3L457,138.3z"/>
	<path class="st11" d="M444.3,152.9l1.5,2c0,0-0.3,3.4-2,2c-1.6-1.3-2.6-4.8-2.6-4.8L444.3,152.9z"/>
	<path class="st12" d="M449.4,144.6c1.3-0.7,2.5-1,3.5-1c0.6-0.6,1.2-1,1.8-1.4c3.5-2,6.3-0.8,6.3,2.7s-2.8,8-6.3,10
		c-1.3,0.7-2.5,1-3.5,1c-0.6,0.6-1.2,1-1.8,1.4c-3.5,2-6.3,0.8-6.3-2.7S445.9,146.6,449.4,144.6z"/>
	<g>
		<g>
			<polygon class="st13" points="452,136.7 452,142.7 450.9,142.1 451,136.1 			"/>
		</g>
		<g>
			<polygon class="st14" points="452.9,136.1 452.9,142.1 452,142.7 452,136.7 			"/>
		</g>
		<g>
			<polygon class="st15" points="452,135.5 452.9,136.1 452,136.7 451,136.1 			"/>
		</g>
	</g>
	<path class="st16" d="M451.9,138.3l-11.8,6.8l-0.6-0.6c6.3-8,11.6-6.8,11.6-6.8L451.9,138.3z"/>
	<path class="st17" d="M440.1,145.1c6.2-8,11.8-6.8,11.8-6.8C445.1,146.5,440.1,145.1,440.1,145.1z"/>
</g>
<line class="st18" x1="276" y1="301.9" x2="275.5" y2="302.6"/>
<g>
	<ellipse class="st7" cx="693.4" cy="350.2" rx="22.9" ry="7.3"/>
	<g>
		<path class="st19" d="M715.8,273.9c-0.1-0.2-0.2-0.5-0.4-0.7c0,0,0-0.1-0.1-0.1c-0.2-0.2-0.3-0.4-0.5-0.6l-0.1-0.1
			c-1.3-1.3-3.4-1.8-5.2-1.2c-0.2,0.1-0.4,0.2-0.6,0.3c-2.1,1-3.2,3.3-2.7,5.6c0.3,0.6,0.6,1.3,0.9,1.9l0,0c0.1,0,0.1,0.1,0.1,0.1
			c0.6,0.5,1.2,1,1.8,1.5l0,0c1.9,0.9,4.2,0.6,5.7-1c0.9-0.9,1.4-2.1,1.5-3.3l0,0c0-0.2,0-0.5-0.1-0.5L715.8,273.9z"/>
		<path class="st19" d="M707.2,279c0,0.1,0,0.1,0.1,0.1c0.7,1.4,1.4,2.9,2.1,4.4l0,0c5.3,11.5,11.5,26.5,13.7,25.7
			c2.7-1-3.6-20.2-6.6-33c0,1.2-0.5,2.4-1.5,3.3c-1.6,1.5-3.9,1.9-5.7,1l0,0c-0.6-0.5-1.2-1-1.8-1.5
			C707.3,279.1,707.3,279.1,707.2,279z"/>
		<g>
			<path class="st19" d="M675.3,259.4c-0.1,0-0.1,0-0.2,0c-1.5,0.1-3.2,0.2-4.8,0.2l0,0c-12.7,0.6-28.9,0.7-29,2.9
				c-0.1,2.9,20.1,4.3,33.1,6.3c-1.1-0.5-2-1.4-2.5-2.6c-0.8-2-0.3-4.3,1.2-5.7l0,0c0.7-0.4,1.4-0.8,2-1.1
				C675.2,259.5,675.3,259.5,675.3,259.4z"/>
			<path class="st20" d="M685,295.3c0,0.8,0.5,1.5,1.3,1.5c0.7,0,1.3-0.6,1.3-1.4s-0.5-1.5-1.3-1.5C685.6,293.9,685,294.5,685,295.3
				z"/>
			<path class="st20" d="M684.2,288.2c0,0.8,0.5,1.5,1.3,1.5c0.7,0,1.3-0.6,1.3-1.4s-0.6-1.5-1.3-1.5
				C684.8,286.8,684.2,287.4,684.2,288.2z"/>
			<g>
				<path class="st21" d="M703.3,302c-1.9,0.6-3.9,1-5.9,1.3s-4,0.4-6,0.5c-2,0-4-0.2-6-0.5s-3.9-0.8-5.8-1.4c2,0.4,3.9,0.8,5.9,1.1
					c2,0.2,4,0.4,5.9,0.3c2,0,4-0.1,6-0.3C699.4,302.7,701.4,302.4,703.3,302z"/>
			</g>
			<g>
				<path class="st21" d="M703.3,302c0-0.2,0-0.3,0.1-0.3s0.1,0,0.2,0.2c0,0.2,0,0.3-0.1,0.3C703.5,302.2,703.5,302.2,703.3,302z"/>
			</g>
			<path class="st20" d="M678.8,258.8"/>
			<path class="st21" d="M684.2,288.2c0,0.8,0.5,1.5,1.3,1.5c0.7,0,1.3-0.6,1.3-1.4s-0.6-1.5-1.3-1.5
				C684.8,286.8,684.2,287.4,684.2,288.2z"/>
			<path class="st21" d="M685,295.3c0,0.8,0.5,1.5,1.3,1.5c0.7,0,1.3-0.6,1.3-1.4s-0.5-1.5-1.3-1.5C685.6,293.9,685,294.5,685,295.3
				z"/>
			<path class="st22" d="M675.3,300.4c1.8,22.7,4.9,48.7,8.3,48.7c5.2,0,1.3-40.3,6.9-40.3c6.2,0,3.6,40.3,9.3,40.3
				c3.8,0,6.9-26.1,9.7-48.4c-1.2,0.3-3.4,0.8-6.2,1.3l0,0C696.5,303,686,303.7,675.3,300.4L675.3,300.4z"/>
			<path class="st23" d="M673.3,271.2l0.2-1.5c-0.2,3.6-0.1,9.6,0.7,15.4c0.3,4.6,0.6,9.9,1.1,15.2l0,0c10.6,3.3,21.2,2.7,28,1.6
				l0,0c2.8-0.5,5-1,6.2-1.3c1.1-8.6,0-19.3,0-19.3l7.3-5.6c-1-3.8-1.9-6.8-2.5-8.2c-2-4.9-3.3-5.9-4.2-7c-1.1-1.3-4.9-1.7-7.8-1.8
				h-0.5c-0.5,0-1,0-1.4,0h-0.2c-0.7,0-1.2,0-1.2,0l-1.9,1.7l-0.4,0.3l0,0l-6.6,5.7l-7.4-7c0,0-0.2-0.1-0.6-0.2c0,0-0.1,0-0.2,0
				c-0.8-0.2-2-0.4-3.3,0c-0.1,0-0.1,0-0.2,0.1l0.2-0.5c-2.2,0-5.2,0-8.4,0.1l1.1,10.8C672.3,269.9,672.8,271.2,673.3,271.2z"/>
			<path class="st24" d="M686.3,293.9c-0.7,0-1.3,0.6-1.3,1.4s0.5,1.5,1.3,1.5c0.7,0,1.3-0.6,1.3-1.4S687.1,293.9,686.3,293.9z"/>
			<path class="st24" d="M685.5,289.7c0.7,0,1.3-0.6,1.3-1.4s-0.6-1.5-1.3-1.5s-1.3,0.6-1.3,1.4S684.8,289.7,685.5,289.7z"/>
			<g>
				<polygon class="st19" points="680.9,237.7 681.3,239.1 680.4,249.2 682.1,252.1 682.1,256.1 682.1,258.5 682.3,259 683,263.7 
					686,281.1 686,281.2 687.5,278.4 691.5,270.6 696.8,260.5 696.8,260.5 697.6,258.1 698,237.7 				"/>
				<path class="st20" d="M697.7,276.4"/>
				<path class="st20" d="M697.6,258.1"/>
				<path class="st20" d="M683.5,264.9"/>
				<path id="XMLID_1_" class="st10" d="M689.9,225.1c0,0,8.6-2.5,12.9,7.5c4,9.3,4,19.5,2.8,21.8c-1.2,2.4-9,1.4-9,1.4
					s2.4-16,0.3-16.9c-2.1-0.9-14.1-0.5-14.8,0.2c-0.6,0.7-0.6,14.3,1,16.8c0,0-9.8,1.9-10.3-4.2C672.3,245.5,677.5,221,689.9,225.1
					z"/>
				<path class="st1" d="M686.9,279.4c0,0,8.2-7.8,12.4-7.8l-1.2-4.1l4.6-0.9l-0.4-7.8l-4.4-0.4l-6.5,12.2L686.9,279.4z"/>
				<path class="st1" d="M677.9,265.6l2.3,0.8l-0.5,1.9c3.7,1.7,6,11.5,6.3,12.7l-3.7-22.6H679l-3.1,6.4L677.9,265.6z"/>
				<path class="st25" d="M693.4,267.6"/>
				<ellipse class="st21" cx="689.2" cy="251.1" rx="1.6" ry="2"/>
			</g>
			<path class="st26" d="M682.3,259"/>
		</g>
	</g>
</g>
<g>
	<ellipse class="st7" cx="119.1" cy="370.5" rx="18.3" ry="5.8"/>
	<g>
		<path class="st22" d="M113.1,340.9c-1.5-2.6-4.6-3.9-7.6-2.9s-4.6,4.1-4.1,7c0,0.1,0.1,0.2,0.2,0.3c-0.1-0.2-0.2-0.4-0.3-0.6
			c-2.1-3.5-4.2-7.1-6.3-10.5c1.7-4.6,3.6-9.7,4.6-12.3c1.8-0.4,3.7-0.9,5.7-1.8c0.2-0.5,0.3-1.1,0.5-1.6l0.1-0.1
			c0,0,5.2,15.8,7.1,21.8C113,340.5,113,340.7,113.1,340.9z"/>
		<path class="st22" d="M109.9,348.8c-2.4,1.1-5.2,0.6-7-1.2c-0.4-0.7-0.9-1.5-1.3-2.2l0,0c0-0.1-0.1-0.2-0.2-0.3
			c-0.5-3,1.1-6,4.1-7c2.9-1,6.1,0.2,7.6,2.9c0.1,0.4,0.3,0.8,0.4,1.3C113.9,344.8,112.5,347.6,109.9,348.8z"/>
		<path class="st22" d="M99.4,322c-1,2.6-2.8,7.7-4.6,12.3c-1.1,2.9-2.1,5.6-2.8,7.4c-0.2,0.4-0.3,0.9-0.5,1.3
			c0.5-2.6-0.8-5.3-3.3-6.6c-2.8-1.5-6.1-0.6-8,1.8c-0.1,0.3-0.2,0.6-0.4,0.9c0-0.4,0.1-0.8,0.2-1.2c0.8-6.2,1.7-12.6,2.3-18.6
			c0.6,0.3,1.9,1.1,3.9,1.8c2.6,0.9,6.5,1.7,11.2,1.2C98.2,322.2,98.8,322.1,99.4,322z"/>
		<path class="st22" d="M91.6,343L91.6,343c-0.1,0.2-0.1,0.3-0.2,0.4c-1.3,2.4-4.2,3.7-7,3c-2.6-0.6-4.4-2.8-4.8-5.3
			c0.1-0.7,0.2-1.4,0.3-2.1l0,0c0.1-0.3,0.3-0.6,0.4-0.9c1.8-2.4,5.2-3.2,8-1.8C90.8,337.7,92.1,340.4,91.6,343z"/>
		<path class="st27" d="M82.5,301.5"/>
		<path class="st27" d="M78.9,285.2c0.4-4.2,1.7-7.8,3.7-10.2c0.5-0.6,2.6-2.3,3.1-2.5l12.1,7.2l0,0l8.3,5.6v-5.8l1.5-2.8
			c6.5,15,1.3,31-2,41.9c-0.2,0.6-0.3,1.1-0.5,1.6c-2,0.8-3.9,1.4-5.7,1.8c-0.6,0.1-1.3,0.2-1.9,0.3c-4.7,0.6-8.6-0.2-11.2-1.2
			c-2-0.7-3.3-1.5-3.9-1.8c-0.1,0-0.1,0-0.1-0.1c0.3-2.8,0.4-7.3-0.7-13.2l0,0C81.7,306.1,78.2,289.1,78.9,285.2z"/>
		<path class="st22" d="M91.5,342.9L91.5,342.9c-0.2,0.6-0.5,1.1-0.8,1.6c-0.4,0.4-0.9,0.9-1.3,1.4c-8.5,8.8-20.6,22.3-23.3,20.3
			c-2.1-1.6,5.6-14.2,13.4-27c0.4-0.6,0.8-1.3,1.2-1.9l0,0c0.2-0.3,0.4-0.6,0.5-0.9c2.2-2.1,5.7-2.4,8.1-0.5
			C91.6,337.6,92.4,340.4,91.5,342.9z"/>
		<path class="st19" d="M106.1,249.7v22.6l-4.4,2.9l-12.8-5.4v-0.3c3.2,0,5.9-0.4,5.9-0.4c-9.5-14.7,5.4-19.2,5.4-19.2
			c0.4,2.9-2,5-2.3,5.3C98.4,255,103.4,252.6,106.1,249.7z"/>
		<polygon class="st19" points="97.8,279.7 101.7,275.2 106.1,279.5 106.1,285.3 		"/>
		<polygon class="st1" points="108.3,275.4 107.6,276.6 107.6,276.7 106.1,279.5 101.7,275.2 106.1,272.3 		"/>
		<path class="st1" d="M101.7,275.2l-3.9,4.5l0,0l-12.1-7.2l1.4-3.1c0.4,0,0.8,0,1.1,0l0.6,0.3L101.7,275.2z"/>
		<path class="st28" d="M90.5,254.9"/>
		<path class="st10" d="M107.5,247.6c-0.3,0.7-0.8,1.4-1.4,2.1c-2.7,2.9-7.7,5.2-8.1,5.4c0.3-0.2,2.7-2.4,2.3-5.3
			c0,0-15,4.4-5.4,19.2c0,0-2.8,0.5-5.9,0.4c-0.2,0-0.4,0-0.6,0c-0.4,0-0.8,0-1.1,0c-3.9-0.3-7.7-1.5-7.3-5.3
			c1.2-9.9,0.4-9.8,3.6-18.4C88.9,231.2,110.2,240.6,107.5,247.6z"/>
		<path class="st22" d="M118,374.1c-2.5,0.9-8.8-12.5-15.2-26.1c-0.4-0.8-0.8-1.7-1.2-2.6l0,0c0-0.1-0.1-0.2-0.2-0.3
			c-0.5-3,1.1-6,4.1-7c2.9-1,6.1,0.2,7.6,2.9c0.1,0.3,0.3,0.5,0.4,0.8c0.1,0.6,0.3,1.2,0.4,1.9C116.5,355.4,121.2,373,118,374.1z"/>
		<g>
			<path d="M99.5,266.5c1.1,0.4,2.2,0.8,3.3,1.1c0.6,0.1,1.1,0.2,1.7,0.1c0.5-0.1,0.9-0.5,1.1-1.1c0,0.3-0.1,0.6-0.2,0.9
				c-0.2,0.3-0.5,0.5-0.8,0.6c-0.6,0.2-1.3,0.1-1.9,0c-0.6-0.1-1.2-0.4-1.7-0.6C100.5,267.2,100,266.9,99.5,266.5z"/>
		</g>
	</g>
	<g>
		<path class="st7" d="M102.7,306.6c0,0,9.7,9.8,21.1,0l5.3-16.8l-6.7,4.5l-9.2,1.5l-11.2-2.2l-4-3.1l-0.9-0.9L102.7,306.6z"/>
		<path class="st3" d="M100.3,299.4l0.6,1.9c0,0,11.5,10.3,24.4,0.2l1.2-3.7C126.5,297.7,117.3,310.7,100.3,299.4z"/>
		<line class="st29" x1="125.7" y1="293.8" x2="122.1" y2="307.8"/>
		<line class="st29" x1="120.3" y1="298.1" x2="118.7" y2="309.6"/>
		<line class="st29" x1="115.1" y1="298.7" x2="114.7" y2="310.5"/>
		<line class="st29" x1="109.8" y1="298.5" x2="110.4" y2="310.5"/>
		<line class="st29" x1="102.5" y1="295.7" x2="106.2" y2="309.1"/>
		<ellipse class="st3" cx="113.1" cy="288.3" rx="16.2" ry="8.1"/>
		<ellipse class="st1" cx="113.1" cy="288.3" rx="14.1" ry="6.5"/>
	</g>
	<g>
		<path class="st19" d="M92.4,299.4c-0.2-0.6-0.4-1.3-0.6-1.9c-1.1-1.8-3.4-2.6-5.4-2c-0.2,0.1-0.4,0.1-0.6,0.2
			c-1.7,0.8-2.7,2.5-2.7,4.2c0-0.1,0-0.2,0-0.3c-0.5-5.2-0.9-8.2-1.2-9.7h0.7l11.1,0.1C93.4,291.5,92.9,294.4,92.4,299.4z"/>
		<path class="st19" d="M86.7,304.1c-0.2-0.1-0.5-0.1-0.7-0.2h-0.1c-0.2-0.1-0.4-0.2-0.6-0.3c0,0-0.1,0-0.1-0.1
			c-1.4-1-2.3-2.7-2-4.6c0-0.2,0.1-0.4,0.1-0.6c0.6-2.1,2.5-3.5,4.6-3.4c0.6,0.2,1.3,0.3,1.9,0.5l0,0l0.1,0.1
			c0.6,0.5,1.1,0.9,1.6,1.4l0,0c1.1,1.5,1.2,3.7,0.1,5.4c-0.7,1-1.7,1.7-2.8,1.9l0,0c-0.1,0-0.4,0.1-0.4,0L86.7,304.1z"/>
		<path class="st19" d="M89.9,295.4L89.9,295.4c1.5,0.4,2.9,0.7,4.5,1.1l0,0c11.5,2.8,26.2,5.8,25.9,7.9c-0.4,2.7-19.1,0.3-31.2-0.2
			c1.1-0.3,2.1-0.9,2.8-1.9c1.1-1.7,1-3.8-0.1-5.4l0,0c-0.5-0.5-1.1-0.9-1.6-1.4C89.9,295.4,89.9,295.4,89.9,295.4z"/>
		<path class="st27" d="M93.9,283.2c0.4,1.8,0.6,3.8,0.6,5.9c0,0.3,0,0.7,0,1h-0.9L82.5,290h-0.7h-0.9c0-0.3,0-0.7,0-1
			c0-0.6,0-1.3,0.1-1.9c0.4-5.4,2.3-9.9,4.9-11.4c0.6-0.3,1.2-0.5,1.9-0.5c0.1,0,0.3,0,0.4,0C90.8,275.6,92.9,278.7,93.9,283.2z"/>
	</g>
</g>
<path class="st0" d="M50.4,204.4"/>
<g id="XMLID_2_">
	<g id="XMLID_3_" class="st2">
		<g id="XMLID_11_">
			<polygon id="XMLID_12_" class="st3" points="49.2,498.5 49.2,500.7 54.1,503.5 54.1,501.3 			"/>
		</g>
		<g id="XMLID_9_">
			<polygon id="XMLID_10_" class="st7" points="54.1,501.3 54.1,503.5 64.9,497.2 64.9,495 			"/>
		</g>
		<g id="XMLID_6_">
			<polygon id="XMLID_7_" class="st1" points="49.2,498.5 54.1,501.3 64.9,495 60.1,492.2 			"/>
		</g>
	</g>
</g>
<g id="XMLID_13_">
	<g id="XMLID_14_" class="st2">
		<g id="XMLID_19_">
			<polygon id="XMLID_20_" class="st3" points="460,582.5 460,584.4 464.4,587 464.4,585 			"/>
		</g>
		<g id="XMLID_17_">
			<polygon id="XMLID_18_" class="st7" points="464.4,585 464.4,587 474.1,581.3 474.1,579.4 			"/>
		</g>
		<g id="XMLID_15_">
			<polygon id="XMLID_16_" class="st1" points="460,582.5 464.4,585 474.1,579.4 469.8,576.9 			"/>
		</g>
	</g>
</g>
<g id="XMLID_61_">
	<g id="XMLID_62_" class="st2">
		<g id="XMLID_67_">
			<polygon id="XMLID_68_" class="st3" points="685,419.8 685,421.7 689.3,424.2 689.3,422.3 			"/>
		</g>
		<g id="XMLID_65_">
			<polygon id="XMLID_66_" class="st7" points="689.3,422.3 689.3,424.2 699.1,418.6 699.1,416.7 			"/>
		</g>
		<g id="XMLID_63_">
			<polygon id="XMLID_64_" class="st1" points="685,419.8 689.3,422.3 699.1,416.7 694.8,414.1 			"/>
		</g>
	</g>
</g>
<g id="XMLID_69_">
	<g id="XMLID_70_" class="st2">
		<g id="XMLID_75_">
			<polygon id="XMLID_76_" class="st3" points="220.7,351.7 220.7,353.6 225,356.2 225,354.2 			"/>
		</g>
		<g id="XMLID_73_">
			<polygon id="XMLID_74_" class="st7" points="225,354.2 225,356.2 234.8,350.5 234.8,348.6 			"/>
		</g>
		<g id="XMLID_71_">
			<polygon id="XMLID_72_" class="st1" points="220.7,351.7 225,354.2 234.8,348.6 230.4,346.1 			"/>
		</g>
	</g>
</g>
<path class="st0" d="M401.4,240c-0.8,0-1.6,0.1-2.4,0.1v-0.3C399.8,239.9,400.6,239.9,401.4,240z"/>
<g>
	<g>
		<g>
			<polygon class="st1" points="427.5,540.8 219.7,430.9 426.5,319.3 635.3,429.4 			"/>
			<polygon class="st3" points="426.5,565.5 219.7,456.3 219.7,430.9 427.5,540.8 			"/>
			<polygon class="st7" points="426.5,565.5 635.6,454.7 635.3,429.4 427.5,540.8 			"/>
		</g>
	</g>
	<g>
		<g>
			<polygon class="st1" points="427.5,486.4 248.6,391.8 426.7,295.7 606.5,390.5 			"/>
			<polygon class="st3" points="426.7,507.8 248.6,413.7 248.6,391.8 427.5,486.4 			"/>
			<polygon class="st7" points="426.7,507.8 606.8,412.3 606.5,390.5 427.5,486.4 			"/>
		</g>
	</g>
	<g>
		<g>
			<polygon class="st1" points="427.9,435.2 281.4,357.8 427.2,279.1 574.3,356.8 			"/>
			<polygon class="st3" points="427.2,452.7 281.4,375.7 281.4,357.8 427.9,435.2 			"/>
			<polygon class="st7" points="427.2,452.7 574.6,374.5 574.3,356.8 427.9,435.2 			"/>
		</g>
	</g>
	<g>
		<g>
			<polygon class="st1" points="428.1,394.1 306.9,329.9 427.5,264.8 549.3,329.1 			"/>
			<polygon class="st3" points="427.5,408.5 306.9,344.8 306.9,329.9 428.1,394.1 			"/>
			<polygon class="st7" points="427.5,408.5 549.5,343.8 549.3,329.1 428.1,394.1 			"/>
		</g>
	</g>
</g>
<g>
	<g>
		<g>
			<g>
				<g>
					<polygon class="st7" points="497.6,385.9 592,589.6 587.3,586.8 493,383.2 					"/>
				</g>
				<g>
					<polygon class="st3" points="500.3,384.1 594.7,587.8 592,589.6 497.6,385.9 					"/>
				</g>
				<g>
					<polygon class="st1" points="495.7,381.4 500.4,384.1 497.6,385.9 493,383.2 					"/>
				</g>
			</g>
		</g>
		<g>
			<g>
				<polygon class="st30" points="537.1,472.2 537.3,475 517.7,487.6 517.5,484.8 				"/>
			</g>
			<g>
				<polygon class="st5" points="533.9,470.8 537.2,472.2 517.6,484.8 514.3,483.4 				"/>
			</g>
		</g>
		<g>
			<g>
				<polygon class="st30" points="527.6,448.2 527.7,450.9 508.1,463.6 507.9,460.9 				"/>
			</g>
			<g>
				<polygon class="st5" points="524.3,446.7 527.6,448.2 508,460.9 504.7,459.3 				"/>
			</g>
		</g>
		<g>
			<g>
				<polygon class="st30" points="517,424.1 517.1,426.8 497.5,439.4 497.4,436.7 				"/>
			</g>
			<g>
				<polygon class="st5" points="513.7,422.7 517,424.1 497.4,436.7 494.1,435.3 				"/>
			</g>
		</g>
		<g>
			<g>
				<polygon class="st30" points="505.5,399.9 505.7,402.7 486.1,415.3 485.9,412.5 				"/>
			</g>
			<g>
				<polygon class="st5" points="502.2,398.5 505.5,399.9 486,412.5 482.6,411.1 				"/>
			</g>
		</g>
		<g>
			<g>
				<polygon class="st30" points="550.7,499.4 550.8,502.1 531.1,514.8 531.1,512 				"/>
			</g>
			<g>
				<polygon class="st5" points="547.3,497.9 550.7,499.4 531.1,512 527.7,510.6 				"/>
			</g>
		</g>
		<g>
			<g>
				<polygon class="st30" points="562.1,525.3 562.2,528 542.6,540.6 542.5,537.9 				"/>
			</g>
			<g>
				<polygon class="st5" points="558.8,523.8 562.1,525.3 542.5,537.9 539.2,536.4 				"/>
			</g>
		</g>
		<g>
			<g>
				<polygon class="st30" points="572,547 572.1,549.7 552.6,562.3 552.4,559.7 				"/>
			</g>
			<g>
				<polygon class="st5" points="568.7,545.5 572,547 552.4,559.7 549.1,558.1 				"/>
			</g>
		</g>
		<g>
			<g>
				<polygon class="st30" points="583.5,568.4 583.6,571.1 564,583.7 563.9,581 				"/>
			</g>
			<g>
				<polygon class="st5" points="580.2,566.9 583.5,568.4 563.9,581 560.6,579.5 				"/>
			</g>
		</g>
	</g>
	<g>
		<g>
			<polygon class="st7" points="476.1,395.4 571.6,600.7 567,597.9 471.5,392.7 			"/>
		</g>
		<g>
			<polygon class="st3" points="478.9,393.6 574.3,598.9 571.6,600.7 476.1,395.4 			"/>
		</g>
		<g>
			<polygon class="st1" points="474.2,390.9 478.9,393.6 476.1,395.4 471.6,392.7 			"/>
		</g>
	</g>
</g>
<g>
	<g>
		<g>
			<g>
				<g>
					<polygon class="st7" points="336.1,370 241.7,573.7 237.1,576.4 331.4,372.8 					"/>
				</g>
				<g>
					<polygon class="st3" points="331.4,372.8 237.1,576.4 234.4,574.6 328.8,371 					"/>
				</g>
				<g>
					<polygon class="st1" points="336.1,370 331.4,372.8 328.7,371 333.3,368.2 					"/>
				</g>
			</g>
		</g>
		<g>
			<g>
				<polygon class="st30" points="311.5,471.6 311.4,474.4 291.8,461.8 291.9,459 				"/>
			</g>
			<g>
				<polygon class="st5" points="314.8,470.2 311.5,471.6 291.8,459 295.2,457.6 				"/>
			</g>
		</g>
		<g>
			<g>
				<polygon class="st30" points="321.1,447.7 320.9,450.4 301.3,437.7 301.5,435 				"/>
			</g>
			<g>
				<polygon class="st5" points="324.3,446.2 321,447.7 301.4,435 304.7,433.6 				"/>
			</g>
		</g>
		<g>
			<g>
				<polygon class="st30" points="331.6,423.5 331.5,426.3 311.9,413.7 312,410.9 				"/>
			</g>
			<g>
				<polygon class="st5" points="334.9,422.1 331.6,423.5 312,410.9 315.3,409.5 				"/>
			</g>
		</g>
		<g>
			<g>
				<polygon class="st30" points="343.2,399.4 343,402.1 323.4,389.5 323.6,386.8 				"/>
			</g>
			<g>
				<polygon class="st5" points="346.5,398 343.1,399.4 323.6,386.8 326.9,385.4 				"/>
			</g>
		</g>
		<g>
			<g>
				<polygon class="st30" points="298,498.8 297.9,501.6 278.3,488.9 278.4,486.2 				"/>
			</g>
			<g>
				<polygon class="st5" points="301.3,497.4 298,498.8 278.4,486.2 281.7,484.7 				"/>
			</g>
		</g>
		<g>
			<g>
				<polygon class="st30" points="286.5,524.7 286.4,527.4 266.8,514.8 266.9,512.1 				"/>
			</g>
			<g>
				<polygon class="st5" points="289.9,523.3 286.5,524.7 266.9,512.1 270.3,510.6 				"/>
			</g>
		</g>
		<g>
			<g>
				<polygon class="st30" points="276.7,546.5 276.5,549.1 257,536.5 257.1,533.8 				"/>
			</g>
			<g>
				<polygon class="st5" points="280,545 276.7,546.5 257.1,533.8 260.4,532.4 				"/>
			</g>
		</g>
		<g>
			<g>
				<polygon class="st30" points="265.1,567.8 265,570.5 245.4,557.9 245.5,555.2 				"/>
			</g>
			<g>
				<polygon class="st5" points="268.5,566.4 265.1,567.8 245.5,555.2 248.8,553.8 				"/>
			</g>
		</g>
	</g>
	<g>
		<g>
			<polygon class="st7" points="357.6,379.5 262.1,584.7 257.5,587.5 352.9,382.2 			"/>
		</g>
		<g>
			<polygon class="st3" points="352.9,382.2 257.5,587.5 254.7,585.7 350.2,380.4 			"/>
		</g>
		<g>
			<polygon class="st1" points="357.5,379.6 352.9,382.2 350.2,380.4 354.8,377.7 			"/>
		</g>
	</g>
</g>
<g>
	<g>
		<polygon class="st3" points="381,558.2 335.5,529.9 335.5,556.2 380.4,582.9 		"/>
		<polygon class="st31" points="358.5,517.3 335.5,529.9 381,558.2 403,543.3 		"/>
		<polygon class="st1" points="358.2,521 341.5,531.1 380.4,554.1 396.7,543.3 		"/>
		<polygon class="st7" points="403,543.3 381,558.2 380.4,582.9 403.3,569.6 		"/>
		<g>
			<g>
				<path class="st11" d="M394.8,544.9l-2.2,1.4l-3.7,2.4c-0.7,0-1.7-0.1-2.7-0.7c-2.7-1.6-5-5-5-7.8l0,0c0-0.1,0-0.1,0-0.1
					c0-0.1,0-0.4,0-0.6l0,0v-0.1c0.1-0.4,0.3-0.7,0.4-1l0,0c0.1-0.1,0.3-0.3,0.4-0.4c0.1-0.1,0.4-0.3,0.6-0.3l0,0
					c0.9-0.3,2-0.1,3.3,0.4c0,0,0.1,0,0.1,0.1c0.1,0.1,0.4,0.3,0.6,0.4l0,0c0.3,0.1,0.6,0.4,0.7,0.6l0,0c0.3,0,0.6,0,0.9,0
					c0.6,0.1,1.1,0.3,1.9,0.7c0.3,0.1,0.4,0.3,0.7,0.4c0.1,0.1,0.3,0.1,0.3,0.3l0,0c0,0,0,0,0.1,0.1c0.6,0.4,1.1,1,1.7,1.6
					c0.1,0.1,0.3,0.4,0.4,0.6C394.1,543.4,394.4,544.2,394.8,544.9L394.8,544.9z"/>
				<path class="st11" d="M384,538.9l-3.9,1.9c0,0,0.7-2.2,2.4-3.2L384,538.9z"/>
				<path class="st12" d="M392.7,546.3l-3.7,2.4l-3.3,2.2c-0.3-0.1-0.6-0.3-0.9-0.4c-2-1.1-3.9-3.4-4.6-5.6
					c-0.3-0.7-0.4-1.4-0.4-2.2v-0.1c0-0.9,0.3-1.4,0.6-1.9c0.3-0.3,0.6-0.6,0.9-0.7c0.3-0.1,0.4-0.1,0.7-0.1c0.7,0,1.7,0.1,2.6,0.7
					c0.6,0.3,1,0.6,1.4,1c0.7-0.1,1.7,0.1,2.7,0.7C390.4,543.2,391.8,544.6,392.7,546.3z"/>
				<g>
					<g>
						<polygon class="st13" points="387.5,535.7 387.6,540.4 386.8,540.9 386.8,536.1 						"/>
					</g>
					<g>
						<polygon class="st14" points="386.8,536.1 386.8,540.9 386.1,540.4 385.9,535.7 						"/>
					</g>
					<g>
						<polygon class="st15" points="387.5,535.7 386.8,536.1 385.9,535.7 386.8,535.3 						"/>
					</g>
				</g>
			</g>
			<g>
				<path class="st11" d="M382.2,538.7c0,2.7-2.2,3.7-4.9,2.2c-0.6-0.3-1-0.6-1.4-1c-0.7,0.1-1.7-0.1-2.7-0.7c-2.7-1.6-5-5-5-7.8
					s2.2-3.7,4.9-2.2c0.6,0.3,1,0.6,1.4,1c0.7-0.1,1.7,0.1,2.7,0.7C379.9,532.5,382.2,536,382.2,538.7z"/>
				<path class="st11" d="M370.8,529.9l-3.9,1.9c0,0,0.7-2.2,2.4-3.2L370.8,529.9z"/>
				<path class="st11" d="M382.2,539.3c0,0-0.7,2.7-2,3.9s-1.6-1.6-1.6-1.6l1.1-1.6L382.2,539.3z"/>
				<path class="st12" d="M380.6,541.1c0,0.1,0,0.1,0,0.3l0,0c0,0.7-0.1,1.3-0.6,1.7l0,0c-0.1,0.3-0.4,0.6-0.9,0.7l-12.1-7
					c-0.4-1-0.7-2-0.7-3c0-0.9,0.1-1.6,0.6-2l0,0l0,0c0.3-0.3,0.6-0.6,0.9-0.7c0.3-0.1,0.4-0.1,0.7-0.1c0.7,0,1.7,0.1,2.6,0.7
					c0.6,0.3,1,0.6,1.4,1c0.7-0.1,1.7,0.1,2.7,0.7c2.3,1.3,4.3,3.9,4.9,6.3C380.6,540.3,380.6,540.7,380.6,541.1z"/>
				<g>
					<g>
						<polygon class="st13" points="374.3,526.8 374.3,531.5 373.6,532 373.4,527.2 						"/>
					</g>
					<g>
						<polygon class="st14" points="373.4,527.2 373.6,532 372.7,531.5 372.7,526.8 						"/>
					</g>
					<g>
						<polygon class="st15" points="374.3,526.8 373.4,527.2 372.7,526.8 373.4,526.4 						"/>
					</g>
				</g>
			</g>
			<g>
				<path class="st11" d="M369.4,532.1c0,2.7-2.2,3.7-4.9,2.2c-0.6-0.3-1-0.6-1.4-1c-0.7,0.1-1.7-0.1-2.7-0.7c-2.7-1.6-5-5-5-7.8
					s2.2-3.7,4.9-2.2c0.6,0.3,1,0.6,1.4,1c0.7-0.1,1.7,0.1,2.7,0.7C367.1,525.8,369.2,529.2,369.4,532.1z"/>
				<path class="st11" d="M358,523.2l-3.9,1.9c0,0,0.7-2.2,2.4-3.2L358,523.2z"/>
				<path class="st11" d="M369.4,532.7c0,0-0.7,2.7-2,3.9s-1.6-1.6-1.6-1.6l1.1-1.6L369.4,532.7z"/>
				<path class="st12" d="M367.8,534.5c0,0.1,0,0.1,0,0.3l0,0c0,0.7-0.1,1.3-0.6,1.7l0,0c-0.1,0.3-0.4,0.6-0.9,0.7l-12.1-7
					c-0.4-1-0.7-2-0.7-3c0-0.9,0.1-1.6,0.6-2l0,0l0,0c0.3-0.3,0.6-0.6,0.9-0.7c0.3-0.1,0.4-0.1,0.7-0.1c0.7,0,1.7,0.1,2.6,0.7
					c0.6,0.3,1,0.6,1.4,1c0.7-0.1,1.7,0.1,2.7,0.7c2.3,1.3,4.3,3.9,4.9,6.3C367.8,533.5,367.8,534.1,367.8,534.5z"/>
				<g>
					<g>
						<polygon class="st13" points="361.5,520 361.5,524.8 360.8,525.4 360.6,520.6 						"/>
					</g>
					<g>
						<polygon class="st14" points="360.6,520.6 360.8,525.4 359.9,524.9 359.9,520.2 						"/>
					</g>
					<g>
						<polygon class="st15" points="361.5,520 360.6,520.6 359.9,520.2 360.6,519.6 						"/>
					</g>
				</g>
				<path class="st16" d="M361.5,521.3c0,0,4.2-1,9.2,5.3l-0.4,0.4l-9.3-5.2L361.5,521.3z"/>
				<path class="st17" d="M360.8,521.8c0,0,4.3-1,9.3,5.2C370.1,527.1,366.1,528.2,360.8,521.8z"/>
			</g>
			<g>
				<path class="st11" d="M382.6,548.5c0,2.7-2.2,3.7-4.9,2.2c-0.6-0.3-1-0.6-1.4-1c-0.7,0.1-1.7-0.1-2.7-0.7c-2.7-1.6-5-5-5-7.8
					s2.2-3.7,4.9-2.2c0.6,0.3,1,0.6,1.4,1c0.7-0.1,1.7,0.1,2.7,0.7C380.3,542.3,382.6,545.7,382.6,548.5z"/>
				<path class="st11" d="M371.3,539.7l-3.9,1.9c0,0,0.7-2.2,2.4-3.2L371.3,539.7z"/>
				<path class="st11" d="M382.6,549c0,0-0.7,2.7-2,3.9c-1.3,1.1-1.6-1.6-1.6-1.6l1.1-1.6L382.6,549z"/>
				<path class="st12" d="M381,550.9c0,0.1,0,0.1,0,0.3l0,0c0,0.7-0.1,1.3-0.6,1.7l0,0c-0.1,0.3-0.4,0.6-0.9,0.7l-12.1-7
					c-0.4-1-0.7-2-0.7-3c0-0.9,0.1-1.6,0.6-2l0,0l0,0c0.3-0.3,0.6-0.6,0.9-0.7c0.3-0.1,0.4-0.1,0.7-0.1c0.7,0,1.7,0.1,2.6,0.7
					c0.6,0.3,1,0.6,1.4,1c0.7-0.1,1.7,0.1,2.7,0.7c2.3,1.3,4.3,3.9,4.9,6.3C381,550.1,381,550.5,381,550.9z"/>
				<g>
					<g>
						<polygon class="st13" points="374.7,536.6 374.7,541.3 374,541.7 374,537 						"/>
					</g>
					<g>
						<polygon class="st14" points="374,537 374,541.7 373.3,541.3 373.1,536.6 						"/>
					</g>
					<g>
						<polygon class="st15" points="374.7,536.6 374,537 373.1,536.6 373.8,536.1 						"/>
					</g>
				</g>
				<path class="st16" d="M374.7,537.8c0,0,4.2-1,9.2,5.3l-0.4,0.4l-9.3-5.2L374.7,537.8z"/>
				<path class="st17" d="M374,538.3c0,0,4.3-1,9.3,5.2C383.5,543.4,379.4,544.6,374,538.3z"/>
			</g>
			<g>
				<path class="st11" d="M372,542c0,2.7-2.2,3.7-4.9,2.2c-0.6-0.3-1-0.6-1.4-1c-0.7,0.1-1.7-0.1-2.7-0.7c-2.7-1.6-5-5-5-7.8
					s2.2-3.7,4.9-2.2c0.6,0.3,1,0.6,1.4,1c0.7-0.1,1.7,0.1,2.7,0.7C369.5,535.8,371.8,539.3,372,542z"/>
				<path class="st11" d="M360.6,533.3l-3.9,1.9c0,0,0.7-2.2,2.4-3.2L360.6,533.3z"/>
				<path class="st11" d="M371.8,542.6c0,0-0.7,2.7-2,3.9c-1.3,1.1-1.6-1.6-1.6-1.6l1.1-1.6L371.8,542.6z"/>
				<path class="st12" d="M370.4,544.5c0,0.1,0,0.1,0,0.3l0,0c0,0.7-0.1,1.3-0.6,1.7l0,0c-0.1,0.3-0.4,0.6-0.9,0.7l-12.1-7
					c-0.4-1-0.7-2-0.7-3c0-0.9,0.1-1.6,0.6-2l0,0l0,0c0.3-0.3,0.6-0.6,0.9-0.7c0.3-0.1,0.4-0.1,0.7-0.1c0.7,0,1.7,0.1,2.6,0.7
					c0.6,0.3,1,0.6,1.4,1c0.7-0.1,1.7,0.1,2.7,0.7c2.3,1.3,4.3,3.9,4.9,6.3C370.3,543.6,370.4,544,370.4,544.5z"/>
				<g>
					<g>
						<polygon class="st13" points="363.9,530.1 364.1,534.8 363.2,535.3 363.2,530.5 						"/>
					</g>
					<g>
						<polygon class="st14" points="363.2,530.5 363.2,535.3 362.5,534.8 362.5,530.1 						"/>
					</g>
					<g>
						<polygon class="st15" points="363.9,530.1 363.2,530.5 362.5,530.1 363.2,529.7 						"/>
					</g>
				</g>
				<path class="st16" d="M363.9,531.4c0,0,4.2-1,9.2,5.3l-0.4,0.4l-9.3-5.2L363.9,531.4z"/>
				<path class="st17" d="M363.4,531.8c0,0,4.3-1,9.3,5.2C372.7,537,368.7,538.1,363.4,531.8z"/>
			</g>
			<g>
				<path class="st11" d="M360.1,535.4c0,2.7-2.2,3.7-4.9,2.2c-0.6-0.3-1-0.6-1.4-1c-0.7,0.1-1.7-0.1-2.7-0.7c-2.7-1.6-5-5-5-7.8
					s2.2-3.7,4.9-2.2c0.6,0.3,1,0.6,1.4,1c0.7-0.1,1.7,0.1,2.7,0.7C357.6,529.1,359.9,532.7,360.1,535.4z"/>
				<path class="st11" d="M348.7,526.5l-3.9,1.9c0,0,0.7-2.2,2.4-3.2L348.7,526.5z"/>
				<path class="st11" d="M359.9,536c0,0-0.7,2.7-2,3.9c-1.3,1.1-1.6-1.6-1.6-1.6l1.1-1.6L359.9,536z"/>
				<path class="st12" d="M358.5,537.8c0,0.1,0,0.1,0,0.3l0,0c0,0.7-0.1,1.3-0.6,1.7l0,0c-0.1,0.3-0.4,0.6-0.9,0.7l-12.1-7
					c-0.4-1-0.7-2-0.7-3c0-0.9,0.1-1.6,0.6-2l0,0l0,0c0.3-0.3,0.6-0.6,0.9-0.7c0.3-0.1,0.4-0.1,0.7-0.1c0.7,0,1.7,0.1,2.6,0.7
					c0.6,0.3,1,0.6,1.4,1c0.7-0.1,1.7,0.1,2.7,0.7c2.3,1.3,4.3,3.9,4.9,6.3C358.3,536.8,358.5,537.4,358.5,537.8z"/>
				<g>
					<g>
						<polygon class="st13" points="352,523.5 352.2,528.2 351.4,528.7 351.3,523.9 						"/>
					</g>
					<g>
						<polygon class="st14" points="351.3,523.9 351.3,528.7 350.6,528.2 350.6,523.5 						"/>
					</g>
					<g>
						<polygon class="st15" points="352,523.5 351.3,523.9 350.6,523.5 351.3,523.1 						"/>
					</g>
				</g>
				<path class="st16" d="M352,524.6c0,0,4.2-1,9.2,5.3l-0.4,0.4l-9.3-5.2L352,524.6z"/>
				<path class="st17" d="M351.4,525.2c0,0,4.3-1,9.3,5.2C360.8,530.4,356.8,531.5,351.4,525.2z"/>
			</g>
		</g>
	</g>
	<path class="st3" d="M378,531.1h-0.6c-0.3-1.6-0.7-3.2-1.1-4.6c-2.3-7.2-6-11.8-10.2-11.8c-6.6,0-12.9,11.9-13.5,25.7l0,0l0,0
		l-0.4-1.6c0.9-15.2,6.8-26.6,14.1-26.6c3.2,0,5.7,2.2,7.8,5.7C375.7,521.2,377.1,525.6,378,531.1z"/>
	<path class="st7" d="M379.3,531.1l-2.2-0.1c-0.4-1.6-3.9-13.9-10.6-15.1c-6.5-1-11.9,11.3-12.5,25.9l-1.4-1.3l0,0l0,0l0,0
		c0.9-15.2,6.8-27,13.9-27c2.7,0,5.3,1.7,7.5,4.6C376.1,521,378.2,525.6,379.3,531.1z"/>
</g>
<g>
	<g>
		<polygon class="st3" points="342.2,579.6 296.7,551.3 296.7,577.6 341.6,604.3 		"/>
		<polygon class="st31" points="319.7,538.7 296.7,551.3 342.2,579.6 364.2,564.7 		"/>
		<polygon class="st1" points="319.4,542.4 302.7,552.5 341.6,575.5 357.9,564.7 		"/>
		<polygon class="st7" points="364.2,564.7 342.2,579.6 341.6,604.3 364.5,591 		"/>
		<g>
			<g>
				<path class="st11" d="M356,566.3l-2.2,1.4l-3.7,2.4c-0.7,0-1.7-0.1-2.7-0.7c-2.7-1.6-5-5-5-7.8l0,0c0-0.1,0-0.1,0-0.1
					c0-0.1,0-0.4,0-0.6l0,0v-0.1c0.1-0.4,0.3-0.7,0.4-1l0,0c0.1-0.1,0.3-0.3,0.4-0.4c0.1-0.1,0.4-0.3,0.6-0.3l0,0
					c0.9-0.3,2-0.1,3.3,0.4c0,0,0.1,0,0.1,0.1c0.1,0.1,0.4,0.3,0.6,0.4l0,0c0.3,0.1,0.6,0.4,0.7,0.6l0,0c0.3,0,0.6,0,0.9,0
					c0.6,0.1,1.1,0.3,1.9,0.7c0.3,0.1,0.4,0.3,0.7,0.4c0.1,0.1,0.3,0.1,0.3,0.3l0,0c0,0,0,0,0.1,0.1c0.6,0.4,1.1,1,1.7,1.6
					c0.1,0.1,0.3,0.4,0.4,0.6C355.3,564.8,355.6,565.6,356,566.3L356,566.3z"/>
				<path class="st11" d="M345.2,560.2l-3.9,1.9c0,0,0.7-2.2,2.4-3.2L345.2,560.2z"/>
				<path class="st12" d="M353.9,567.7l-3.7,2.4l-3.3,2.2c-0.3-0.1-0.6-0.3-0.9-0.4c-2-1.1-3.9-3.4-4.6-5.6
					c-0.3-0.7-0.4-1.4-0.4-2.2V564c0-0.9,0.3-1.4,0.6-1.9c0.3-0.3,0.6-0.6,0.9-0.7c0.3-0.1,0.4-0.1,0.7-0.1c0.7,0,1.7,0.1,2.6,0.7
					c0.6,0.3,1,0.6,1.4,1c0.7-0.1,1.7,0.1,2.7,0.7C351.6,564.5,353,566,353.9,567.7z"/>
				<g>
					<g>
						<polygon class="st13" points="348.7,557.1 348.8,561.8 348,562.3 348,557.5 						"/>
					</g>
					<g>
						<polygon class="st14" points="348,557.5 348,562.3 347.2,561.8 347.1,557.1 						"/>
					</g>
					<g>
						<polygon class="st15" points="348.7,557.1 348,557.5 347.1,557.1 348,556.6 						"/>
					</g>
				</g>
			</g>
			<g>
				<path class="st11" d="M343.4,560.1c0,2.7-2.2,3.7-4.9,2.2c-0.6-0.3-1-0.6-1.4-1c-0.7,0.1-1.7-0.1-2.7-0.7c-2.7-1.6-5-5-5-7.8
					s2.2-3.7,4.9-2.2c0.6,0.3,1,0.6,1.4,1c0.7-0.1,1.7,0.1,2.7,0.7C341.1,553.9,343.4,557.4,343.4,560.1z"/>
				<path class="st11" d="M332,551.3l-3.9,1.9c0,0,0.7-2.2,2.4-3.2L332,551.3z"/>
				<path class="st11" d="M343.4,560.7c0,0-0.7,2.7-2,3.9c-1.3,1.1-1.6-1.6-1.6-1.6l1.1-1.6L343.4,560.7z"/>
				<path class="st12" d="M341.8,562.5c0,0.1,0,0.1,0,0.3l0,0c0,0.7-0.1,1.3-0.6,1.7l0,0c-0.1,0.3-0.4,0.6-0.9,0.7l-12.1-7
					c-0.4-1-0.7-2-0.7-3c0-0.9,0.1-1.6,0.6-2l0,0l0,0c0.3-0.3,0.6-0.6,0.9-0.7c0.3-0.1,0.4-0.1,0.7-0.1c0.7,0,1.7,0.1,2.6,0.7
					c0.6,0.3,1,0.6,1.4,1c0.7-0.1,1.7,0.1,2.7,0.7c2.3,1.3,4.3,3.9,4.9,6.3C341.8,561.7,341.8,562.1,341.8,562.5z"/>
				<g>
					<g>
						<polygon class="st13" points="335.5,548.2 335.5,552.9 334.7,553.3 334.6,548.6 						"/>
					</g>
					<g>
						<polygon class="st14" points="334.6,548.6 334.7,553.3 333.9,552.9 333.9,548.2 						"/>
					</g>
					<g>
						<polygon class="st15" points="335.5,548.2 334.6,548.6 333.9,548.2 334.6,547.7 						"/>
					</g>
				</g>
			</g>
			<g>
				<path class="st11" d="M330.6,553.5c0,2.7-2.2,3.7-4.9,2.2c-0.6-0.3-1-0.6-1.4-1c-0.7,0.1-1.7-0.1-2.7-0.7c-2.7-1.6-5-5-5-7.8
					c0-2.7,2.2-3.7,4.9-2.2c0.6,0.3,1,0.6,1.4,1c0.7-0.1,1.7,0.1,2.7,0.7C328.3,547.2,330.4,550.6,330.6,553.5z"/>
				<path class="st11" d="M319.2,544.6l-3.9,1.9c0,0,0.7-2.2,2.4-3.2L319.2,544.6z"/>
				<path class="st11" d="M330.6,554.1c0,0-0.7,2.7-2,3.9c-1.3,1.1-1.6-1.6-1.6-1.6l1.1-1.6L330.6,554.1z"/>
				<path class="st12" d="M329,555.9c0,0.1,0,0.1,0,0.3l0,0c0,0.7-0.1,1.3-0.6,1.7l0,0c-0.1,0.3-0.4,0.6-0.9,0.7l-12.1-7
					c-0.4-1-0.7-2-0.7-3c0-0.9,0.1-1.6,0.6-2l0,0l0,0c0.3-0.3,0.6-0.6,0.9-0.7c0.3-0.1,0.4-0.1,0.7-0.1c0.7,0,1.7,0.1,2.6,0.7
					c0.6,0.3,1,0.6,1.4,1c0.7-0.1,1.7,0.1,2.7,0.7c2.3,1.3,4.3,3.9,4.9,6.3C329,554.9,329,555.5,329,555.9z"/>
				<g>
					<g>
						<polygon class="st13" points="322.7,541.4 322.7,546.2 322,546.7 321.8,542 						"/>
					</g>
					<g>
						<polygon class="st14" points="321.8,542 322,546.7 321.1,546.3 321.1,541.6 						"/>
					</g>
					<g>
						<polygon class="st15" points="322.7,541.4 321.8,542 321.1,541.6 321.8,541 						"/>
					</g>
				</g>
				<path class="st16" d="M322.7,542.7c0,0,4.2-1,9.2,5.3l-0.4,0.4l-9.3-5.2L322.7,542.7z"/>
				<path class="st17" d="M322,543.1c0,0,4.3-1,9.3,5.2C331.3,548.5,327.3,549.6,322,543.1z"/>
			</g>
			<g>
				<path class="st11" d="M343.8,569.9c0,2.7-2.2,3.7-4.9,2.2c-0.6-0.3-1-0.6-1.4-1c-0.7,0.1-1.7-0.1-2.7-0.7c-2.7-1.6-5-5-5-7.8
					s2.2-3.7,4.9-2.2c0.6,0.3,1,0.6,1.4,1c0.7-0.1,1.7,0.1,2.7,0.7C341.5,563.7,343.8,567.1,343.8,569.9z"/>
				<path class="st11" d="M332.5,561.1l-3.9,1.9c0,0,0.7-2.2,2.4-3.2L332.5,561.1z"/>
				<path class="st11" d="M343.8,570.4c0,0-0.7,2.7-2,3.9c-1.3,1.1-1.6-1.6-1.6-1.6l1.1-1.6L343.8,570.4z"/>
				<path class="st12" d="M342.2,572.3c0,0.1,0,0.1,0,0.3l0,0c0,0.7-0.1,1.3-0.6,1.7l0,0c-0.1,0.3-0.4,0.6-0.9,0.7l-12.1-7
					c-0.4-1-0.7-2-0.7-3c0-0.9,0.1-1.6,0.6-2l0,0l0,0c0.3-0.3,0.6-0.6,0.9-0.7c0.3-0.1,0.4-0.1,0.7-0.1c0.7,0,1.7,0.1,2.6,0.7
					c0.6,0.3,1,0.6,1.4,1c0.7-0.1,1.7,0.1,2.7,0.7c2.3,1.3,4.3,3.9,4.9,6.3C342.2,571.4,342.2,571.9,342.2,572.3z"/>
				<g>
					<g>
						<polygon class="st13" points="335.9,557.9 335.9,562.7 335.2,563.1 335.2,558.4 						"/>
					</g>
					<g>
						<polygon class="st14" points="335.2,558.4 335.2,563.1 334.5,562.7 334.3,557.9 						"/>
					</g>
					<g>
						<polygon class="st15" points="335.9,557.9 335.2,558.4 334.3,557.9 335,557.5 						"/>
					</g>
				</g>
				<path class="st16" d="M335.9,559.2c0,0,4.2-1,9.2,5.3l-0.4,0.4l-9.3-5.2L335.9,559.2z"/>
				<path class="st17" d="M335.2,559.7c0,0,4.3-1,9.3,5.2C344.7,564.8,340.6,566,335.2,559.7z"/>
			</g>
			<g>
				<path class="st11" d="M333.2,563.4c0,2.7-2.2,3.7-4.9,2.2c-0.6-0.3-1-0.6-1.4-1c-0.7,0.1-1.7-0.1-2.7-0.7c-2.7-1.6-5-5-5-7.8
					s2.2-3.7,4.9-2.2c0.6,0.3,1,0.6,1.4,1c0.7-0.1,1.7,0.1,2.7,0.7C330.7,557.2,333,560.7,333.2,563.4z"/>
				<path class="st11" d="M321.8,554.6l-3.9,1.9c0,0,0.7-2.2,2.4-3.2L321.8,554.6z"/>
				<path class="st11" d="M333,564c0,0-0.7,2.7-2,3.9s-1.6-1.6-1.6-1.6l1.1-1.6L333,564z"/>
				<path class="st12" d="M331.6,565.8c0,0.1,0,0.1,0,0.3l0,0c0,0.7-0.1,1.3-0.6,1.7l0,0c-0.1,0.3-0.4,0.6-0.9,0.7l-12.1-7
					c-0.4-1-0.7-2-0.7-3c0-0.9,0.1-1.6,0.6-2l0,0l0,0c0.3-0.3,0.6-0.6,0.9-0.7c0.3-0.1,0.4-0.1,0.7-0.1c0.7,0,1.7,0.1,2.6,0.7
					c0.6,0.3,1,0.6,1.4,1c0.7-0.1,1.7,0.1,2.7,0.7c2.3,1.3,4.3,3.9,4.9,6.3C331.4,565,331.6,565.4,331.6,565.8z"/>
				<g>
					<g>
						<polygon class="st13" points="325.1,551.5 325.3,556.2 324.4,556.6 324.4,551.9 						"/>
					</g>
					<g>
						<polygon class="st14" points="324.4,551.9 324.4,556.6 323.7,556.2 323.7,551.5 						"/>
					</g>
					<g>
						<polygon class="st15" points="325.1,551.5 324.4,551.9 323.7,551.5 324.4,551 						"/>
					</g>
				</g>
				<path class="st16" d="M325.1,552.8c0,0,4.2-1,9.2,5.3l-0.4,0.4l-9.3-5.2L325.1,552.8z"/>
				<path class="st17" d="M324.6,553.2c0,0,4.3-1,9.3,5.2C333.9,558.4,329.9,559.5,324.6,553.2z"/>
			</g>
			<g>
				<path class="st11" d="M321.2,556.8c0,2.7-2.2,3.7-4.9,2.2c-0.6-0.3-1-0.6-1.4-1c-0.7,0.1-1.7-0.1-2.7-0.7c-2.7-1.6-5-5-5-7.8
					s2.2-3.7,4.9-2.2c0.6,0.3,1,0.6,1.4,1c0.7-0.1,1.7,0.1,2.7,0.7C318.8,550.5,321.1,554.1,321.2,556.8z"/>
				<path class="st11" d="M309.9,547.9l-3.9,1.9c0,0,0.7-2.2,2.4-3.2L309.9,547.9z"/>
				<path class="st11" d="M321.1,557.4c0,0-0.7,2.7-2,3.9s-1.6-1.6-1.6-1.6l1.1-1.6L321.1,557.4z"/>
				<path class="st12" d="M319.7,559.2c0,0.1,0,0.1,0,0.3l0,0c0,0.7-0.1,1.3-0.6,1.7l0,0c-0.1,0.3-0.4,0.6-0.9,0.7l-12.1-7
					c-0.4-1-0.7-2-0.7-3c0-0.9,0.1-1.6,0.6-2l0,0l0,0c0.3-0.3,0.6-0.6,0.9-0.7c0.3-0.1,0.4-0.1,0.7-0.1c0.7,0,1.7,0.1,2.6,0.7
					c0.6,0.3,1,0.6,1.4,1c0.7-0.1,1.7,0.1,2.7,0.7c2.3,1.3,4.3,3.9,4.9,6.3C319.5,558.2,319.7,558.8,319.7,559.2z"/>
				<g>
					<g>
						<polygon class="st13" points="313.2,544.9 313.4,549.6 312.6,550 312.5,545.3 						"/>
					</g>
					<g>
						<polygon class="st14" points="312.5,545.3 312.5,550 311.8,549.6 311.8,544.9 						"/>
					</g>
					<g>
						<polygon class="st15" points="313.2,544.9 312.5,545.3 311.8,544.9 312.5,544.4 						"/>
					</g>
				</g>
				<path class="st16" d="M313.2,546c0,0,4.2-1,9.2,5.3l-0.4,0.4l-9.3-5.2L313.2,546z"/>
				<path class="st17" d="M312.6,546.6c0,0,4.3-1,9.3,5.2C322,551.8,317.9,552.9,312.6,546.6z"/>
			</g>
		</g>
	</g>
	<path class="st3" d="M339.2,552.5h-0.6c-0.3-1.6-0.7-3.2-1.1-4.6c-2.3-7.2-6-11.8-10.2-11.8c-6.6,0-12.9,11.9-13.5,25.7l0,0l0,0
		l-0.4-1.6c0.9-15.2,6.8-26.6,14.1-26.6c3.2,0,5.7,2.2,7.8,5.7C336.9,542.6,338.3,547,339.2,552.5z"/>
	<path class="st7" d="M340.5,552.5l-2.2-0.1c-0.4-1.6-3.9-13.9-10.6-15.1c-6.5-1-11.9,11.3-12.5,25.9l-1.4-1.3l0,0l0,0l0,0
		c0.9-15.2,6.8-27,13.9-27c2.7,0,5.3,1.7,7.5,4.6C337.3,542.4,339.3,547,340.5,552.5z"/>
</g>
<g>
	<g>
		<g>
			<ellipse class="st32" cx="108.9" cy="586.3" rx="28.3" ry="5.5"/>
			<g>
				<path class="st19" d="M135.1,497.8c0,0-1,2.7-3.1,11.5c-0.2,0.8-0.4,1.5-0.5,2.3c-0.9,1.9-3,3.1-5.2,2.8c-2.3-0.3-4-2-4.4-4.2
					l0,0c0-0.7,0-1.3,0-2c0.2-9-0.1-12.1-0.1-12.1L135.1,497.8z"/>
				<path class="st19" d="M126.7,504.3c0.8,0.1,1.5,0.3,2.3,0.4c12.9,2.5,33.5,4.9,33.3,7.5c-0.2,3-21,1.8-34.3,2.2l0,0
					c-0.7,0-1.3,0-2,0.1c-2.6-0.4-4.4-2.8-4.2-5.5C122.1,506.4,124.2,504.4,126.7,504.3z"/>
				<path class="st22" d="M107,529.8H90.3v1.4c1,7.1,1.4,59.4,6,59.4c3.7,0,8.4-20.4,10-33.6c0-0.1,0-0.1,0-0.2
					c0.1-0.7,0.2-1.4,0.2-2.1c0.8-6.8,2.4-10.8,3.6-10.8l0,0c1.2,0,1.5,3.9,2.3,10.8c0.1,0.7,0.2,1.4,0.2,2.1c0,0.1,0,0.1,0.1,0.2
					c1.5,13.1,2.7,29.5,6.4,29.5c2.9,0,4.9-12.8,6.6-28.9c0,0,0-0.1,0.1-0.1c0.1-1.2,0.2-2.4,0.4-3.5c0.8-7.6,1.6-15.5,2.6-22.7
					v-1.4L107,529.8z"/>
				<g>
					<path class="st10" d="M135.2,498.3c0,0.4-0.1,0.7-0.2,1.1l-14.6-1.9c0-0.4,0.1-0.7,0.1-1.1c1.1-8.3,5.2-14.5,9.3-14
						C133.8,482.9,136.3,490.1,135.2,498.3z"/>
					<path class="st10" d="M130.7,482.4L129,532c-5.8,1.8-12.5,2.8-19.6,2.8s-13.8-1-19.6-2.8c0,0-1.2-15.4-1.2-37.3
						C88.6,472.8,130.7,482.4,130.7,482.4z"/>
				</g>
				<polygon class="st19" points="121.8,456.2 120,482.5 116.3,494.5 100.1,482.5 100.1,456.2 				"/>
				<polygon class="st1" points="120.1,479.3 113.9,484.7 118,489.1 120,482.6 				"/>
				<polygon class="st1" points="100.1,478.5 113.9,484.7 109.6,489.7 100.1,482.6 				"/>
				<path class="st21" d="M116.9,473.9c0,0-3.7,7.8-6.6-0.1C110.3,473.8,113.6,477.1,116.9,473.9z"/>
			</g>
		</g>
	</g>
	<polygon class="st23" points="111.7,491.4 114.2,486.9 117.5,491.4 116.1,495.8 119.5,522 114.8,528.4 109.8,522 113.1,495.8 	"/>
	<g>
		<path class="st19" d="M102.8,499.7c0,0-0.3,3.1,0,12.9c0,0.8,0.1,1.7,0.1,2.5c-0.5,2.2-2.3,4-4.7,4.4c-2.5,0.3-4.8-1-5.8-3.1l0,0
			c-0.2-0.7-0.3-1.4-0.5-2.1c-2.3-9.5-3.5-12.6-3.5-12.6L102.8,499.7z"/>
	</g>
	<g>
		<path class="st10" d="M103.6,499.9c0.1,0.4,0.1,0.8,0.1,1.2l-15.8,2.2c-0.1-0.4-0.1-0.8-0.2-1.2c-1-7.4,0.6-14,3.6-16.3
			c0.6-0.5,1.3-0.8,2.1-0.9c0.2,0,0.3,0,0.5,0c3,0,6,3.3,7.9,8.3C102.7,495.2,103.3,497.5,103.6,499.9z"/>
	</g>
	<g>
		<g>
			<polygon class="st3" points="139.9,531.3 175,511.3 175.3,491.1 139.8,512.2 			"/>
			<polygon class="st31" points="123.1,500.4 139.8,512.2 175.3,491.1 157.8,481 			"/>
			<polygon class="st1" points="128,500.5 140.3,509 170.7,491.9 158,483.9 			"/>
			<polygon class="st7" points="122.5,520.7 139.9,531.3 139.8,512.2 123.1,500.4 			"/>
			<g>
				<g>
					<path class="st11" d="M129.4,501.7c0.3-0.5,0.6-1.1,1.1-1.4c0.1-0.1,0.2-0.3,0.3-0.4c0.5-0.4,0.9-0.9,1.4-1.2
						c0.1-0.1,0.1-0.1,0.1-0.1l0,0c0-0.1,0.1-0.1,0.2-0.2c0.2-0.1,0.3-0.2,0.6-0.3c0.6-0.3,1-0.4,1.4-0.5c0.2,0,0.4,0,0.7,0l0,0
						c0.1-0.1,0.3-0.3,0.6-0.4l0,0c0.1-0.1,0.3-0.2,0.4-0.3c0-0.1,0.1-0.1,0.1-0.1c1-0.4,1.9-0.5,2.6-0.3l0,0c0.1,0,0.3,0.1,0.4,0.2
						c0.1,0.1,0.2,0.2,0.3,0.3l0,0c0.1,0.2,0.2,0.4,0.3,0.8v0.1l0,0c0,0.1,0,0.3,0,0.4c0,0,0,0,0,0.1l0,0c0,2.1-1.9,4.7-4,5.9
						c-0.8,0.4-1.6,0.5-2.1,0.5l-2.8-1.9L129.4,501.7L129.4,501.7z"/>
					<path class="st11" d="M138.9,496.3c1.3,0.8,1.8,2.5,1.8,2.5l-3-1.5L138.9,496.3z"/>
					<path class="st12" d="M134.2,499.8c0.8-0.4,1.6-0.6,2.1-0.5c0.3-0.3,0.7-0.5,1.1-0.8c0.7-0.4,1.4-0.5,2-0.5
						c0.2,0,0.3,0,0.6,0.1c0.2,0.1,0.4,0.3,0.7,0.6c0.2,0.3,0.4,0.8,0.4,1.4v0.1c0,0.6-0.1,1.1-0.4,1.7c-0.6,1.6-2.1,3.4-3.6,4.3
						c-0.2,0.1-0.4,0.2-0.7,0.3l-2.5-1.7l-2.8-1.9C131.7,501.6,132.9,500.5,134.2,499.8z"/>
					<g>
						<g>
							<polygon class="st13" points="135.7,495.1 135.7,498.8 135,498.4 135.2,494.8 							"/>
						</g>
						<g>
							<polygon class="st14" points="136.4,494.8 136.2,498.4 135.7,498.8 135.7,495.1 							"/>
						</g>
						<g>
							<polygon class="st15" points="135.7,494.4 136.4,494.8 135.7,495.1 135.2,494.8 							"/>
						</g>
					</g>
				</g>
				<g>
					<path class="st11" d="M143.2,491.3c0.8-0.4,1.6-0.6,2.1-0.5c0.3-0.3,0.7-0.5,1.1-0.8c2.1-1.2,3.8-0.4,3.7,1.7s-1.9,4.7-4,5.9
						c-0.8,0.4-1.6,0.6-2.1,0.5c-0.3,0.3-0.7,0.5-1.1,0.8c-2.1,1.2-3.8,0.4-3.7-1.7S141.1,492.4,143.2,491.3z"/>
					<path class="st11" d="M149.2,489.6c1.3,0.8,1.8,2.5,1.8,2.5l-3-1.5L149.2,489.6z"/>
					<path class="st11" d="M141.1,498.2l0.9,1.2c0,0-0.3,2.1-1.2,1.2c-1-0.9-1.5-3-1.5-3L141.1,498.2z"/>
					<path class="st12" d="M140.8,498c0.5-1.9,2.1-3.8,3.9-4.8c0.8-0.4,1.6-0.6,2.1-0.5c0.3-0.3,0.7-0.5,1.1-0.8
						c0.7-0.4,1.4-0.5,2-0.5c0.2,0,0.3,0,0.6,0.1c0.2,0.1,0.4,0.3,0.7,0.6l0,0l0,0c0.3,0.3,0.4,0.9,0.4,1.6c0,0.8-0.3,1.5-0.6,2.3
						l-9.4,5.2c-0.3-0.1-0.5-0.3-0.7-0.6l0,0c-0.3-0.3-0.4-0.8-0.4-1.3l0,0c0-0.1,0-0.1,0-0.2C140.4,498.7,140.4,498.4,140.8,498z"
						/>
					<g>
						<g>
							<polygon class="st13" points="146.2,488.4 146,492.1 145.4,491.7 145.5,488.1 							"/>
						</g>
						<g>
							<polygon class="st14" points="146.7,488.1 146.6,491.8 146,492.1 146.2,488.4 							"/>
						</g>
						<g>
							<polygon class="st15" points="146.2,487.8 146.7,488.1 146.2,488.4 145.5,488.1 							"/>
						</g>
					</g>
				</g>
				<g>
					<path class="st11" d="M153.2,486.4c0.8-0.4,1.6-0.6,2.1-0.5c0.3-0.3,0.7-0.5,1.1-0.8c2.1-1.2,3.8-0.4,3.7,1.7
						c0,2.1-1.9,4.7-4,5.9c-0.8,0.4-1.6,0.6-2.1,0.5c-0.3,0.3-0.7,0.5-1.1,0.8c-2.1,1.2-3.8,0.4-3.7-1.7
						C149.3,490,151,487.4,153.2,486.4z"/>
					<path class="st11" d="M159.2,484.6c1.3,0.8,1.8,2.5,1.8,2.5l-3-1.5L159.2,484.6z"/>
					<path class="st11" d="M151,493.3l0.9,1.2c0,0-0.3,2.1-1.2,1.2c-1-0.9-1.5-3-1.5-3L151,493.3z"/>
					<path class="st12" d="M150.7,493.1c0.5-1.9,2.1-3.8,3.9-4.8c0.8-0.4,1.6-0.6,2.1-0.5c0.3-0.3,0.7-0.5,1.1-0.8
						c0.7-0.4,1.4-0.5,2-0.5c0.2,0,0.3,0,0.6,0.1c0.2,0.1,0.4,0.3,0.7,0.6l0,0l0,0c0.3,0.3,0.4,0.9,0.4,1.6c0,0.8-0.3,1.5-0.6,2.3
						l-9.4,5.2c-0.3-0.1-0.5-0.3-0.7-0.6l0,0c-0.3-0.3-0.4-0.8-0.4-1.3l0,0c0-0.1,0-0.1,0-0.2C150.4,493.8,150.4,493.4,150.7,493.1z
						"/>
					<g>
						<g>
							<polygon class="st13" points="156.1,483.5 155.9,487.2 155.4,486.7 155.4,483.1 							"/>
						</g>
						<g>
							<polygon class="st14" points="156.7,483.2 156.6,486.9 155.9,487.2 156.1,483.5 							"/>
						</g>
						<g>
							<polygon class="st15" points="156.1,482.8 156.7,483.2 156.1,483.5 155.4,483.1 							"/>
						</g>
					</g>
					<path class="st16" d="M155.9,484.5l-7.3,3.8l-0.3-0.3c4-4.8,7.2-4,7.2-4L155.9,484.5z"/>
					<path class="st17" d="M148.7,488.3c4-4.7,7.3-3.8,7.3-3.8C151.8,489.3,148.7,488.4,148.7,488.3z"/>
				</g>
				<g>
					<path class="st11" d="M142.8,498.8c0.8-0.4,1.6-0.6,2.1-0.5c0.3-0.3,0.7-0.5,1.1-0.8c2.1-1.2,3.8-0.4,3.7,1.7s-1.9,4.7-4,5.9
						c-0.8,0.4-1.6,0.6-2.1,0.5c-0.3,0.3-0.7,0.5-1.1,0.8c-2.1,1.2-3.8,0.4-3.7-1.7S140.6,500,142.8,498.8z"/>
					<path class="st11" d="M148.8,497.1c1.3,0.8,1.8,2.5,1.8,2.5l-3-1.5L148.8,497.1z"/>
					<path class="st11" d="M140.6,505.7l0.9,1.2c0,0-0.3,2.1-1.2,1.2c-1-0.9-1.5-3-1.5-3L140.6,505.7z"/>
					<path class="st12" d="M140.3,505.5c0.5-1.9,2.1-3.8,3.9-4.8c0.8-0.4,1.6-0.6,2.1-0.5c0.3-0.3,0.7-0.5,1.1-0.8
						c0.7-0.4,1.4-0.5,2-0.5c0.2,0,0.3,0,0.6,0.1c0.2,0.1,0.4,0.3,0.7,0.6l0,0l0,0c0.3,0.3,0.4,0.9,0.4,1.6c0,0.8-0.3,1.5-0.6,2.3
						l-9.4,5.2c-0.3-0.1-0.5-0.3-0.7-0.6l0,0c-0.3-0.3-0.4-0.8-0.4-1.3l0,0c0-0.1,0-0.1,0-0.2C140,506.3,140,505.9,140.3,505.5z"/>
					<g>
						<g>
							<polygon class="st13" points="145.6,496 145.5,499.6 145,499.3 145,495.6 							"/>
						</g>
						<g>
							<polygon class="st14" points="146.2,495.6 146.1,499.3 145.5,499.6 145.6,496 							"/>
						</g>
						<g>
							<polygon class="st15" points="145.7,495.3 146.2,495.6 145.6,496 145,495.6 							"/>
						</g>
					</g>
					<path class="st16" d="M145.4,497.1l-7.3,3.8l-0.3-0.3c4-4.8,7.2-4,7.2-4L145.4,497.1z"/>
					<path class="st17" d="M138.3,500.8c4-4.7,7.3-3.8,7.3-3.8C141.3,501.7,138.2,500.8,138.3,500.8z"/>
				</g>
				<g>
					<path class="st11" d="M151,493.9c0.8-0.4,1.6-0.6,2.1-0.5c0.3-0.3,0.7-0.5,1.1-0.8c2.1-1.2,3.8-0.4,3.7,1.7s-1.9,4.7-4,5.9
						c-0.8,0.4-1.6,0.6-2.1,0.5c-0.3,0.3-0.7,0.5-1.1,0.8c-2.1,1.2-3.8,0.4-3.7-1.7C147.2,497.8,149,495.1,151,493.9z"/>
					<path class="st11" d="M157,492.3c1.3,0.8,1.8,2.5,1.8,2.5l-3-1.5L157,492.3z"/>
					<path class="st11" d="M149,500.9l0.9,1.2c0,0-0.3,2.1-1.2,1.2c-1-0.9-1.5-3-1.5-3L149,500.9z"/>
					<path class="st12" d="M148.6,500.7c0.5-1.9,2.1-3.8,3.9-4.8c0.8-0.4,1.6-0.6,2.1-0.5c0.3-0.3,0.7-0.5,1.1-0.8
						c0.7-0.4,1.4-0.5,2-0.5c0.2,0,0.3,0,0.6,0.1c0.2,0.1,0.4,0.3,0.7,0.6l0,0l0,0c0.3,0.3,0.4,0.9,0.4,1.6c0,0.8-0.3,1.5-0.6,2.3
						l-9.4,5.2c-0.3-0.1-0.5-0.3-0.7-0.6l0,0c-0.3-0.3-0.4-0.8-0.4-1.3l0,0c0-0.1,0-0.1,0-0.2C148.2,501.4,148.4,501.1,148.6,500.7z
						"/>
					<g>
						<g>
							<polygon class="st13" points="154,491.1 153.9,494.8 153.2,494.4 153.4,490.8 							"/>
						</g>
						<g>
							<polygon class="st14" points="154.5,490.8 154.5,494.5 153.9,494.8 154,491.1 							"/>
						</g>
						<g>
							<polygon class="st15" points="154,490.5 154.5,490.8 154,491.1 153.4,490.8 							"/>
						</g>
					</g>
					<path class="st16" d="M153.8,492.2l-7.3,3.8l-0.3-0.3c4-4.8,7.2-4,7.2-4L153.8,492.2z"/>
					<path class="st17" d="M146.6,496c4-4.7,7.3-3.8,7.3-3.8C149.7,496.9,146.6,496,146.6,496z"/>
				</g>
				<g>
					<path class="st11" d="M160.3,489c0.8-0.4,1.6-0.6,2.1-0.5c0.3-0.3,0.7-0.5,1.1-0.8c2.1-1.2,3.8-0.4,3.7,1.7s-1.9,4.7-4,5.9
						c-0.8,0.4-1.6,0.6-2.1,0.5c-0.3,0.3-0.7,0.5-1.1,0.8c-2.1,1.2-3.8,0.4-3.7-1.7C156.5,492.8,158.3,490.1,160.3,489z"/>
					<path class="st11" d="M166.3,487.3c1.3,0.8,1.8,2.5,1.8,2.5l-3-1.5L166.3,487.3z"/>
					<path class="st11" d="M158.3,496l0.9,1.2c0,0-0.3,2.1-1.2,1.2c-1-0.9-1.5-3-1.5-3L158.3,496z"/>
					<path class="st12" d="M157.9,495.7c0.5-1.9,2.1-3.8,3.9-4.8c0.8-0.4,1.6-0.6,2.1-0.5c0.3-0.3,0.7-0.5,1.1-0.8
						c0.7-0.4,1.4-0.5,2-0.5c0.2,0,0.3,0,0.6,0.1c0.2,0.1,0.4,0.3,0.7,0.6l0,0l0,0c0.3,0.3,0.4,0.9,0.4,1.6c0,0.8-0.3,1.5-0.6,2.3
						l-9.4,5.2c-0.3-0.1-0.5-0.3-0.7-0.6l0,0c-0.3-0.3-0.4-0.8-0.4-1.3l0,0c0-0.1,0-0.1,0-0.2C157.5,496.5,157.6,496.1,157.9,495.7z
						"/>
					<g>
						<g>
							<polygon class="st13" points="163.2,486.2 163.1,489.9 162.5,489.5 162.7,485.9 							"/>
						</g>
						<g>
							<polygon class="st14" points="163.8,485.9 163.7,489.5 163.2,489.9 163.2,486.2 							"/>
						</g>
						<g>
							<polygon class="st15" points="163.3,485.5 163.8,485.9 163.2,486.2 162.7,485.9 							"/>
						</g>
					</g>
					<path class="st16" d="M163.1,487.2l-7.3,3.8l-0.3-0.3c4-4.8,7.2-4,7.2-4L163.1,487.2z"/>
					<path class="st17" d="M155.9,491.1c4-4.7,7.3-3.8,7.3-3.8C158.9,492,155.9,491.1,155.9,491.1z"/>
				</g>
			</g>
		</g>
		<path class="st3" d="M145.8,481.3c1.6-2.7,3.6-4.4,6.1-4.3c5.6,0.1,10,8.9,10.5,20.7l-0.4,1.2l0,0l0,0c-0.2-10.6-4.9-19.9-10-20
			c-3.2-0.1-6.2,3.4-8,8.9c-0.4,1.1-0.7,2.3-1,3.5h-0.4C143.3,487.2,144.5,483.8,145.8,481.3z"/>
		<path class="st7" d="M145.8,481.3c1.7-2.2,3.7-3.5,5.8-3.4c5.5,0.1,9.9,9.3,10.3,21l0,0l0,0l0,0l-1.1,1
			c-0.2-11.2-4.3-20.8-9.3-20.1c-5.2,0.8-8.1,10.3-8.4,11.5l-1.7,0.1C142.5,487.1,144.1,483.6,145.8,481.3z"/>
	</g>
	<g>
		
			<ellipse transform="matrix(1.872617e-02 -0.9998 0.9998 1.872617e-02 -393.9433 768.1465)" class="st7" cx="194.4" cy="584.8" rx="7.7" ry="22.7"/>
		<polygon class="st1" points="187.6,494.7 190.1,517.2 187.4,522 182.8,517.3 185.4,494.6 184.3,492.4 186.3,488.1 188.7,491.4 		
			"/>
		<polygon class="st19" points="181.2,457.4 180.3,487.8 184.3,504.9 198.9,481.6 199.4,457.8 		"/>
		<path class="st33" d="M202.7,484.2"/>
		<path class="st33" d="M194.5,515.5"/>
		<g>
			<path class="st22" d="M183.1,526.6c0,0,2.2,18.9,3.1,26c0.1,0.7,0.2,1.4,0.3,2.1c0.9,3,3.7,5.2,7.1,5.2c3.1,0,5.8-1.9,6.9-4.6
				c0.1-1.2,0.3-2.5,0.4-3.7c0.8-7.9,1.7-16.2,2.8-23.7v-1.4L183.1,526.6z"/>
		</g>
		<g>
			<path class="st22" d="M186.2,552.3c0.1,0.7,0.2,1.4,0.3,2.1c1.7,13.8,3.3,34.5,7.3,34.5c3.1,0,4.8-16.8,6.6-33.9
				c0.1-1.2,0.3-2.5,0.4-3.7c-0.6-3.4-3.6-6-7.3-6C189.6,545.3,186.3,548.4,186.2,552.3z"/>
		</g>
		<path class="st10" d="M181,473.9l0.2-13c7.2,3.4,17.5-3.1,17.5-3.1l0.3,16.9c3-2.5,4.9-6.3,5-10.6c0.1-5-2.4-9.5-6.2-12.1
			c0.5-0.8,0.8-1.8,0.8-2.7c0.1-3.6-3.5-6.6-7.9-6.7s-8.1,2.8-8.1,6.4c0,1,0.2,1.9,0.7,2.8c-3.9,2.4-6.5,6.8-6.6,11.8
			C176.5,467.6,178.3,471.3,181,473.9z"/>
		<path class="st21" d="M188.5,476.9c0,0-3.1,6.5-5.5-0.1C183,476.9,185.7,479.6,188.5,476.9z"/>
		<path class="st34" d="M176.6,513.9c1.1,5.3,2.7,10.3,3.9,14.5c0.2,0.6,0.4,1.2,0.5,1.8c4.9,2.9,17.2,2,19.9,1
			c2.1-0.8,3.5-1.6,4.1-1.9c0.1,0,0.1-0.1,0.2-0.1c-0.4-3.7-0.5-10.3,1.8-18.8c0.1-0.2,0.1-0.4,0.2-0.7c0.4-1.5,0.8-3,1.1-4.4
			c0.6-3.2,0.9-6.3,0.8-9.2c0-0.5,0-0.9-0.1-1.3c-1.1-13.9-10.3-14.3-10.3-14.3l-10,6.8v-0.1l-4.6,13.1l-4.2-13.3l-0.8-2
			C175.8,492.6,175.7,506.3,176.6,513.9"/>
		<polygon class="st1" points="177.1,487 177.8,488.4 179.6,491.7 184.7,486.7 179.6,483.3 		"/>
		<polygon class="st1" points="184.7,486.7 189.3,492 189.3,492 204.4,482.4 199.1,479.9 		"/>
		<g>
			<path class="st19" d="M191.5,499.3c0,0-0.7,2.5-3.8,10.1c-0.3,0.6-0.5,1.3-0.8,2c-0.3,1.9,0.6,3.9,2.4,4.8c1.8,1,4,0.6,5.5-0.7
				l0,0c0.3-0.5,0.7-1,1-1.5c4.7-6.8,6.5-8.8,6.5-8.8L191.5,499.3z"/>
			<path class="st19" d="M191.7,509.3c-0.7-0.1-1.4-0.2-2.1-0.2c-11.9-1.2-30.5-4.5-31-2.2c-0.6,2.7,17.8,7.1,29.3,10.9l0,0
				c0.6,0.2,1.2,0.4,1.7,0.6c2.4,0.3,4.6-1.3,5.1-3.6C195.2,512.4,193.8,510.1,191.7,509.3z"/>
			<path class="st34" d="M190.8,499.3c-0.2,0.3-0.3,0.6-0.5,0.9l11.8,6.4c0.2-0.3,0.3-0.6,0.5-0.9c3.6-6.6,3.9-13.5,0.7-15.3
				C200,488.8,194.4,492.7,190.8,499.3z"/>
		</g>
	</g>
	<g>
		<path class="st19" d="M98.4,512.6c0.8,0.1,1.7,0.3,2.5,0.4c14,2.3,36.8,4.3,36.6,7.1c-0.2,3.2-23,2.6-37.4,3.4l0,0
			c-0.7,0-1.5,0.1-2.2,0.1c-2.8-0.4-4.9-2.9-4.7-5.8C93.4,515,95.7,512.8,98.4,512.6z"/>
	</g>
</g>
<g>
	<g>
		<ellipse class="st7" cx="623.9" cy="589.8" rx="16.2" ry="5.5"/>
		<g>
			<path class="st28" d="M645.9,538.1"/>
			<path class="st34" d="M653,556.8C653,556.9,653,556.9,653,556.8c0.2,1.5,0.8,2.8,1.9,3.8c0.1,0.1,0.2,0.2,0.3,0.3
				c0.2,0.2,0.4,0.4,0.7,0.5c0.6,0.3,1.2,0.5,1.8,0.8c0.2,0.1,0.3,0.2,0.5,0.2c11.2,5.2,27.2,13.4,28.9,10.5
				c1.4-2.3-9.9-11-21.8-20.1c-0.3-0.2-0.6-0.4-0.9-0.7c-0.9-0.7-1.8-1.3-2.6-2c-2.9-1.2-6.2-0.2-7.9,2.5
				C653.1,554,652.8,555.4,653,556.8z"/>
			<path class="st34" d="M631.6,558.1c-0.1,0.6-0.3,1.2-0.4,1.9c-2.7,12.1-7.5,29.9-4.2,31.1c2.6,0.9,8.9-12.7,15.5-26.5
				c0.5-1,0.9-2,1.4-3c0.6-3-1.2-6.1-4.2-7.2C636.4,553.2,632.8,554.9,631.6,558.1z"/>
			<g>
				<path class="st34" d="M648.5,534.2l-8.2-2.7c0,0-6.1,19.2-8.1,25.3c-0.1,0.2-0.1,0.4-0.2,0.6c-0.1,0.4-0.3,0.9-0.4,1.3
					c-0.5,2.8,1,5.6,3.6,6.8c2.5,1.1,5.3,0.6,7.2-1.2c0.4-0.7,0.9-1.5,1.3-2.2l0,0c0.1-0.2,0.2-0.4,0.4-0.6
					c2.1-3.6,9.1-14.1,11.2-17.6"/>
				<path class="st34" d="M645.9,537.7c1,2.7,2.9,7.8,4.6,12.5c1,2.6,1.9,5,2.5,6.8c-0.2-1.4,0.1-2.8,0.9-4.1c1.7-2.7,5-3.7,7.9-2.5
					c0.9,0.7,1.8,1.4,2.6,2c0.3,0.2,0.6,0.4,0.9,0.7c-0.8-6-1.6-12.2-2.3-18"/>
				<path class="st33" d="M649.9,506.8l-0.9-0.2c0.1-0.3,0.1-0.7,0.2-1c0.4-2.1,1.1-4,1.9-5.7c2-4.2,4.8-6.8,7.3-6.6
					c0.2,0,0.3,0,0.5,0.1c0.6,0.1,1.2,0.4,1.7,0.9c2.5,2.2,3.4,8,2.1,14.2c-0.1,0.3-0.2,0.7-0.2,1l-0.9-0.2
					c-0.6,1.5-1.6,4.3-3.3,9.4c-0.2,0.6-0.4,1.2-0.6,1.8c-0.3,0.5-0.7,1-1.1,1.4c-0.9,1.1-2.2,1.8-3.7,1.8c-0.6-0.1-1.2-0.2-1.8-0.4
					l0,0c-4.5-0.9-10.1-1.7-15.3-2.6c1.1,5.1,2.5,9.8,3.8,13.9c0.2,0.6,0.3,1.1,0.5,1.7c4.6,2.8,16.4,1.9,19,0.9
					c2-0.7,3.3-1.5,4-1.8c0.1,0,0.1,0,0.1-0.1c-0.4-3.5-0.5-9.9,1.8-18c0-0.2,0.1-0.4,0.2-0.6c0.4-1.4,0.7-2.8,1-4.2
					c0.6-3.1,0.9-6,0.8-8.8c0-0.4,0-0.9,0-1.3c-1.1-13.3-6.6-14.3-7.1-14.5l0,0l-12.3,7.3v-0.1l-8.4,5.7v-5.9l-1.5-2.9
					c-3.3,7.4-2.6,21.5-1.7,28.7c4.8,0,9.1,6.3,13.6,6.2C649.8,523.1,649.9,508.1,649.9,506.8z"/>
				<path class="st19" d="M640.4,466.2v21.5l4.2,2.7l12.2-5.2V485c6.9-22.9-10.8-18.7-10.8-18.7C645.6,469.2,643,469,640.4,466.2z"
					/>
				<polygon class="st19" points="639.1,494.9 639.1,500.8 647.5,495.1 643.6,490.5 				"/>
				<polygon class="st1" points="636.9,490.8 637.6,492 639.1,494.9 643.6,490.5 639.1,487.6 				"/>
				<path class="st1" d="M643.6,490.5l3.9,4.6v0.1l12.3-7.3l-1.4-3.2c-0.4,0-0.8,0-1.2,0.1l-0.7,0.3L643.6,490.5z"/>
				<path class="st28" d="M655,469.9"/>
				<path class="st28" d="M658.4,484.6"/>
				<path class="st28" d="M658.4,484.6"/>
				<path class="st10" d="M656.6,485.6c0,0,9.2-18.8,1.3-18.9c0,0,5.4-11.6-29-8.3c0,0-6.5-0.2-7.9-5.3c0,0-1.4,16.3,10,20.5
					c6.2,2.3,10.7-1.7,12.6-2.5c2.3-1.1,13-3.3,13,0.3C656.7,476.3,656.6,485.6,656.6,485.6z"/>
				<g>
					<path d="M641,482.8c1-0.2,2-0.2,3-0.2s2,0.1,3,0.2c-1,0.2-2,0.2-3,0.2S642,483,641,482.8z"/>
				</g>
			</g>
		</g>
	</g>
	<g>
		<path class="st7" d="M638.1,554.8v20.1c0,0,12.4,8.4,21.2-0.4v-19.9C659.3,554.6,646,563,638.1,554.8z"/>
		
			<ellipse transform="matrix(1.014024e-02 -0.9999 0.9999 1.014024e-02 87.2758 1197.908)" class="st5" cx="648.7" cy="554.9" rx="6.7" ry="10.7"/>
		
			<ellipse transform="matrix(1.014024e-02 -0.9999 0.9999 1.014024e-02 87.2758 1197.908)" class="st1" cx="648.7" cy="554.9" rx="4.4" ry="7.2"/>
		<path class="st7" d="M640.6,553.3c0,0,7.4-20.4,12.3-9.2s4.9,11.2,4.9,11.2h1.1c0,0-4.9-15.4-7.4-15.5s-7.6-0.6-11.4,12.7
			L640.6,553.3z"/>
	</g>
	<g>
		<path class="st19" d="M648.7,519.1c0.3,2,1.7,3.7,3.8,4.1c1.5,0.3,3-0.1,4.1-1c0.5-0.4,0.8-0.8,1.2-1.4c0.2-0.6,0.4-1.2,0.6-1.8
			c1.7-5.1,2.8-8,3.3-9.5l-11.9-2.5c-0.1,1.3-0.2,3.7-0.6,7.6c-0.1,0.7-0.1,1.5-0.2,2.3C648.8,517.6,648.8,518.3,648.7,519.1z"/>
		<path class="st33" d="M648.9,506.8l0.9,0.2l11.9,2.5l0.9,0.2c0.1-0.3,0.2-0.7,0.2-1c1.4-6.4,0.4-12.2-2.1-14.4
			c-0.5-0.5-1.1-0.8-1.7-0.9c-0.2,0-0.3-0.1-0.5-0.1c-2.6-0.2-5.4,2.5-7.4,6.7c-0.8,1.7-1.5,3.6-1.9,5.7
			C649,506.2,648.9,506.5,648.9,506.8z"/>
	</g>
	<path class="st19" d="M648,551.7c1.7,0.3,3.9-7.2,6-15.9c1.3-5.1,2.6-10.7,3.9-15.1l0,0c0.2-0.6,0.3-1.2,0.5-1.8
		c0.1-1.5-0.5-2.9-1.5-3.9c-0.7-0.6-1.5-1.1-2.5-1.2c-2.4-0.4-4.7,1.1-5.4,3.4c0,0.7-0.1,1.5-0.1,2.2c0,0.8-0.1,1.5-0.1,2.3
		c-0.3,4.6-0.8,9.8-1.2,14.7C646.9,544.5,646.6,551.5,648,551.7z"/>
</g>
<path class="st3" d="M433.4,365.6c0,0-2.1,0.3-2.8,0.7c-0.7,0.4-0.2,0.5-2.3,0.8c-2,0.4-4.1,0.9-5.4,1.2c-1.3,0.3-2-0.7-3.2-0.6
	c-1.1,0.2-0.4-0.9-1.1-1.2c0,0,0,0-0.1,0c-0.3-0.1-0.6-0.3-0.7-0.5c0-0.1,0.1-0.3,0.2-0.4c0,0,0,0,0-0.1c0.3-0.7-0.9-1.1,0.1-1.6
	c1-0.6,1.2-1.2,2.4-1.8c1.9-1,2.6-0.5,4.4-1.5c1.8-0.9,2.3-1.4,4.5-1.6c0.8-0.1,1.2-1.1,4-1.3c0.4,0,2.5-0.8,2.4-0.2
	c-0.1,0.6-1,1.1,0.7,0.8c2.7-0.6,3.7-0.5,3.6,0.3c-0.1,1-0.9,1.7-2.5,2.6c-1.5,0.9-0.6,0.6-0.1,1.1c0.4,0.4-1.7,1.1-2.1,1.3
	c-0.4,0.2,0.4,0.2,0.6,0.7S433.5,365.7,433.4,365.6L433.4,365.6z"/>
<g>
	<g id="XMLID_1482_">
		<g id="XMLID_1483_">
			<g id="XMLID_1500_">
				<g id="XMLID_1501_" class="st2">
					<g id="XMLID_1506_">
						<polygon id="XMLID_1507_" class="st3" points="429.5,230.4 429.2,355.2 413.8,364.1 414.2,239.3 						"/>
					</g>
					<g id="XMLID_1504_">
						<polygon id="XMLID_1505_" class="st5" points="414.2,239.3 413.8,364.1 398.3,355.2 398.7,230.4 						"/>
					</g>
					<g id="XMLID_1502_">
						<polygon id="XMLID_1503_" class="st4" points="429.5,230.4 414.2,239.3 398.7,230.4 414.1,221.4 						"/>
					</g>
				</g>
			</g>
			<g id="XMLID_1484_">
				<g id="XMLID_1497_">
					<polygon id="XMLID_258_" class="st6" points="462.5,297.5 413.9,332.2 398.4,325.9 399.9,299.2 					"/>
					<polygon id="XMLID_1499_" class="st3" points="413.9,156 413.9,326.5 479.2,301.8 					"/>
					<polygon id="XMLID_1498_" class="st5" points="413.9,156 413.9,326.5 348.6,301.8 					"/>
				</g>
				<polygon id="XMLID_1496_" class="st6" points="464.5,269.1 413.9,298.1 357.9,281.4 371.8,250.2 				"/>
				<g id="XMLID_1493_">
					<polygon id="XMLID_1495_" class="st3" points="413.9,75.5 413.9,288.2 495.4,257.4 					"/>
					<polygon id="XMLID_1494_" class="st5" points="413.9,75.5 413.9,288.2 332.5,257.4 					"/>
				</g>
				<polygon id="XMLID_1492_" class="st6" points="458.1,174.1 413.9,190.8 369.8,174.1 364.8,185.2 413.9,205.7 				"/>
				<g id="XMLID_1489_">
					<polygon id="XMLID_1491_" class="st3" points="413.9,20.2 413.9,190.8 479.2,166.1 					"/>
					<polygon id="XMLID_1490_" class="st5" points="413.9,20.2 413.9,190.8 348.6,166.1 					"/>
				</g>
				<polygon id="XMLID_1488_" class="st6" points="444.8,89.3 413.9,110.8 378.2,100.1 392.1,68.9 				"/>
				<g id="XMLID_1485_">
					<polygon id="XMLID_1487_" class="st3" points="413.9,0 413.9,101 452.6,86.4 					"/>
					<polygon id="XMLID_1486_" class="st5" points="413.9,0 413.9,101 375.2,86.4 					"/>
				</g>
			</g>
		</g>
	</g>
</g>
<g>
	<g>
		<g>
			<ellipse class="st32" cx="375.8" cy="344.7" rx="24.9" ry="4.8"/>
			<g>
				<path class="st19" d="M398.9,267.7c-0.3,0.6-0.7,1.2-1,1.8c-5.5,10.2-15.3,25.5-13.4,26.8c2.2,1.5,12.9-13.3,20.5-22.1l0,0
					c0.4-0.5,0.8-0.9,1.1-1.3c1.1-2,0.6-4.6-1.4-5.9C402.9,265.6,400.4,266,398.9,267.7z"/>
				<path class="st19" d="M352.8,267c0,0,0.9,2.4,2.7,10.1c0.2,0.7,0.3,1.3,0.5,2c0.8,1.7,2.6,2.7,4.6,2.4c2-0.3,3.5-1.8,3.9-3.7
					l0,0c0-0.6,0-1.2,0-1.8c-0.2-7.9,0.1-10.6,0.1-10.6L352.8,267z"/>
				<path class="st19" d="M360.1,272.7c-0.7,0.1-1.3,0.3-2,0.4c-11.3,2.2-29.4,4.3-29.3,6.6c0.2,2.6,18.4,1.6,30.1,1.9l0,0
					c0.6,0,1.2,0,1.8,0c2.3-0.4,3.9-2.5,3.7-4.8C364.2,274.5,362.3,272.8,360.1,272.7z"/>
				<path class="st22" d="M377.4,295.1H392v1.2c-0.9,6.3-1.2,52.1-5.3,52.1c-3.2,0-7.4-17.9-8.8-29.5v-0.1c-0.1-0.6-0.1-1.2-0.2-1.8
					c-0.7-6-2.1-9.4-3.1-9.4l0,0c-1.1,0-1.3,3.4-2,9.4c-0.1,0.6-0.1,1.2-0.2,1.8c0,0.1,0,0.1,0,0.2c-1.3,11.5-2.4,25.9-5.6,25.9
					c-2.6,0-4.3-11.2-5.8-25.4c0,0,0-0.1-0.1-0.1c-0.1-1-0.2-2.1-0.3-3.1c-0.7-6.7-1.4-13.6-2.3-19.9v-1.2L377.4,295.1z"/>
				<g>
					<path class="st34" d="M352.7,267.4c0,0.3,0.1,0.7,0.1,1l12.9-1.7c0-0.3-0.1-0.6-0.1-1c-0.9-7.3-4.6-12.8-8.1-12.3
						S351.7,260.2,352.7,267.4z"/>
					<path class="st34" d="M356.6,253.4l1.5,43.5c5.1,1.5,10.9,2.4,17.2,2.4c6.3,0,12.2-0.9,17.2-2.4c0,0,1.1-13.5,1.1-32.7
						S356.6,253.4,356.6,253.4z"/>
					<g>
						<path class="st19" d="M390.1,267.9c0,0,2.3,1.1,9,5.3c0.6,0.4,1.2,0.7,1.7,1.1c1.8,0.6,3.8,0.1,5-1.5c1.3-1.6,1.3-3.7,0.2-5.3
							l0,0c-0.4-0.4-0.8-0.8-1.3-1.2c-5.7-5.6-7.4-7.6-7.4-7.6L390.1,267.9z"/>
						<path class="st34" d="M389.9,268.6c0.3,0.2,0.5,0.4,0.8,0.6l8.1-10.2c-0.2-0.2-0.5-0.4-0.8-0.6c-5.7-4.5-12.2-5.9-14.4-3.1
							C381.3,258.1,384.1,264,389.9,268.6z"/>
					</g>
				</g>
				<polygon class="st19" points="364.4,230.5 366,253.5 369.2,264.1 383.4,253.5 383.5,230.5 				"/>
				<polygon class="st1" points="366,250 371.4,255.5 367.7,259.4 366,253.7 				"/>
				<polygon class="st1" points="383.5,250 371.4,255.5 375.1,259.8 383.4,253.6 				"/>
				<path class="st21" d="M368.7,246c0,0,3.2,6.8,5.8-0.1C374.5,245.9,371.7,248.8,368.7,246z"/>
			</g>
		</g>
		<g>
			<path class="st11" d="M336.1,256.6c1.8-1,3.5-1.4,4.9-1.4c0.8-0.8,1.7-1.4,2.6-1.9c4.9-2.8,8.9-1.1,8.9,3.8s-4,11.2-8.9,14
				c-1.8,1-3.5,1.4-4.9,1.4c-0.8,0.8-1.7,1.4-2.6,1.9c-4.9,2.8-8.9,1.1-8.9-3.8S331.1,259.4,336.1,256.6z"/>
			<path class="st11" d="M349.5,252.2c3.2,1.7,4.5,5.6,4.5,5.6l-6.9-3.2L349.5,252.2z"/>
			<path class="st11" d="M331.6,272.8l2.1,2.9c0,0-0.5,4.7-2.8,2.8c-2.2-1.8-3.7-6.8-3.7-6.8L331.6,272.8z"/>
			<path class="st12" d="M338.9,261c1.8-1,3.5-1.4,4.9-1.4c0.8-0.8,1.7-1.4,2.6-1.9c4.9-2.8,8.9-1.1,8.9,3.8s-4,11.2-8.9,14
				c-1.8,1-3.5,1.4-4.9,1.4c-0.8,0.8-1.7,1.4-2.6,1.9c-4.9,2.8-8.9,1.1-8.9-3.8C330,270,333.9,263.8,338.9,261z"/>
			<g>
				<g>
					<polygon class="st13" points="342.4,249.9 342.4,258.3 341,257.5 341,249.1 					"/>
				</g>
				<g>
					<polygon class="st14" points="343.7,249.1 343.7,257.5 342.4,258.3 342.4,249.9 					"/>
				</g>
				<g>
					<polygon class="st15" points="342.4,248.3 343.7,249.1 342.4,249.9 341,249.1 					"/>
				</g>
			</g>
			<path class="st16" d="M342.2,252.1l-16.6,9.6l-0.9-0.8c8.8-11.3,16.3-9.6,16.3-9.6L342.2,252.1z"/>
			<path class="st17" d="M325.6,261.7c8.7-11.3,16.6-9.6,16.6-9.6C332.8,263.6,325.6,261.7,325.6,261.7z"/>
		</g>
	</g>
	<g>
		<path class="st10" d="M369.2,233.7l-3.6-5.1c0.2,0.2,7.6,5.5,10.4,5.2l-2.7-3.8c0,0,10.2-1.9,10.4,7.3c0.1,6.5,0.2,10.5,0.2,10.5
			s2.4-11.7,4-16.4c3-9-11.9-30.3-26.6-9.3c0,0-0.5,0.7-0.9,2.5C360.1,226,360.6,231.4,369.2,233.7z"/>
	</g>
</g>
<g>
	<ellipse class="st32" cx="522.7" cy="369.3" rx="13.8" ry="3.5"/>
	<g>
		<g>
			<g>
				<g>
					<path class="st7" d="M443.7,324.1l14.6-0.9l2.8,2.5l-17,0.9c-1,0.1-2-0.3-2.1-1l0,0C441.8,325,442.6,324.3,443.7,324.1z"/>
					<path class="st7" d="M469.6,303.3l14.5,15.4c0,0-0.2,15.4-15.6,15.2L453.9,319l0.2-5.6l6.3-8.1L469.6,303.3z"/>
					<path class="st7" d="M444.4,322.1c0.2,0.3,0.4,0.6,0.5,0.9c0.6,2,0.5,4.1-0.2,5.5c-1,2-3,1.8-4.4-0.3c-0.6-0.9-1-2.1-1.2-3.2
						c0-1.2,0.1-2.4,0.6-3.3C440.8,319.6,442.8,319.8,444.4,322.1z"/>
					<path class="st3" d="M441.3,326c0.2-0.3,0.5-0.3,0.7,0s0.3,0.9,0.1,1.2c-0.2,0.3-0.5,0.3-0.7,0
						C441.1,326.8,441.1,326.3,441.3,326z"/>
					<path class="st1" d="M441.1,325.9c0.2-0.3,0.5-0.3,0.7,0s0.3,0.9,0.1,1.2c-0.2,0.3-0.5,0.3-0.7,0
						C441,326.8,440.9,326.2,441.1,325.9z"/>
					<path class="st3" d="M440.6,323.4c0.2-0.3,0.5-0.3,0.7,0s0.3,0.9,0.1,1.2c-0.2,0.3-0.5,0.3-0.7,0
						C440.5,324.3,440.4,323.7,440.6,323.4z"/>
					<path class="st1" d="M440.4,323.3c0.2-0.3,0.5-0.3,0.7,0s0.3,0.9,0.1,1.2c-0.2,0.3-0.5,0.3-0.7,0S440.3,323.7,440.4,323.3z"/>
					<path class="st3" d="M443.1,325.8c0.2-0.3,0.5-0.3,0.7,0s0.3,0.9,0.1,1.2c-0.2,0.3-0.5,0.3-0.7,0
						C443,326.6,443,326.1,443.1,325.8z"/>
					<path class="st1" d="M443,325.7c0.2-0.3,0.5-0.3,0.7,0s0.3,0.9,0.1,1.2c-0.2,0.3-0.5,0.3-0.7,0
						C442.9,326.5,442.8,326,443,325.7z"/>
					<path class="st3" d="M442.5,323.2c0.2-0.3,0.5-0.3,0.7,0s0.3,0.9,0.1,1.2c-0.2,0.3-0.5,0.3-0.7,0
						C442.4,324,442.3,323.5,442.5,323.2z"/>
					<path class="st1" d="M442.3,323.1c0.2-0.3,0.5-0.3,0.7,0s0.3,0.9,0.1,1.2c-0.2,0.3-0.5,0.3-0.7,0
						C442.2,324,442.2,323.4,442.3,323.1z"/>
					<polygon class="st7" points="446.6,324 444.4,322.1 444.7,328.6 446.6,326.5 					"/>
					<path class="st3" d="M473,306.9c0,0-2.3-4.4,0.6-4.6c2.1-0.2,4.2,0.9,5.2,5.1c0.8,3.3,3.8,9.9,3.8,9.9l1,1
						c0,0-2.6-9.8-3.2-11.7c-1-3.3-3.4-8.3-9-5.3c0,0-1,3.7,0.8,6.3L473,306.9z"/>
					<path class="st7" d="M471.9,306.3c0,0-1.8-3.9,1.1-4.2c2.1-0.2,4.3,1.6,5.3,5.9c0.8,3.3,1.5,6.3,1.5,6.3l2.8,3.1
						c0,0-2.1-8.2-2.7-10.2c-1-3.3-3.6-7.8-8.1-6.3c0,0-3.2,1.1-1.6,5L471.9,306.3z"/>
					
						<ellipse transform="matrix(0.7284 -0.6851 0.6851 0.7284 -88.2417 401.3848)" class="st1" cx="462.2" cy="312" rx="10.9" ry="6.4"/>
					
						<ellipse transform="matrix(0.7284 -0.6851 0.6851 0.7284 -88.4556 401.0656)" class="st3" cx="461.7" cy="312.1" rx="8.1" ry="4.7"/>
				</g>
				<g>
					<path class="st34" d="M515.1,317c0,0,2,16.4,2.7,22.6c0.1,0.6,0.2,1.2,0.2,1.9c0.8,2.6,3.2,4.6,6.1,4.6c2.7,0,5-1.7,6-4
						c0.1-1.1,0.2-2.1,0.3-3.2c0.7-6.9,1.5-14.1,2.4-20.5v-1.2L515.1,317z"/>
				</g>
				<g>
					<path class="st34" d="M517.8,339.3c0.1,0.6,0.2,1.2,0.2,1.9c1.4,12,2.9,30,6.3,30c2.7,0,4.2-14.6,5.8-29.4
						c0.1-1.1,0.2-2.1,0.3-3.2c-0.5-3-3.1-5.2-6.3-5.2C520.7,333.3,517.9,336,517.8,339.3z"/>
				</g>
				<path class="st16" d="M499.2,271.8l9.6-10.9c0,0,16,2.7,21.4,25.3c5.3,22.6,6.8,28.4,6.8,28.4s-1.9,8.7-24.9,7.4
					c0,0,0.5-21.3-6.2-30.5C499.3,282.2,498.6,275.1,499.2,271.8z"/>
				<g>
					<polygon class="st19" points="489.6,248.7 500.7,278.2 512,262.8 504.6,243.1 					"/>
				</g>
				<g>
					<path class="st1" d="M509.7,273.9c-5.2-3.3-9.8,5-9.8,5l-0.3-0.8l11.7-16c2.1-1.9,6.7-0.1,6.7,0.1L509.7,273.9z"/>
				</g>
				<g>
					<path class="st1" d="M494.3,278.1c2.2-3.7,5.6,0.8,5.6,0.8l-4.2-10.9C493.2,272.8,494.3,278.1,494.3,278.1z"/>
				</g>
				<g>
					<path class="st10" d="M491,253.2l-0.9-2.3l2.9-3.8l14.9,9.2l0,0c2.3-3.3,3-7.5,1.5-11.5c-2.4-6.5-9.8-9.7-16.4-7.2
						c-6.6,2.5-6.4,16-6.4,16L491,253.2z"/>
				</g>
				<g>
					<path class="st10" d="M506.2,253.4c0,0,8-5.7,19.6,4.2c0,0,3.7,3.1,7.7,4.1C533.5,261.8,515,268.8,506.2,253.4z"/>
				</g>
				<g>
					<path class="st21" d="M500.3,261.8c-0.6,0.9-1.3,1.7-2.1,2c-0.4,0.2-0.9,0.2-1.4,0.2c-0.2,0-0.5-0.1-0.8-0.1
						c-0.3-0.1-0.5-0.1-0.8-0.2c0.2,0.2,0.4,0.4,0.6,0.5c0.2,0.1,0.5,0.3,0.8,0.4c0.5,0.2,1.2,0.2,1.8,0s1.1-0.7,1.3-1.2
						C500.1,262.9,500.3,262.3,500.3,261.8z"/>
				</g>
				<path class="st16" d="M524,273.9"/>
				<g>
					<path class="st19" d="M501.4,285.6c0,0,0.6,2.5,1.5,10.7c0.1,0.7,0.2,1.4,0.2,2.1c0.6,1.8,2.4,3.1,4.5,3.1s3.9-1.4,4.5-3.3l0,0
						c0.1-0.6,0.1-1.2,0.2-1.8c0.9-8.1,1.5-10.8,1.5-10.8L501.4,285.6L501.4,285.6z"/>
				</g>
				<g>
					<path class="st19" d="M507.2,292.5c-0.7,0.2-1.3,0.5-2,0.7c-11.2,4.1-29.5,9.5-29,11.8c0.7,2.7,19.3-1.5,31.3-3.1l0,0
						c0.6-0.1,1.2-0.2,1.8-0.2c2.2-0.8,3.5-3.2,3-5.6C511.7,293.7,509.5,292.2,507.2,292.5z"/>
				</g>
				<g>
					<path class="st16" d="M500.8,285.9c0,0.3,0,0.7,0,1h13.7c0-0.3,0-0.7,0-1c0-6.3-2.1-11.5-5-13.1c-0.6-0.3-1.2-0.5-1.9-0.5
						c-0.2,0-0.3,0-0.4,0c-2.6,0.3-4.7,3.4-5.8,7.8C501,281.8,500.8,283.8,500.8,285.9z"/>
				</g>
			</g>
			<path class="st35" d="M443.2,327c0,0-10.8,10.5-14.2,35.8"/>
		</g>
		<path class="st35" d="M441,324.5c0,0-12.4,10.5-14.9,39.6"/>
		<path class="st35" d="M442.9,324.4c0,0-12.7,10.5-15.2,39.6"/>
	</g>
</g>
<g>
	<g>
		<g>
			<g>
				<g>
					<path class="st21" d="M111.9,465.7c0,0-0.7,4.7-2.8,4.8c-3,0.2-3.7,0.2-3.7,0.2s-1.4-0.4-1.5-2.2s-0.1-3.2-0.1-3.2
						s0-0.6,1.3-0.9c1.3-0.2,5.6-0.3,5.6-0.3S112.1,464.4,111.9,465.7z"/>
				</g>
			</g>
		</g>
	</g>
	<g>
		<g>
			<g>
				<g>
					
						<rect x="111.2" y="464.7" transform="matrix(0.9983 -5.852364e-02 5.852364e-02 0.9983 -27.0203 7.4138)" class="st21" width="3.7" height="0.6"/>
				</g>
			</g>
		</g>
	</g>
</g>
<path class="st10" d="M116.3,458.3c0,0-5.5,6.7-12.9,7.7c0,0,3.8-2.7,4.8-6.1c0,0-13,7.2-4.3,20.7c0,0-14.4-1.7-13.4-10
	c0.9-7.7,1.3-5.7,5.2-14.7c3.8-8.9,14.3-15.8,22.2-7.8c0,0,3.6,0.5,4.8,5.4c1.2,5,5.4,15.1,4.5,18.2c-1.4,4.6-10,9.6-10,9.6
	S124.6,468.6,116.3,458.3z"/>
<g>
	<g>
		<g>
			<g>
				<path class="st21" d="M114.3,465.4c0,0,1.2,4.6,3.3,4.5c3-0.1,3.7-0.3,3.7-0.3s1.4-0.5,1.3-2.3s-0.3-3.1-0.3-3.1
					s-0.1-0.6-1.3-0.7s-5.6,0.3-5.6,0.3S114,464.2,114.3,465.4z"/>
			</g>
		</g>
	</g>
</g>
<g>
	<path class="st11" d="M440.1,137.2c1.8-1,3.5-1.4,4.9-1.4c0.8-0.8,1.7-1.4,2.6-1.9c4.9-2.8,8.9-1.1,8.9,3.8c0,4.9-4,11.2-8.9,14
		c-1.8,1-3.5,1.4-4.9,1.4c-0.8,0.8-1.7,1.4-2.6,1.9c-4.9,2.8-8.9,1.1-8.9-3.8C431.2,146.4,435.1,140,440.1,137.2z"/>
	<path class="st11" d="M453.5,132.8c3.2,1.7,4.5,5.6,4.5,5.6l-6.9-3.2L453.5,132.8z"/>
	<path class="st11" d="M435.6,153.4l2.1,2.9c0,0-0.5,4.7-2.8,2.8c-2.2-1.8-3.7-6.8-3.7-6.8L435.6,153.4z"/>
	<path class="st12" d="M442.9,141.6c1.8-1,3.5-1.4,4.9-1.4c0.8-0.8,1.7-1.4,2.6-1.9c4.9-2.8,8.9-1.1,8.9,3.8c0,4.9-4,11.2-8.9,14
		c-1.8,1-3.5,1.4-4.9,1.4c-0.8,0.8-1.7,1.4-2.6,1.9c-4.9,2.8-8.9,1.1-8.9-3.8S437.9,144.4,442.9,141.6z"/>
	<g>
		<g>
			<polygon class="st13" points="446.4,130.5 446.4,139 445.1,138.2 445.1,129.7 			"/>
		</g>
		<g>
			<polygon class="st14" points="447.8,129.7 447.8,138.2 446.4,139 446.4,130.5 			"/>
		</g>
		<g>
			<polygon class="st15" points="446.4,128.9 447.8,129.7 446.4,130.5 445.1,129.7 			"/>
		</g>
	</g>
	<path class="st16" d="M446.3,132.7l-16.6,9.6l-0.9-0.8c8.8-11.3,16.3-9.6,16.3-9.6L446.3,132.7z"/>
	<path class="st17" d="M429.7,142.4c8.7-11.3,16.6-9.6,16.6-9.6C436.8,144.3,429.7,142.4,429.7,142.4z"/>
</g>
<g>
	<path class="st11" d="M407.5,77.5c0,3.9-3.2,5.3-7.1,3c-0.7-0.4-1.4-0.9-2.1-1.5c-1.1,0.1-2.4-0.3-3.9-1.1
		c-3.9-2.2-7.1-7.3-7.1-11.2s3.2-5.3,7.1-3c0.7,0.4,1.4,0.9,2.1,1.5c1.1-0.1,2.4,0.3,3.9,1.1C404.4,68.5,407.5,73.5,407.5,77.5z"/>
	<path class="st11" d="M391.5,64.6l-5.5,2.6c0,0,1-3.1,3.6-4.5L391.5,64.6z"/>
	<path class="st11" d="M407.5,78.3c0,0-1.2,4-3,5.5c-1.9,1.5-2.2-2.2-2.2-2.2l1.7-2.3L407.5,78.3z"/>
	<path class="st12" d="M405.3,81c0,3.9-3.2,5.3-7.1,3c-0.7-0.4-1.4-0.9-2.1-1.5c-1.1,0.1-2.4-0.3-3.9-1.1c-3.9-2.2-7.1-7.3-7.1-11.2
		c0-3.9,3.2-5.3,7.1-3c0.7,0.4,1.4,0.9,2.1,1.5c1.1-0.1,2.4,0.3,3.9,1.1C402.1,72,405.3,77,405.3,81z"/>
	<g>
		<g>
			<polygon class="st13" points="396.4,60.2 396.4,67 395.3,67.6 395.3,60.8 			"/>
		</g>
		<g>
			<polygon class="st14" points="395.3,60.8 395.3,67.6 394.2,67 394.2,60.2 			"/>
		</g>
		<g>
			<polygon class="st15" points="396.4,60.2 395.3,60.8 394.2,60.2 395.3,59.5 			"/>
		</g>
	</g>
	<path class="st16" d="M396.4,62c0,0,6-1.3,13,7.7l-0.7,0.6l-13.2-7.7L396.4,62z"/>
	<path class="st17" d="M395.5,62.6c0,0,6.3-1.3,13.3,7.7C408.8,70.3,403,71.9,395.5,62.6z"/>
</g>
</svg>
