<?xml version="1.0" encoding="utf-8"?>
<!-- Generator: Adobe Illustrator 21.0.2, SVG Export Plug-In . SVG Version: 6.00 Build 0)  -->
<svg version="1.1" id="Layer_1" xmlns="http://www.w3.org/2000/svg" xmlns:xlink="http://www.w3.org/1999/xlink" x="0px" y="0px"
	 viewBox="0 0 307.9 315.9" style="enable-background:new 0 0 307.9 315.9;" xml:space="preserve">
<style type="text/css">
	.st0{fill:#F7F8F9;}
	.st1{fill:#FFFFFF;}
	.st2{fill:#ECEDEE;}
	.st3{fill:#DFE1E3;}
	.st4{fill:#22A3FF;}
	.st5{fill:#1B8AE5;}
	.st6{fill:#FCC1BE;}
	.st7{fill:#6BBD00;}
	.st8{fill:#D6D7D8;}
	.st9{fill:#2A4494;}
	.st10{fill:#515151;}
	.st11{fill:#E5B700;}
	.st12{fill:#FFCC00;}
	.st13{fill:#FDD118;}
</style>
<g>
	<path class="st0" d="M16.1,215.4c13.2-15.3,258.1-18.2,274.6,0.9s19,17,16.2,37.4s-31.4,29.6-31.4,29.6s-27.3,28.4-57.5,28.4
		s-54.7,11.4-75.6-3.4c-20.9-14.8-57.9-9.1-59.1-9.1s-35.4,28.4-47.4,2.3S5.3,271.9,1.3,253.7S2.8,230.7,16.1,215.4z"/>
	<g>
		<g>
			<polygon class="st1" points="170.3,201.8 136.4,182.2 170.3,162.7 204.2,182.2 			"/>
			<polygon class="st2" points="170.3,283.5 136.4,263.9 136.4,182.2 170.3,201.8 			"/>
			<polygon class="st3" points="170.3,283.5 204.2,263.9 204.2,182.2 170.3,201.8 			"/>
		</g>
	</g>
	<g>
		<g>
			<polygon class="st1" points="204.2,133 170.3,113.4 204.2,93.8 238.1,113.4 			"/>
			<polygon class="st2" points="204.2,182.5 170.3,162.9 170.3,113.4 204.2,133 			"/>
			<polygon class="st3" points="204.2,263.9 238.1,244.3 238.1,113.4 204.2,133 			"/>
		</g>
	</g>
	<g>
		<g>
			<polygon class="st1" points="238.1,65.5 204.2,45.9 238.1,26.3 272.1,45.9 			"/>
			<polygon class="st2" points="238.1,115 204.2,95.5 204.2,45.9 238.1,65.5 			"/>
			<polygon class="st3" points="238.1,244.4 272.1,224.8 272.1,45.9 238.1,65.5 			"/>
		</g>
	</g>
	<g>
		<g>
			<polygon class="st4" points="183.3,252.3 180.2,246.9 189.9,205.3 199.3,208.6 206.7,224.4 214,187.2 223.8,189.1 239.5,212.4 
				258.2,126.9 266.8,133.6 245.4,229.7 238,227.7 221.2,201.2 213.3,243.2 205.3,240.2 196.3,221.3 			"/>
			<polygon class="st4" points="248.8,126.1 251.8,131.4 273.8,144.6 267.8,120.1 265.5,113 			"/>
		</g>
		<g>
			<polygon class="st5" points="191.5,258.8 183,252.1 192.7,210.5 202.1,213.8 209.5,229.6 216.8,192.4 226.5,194.3 242.3,217.6 
				261,132.1 269.6,138.8 248.2,234.9 240.8,232.8 224,206.4 216,248.4 208,245.4 199.1,226.5 			"/>
			<polygon class="st5" points="251.6,131.3 276.6,149.8 267.5,119.2 			"/>
		</g>
	</g>
	<g>
		<g>
			<ellipse class="st3" cx="111.7" cy="275.5" rx="26.9" ry="9.1"/>
		</g>
		<g>
			<g>
				<g>
					<path class="st6" d="M148.3,163.9c0,0-1.3,3.4-3.9,14.5c-0.2,0.9-0.5,1.9-0.7,2.9c-1.2,2.4-3.8,3.9-6.6,3.5
						c-2.9-0.4-5.1-2.6-5.5-5.3l0,0c0-0.9,0-1.7,0.1-2.5c0.3-11.4-0.1-15.2-0.1-15.2L148.3,163.9z"/>
				</g>
				<g>
					<path class="st6" d="M144.4,178.6c-0.2,0.9-0.5,1.9-0.7,2.9c-3.9,16.1-8.2,42-11.5,41.5c-3.7-0.5-1-26.5-0.6-43.3l0,0
						c0-0.9,0-1.7,0.1-2.5c0.7-3.2,3.8-5.4,7.1-5C142,172.5,144.4,175.3,144.4,178.6z"/>
				</g>
				<g>
					<path class="st7" d="M149.1,164.5c-0.1,0.5-0.1,0.9-0.2,1.4l-18.5-2.4c0-0.5,0.1-0.9,0.2-1.4c1.3-10.4,6.6-18.3,11.7-17.7
						C147.4,145.1,150.5,154.1,149.1,164.5z"/>
				</g>
				<g>
					<path class="st8" d="M110.9,204H89.8v1.7c1.3,9,1.8,75.2,7.6,75.2c4.6,0,10.6-26,12.6-42.6c0-0.1,0-0.1,0.1-0.2
						c0.1-0.9,0.2-1.8,0.3-2.6c1.1-8.6,3-13.6,4.5-13.6l0,0c1.6,0,1.8,5,2.9,13.6c0.1,0.8,0.2,1.7,0.3,2.6c0,0.1,0,0.1,0.1,0.2
						c1.9,16.5,3.4,37.5,8,37.5c3.7,0,6.2-16.4,8.3-36.7c0-0.1,0.1-0.1,0.1-0.2c0.2-1.5,0.3-3,0.5-4.5c1-9.6,2-19.6,3.3-28.6v-1.7
						L110.9,204z"/>
				</g>
				<g>
					<path class="st7" d="M140.8,144.4l-2.1,62.6c-7.3,2.2-15.7,3.5-24.7,3.5s-17.5-1.3-24.8-3.5l-1.6-47.1l-0.5-15.5H140.8z"/>
				</g>
				<g>
					<path class="st6" d="M95.6,163.1c0,0-0.8,3.5-2.1,14.9c-0.1,1-0.2,2-0.3,2.9c-0.9,2.5-3.3,4.3-6.1,4.3c-2.9,0-5.4-1.9-6.2-4.5
						l0,0c-0.1-0.8-0.2-1.7-0.3-2.5c-1.2-11.3-2-15.1-2-15.1L95.6,163.1L95.6,163.1z"/>
				</g>
				<g>
					<path class="st7" d="M96.5,163.4c0,0.5,0,0.9,0,1.4H77.9c0-0.5,0-0.9,0-1.4c0-10.5,4.2-19,9.3-19S96.5,152.9,96.5,163.4z"/>
				</g>
				<g>
					<path class="st1" d="M103.3,158.3c4.8-8.5,19.4,1.4,19.4,1.4l-20.4-17.8c-3.5-2.4-9,0.8-8.4,3.3c0.1,0.3,0.2,0.6,0.4,0.9
						L103.3,158.3z"/>
				</g>
				<g>
					<path class="st1" d="M133.4,154.1c-4.8-3.1-10.8,5.6-10.8,5.6L127,144c1-2.3,6.5-1,6.9,0.4c0.1,0.2,0.1,0.4,0.1,0.6
						L133.4,154.1z"/>
				</g>
				<g>
					<polygon class="st6" points="127.3,107.9 127.2,144.5 122.7,159.7 102.2,144.5 102.2,107.9 					"/>
				</g>
				<g>
					<g>
						<path class="st9" d="M136.4,114.4c0,7.3-3.6,13.7-9.1,17.7v-20.7c-4.7,2.4-11.8-2.9-11.8-2.9c-3.1,4.6,2.9,7.8,2.9,7.8
							c-7.8,1.4-12.7-2.5-16.2-4.8l0.1,20.7c-5.6-3.9-9.2-10.4-9.2-17.8c0-12,9.7-21.7,21.7-21.7
							C126.7,92.7,136.4,102.4,136.4,114.4z"/>
					</g>
					<g>
						<path class="st9" d="M102.1,131.7c0,0-14,9.2-4.8,33.9c0,0,2.9,7.9,2.1,15C99.3,180.5,121.7,155.3,102.1,131.7z"/>
					</g>
				</g>
				<g>
					<path class="st10" d="M117,133.8c1.4,1,2.9,1.9,4.3,1.9c0.7,0,1.4-0.1,2.1-0.5c0.4-0.2,0.7-0.4,1.1-0.6
						c0.3-0.2,0.7-0.5,1.1-0.7c-0.2,0.4-0.4,0.8-0.6,1.2c-0.3,0.3-0.6,0.7-0.9,1c-0.7,0.6-1.7,1-2.7,1s-1.9-0.4-2.7-1
						C118,135.4,117.4,134.7,117,133.8z"/>
				</g>
			</g>
			<g>
				<path class="st6" d="M87.2,174c1,0.1,1.9,0.3,2.9,0.4c16.4,2.4,42.5,4.4,42.4,7.7c-0.1,3.8-26.3,3.4-43.1,4.5l0,0
					c-0.9,0.1-1.7,0.1-2.5,0.2c-3.3-0.4-5.8-3.3-5.6-6.7C81.4,176.9,84,174.3,87.2,174z"/>
			</g>
		</g>
	</g>
</g>
<path class="st2" d="M247.8,114.2"/>
<g>
	<polygon class="st11" points="245.1,3.1 250.5,16.2 267.2,6.5 253.7,24.7 258.6,38.4 245.1,36.2 231.6,54.4 236.6,35.3 222.9,34.6 
		239.4,25.1 	"/>
	<polygon class="st12" points="239.8,24.7 235,21.9 240,0 245.1,3.1 	"/>
	<polygon class="st13" points="222.9,34.6 217.6,31.5 235.1,21.4 239.8,24.7 	"/>
	<polygon class="st12" points="231.6,54.4 227.5,52.7 231.6,35 236.6,35.3 	"/>
	<polygon class="st13" points="267.2,6.5 263.2,2.6 248.3,11 250.5,16.2 	"/>
</g>
</svg>
