<?xml version="1.0" encoding="utf-8"?>
<!-- Generator: Adobe Illustrator 21.0.2, SVG Export Plug-In . SVG Version: 6.00 Build 0)  -->
<svg version="1.1" id="Layer_1" xmlns="http://www.w3.org/2000/svg" xmlns:xlink="http://www.w3.org/1999/xlink" x="0px" y="0px"
	 viewBox="0 0 923 449.6" style="enable-background:new 0 0 923 449.6;" xml:space="preserve">
<style type="text/css">
	.st0{fill:#F7F8F9;}
	.st1{fill:#2B429A;}
	.st2{fill:#DFE1E3;}
	.st3{fill:#FCC1BE;}
	.st4{fill:#B3D9F8;stroke:#515151;stroke-width:0.5;stroke-miterlimit:10;}
	.st5{fill:#515151;}
	.st6{fill:#B3D9F8;}
	.st7{fill:#FDD118;}
	.st8{fill:#171F38;}
	.st9{fill:#2A4494;}
	.st10{fill:#FFFFFF;}
	.st11{fill:#61AD3F;stroke:#515151;stroke-width:0.5;stroke-miterlimit:10;}
	.st12{fill:#28A9DF;}
	.st13{fill:#FAFAFA;}
	.st14{fill:#ECEDEE;}
	.st15{fill:#6BBD00;}
	.st16{fill:#C7CAD7;}
	.st17{fill:#0099FF;}
	.st18{fill:#E8BA08;}
	.st19{fill:#1B8AE5;}
	.st20{enable-background:new    ;}
	.st21{fill:#8F7B69;}
	.st22{fill:#D6D7D8;}
	.st23{fill:none;stroke:#C7CAD7;stroke-width:0.5;stroke-miterlimit:10;}
	.st24{fill:#E5B700;}
</style>
<path class="st0" d="M906.2,290.6c0,4.9-8.1,9.7-12.2,17c-4.3,7.7-8.2,17.1-10.7,28.6c-8,37.3-88.9,53.9-88.9,53.9
	s-77.5,51.9-163,51.9s-155,20.7-214.3-6.2c-59.3-27-164.2-16.6-167.6-16.6s-100.3,51.9-134.5,4.2s-86.6-53.9-98.1-87.1
	c-3.2-9.4-6.3-12.2-9-19.4c-2.4-6.4-11.6-16.3-6.2-21.8s6.9-4,6.9-4s8.7-2.3,19.1-8.8c6.1-3.8,12.8-9.1,18.6-16.3
	c15.8-19.3,19.8-19.4,42.3-21.3c22.6-1.9,14.1-9.6,35-19.6c20.9-10.1,23.1,16.3,80.2-6.2c57-22.5,102.2-19.1,133.3-14.8
	c31.1,4.3,47.4,38.3,107.8,24.9s83.3,37.5,83.3,37.5c46.3-16.3,73.7-45.2,95.2-40.9c21.4,4.3,18.1-3.8,41.8-3.3s26.5,12.4,62.1,9.6
	c35.6-2.9,33.3,4.8,56.5,18.7c23.1,13.9,42.3,4.8,83.6,12.4c16,3,27.2,10.9,33.8,19.4C903.3,285.1,906.2,285.7,906.2,290.6z"/>
<g>
	<path class="st1" d="M635.4,286.8"/>
</g>
<g>
	<g>
		<ellipse class="st2" cx="251" cy="286" rx="43.1" ry="14.6"/>
	</g>
	<g>
		<path class="st3" d="M223.8,166c0,0.1-0.1,0.2-0.1,0.3c-1.1,2.4-2.3,4.9-3.5,7.5l0,0c-9.1,19.8-19.8,45.5-23.5,44.2
			c-4.7-1.7,7.7-39.5,13-61.4c0.1,2.1,3.8-1.4,5.4,0.2c2.7,2.7,2.1,13.5,5.3,12c0,0,0,0,0.1,0c1-0.8,2.1-1.7,3.1-2.5
			C223.7,166.2,223.7,166.1,223.8,166z"/>
		<g>
			<path class="st3" d="M278.6,132.4c0.1,0,0.2,0,0.3,0c2.6,0.2,5.4,0.3,8.3,0.4l0,0c21.8,0.9,49.6,1.2,49.8,5
				c0.2,5-34.5,7.4-56.8,10.9c1.9-0.8,3.5-2.4,4.3-4.5c1.5-3.5,0.5-7.3-2.1-9.7c0,0,0,0-0.1,0c-1.2-0.7-2.3-1.3-3.5-1.9
				C278.8,132.5,278.7,132.5,278.6,132.4z"/>
			<path class="st4" d="M262,194c0,1.4-0.9,2.5-2.2,2.6c-1.2,0-2.3-1-2.3-2.4s0.9-2.5,2.2-2.5C261,191.5,262,192.6,262,194z"/>
			<path class="st4" d="M263.4,181.8c0,1.4-0.9,2.5-2.2,2.6s-2.3-1.1-2.3-2.4c0-1.4,1-2.5,2.2-2.6
				C262.3,179.3,263.4,180.4,263.4,181.8z"/>
			<g>
				<path class="st5" d="M230.6,205.5c3.3,0.8,6.7,1.4,10.1,1.8s6.8,0.6,10.2,0.6c3.4,0,6.8-0.2,10.2-0.6c1.7-0.2,3.4-0.5,5.1-0.8
					s3.3-0.8,5-1.1c-3.3,1-6.6,1.9-10,2.4s-6.8,0.7-10.3,0.7c-3.4,0-6.9-0.3-10.3-0.7C237.2,207.2,233.9,206.5,230.6,205.5z"/>
			</g>
			<g>
				<path class="st5" d="M230.5,205.5c-0.1,0.2-0.3,0.2-0.4,0.2s-0.2-0.1-0.2-0.3c0.2-0.2,0.3-0.2,0.4-0.2
					C230.4,205.2,230.5,205.3,230.5,205.5z"/>
			</g>
			<path class="st4" d="M272.6,131.2"/>
			<path class="st5" d="M263.4,181.8c0,1.4-0.9,2.5-2.2,2.6s-2.3-1.1-2.3-2.4c0-1.4,1-2.5,2.2-2.6
				C262.3,179.3,263.4,180.4,263.4,181.8z"/>
			<path class="st5" d="M262,194c0,1.4-0.9,2.5-2.2,2.6c-1.2,0-2.3-1-2.3-2.4s0.9-2.5,2.2-2.5C261,191.5,262,192.6,262,194z"/>
			<path class="st6" d="M278.6,202.7c-3.2,39.1-8.5,83.7-14.2,83.7c-8.9,0-2.2-69.2-11.9-69.2c-10.6,0-6.2,69.2-16,69.2
				c-6.5,0-11.9-44.8-16.7-83.1c2.1,0.6,5.8,1.5,10.7,2.2c0,0,0,0,0.1,0C242.2,207.3,260.3,208.4,278.6,202.7L278.6,202.7z"/>
			<path class="st7" d="M282.1,152.7l-0.4-2.5c0.3,6.1,0.2,16.5-1.2,26.5c-0.5,8-1.1,16.9-1.8,26.1l0,0c-18.3,5.7-36.4,4.6-48.1,2.8
				c0,0,0,0-0.1,0c-4.9-0.8-8.6-1.6-10.7-2.2c-1.9-14.7,0-33.1,0-33.1l-12.6-9.6c1.8-6.5,3.3-11.7,4.2-14.1
				c3.5-8.4,5.7-10.1,7.3-12.1c1.8-2.3,8.4-2.9,13.4-3.1h0.9c0.9,0,1.8,0,2.5,0h0.3c1.3,0,2.1,0,2.1,0l3.3,2.9l0.6,0.6l0,0l11.3,9.8
				l12.6-12.1c0,0,0.4-0.2,1-0.4c0.1,0,0.2,0,0.3-0.1c1.3-0.4,3.4-0.7,5.6,0c0.1,0,0.2,0,0.3,0.1l-0.4-0.8c3.8,0,8.8,0,14.4,0.2
				l-2,18.6C283.8,150.3,283,152.5,282.1,152.7z"/>
			<path class="st8" d="M259.8,191.6c1.2,0,2.3,1,2.3,2.4s-0.9,2.5-2.2,2.6c-1.2,0-2.3-1-2.3-2.4
				C257.5,192.7,258.5,191.6,259.8,191.6z"/>
			<path class="st8" d="M261.2,184.4c-1.2,0-2.3-1.1-2.3-2.4c0-1.4,1-2.5,2.2-2.6c1.2,0,2.3,1.1,2.3,2.4
				C263.4,183.2,262.4,184.3,261.2,184.4z"/>
			<g>
				<polygon class="st3" points="269.1,95 268.4,97.5 270,114.8 267,119.8 267,126.7 267,130.8 266.7,131.6 265.5,139.8 
					260.4,169.5 260.3,169.8 257.8,164.9 250.8,151.6 241.7,134.3 241.7,134.2 240.3,130.2 239.7,95 				"/>
				<path class="st4" d="M240.2,161.5"/>
				<path class="st4" d="M240.3,130.2"/>
				<g>
					<path class="st5" d="M252.1,119.5c0.7,0.7,1.5,1.3,2.4,1.8s1.8,0.8,2.7,0.8c0.9,0,1.9-0.2,2.7-0.7c0.4-0.2,0.8-0.6,1.2-0.8
						l1.1-1c-0.3,0.4-0.6,0.8-0.9,1.2c-0.4,0.3-0.7,0.7-1.2,1c-0.8,0.6-1.9,0.9-2.9,0.9s-2.1-0.4-2.9-1
						C253.4,121,252.7,120.3,252.1,119.5z"/>
				</g>
				<path class="st4" d="M264.6,141.8"/>
				<path id="XMLID_260_" class="st9" d="M253.7,73.5c0,0-14.7-4.3-22.1,12.9c-6.8,16.1-6.8,33.5-4.9,37.4c2,4.2,15.4,2.4,15.4,2.4
					s-4.1-27.5-0.6-29s24.2-0.9,25.3,0.3s1,24.5-1.7,28.9c0,0,16.8,3.3,17.7-7.3S274.8,66.5,253.7,73.5z"/>
				<path class="st10" d="M258.7,166.6c0,0-14-13.4-21.3-13.4l2-7l-8-1.6l0.6-13.4l7.6-0.7l11.1,20.9L258.7,166.6z"/>
				<path class="st10" d="M274.1,143.1l-3.9,1.3l0.9,3.3c-6.4,3-10.3,19.8-10.7,21.9l6.4-38.8l5.6,0.1l5.4,11L274.1,143.1z"/>
				<path class="st11" d="M247.6,146.5"/>
			</g>
			<path class="st12" d="M266.7,131.6"/>
		</g>
	</g>
</g>
<g>
	<polygon class="st2" points="480.3,145.2 460.9,151.1 461.5,98.6 480.3,98.6 	"/>
	<g>
		<path class="st2" d="M570.9,270c-19.2,18-32.6,24.3-42.6,67.6c-0.4,1.5-0.7,3.1-1,4.7c-11.4,53.4-43.9,47-52.4,44.2
			c-1.4-0.4-2.1-0.8-2.1-0.8l8-20.7l12.3-31.7l0.2-0.5l22.8-58.8l45.7-62.3l22.3-10.1C584,201.7,590.8,251.4,570.9,270z"/>
		<g>
			<polygon class="st13" points="548.3,180 524.6,189.4 561.6,211.7 584,201.7 			"/>
			<polygon class="st13" points="504.1,176.6 517.9,168.8 480.2,144.8 460.7,150.9 			"/>
			<path class="st13" d="M341.1,39.4c0,0,38.7-82.6,145.5-8.7l-23.1,20.4C463.5,51.1,381.5-7.1,341.1,39.4z"/>
			<polygon class="st2" points="486.7,30.7 487.1,74.2 462.5,89.4 462.5,51.5 			"/>
			<path class="st2" d="M534.2,124.1l-20.9,17.7l-36-27.7c0,0,15.2-30.4,32.4-26.8C538.6,93.3,534.2,124.1,534.2,124.1z"/>
			<path class="st13" d="M533.8,227.7c0,10.7-8.7,14.4-19.4,8.2S495,216,495,205.2c0-7.9,16.3-15.9,23.1-15
				c-1.4,1.6-9.5,10.4-7.2,19.6c2.2,8.6,10.1,17.9,21.8,10.8c5.5-3.4-1.8,9.1,1.1,6.4C533.8,227.2,533.8,227.4,533.8,227.7z"/>
			<g>
				<path class="st14" d="M561.8,217.1c0.1,6.5-0.5,12.5-1.6,18.1c-0.9,4.3-2,8.3-3.5,12c-0.9,2.3-2,4.6-3.1,6.6
					c-5.8,10.5-18.3,11.7-32.7,32.1c-12.9,18.3-16.9,27.5-18.2,52.4l-115.2-66.4c-1.7-27.5-8.2-54-27.5-94.9
					c-15-30.4-20-36.3-25.4-54.4c-0.3-1.1-0.7-2.2-1-3.3c-0.1-0.1-0.1-0.3-0.1-0.4c-3.4-12.3-5.3-24.3-5.3-35.7
					c-0.3-61.3,51.8-81,116.3-44c6.5,3.7,12.8,7.9,19,12.4l-1,38.2l0,0l21.6,12.4l0,0c3.5-1.6,8.5-0.9,13.9,2.3
					c10.3,6.2,18.5,19.5,18.2,29.7c-0.2,5.7-3,9.2-7.2,10l0,0c-3.3,0.7-7.5-0.2-12-3c-6.5-3.9-12.1-10.6-15.3-17.6l-19.8-12l-1.1,39
					l43.1,26l-0.5,21.3c-5.1,0.3-7.4,5-7.6,11.4c-0.2,8.9,4.8,15.3,13.2,22.2l0,0c1.2,1,2.5,1.9,3.8,2.7c10.3,6.2,18.9,3.1,19.2-7.1
					c0.2-6.4-3-14-7.9-20.4l0.5-17.6l37,22.3C561.7,213.5,561.8,215.3,561.8,217.1z"/>
			</g>
			<polygon class="st13" points="487.1,74.2 505.8,86.2 484.1,102.2 462.5,89.4 			"/>
			<polygon class="st2" points="517.9,168.8 517.7,191 503.2,198.5 503.9,176.9 			"/>
		</g>
	</g>
</g>
<g>
	<g>
		<ellipse class="st2" cx="666.9" cy="375.8" rx="33.2" ry="11.2"/>
	</g>
	<g>
		<g>
			<g>
				<path class="st3" d="M621.6,238c0,0,1.6,4.2,4.9,17.9c0.3,1.2,0.6,2.4,0.9,3.6c1.5,2.9,4.7,4.8,8.1,4.3c3.5-0.5,6.2-3.2,6.8-6.5
					l0,0c0-1.1-0.1-2.1-0.1-3.1c-0.3-14.1,0.1-18.8,0.1-18.8L621.6,238z"/>
			</g>
			<g>
				<path class="st3" d="M626.5,256.2c0.3,1.2,0.6,2.4,0.9,3.6c4.8,19.9,10.2,51.8,14.2,51.3c4.6-0.6,1.2-32.7,0.8-53.5l0,0
					c0-1.1-0.1-2.1-0.1-3.1c-0.9-4-4.7-6.7-8.8-6.2C629.4,248.7,626.5,252.2,626.5,256.2z"/>
			</g>
			<g>
				<path class="st15" d="M620.6,238.8c0.1,0.6,0.2,1.2,0.3,1.7l22.8-2.9c-0.1-0.6-0.1-1.1-0.2-1.7c-1.7-12.9-8.1-22.6-14.4-21.8
					C622.8,214.9,619,226,620.6,238.8z"/>
			</g>
			<g>
				<path class="st6" d="M667.8,287.6h26v2.1c-1.6,11.1-2.2,92.7-9.4,92.7c-5.7,0-13.1-32-15.5-52.6c0-0.1-0.1-0.2-0.1-0.2
					c-0.1-1.1-0.3-2.2-0.4-3.2c-1.3-10.6-3.7-16.8-5.6-16.8l0,0c-1.9,0-2.3,6.1-3.6,16.8c-0.1,1-0.3,2.1-0.4,3.2
					c0,0.1-0.1,0.2-0.1,0.3c-2.4,20.4-4.2,46.2-9.9,46.2c-4.5,0-7.6-20.2-10.2-45.3c0-0.1-0.1-0.1-0.1-0.2c-0.2-1.8-0.4-3.7-0.6-5.5
					c-1.2-11.8-2.5-24.2-4.1-35.3v-2.1L667.8,287.6z"/>
			</g>
			<g>
				<path class="st15" d="M630.9,214l2.6,77.2c9,2.7,19.4,4.3,30.5,4.3s21.5-1.6,30.6-4.3l1.9-58.1l0.6-19.1L630.9,214L630.9,214z"
					/>
			</g>
			<g>
				<path class="st3" d="M686.7,237.1c0,0,1,4.3,2.5,18.4c0.1,1.2,0.3,2.4,0.4,3.6c1.1,3.1,4,5.3,7.5,5.3c3.6,0,6.6-2.4,7.6-5.6l0,0
					c0.1-1,0.2-2.1,0.3-3.1c1.5-14,2.5-18.6,2.5-18.6L686.7,237.1L686.7,237.1z"/>
			</g>
			<g>
				<path class="st15" d="M685.6,237.5c0,0.6,0,1.2,0,1.7h23c0-0.6,0-1.2,0-1.7c0-13-5.2-23.5-11.5-23.5S685.6,224.5,685.6,237.5z"
					/>
			</g>
			<g>
				<path class="st10" d="M677.2,231.2c-5.9-10.5-23.9,1.7-23.9,1.7l25.1-22c4.3-3,11.2,1,10.4,4c-0.1,0.4-0.2,0.8-0.4,1.2
					L677.2,231.2z"/>
			</g>
			<g>
				<path class="st10" d="M640,226c6-3.8,13.3,6.9,13.3,6.9l-5.5-19.4c-1.2-2.8-8-1.3-8.5,0.5c-0.1,0.2-0.1,0.5-0.1,0.7L640,226z"/>
			</g>
			<g>
				<polygon class="st3" points="647.6,169.1 647.6,214.2 653.3,232.9 678.5,214.2 678.6,169.1 				"/>
			</g>
			<g>
				<g>
					<path class="st9" d="M636.3,177c0,9,4.4,16.9,11.2,21.8v-25.5c5.8,3,14.6-3.6,14.6-3.6c3.8,5.7-3.6,9.6-3.6,9.6
						c9.6,1.7,15.6-3,20-5.9l-0.1,25.5c6.9-4.8,11.4-12.8,11.4-21.9c0-14.8-12-26.8-26.8-26.8C648.3,150.2,636.3,162.2,636.3,177z"
						/>
				</g>
				<g>
					<path class="st9" d="M678.6,198.3c0,0,17.3,11.3,6,41.8c0,0-3.5,9.7-2.6,18.4C682,258.6,654.5,227.5,678.6,198.3z"/>
				</g>
			</g>
			<g>
				<path class="st5" d="M660.2,201c-1.8,1.2-3.5,2.3-5.3,2.3c-0.9,0-1.8-0.2-2.6-0.6c-0.4-0.2-0.8-0.5-1.3-0.8
					c-0.4-0.3-0.8-0.6-1.3-0.9c0.2,0.5,0.5,1,0.8,1.5c0.4,0.4,0.7,0.9,1.2,1.2c0.9,0.8,2.1,1.2,3.3,1.2s2.4-0.5,3.3-1.2
					C659.1,202.9,659.8,202,660.2,201z"/>
			</g>
		</g>
	</g>
</g>
<g>
	<ellipse class="st2" cx="832.5" cy="319.6" rx="40.9" ry="13.8"/>
	<g>
		<g>
			<path class="st16" d="M832.7,231.4v18c-1.7,0-2.9,7.2-4.1,16.7c-0.1,0.9-0.2,1.9-0.3,2.9c-1.1,4-4.8,7-9.2,7
				c-4.1,0-7.6-2.6-8.9-6.2c-0.2-1.6-0.3-3.3-0.5-4.9c-1.1-10.6-2.2-21.6-3.6-31.5v-1.9L832.7,231.4z"/>
			<path class="st16" d="M829.5,268.8c0,0.9,0.1,1.9,0.1,2.9c0.7,18.5,3,47-2.1,47.8c-4,0.6-9.9-22-15.7-44.2
				c-0.4-1.6-0.8-3.2-1.3-4.8c0-4.6,3.4-8.7,8.1-9.4C823.8,260.4,828.6,263.8,829.5,268.8z"/>
			<path class="st16" d="M832.7,231.4v18c1.7,0,2.9,7.2,4.1,16.7c0.1,0.9,0.2,1.9,0.3,2.9c1.1,4,4.8,7,9.2,7c4.1,0,7.6-2.6,8.9-6.2
				c0.2-1.6,0.3-3.3,0.5-4.9c1.1-10.6,2.2-21.6,3.6-31.5v-1.9L832.7,231.4z"/>
			<path class="st16" d="M838.1,271.5c0.6,0.7,1.3,1.4,1.9,2.1c12.5,13.7,30.8,35.6,35,32.6c3.3-2.4-8.4-22.6-19.8-42.5
				c-0.8-1.4-1.6-2.9-2.5-4.3c-3.2-3.3-8.5-3.8-12.4-1C836.3,261.4,835.2,267.3,838.1,271.5z"/>
		</g>
		<path class="st9" d="M923,166.3"/>
		<path class="st3" d="M855.3,161.4c0,0,4.3-2.1,17.1-10.5c1.1-0.7,2.2-1.4,3.3-2.2c3.3-1.2,7.2-0.3,9.6,2.6c2.5,3,2.6,7.1,0.6,10.2
			l0,0c-0.8,0.8-1.6,1.6-2.4,2.4c-10.6,10.8-13.8,14.9-13.8,14.9L855.3,161.4z"/>
		<path class="st3" d="M872.6,156.1c0.1-1.3,0.1-2.6,0.2-3.9c1.1-22.1,0.3-56.9,4.7-57.2c5-0.3,7.9,34.4,11.7,56.5l0,0
			c0.2,1.1,0.4,2.2,0.6,3.3c-0.1,4.4-3.6,8.1-8.1,8.3C877.2,163.4,873.4,160.3,872.6,156.1z"/>
		<path class="st17" d="M855.1,160.1c0.5-0.4,1-0.8,1.5-1.2l15.8,19.2c-0.5,0.4-0.9,0.8-1.4,1.2c-10.8,8.9-23.1,11.8-27.5,6.5
			C839.1,180.5,844.3,169,855.1,160.1z"/>
		<path class="st17" d="M804.5,175l0.1,57.4c8.3,2.5,18,4,28.2,4c10.3,0,19.9-1.5,28.3-4l1.8-53.7l-1.2-9.5L804.5,175z"/>
		<path class="st10" d="M845,177.7c-5.4-9.7-22.1,0.7-22.1,0.7l23.2-19.5c4-2.7,10.3,0.9,9.6,3.7c-0.1,0.4-0.2,0.7-0.4,1.1
			L845,177.7z"/>
		<path class="st10" d="M810.6,172.9c5.5-3.5,12.6,5.5,12.6,5.5l-5.3-17.1c-1.1-2.6-7.4-1.2-7.9,0.5c-0.1,0.2-0.1,0.4-0.1,0.7
			L810.6,172.9z"/>
		<polygon class="st3" points="817.6,123.3 817.6,161.1 822.8,178.4 846.2,161.1 846.3,123.3 		"/>
		<path class="st9" d="M817.8,123.1c0,0,2.9,6.9,13.2,8.5l-8-9.7c0,0,9.5,8.7,13.7,8.4l-1.8-5.3c0,0,11.2,0.3,11.2,9.7
			s0.2,19.3,0.2,19.3s3.7-21,6.1-27.7c4.6-12.9-25.7-42.7-38.2-14.1c0,0-3.6,17.2,3.5,41.8L817.8,123.1z"/>
		<g>
			<path class="st5" d="M830.4,149.5c-0.5,0.8-1.2,1.5-2.1,2.1c-0.8,0.6-1.8,1-2.8,1s-2.1-0.3-2.9-0.9c-0.4-0.3-0.7-0.7-1.1-1
				c-0.3-0.4-0.6-0.8-0.9-1.2c0.4,0.3,0.7,0.7,1.1,1c0.4,0.3,0.7,0.6,1.2,0.8c0.8,0.5,1.7,0.8,2.6,0.8c0.9,0,1.8-0.3,2.6-0.8
				C829,150.8,829.8,150.2,830.4,149.5z"/>
		</g>
	</g>
</g>
<g>
	<path class="st18" d="M861.8,188.4"/>
	<path class="st18" d="M861.6,188.2"/>
	<g>
		<path class="st2" d="M879.5,220.8l3.3-5.2l-8.8-15.8l-7.3,4.1c-0.2,2.5-1.6,4.9-4,6.3c-3.8,2.1-8.6,0.8-10.7-3
			c-2.1-3.8-0.8-8.6,3-10.7c2.4-1.3,9.1-0.4,11.3,0.8l3.4-5l-8.2-14.6l-15.8,8.9L842,180c1.2-2.3,1.2-5-0.1-7.4
			c-2.1-3.8-6.9-5.1-10.7-3s-5.1,6.9-3,10.7c1.3,2.4,3.7,3.8,6.3,4l3.7,6.6l-14.5,8.1l-4,5.3C830.8,220.4,862,230.6,879.5,220.8z"/>
		<path class="st13" d="M874.6,223.5l4.5-2.5l-8.8-15.8l-7.3,4.1c-0.2,2.5-1.6,4.9-4,6.3c-3.8,2.1-8.6,0.8-10.7-3
			c-2.1-3.8-0.8-8.6,3-10.7c2.4-1.3,5.2-1.3,7.4-0.1l7.3-4.1l-8.2-14.6L842,192l-3.7-6.6c1.2-2.3,1.2-5-0.1-7.4
			c-2.1-3.8-6.9-5.1-10.7-3s-5.1,6.9-3,10.7c1.3,2.4,3.7,3.8,6.3,4l3.7,6.6l-14.5,8.1l4.1,7.4C835.2,227.9,857.1,233.3,874.6,223.5z
			"/>
	</g>
</g>
<g>
	<path class="st3" d="M804.5,175c0,0-1,4-5.9,16.1c-0.4,1-0.8,2.1-1.2,3.1c-0.4,3,1,6.1,3.9,7.6s6.4,0.9,8.6-1.3l0,0
		c0.5-0.8,1.1-1.6,1.6-2.4c7.2-10.8,10.1-14.2,10.1-14.2L804.5,175z"/>
	<path class="st17" d="M802,175.3c-0.3,0.5-0.5,1-0.7,1.4l18.8,9.9c0.3-0.5,0.5-0.9,0.8-1.4c5.6-10.6,5.9-21.4,0.7-24.2
		C816.3,158.3,807.6,164.7,802,175.3z"/>
	<path class="st3" d="M800.1,201.6c1,0.5,2,0.9,3.1,1.4c17.2,7.9,43.4,22.2,45.4,19c2.2-3.7-23.1-19.6-38.4-31.2l0,0
		c-0.8-0.6-1.6-1.2-2.3-1.7c-3.4-1.6-7.5-0.4-9.5,2.9C796.4,195.3,797.2,199.4,800.1,201.6z"/>
</g>
<g>
	<path class="st18" d="M647.4,274.2"/>
	<path class="st18" d="M647.5,274.5"/>
	<g>
		<path class="st2" d="M640.5,246.1l-4.1,3.6l3.5,15.4l7.1-1.6c0.8-2.1,2.6-3.7,4.9-4.3c3.7-0.8,7.4,1.5,8.2,5.2s-1.5,7.4-5.2,8.2
			c-2.3,0.5-7.7-1.9-9.3-3.4l-4.1,3.3l3.3,14.2l15.5-3.5l1.5,6.4c-1.5,1.6-2.2,3.9-1.7,6.3c0.8,3.7,4.5,6,8.2,5.2s6-4.5,5.2-8.2
			c-0.5-2.3-2.2-4.1-4.3-4.9l-1.5-6.4l14.2-3.3l4.7-3.5C681.4,258.4,657.6,242.2,640.5,246.1z"/>
		<path class="st13" d="M645.3,245l-4.4,1l3.5,15.4l7.1-1.6c0.8-2.1,2.6-3.7,4.9-4.3c3.7-0.8,7.4,1.5,8.2,5.2s-1.5,7.4-5.2,8.2
			c-2.3,0.5-4.7-0.2-6.3-1.7l-7.1,1.6l3.3,14.2l15.5-3.5l1.5,6.4c-1.5,1.6-2.2,3.9-1.7,6.3c0.8,3.7,4.5,6,8.2,5.2s6-4.5,5.2-8.2
			c-0.5-2.3-2.2-4.1-4.3-4.9l-1.5-6.4l14.2-3.3l-1.7-7.2C679.5,251,662.4,241.1,645.3,245z"/>
	</g>
</g>
<g>
	<path class="st3" d="M697.1,250.6c-1.2,0.2-2.4,0.3-3.6,0.5c-20.2,3-52.5,5.5-52.3,9.5c0.2,4.6,32.5,4.1,53.2,5.6l0,0
		c1.1,0.1,2.1,0.1,3.1,0.2c4-0.5,7.1-4.1,6.9-8.2C704.2,254.1,701,250.9,697.1,250.6z"/>
</g>
<path class="st19" d="M528.3,337.6c-0.4,1.5-0.7,3.1-1,4.7c-11.4,53.4-57.4,44.7-57.4,44.7l-4.9-2.7l15.7-19.1l21.6-26.3l0.3-0.4
	l0,0L528.3,337.6z"/>
<path class="st17" d="M503.3,338.7c-4.2,37.8-20.2,46.1-28.5,47.9c-3,0.6-5,0.4-5,0.4l-4.9-2.7l-41.3-23.5
	c-35-18.7-36.4-88.9-36.4-88.9l0.2,0.1c0.1,0.3,0.1,0.7,0.1,1L493,333.4l9.4,5.4l0.3,0.2c0-0.2,0-0.4,0-0.6L503.3,338.7z"/>
<g>
	<g id="XMLID_535_">
		<g id="XMLID_536_">
			<g id="XMLID_537_" class="st20">
				<g id="XMLID_542_">
					<polygon id="XMLID_543_" class="st2" points="164.8,426.5 164.8,430.3 143.4,442.7 143.4,438.9 					"/>
				</g>
				<g id="XMLID_540_">
					<polygon id="XMLID_541_" class="st14" points="143.4,438.9 143.4,442.7 121.9,430.3 121.9,426.5 					"/>
				</g>
				<g id="XMLID_538_">
					<polygon id="XMLID_539_" class="st10" points="164.8,426.5 143.4,438.9 121.9,426.5 143.3,414 					"/>
				</g>
			</g>
		</g>
	</g>
	<g id="XMLID_532_">
		<polygon id="XMLID_534_" class="st2" points="143.9,400.2 143.9,432.8 155.5,426.1 		"/>
		<polygon id="XMLID_533_" class="st14" points="143.9,400.2 143.9,432.8 132.3,426.1 		"/>
	</g>
</g>
<g>
	<g id="XMLID_504_">
		<g id="XMLID_530_">
			<path id="XMLID_531_" class="st10" d="M745.8,238c-4,2.3-4,6.1,0,8.4s10.5,2.3,14.5,0s4-6.1,0-8.4
				C756.3,235.7,749.8,235.7,745.8,238z"/>
		</g>
		<g id="XMLID_505_">
			<g id="XMLID_522_">
				<g id="XMLID_523_" class="st20">
					<g id="XMLID_528_">
						<polygon id="XMLID_529_" class="st14" points="755.3,223.6 755.2,243.7 752.9,245 753,224.9 						"/>
					</g>
					<g id="XMLID_526_">
						<polygon id="XMLID_527_" class="st14" points="753,224.9 752.9,245 750.6,243.7 750.7,223.6 						"/>
					</g>
					<g id="XMLID_524_">
						<polygon id="XMLID_525_" class="st21" points="755.3,223.6 753,224.9 750.7,223.6 753,222.2 						"/>
					</g>
				</g>
			</g>
			<g id="XMLID_506_">
				<g id="XMLID_519_">
					<polygon id="XMLID_521_" class="st14" points="753,212.5 753,237.8 762.7,234.2 					"/>
					<polygon id="XMLID_520_" class="st13" points="753,212.5 753,237.8 743.3,234.2 					"/>
				</g>
				<polygon id="XMLID_518_" class="st22" points="760.5,229.3 753,233.6 744.6,231.1 746.7,226.5 				"/>
				<g id="XMLID_515_">
					<polygon id="XMLID_517_" class="st14" points="753,200.6 753,232.2 765,227.6 					"/>
					<polygon id="XMLID_516_" class="st13" points="753,200.6 753,232.2 740.9,227.6 					"/>
				</g>
				<polygon id="XMLID_514_" class="st22" points="759.5,215.2 753,217.7 746.4,215.2 745.7,216.9 753,219.9 				"/>
				<g id="XMLID_511_">
					<polygon id="XMLID_513_" class="st14" points="753,192.4 753,217.7 762.7,214 					"/>
					<polygon id="XMLID_512_" class="st13" points="753,192.4 753,217.7 743.3,214 					"/>
				</g>
				<polygon id="XMLID_510_" class="st22" points="757.6,202.6 753,205.8 747.7,204.2 749.7,199.6 				"/>
				<g id="XMLID_507_">
					<polygon id="XMLID_509_" class="st14" points="753,189.4 753,204.4 758.7,202.2 					"/>
					<polygon id="XMLID_508_" class="st13" points="753,189.4 753,204.4 747.2,202.2 					"/>
				</g>
			</g>
		</g>
	</g>
</g>
<g>
	<g id="XMLID_476_">
		<g id="XMLID_502_">
			<path id="XMLID_503_" class="st10" d="M119.1,241.5c-4,2.3-4,6.1,0,8.4s10.5,2.3,14.5,0s4-6.1,0-8.4
				C129.6,239.2,123.1,239.2,119.1,241.5z"/>
		</g>
		<g id="XMLID_477_">
			<g id="XMLID_494_">
				<g id="XMLID_495_" class="st20">
					<g id="XMLID_500_">
						<polygon id="XMLID_501_" class="st14" points="128.6,227 128.5,247.1 126.2,248.4 126.3,228.4 						"/>
					</g>
					<g id="XMLID_498_">
						<polygon id="XMLID_499_" class="st14" points="126.3,228.4 126.2,248.4 124,247.1 124,227 						"/>
					</g>
					<g id="XMLID_496_">
						<polygon id="XMLID_497_" class="st21" points="128.6,227 126.3,228.4 124,227 126.3,225.7 						"/>
					</g>
				</g>
			</g>
			<g id="XMLID_478_">
				<g id="XMLID_491_">
					<polygon id="XMLID_493_" class="st14" points="126.3,216 126.3,241.3 136,237.6 					"/>
					<polygon id="XMLID_492_" class="st13" points="126.3,216 126.3,241.3 116.6,237.6 					"/>
				</g>
				<polygon id="XMLID_490_" class="st22" points="133.8,232.8 126.3,237.1 118,234.6 120,230 				"/>
				<g id="XMLID_487_">
					<polygon id="XMLID_489_" class="st14" points="126.3,204.1 126.3,235.6 138.4,231 					"/>
					<polygon id="XMLID_488_" class="st13" points="126.3,204.1 126.3,235.6 114.2,231 					"/>
				</g>
				<polygon id="XMLID_486_" class="st22" points="132.8,218.7 126.3,221.2 119.7,218.7 119,220.3 126.3,223.4 				"/>
				<g id="XMLID_483_">
					<polygon id="XMLID_485_" class="st14" points="126.3,195.9 126.3,221.2 136,217.5 					"/>
					<polygon id="XMLID_484_" class="st13" points="126.3,195.9 126.3,221.2 116.6,217.5 					"/>
				</g>
				<polygon id="XMLID_482_" class="st22" points="130.9,206.1 126.3,209.3 121,207.7 123,203.1 				"/>
				<g id="XMLID_479_">
					<polygon id="XMLID_481_" class="st14" points="126.3,192.8 126.3,207.8 132,205.7 					"/>
					<polygon id="XMLID_480_" class="st13" points="126.3,192.8 126.3,207.8 120.5,205.7 					"/>
				</g>
			</g>
		</g>
	</g>
</g>
<g>
	<ellipse class="st2" cx="403.2" cy="387.3" rx="45" ry="15.2"/>
	<g>
		<path class="st23" d="M376.1,294.3"/>
		<path class="st6" d="M362.5,329.7C362.5,329.8,362.5,329.8,362.5,329.7c-0.4,2.8-1.6,5.3-3.6,7.2c-0.2,0.2-0.4,0.4-0.5,0.5
			c-0.4,0.4-0.8,0.7-1.3,0.9c-1.1,0.5-2.2,1-3.3,1.5c-0.3,0.1-0.6,0.3-1,0.4c-21.1,9.9-51.3,25.3-54.7,19.8
			c-2.6-4.3,18.8-20.8,41.1-38c0.5-0.4,1.1-0.8,1.6-1.3c1.7-1.3,3.3-2.5,5-3.8c5.4-2.2,11.7-0.3,14.9,4.8
			C362.3,324.4,362.9,327.1,362.5,329.7z"/>
		<path class="st6" d="M403,332.2c0.3,1.2,0.5,2.3,0.8,3.6c5.1,22.8,14.1,56.6,8,58.7c-4.9,1.7-16.9-24-29.2-50.1
			c-0.9-1.9-1.8-3.8-2.7-5.7c-1-5.7,2.2-11.5,7.9-13.5C393.9,322.9,400.7,326.1,403,332.2z"/>
		<g>
			<path class="st6" d="M371,286.9l15.6-5.2c0,0,11.6,36.3,15.3,47.8c0.1,0.3,0.2,0.7,0.3,1c0.3,0.8,0.5,1.6,0.8,2.4
				c0.9,5.2-1.8,10.6-6.8,12.9c-4.7,2.2-10,1.1-13.5-2.3c-0.8-1.4-1.7-2.8-2.5-4.2c0,0,0,0,0-0.1c-0.2-0.4-0.4-0.7-0.7-1.1
				c-4-6.7-17.1-26.7-21.2-33.3"/>
			<path class="st6" d="M376.1,293.6c-1.9,5-5.5,14.8-8.7,23.6c-1.8,4.9-3.5,9.5-4.8,12.9c0.3-2.6-0.2-5.4-1.7-7.8
				c-3.2-5.1-9.5-7-14.9-4.8c-1.7,1.3-3.3,2.6-5,3.8c-0.5,0.4-1.1,0.8-1.6,1.3c1.5-11.4,3.1-23.1,4.3-34.1"/>
			<path class="st9" d="M397,249.5h-0.5c-0.4,5.9-1.2,13.2-2.7,17.5c-1.8,7.6-4,14.6-5.8,20.8c-0.3,1.1-0.6,2.2-0.9,3.2
				c-8.8,5.3-31.1,3.6-36,1.8c-3.8-1.4-6.3-2.9-7.5-3.5c-0.1-0.1-0.2-0.1-0.3-0.1c0.7-6.6,0.9-18.7-3.3-34c-0.1-0.4-0.2-0.8-0.3-1.2
				c-0.8-2.7-1.4-5.3-1.9-8c-1.1-5.8-1.6-11.4-1.5-16.7c0-0.8,0-1.6,0.1-2.4c2.1-25.1,12.5-27.1,13.4-27.5l0,0l23.2,13.8l0.1-0.1
				l16,10.8v-11.2l2.9-5.4C397.9,221.3,398.7,235.8,397,249.5z"/>
			<path class="st3" d="M386.4,158.4v40.7l-8,5.2l-23.1-9.8V194c-13.1-43.2,20.5-35.3,20.5-35.3C376.5,164,381.5,163.7,386.4,158.4z
				"/>
			<polygon class="st3" points="388.9,212.7 388.9,223.9 373,213 380.4,204.4 			"/>
			<polygon class="st10" points="393,204.9 391.8,207.2 388.9,212.7 380.4,204.4 388.9,198.8 			"/>
			<path class="st10" d="M380.4,204.4l-7.4,8.7l-0.1,0.1l-23.2-13.9l2.7-6c0.7,0,1.5,0.1,2.2,0.1l1.2,0.5L380.4,204.4z"/>
			<path class="st23" d="M358.9,165.3"/>
			<g>
				<path d="M374,187.5c0.8,0.8,1.6,1.5,2.6,2.1c0.9,0.5,2,0.9,3,0.9c1.1,0,2.1-0.3,3-0.9c0.5-0.2,0.9-0.7,1.3-1l1.2-1.2
					c-0.3,0.5-0.7,0.9-1,1.3c-0.4,0.4-0.8,0.8-1.3,1.1c-0.9,0.7-2.1,1.1-3.3,1.1c-1.2,0-2.3-0.5-3.2-1.1
					C375.5,189.3,374.6,188.5,374,187.5z"/>
			</g>
			<path class="st23" d="M352.4,193.3"/>
			<path class="st23" d="M352.4,193.3"/>
			<path class="st9" d="M355.8,195c0,0-17.3-35.6-2.5-35.7c0,0-10.2-21.9,54.8-15.8c0,0,12.2-0.3,15-10c0,0,2.6,30.8-18.9,38.8
				c-11.7,4.4-20.2-3.1-23.9-4.8c-4.4-2-24.6-6.3-24.6,0.5C355.6,177.5,355.8,195,355.8,195z"/>
			<g>
				<path class="st18" d="M387.3,232"/>
				<path class="st18" d="M387.5,231.7"/>
				<g>
					<path class="st24" d="M387.4,275.1l4.5,2.6l12.9-8.2l-3.8-5.9c-2.1-0.1-4.2-1.1-5.5-3.1c-2-3.1-1-7.2,2.1-9.2s7.2-1,9.2,2.1
						c1.2,2,0.8,7.6-0.1,9.6l4.3,2.6l11.9-7.5l-8.2-12.9l5.4-3.4c2,0.9,4.3,0.8,6.3-0.5c3.1-2,4-6.1,2.1-9.2c-2-3.1-6.1-4-9.2-2.1
						c-2,1.2-3,3.3-3.1,5.5l-5.4,3.4l-7.5-11.9l-4.6-3.1C385.5,233.9,378.3,260.8,387.4,275.1z"/>
					<path class="st7" d="M384.9,271.1l2.3,3.7l12.9-8.2l-3.8-5.9c-2.1-0.1-4.2-1.1-5.5-3.1c-2-3.1-1-7.2,2.1-9.2s7.2-1,9.2,2.1
						c1.2,2,1.3,4.3,0.5,6.3l3.8,5.9l11.9-7.5l-8.2-12.9l5.4-3.4c2,0.9,4.3,0.8,6.3-0.5c3.1-2,4-6.1,2.1-9.2c-2-3.1-6.1-4-9.2-2.1
						c-2,1.2-3,3.3-3.1,5.5l-5.4,3.4l-7.5-11.9l-6,3.8C379.4,238,375.8,256.8,384.9,271.1z"/>
				</g>
			</g>
			<g>
				<path class="st3" d="M370.3,257.7c-0.5,3.7-3.2,6.8-7,7.6c-2.8,0.6-5.5-0.1-7.6-1.8c-0.9-0.7-1.6-1.6-2.2-2.6
					c-0.4-1.1-0.7-2.2-1.1-3.4c-3.1-9.5-5.2-14.9-6.2-17.7l22.2-4.7c0.1,2.4,0.4,6.9,1.1,14.2c0.1,1.3,0.3,2.7,0.4,4.2
					C370,254.9,370.2,256.3,370.3,257.7z"/>
				<path class="st9" d="M370,234.9l-1.6,0.3l-22.2,4.7l-1.6,0.4c-0.2-0.6-0.3-1.3-0.4-1.9c-2.5-11.9-0.8-22.7,3.9-26.9
					c1-0.9,2.1-1.5,3.3-1.7c0.3,0,0.6-0.1,0.9-0.1c4.8-0.4,10.1,4.6,13.9,12.6c1.5,3.2,2.7,6.8,3.5,10.7
					C369.8,233.6,369.9,234.2,370,234.9z"/>
			</g>
			<path class="st3" d="M425.6,252.8c0.3,3.3-14.1,6-30.5,8.7c-9.8,1.6-20.3,3.2-28.8,4.8l0,0c-1.2,0.2-2.3,0.4-3.5,0.7
				c-2.8,0-5.4-1.4-7-3.5c-1-1.3-1.7-3-1.9-4.8c-0.4-4.6,2.7-8.7,7.1-9.6c1.4,0,2.7,0.1,4.1,0.1s2.9,0.1,4.4,0.1
				c8.6,0.1,18.5,0,27.6,0.1C412.4,249.6,425.4,250.1,425.6,252.8z"/>
		</g>
	</g>
</g>
</svg>
